<?xml version="1.0" encoding="UTF-8" standalone="no"?>
<!-- Created with Inkscape (http://www.inkscape.org/) -->

<svg
   width="210mm"
   height="210mm"
   viewBox="0 0 210 210"
   version="1.1"
   id="svg5"
   inkscape:version="1.1.1 (3bf5ae0d25, 2021-09-20)"
   sodipodi:docname="95-Sankofa.svg"
   xmlns:inkscape="http://www.inkscape.org/namespaces/inkscape"
   xmlns:sodipodi="http://sodipodi.sourceforge.net/DTD/sodipodi-0.dtd"
   xmlns="http://www.w3.org/2000/svg"
   xmlns:svg="http://www.w3.org/2000/svg">
  <sodipodi:namedview
     id="namedview7"
     pagecolor="#ffffff"
     bordercolor="#666666"
     borderopacity="1.0"
     inkscape:showpageshadow="2"
     inkscape:pageopacity="0.0"
     inkscape:pagecheckerboard="0"
     inkscape:deskcolor="#d1d1d1"
     inkscape:document-units="mm"
     showgrid="false"
     inkscape:zoom="0.26048859"
     inkscape:cx="769.70742"
     inkscape:cy="389.65238"
     inkscape:window-width="1366"
     inkscape:window-height="705"
     inkscape:window-x="-8"
     inkscape:window-y="-8"
     inkscape:window-maximized="1"
     inkscape:current-layer="g9656"
     inkscape:pageshadow="2" />
  <defs
     id="defs2" />
  <g
     inkscape:label="Camada 1"
     inkscape:groupmode="layer"
     id="layer1">
    <g
       id="g9656"
       style="display:inline"
       transform="translate(144.68706,-163.41509)">
      <path
         style="display:inline;fill:#000000;stroke-width:2.68461"
         d="m -41.300429,365.65178 c -0.72751,-2.30845 -1.833589,-5.86421 -2.457503,-7.90165 -0.859415,-2.80512 -3.791676,-3.21849 -12.080724,-1.7028 -12.882913,2.35573 -13.546094,1.02582 -3.563886,-7.14725 l 7.382755,-6.04473 -14.968645,-0.10146 c -12.177928,-0.0812 -16.07655,-1.27604 -20.912107,-6.42319 -14.141191,-15.05266 -7.927119,-37.52217 10.37691,-37.52217 9.642805,0 18.792284,8.34871 18.792284,17.14773 0,7.20823 -10.32425,13.68865 -16.522696,10.37122 -6.624298,-3.54531 -6.289258,-7.83184 0.611839,-7.83184 7.556566,0 5.767825,-9.11102 -2.007096,-10.2238 -3.919523,-0.5611 -6.347499,0.95277 -7.536272,4.69807 -4.522434,14.24915 9.649907,25.57041 21.933868,17.52143 15.719492,-10.2998 11.612358,-21.31158 -18.992577,-50.92256 -28.293951,-27.37507 -37.187831,-38.64133 -41.749231,-52.88591 -6.7419,-21.05416 6.62612,-42.2454 31.145545,-49.37338 16.338535,-4.74961 29.140174,-2.42574 44.661807,8.10763 8.047458,5.46099 10.097169,5.91018 12.69368,2.78148 1.703104,-2.05214 9.854665,-6.25942 18.114694,-9.34997 13.2577281,-4.96036 16.56764492,-5.24731 28.234998,-2.44837 25.914879,6.21681 40.956985,28.55837 33.880657,50.32208 -4.829164,14.85287 -16.713654,30.01024 -40.335812,51.44337 -23.202597,21.05305 -30.550955,32.03023 -28.066869,41.92761 2.368619,9.43744 12.574458,15.277 21.0607551,12.05069 12.1726529,-4.62826 13.1039059,-25.59597 1.05991202,-23.87217 -7.77492052,1.11278 -9.56366212,10.2238 -2.00699412,10.2238 6.9010969,0 7.236137,4.28653 0.611839,7.83184 -6.1985475,3.31743 -16.522797,-3.16299 -16.522797,-10.37122 0,-8.79902 9.1494782,-17.14773 18.79238462,-17.14773 18.30392838,0 24.51799938,22.46951 10.37680838,37.52217 -4.8355566,5.14715 -8.7340766,6.34455 -20.912107,6.42319 l -14.968645,0.10146 7.382756,6.04473 c 9.939795,8.13837 9.317708,9.50298 -3.282217,7.1988 -11.735233,-2.1458 -13.49668,-1.40916 -13.49668,5.64464 0,6.31158 -5.048432,9.24293 -6.730533,3.90826 z M 23.327418,242.96296 c 11.601298,-15.64573 13.774291,-25.74949 8.106004,-37.69446 -8.626016,-18.1775 -32.5998548,-24.00691 -50.134165,-12.19061 -16.542582,11.14815 -17.349337,29.95606 -1.702901,39.70256 15.432547,9.61338 35.510301,0.0609 33.619485,-16.00166 -1.052911,-8.94188 -13.46735643,-16.35356 -20.2452738,-12.08641 -6.1294492,3.85915 -7.9845492,12.43545 -2.442181,11.29233 3.8664569,-0.79752 4.4326362,-0.0812 4.4326362,5.58265 0,5.08354 -8.4192284,5.29114 -13.3804004,0.32977 -4.301339,-4.30134 -4.733584,-6.55672 -2.490276,-12.99219 5.285152,-15.16062 25.2299858,-18.37333 37.554025,-6.04929 10.918637,10.91833 10.504656,21.54728 -1.342596,34.47474 -8.2189345,8.96856 -10.5805517,10.02786 -22.3569801,10.02786 -10.0849929,0 -15.3358499,-1.65399 -22.4317609,-7.06638 l -9.264642,-7.06649 -7.976229,6.38423 c -15.950732,12.76674 -35.073997,10.83199 -48.300067,-4.88619 -9.113456,-10.83086 -8.697046,-21.98064 1.190092,-31.86777 12.32404,-12.32404 32.268873,-9.11133 37.554025,6.04929 2.243308,6.43547 1.811064,8.69085 -2.490276,12.99219 -4.961171,4.96117 -13.3804,4.75357 -13.3804,-0.32977 0,-1.31844 0,-3.29084 0.03044,-4.38261 0,-1.09187 1.522799,-2.11576 3.355779,-2.27547 7.619475,-0.6646 7.972779,-1.35092 3.33295,-6.47778 -5.839257,-6.45242 -11.529359,-6.79903 -19.537245,-1.1901 -11.623621,8.14172 -4.432028,26.60029 11.483395,29.47471 10.43089,1.88382 24.725599,-6.79902 27.159764,-16.49753 5.913428,-23.56097 -27.011827,-42.3772 -50.192406,-28.68378 -7.509684,4.43578 -15.955704,17.96036 -15.835164,25.35621 0.18264,11.14896 13.379285,29.64973 42.028162,58.91583 l 31.460495,32.13808 26.485929,-26.26636 c 14.567449,-14.4464 30.640245,-31.86849 35.717392,-38.7156 z"
         id="path5879" />
    </g>
  </g>
</svg>
