<?xml version="1.0" encoding="UTF-8" standalone="no"?>
<!-- Created with Inkscape (http://www.inkscape.org/) -->

<svg
   width="210mm"
   height="210mm"
   viewBox="0 0 210 210"
   version="1.1"
   id="svg5"
   inkscape:version="1.1.1 (3bf5ae0d25, 2021-09-20)"
   sodipodi:docname="96-Sankofa.svg"
   xmlns:inkscape="http://www.inkscape.org/namespaces/inkscape"
   xmlns:sodipodi="http://sodipodi.sourceforge.net/DTD/sodipodi-0.dtd"
   xmlns="http://www.w3.org/2000/svg"
   xmlns:svg="http://www.w3.org/2000/svg">
  <sodipodi:namedview
     id="namedview7"
     pagecolor="#ffffff"
     bordercolor="#666666"
     borderopacity="1.0"
     inkscape:showpageshadow="2"
     inkscape:pageopacity="0.0"
     inkscape:pagecheckerboard="0"
     inkscape:deskcolor="#d1d1d1"
     inkscape:document-units="mm"
     showgrid="false"
     inkscape:zoom="0.26048859"
     inkscape:cx="769.70742"
     inkscape:cy="389.65238"
     inkscape:window-width="1366"
     inkscape:window-height="705"
     inkscape:window-x="-8"
     inkscape:window-y="-8"
     inkscape:window-maximized="1"
     inkscape:current-layer="g9656"
     inkscape:pageshadow="2" />
  <defs
     id="defs2" />
  <g
     inkscape:label="Camada 1"
     inkscape:groupmode="layer"
     id="layer1">
    <g
       id="g9656"
       style="display:inline"
       transform="translate(144.68706,-163.41509)">
      <path
         style="display:inline;fill:#000000;stroke-width:2.24416"
         d="m -9.9275113,363.82884 c 0.9712607,-4.84494 -0.8117157,-10.68675 -6.9100217,-22.64052 l -8.219031,-16.11058 -16.50244,-0.72096 -16.502694,-0.72096 -8.236758,15.69386 c -4.530344,8.63151 -8.100539,16.20557 -7.934294,16.83128 0.166245,0.62512 0.988818,3.39988 1.827676,6.16515 1.512066,4.98565 1.468554,4.99549 -5.180226,1.17974 -6.392542,-3.66892 -6.921897,-3.6517 -11.365132,0.36981 -3.64203,3.29606 -4.660197,3.50404 -4.660197,0.95226 0,-1.79604 1.262274,-4.61448 2.805209,-6.26353 2.299354,-2.4578 1.894938,-2.77892 -2.244222,-1.7812 -2.777122,0.67007 -5.04932,0.40968 -5.04932,-0.57676 0,-2.3209 5.781647,-4.51321 11.965449,-4.53722 3.707771,-0.0254 6.735125,-3.56782 12.720367,-14.93024 5.253086,-9.97283 6.965663,-15.21785 5.170303,-15.83703 -1.476442,-0.50891 -8.641345,-4.77581 -15.922534,-9.48182 -22.395613,-14.4751 -27.398563,-25.35328 -27.398563,-59.57387 0,-20.98291 0.56235,-23.99593 6.81486,-36.50807 14.466059,-28.9491 39.501953,-45.42261 69.037233,-45.42575 25.605199,0 34.5446768,6.69373 42.9250333,32.15559 2.774255,8.4293 4.6312797,15.73898 4.1263527,16.24366 -0.504672,0.50467 -4.3076954,-1.58281 -8.4506721,-4.63934 -4.1428916,-3.05653 -10.7881061,-6.16828 -14.7672109,-6.91469 -3.978937,-0.7464 -10.035257,-4.28055 -13.458292,-7.85329 -11.395242,-11.89432 -29.425524,-10.69455 -45.017518,2.99529 -10.390733,9.1232 -14.279847,17.26929 -14.279847,29.91027 0,30.45895 32.320731,44.76145 66.204249,29.29643 7.405025,-3.37995 17.86326887,-10.38599 23.2407838,-15.56893 l 9.7771562,-9.42388 -0.910955,8.41564 c -1.044206,9.64611 0.541992,10.55494 5.873877,3.36621 3.687839,-4.97234 3.727789,-4.91721 2.617171,3.62431 -1.104087,8.48858 -1.034281,8.58892 3.26103,4.70159 4.260535,-3.85569 4.388442,-3.78122 4.367153,2.54711 -0.05089,16.08479 -23.0128004,48.3386 -41.491684,58.29014 -4.337551,2.336 -7.627759,4.79133 -7.3113,5.45623 0.316374,0.66498 4.484033,8.34253 9.2611997,17.06131 7.6842443,14.0242 9.43965514,15.8523 15.2228585,15.8523 3.5956408,0 7.7659308,1.29154 9.2674798,2.87027 2.191466,2.30394 1.733868,2.56942 -2.318864,1.34498 -5.4755668,-1.65423 -6.6359735,0.78118 -2.393844,5.02314 4.313974,4.31388 0.43088,5.6301 -5.3786173,1.82335 -4.87877996,-3.19657 -5.8267154,-3.18062 -10.6236431,0.17981 -5.2102496,3.64942 -5.2529136,3.61888 -3.9575609,-2.84117 z"
         id="path5873" />
    </g>
  </g>
</svg>
