<?xml version="1.0" encoding="UTF-8" standalone="no"?>
<!-- Created with Inkscape (http://www.inkscape.org/) -->

<svg
   width="210mm"
   height="210mm"
   viewBox="0 0 210 210"
   version="1.1"
   id="svg5"
   inkscape:version="1.2 (dc2aedaf03, 2022-05-15)"
   sodipodi:docname="01-Aban.svg"
   xmlns:inkscape="http://www.inkscape.org/namespaces/inkscape"
   xmlns:sodipodi="http://sodipodi.sourceforge.net/DTD/sodipodi-0.dtd"
   xmlns="http://www.w3.org/2000/svg"
   xmlns:svg="http://www.w3.org/2000/svg">
  <sodipodi:namedview
     id="namedview7"
     pagecolor="#ffffff"
     bordercolor="#666666"
     borderopacity="1.0"
     inkscape:showpageshadow="2"
     inkscape:pageopacity="0.0"
     inkscape:pagecheckerboard="0"
     inkscape:deskcolor="#d1d1d1"
     inkscape:document-units="mm"
     showgrid="false"
     inkscape:zoom="0.736773"
     inkscape:cx="393.60834"
     inkscape:cy="377.99974"
     inkscape:window-width="1920"
     inkscape:window-height="1002"
     inkscape:window-x="-8"
     inkscape:window-y="-8"
     inkscape:window-maximized="1"
     inkscape:current-layer="layer1" />
  <defs
     id="defs2" />
  <g
     inkscape:label="Camada 1"
     inkscape:groupmode="layer"
     id="layer1">
    <path
       style="display:inline;fill:#000000;stroke-width:0.264583"
       d="m 15.855637,188.63613 -8.4859917,-9.46955 7.9274697,-6.04665 c 9.443543,-7.20287 9.770213,-9.70824 2.193983,-16.82583 l -5.733655,-5.38638 5.175133,-4.14041 c 2.84631,-2.27715 14.025958,-12.77458 24.843559,-23.32757 L 61.44456,104.25258 37.859555,80.594288 14.274635,56.935911 20.339097,50.871448 26.403475,44.807071 19.22923,37.40511 c -3.945878,-4.071091 -7.174246,-8.406709 -7.174246,-9.634698 0,-1.227989 3.895724,-6.036853 8.657306,-10.686392 l 8.657305,-8.4536543 7.526921,8.9654853 7.527005,8.965485 7.205317,-5.495808 7.205317,-5.495724 23.337448,24.077585 23.337447,24.07767 21.47174,-21.021291 21.47174,-21.021291 6.65676,6.377623 6.65684,6.377623 8.954,-8.743342 8.95409,-8.743427 9.36789,9.367891 9.36789,9.367891 -9.5425,8.168018 -9.54241,8.167934 6.27233,6.546995 6.27242,6.546911 -21.92784,20.526768 -21.92776,20.526688 21.33994,21.14025 21.34002,21.14026 -5.98205,6.24388 -5.98206,6.24397 8.2598,8.4588 8.25971,8.45872 -8.47696,8.27753 c -4.66229,4.55269 -9.39195,8.27753 -10.51035,8.27753 -1.11839,0 -5.36426,-3.22837 -9.43535,-7.17425 l -7.40196,-7.17424 -6.06269,6.06268 -6.06269,6.06269 -21.7865,-21.70477 -21.78651,-21.70477 -8.417176,7.70017 c -4.629444,4.23506 -15.685905,14.70919 -24.569912,23.27582 l -16.152818,15.57572 -6.333634,-6.06801 -6.333549,-6.06801 -5.437971,5.81361 c -9.321707,9.96559 -11.395796,9.92827 -20.625893,-0.3715 z m 64.288906,-45.97808 23.787897,-22.71163 20.56316,20.47771 c 11.30976,11.26273 21.49462,20.47763 22.63294,20.47763 1.13841,0 4.91229,-2.72329 8.38662,-6.05188 l 6.31683,-6.05196 -21.83227,-21.93781 c -14.67229,-14.74322 -20.94429,-22.49194 -19.12468,-23.62731 1.48922,-0.92918 11.3285,-10.104058 21.86511,-20.388635 l 19.15753,-18.699138 -6.08693,-6.353391 c -3.34784,-3.494331 -6.65279,-6.31261 -7.34446,-6.262879 -0.6915,0.05066 -10.80764,9.056166 -22.47995,20.014346 L 104.76376,91.467107 80.801261,67.633617 56.838757,43.800126 l -6.807301,6.521834 -6.807301,6.521835 24.06796,24.154756 24.06796,24.154669 -25.250018,23.71934 -25.250102,23.71925 6.121033,6.38894 c 3.3665,3.51392 6.853232,6.38894 7.748303,6.38894 0.895071,0 12.331985,-10.22024 25.415252,-22.71164 z"
       id="path8081" />
  </g>
</svg>
