<?xml version="1.0" encoding="UTF-8" standalone="no"?>
<!-- Created with Inkscape (http://www.inkscape.org/) -->

<svg
   width="210mm"
   height="210mm"
   viewBox="0 0 210 210"
   version="1.1"
   id="svg5"
   inkscape:version="1.2 (dc2aedaf03, 2022-05-15)"
   sodipodi:docname="02-Abe_dua.svg"
   xmlns:inkscape="http://www.inkscape.org/namespaces/inkscape"
   xmlns:sodipodi="http://sodipodi.sourceforge.net/DTD/sodipodi-0.dtd"
   xmlns="http://www.w3.org/2000/svg"
   xmlns:svg="http://www.w3.org/2000/svg">
  <sodipodi:namedview
     id="namedview7"
     pagecolor="#ffffff"
     bordercolor="#666666"
     borderopacity="1.0"
     inkscape:showpageshadow="2"
     inkscape:pageopacity="0.0"
     inkscape:pagecheckerboard="0"
     inkscape:deskcolor="#d1d1d1"
     inkscape:document-units="mm"
     showgrid="false"
     inkscape:zoom="0.736773"
     inkscape:cx="393.60834"
     inkscape:cy="377.99974"
     inkscape:window-width="1920"
     inkscape:window-height="1002"
     inkscape:window-x="-8"
     inkscape:window-y="-8"
     inkscape:window-maximized="1"
     inkscape:current-layer="layer1" />
  <defs
     id="defs2" />
  <g
     inkscape:label="Camada 1"
     inkscape:groupmode="layer"
     id="layer1">
    <path
       style="display:inline;fill:#000000;stroke-width:0.264583"
       d="m 94.236845,203.90716 c -2.477246,-1.57111 -2.195948,-3.58101 1.403624,-10.031 2.475903,-4.43639 6.476121,-14.15694 8.889281,-21.60122 3.9551,-12.20064 4.14168,-16.5853 1.89237,-44.47423 -2.55148,-31.635265 -4.1347,-37.46871 -8.198224,-30.207585 -3.274227,5.850655 -6.472892,5.112675 -8.232838,-1.899467 -0.831717,-3.313816 -2.71745,-5.628694 -4.190548,-5.144212 -3.670837,1.207387 -4.847954,11.131404 -1.694412,14.285014 4.21678,4.21671 2.936706,8.12232 -3.163927,9.65347 -3.860458,0.96892 -6.225884,3.68225 -7.241582,8.30658 -0.877376,3.9941 -3.434034,7.37123 -6.11057,8.07118 -2.593633,0.67826 -4.602289,3.24139 -4.602289,5.87276 0,2.56807 -1.598885,5.99623 -3.553107,7.6181 -1.954223,1.62187 -3.553197,4.95022 -3.553197,7.39633 0,5.82604 -3.929394,5.67719 -7.656007,-0.28998 -1.627265,-2.60565 -4.720108,-4.73754 -6.872993,-4.73754 -5.176971,0 -7.729781,-6.89432 -3.196785,-8.63378 1.932288,-0.74147 3.513177,-2.83302 3.513177,-4.64788 0,-1.81483 2.131936,-3.29971 4.737566,-3.29971 3.474233,0 4.737566,-1.57919 4.737566,-5.92193 0,-4.34272 1.263333,-5.92191 4.737476,-5.92191 3.438064,0 4.737566,-1.57919 4.737566,-5.75718 0,-4.16659 1.472471,-5.96662 5.329705,-6.51525 3.625088,-0.51559 5.199621,-2.2328 4.922979,-5.36892 -0.22382,-2.535955 1.373542,-5.912611 3.549437,-7.503662 2.175894,-1.591078 3.071266,-3.777778 1.989675,-4.859387 -1.08159,-1.081581 -3.427051,0.03133 -5.212244,2.472215 -1.817602,2.485788 -4.805697,3.840081 -6.791344,3.078098 -2.206781,-0.846848 -4.098961,0.382733 -5.010985,3.256061 -0.805754,2.539148 -2.203737,4.616645 -3.106451,4.616645 -0.902623,0 -4.731388,2.86547 -8.508405,6.36774 -8.947184,8.29626 -21.168327,9.06052 -22.258423,1.39194 -0.833508,-5.86168 6.215408,-17.04465 10.816177,-17.160311 1.628518,-0.04118 2.960967,-1.673346 2.960967,-3.627586 0,-1.992272 2.113851,-3.553152 4.811874,-3.553152 2.646545,0 5.437677,-1.630676 6.202427,-3.623736 0.915426,-2.385542 3.014595,-3.108322 6.143338,-2.115284 2.857652,0.906993 5.579311,0.226686 6.825812,-1.705987 1.719032,-2.665676 2.471248,-2.60785 4.405506,0.338685 1.400222,2.1331 2.346983,2.42823 2.368738,0.738429 0.01791,-1.584256 2.843327,-2.619793 6.457582,-2.368774 4.438363,0.308246 6.686417,-0.834134 7.279989,-3.699396 0.624012,-3.011846 -0.646394,-4.135417 -4.644725,-4.109078 -3.02686,0.0188 -7.066553,1.02492 -8.977086,2.233273 -1.910622,1.208354 -4.57543,1.331008 -5.921935,0.272614 -3.847207,-3.02404 -20.213954,-5.393683 -20.213954,-2.92666 0,2.640062 -11.751836,2.288091 -16.138451,-0.483363 -1.908026,-1.205462 -4.726912,-0.501896 -7.292881,1.820207 -2.300428,2.081863 -4.89809,3.7852 -5.772603,3.7852 -2.828467,0 -1.537917,-8.160525 2.03838,-12.888762 1.91286,-2.528994 3.477814,-6.526251 3.477814,-8.882902 0,-4.638458 5.84879,-5.867144 8.38611,-1.761737 1.016593,1.644902 3.17673,1.059298 6.206276,-1.682325 3.540665,-3.204305 5.08064,-3.503867 6.468328,-1.258499 1.001731,1.62082 3.49375,2.305263 5.537769,1.520906 2.04393,-0.784267 4.45206,-0.235459 5.351192,1.219196 1.181863,1.912233 2.624521,1.823869 5.206336,-0.318721 2.919784,-2.423261 3.988573,-2.219047 5.856669,1.119193 1.256797,2.245726 3.404759,3.39124 4.773108,2.545556 1.368439,-0.846042 3.168315,-0.576562 3.999764,0.597153 0.831717,1.174163 4.443107,4.000122 8.025848,6.280048 10.215351,6.500466 7.620107,0.556866 -3.553107,-8.137132 -5.537053,-4.308546 -10.945901,-9.241552 -12.019703,-10.962285 -1.15769,-1.855294 -3.876752,-2.517892 -6.680329,-1.628071 -3.509327,1.113821 -5.060046,0.230983 -6.016476,-3.426604 -1.001463,-3.829839 -2.547168,-4.611331 -6.94005,-3.508791 -4.20165,1.054554 -5.65156,0.441375 -5.65156,-2.391478 0,-2.192101 -1.952342,-3.809965 -4.597724,-3.809965 -7.368174,0 -7.964343,-4.234596 -1.505686,-10.693343 5.094517,-5.094514 6.686687,-5.5638207 10.594684,-3.123282 3.639323,2.272764 5.3725,2.230238 8.305355,-0.204124 3.162406,-2.6245194 4.050974,-2.1691797 6.055601,3.103496 1.292161,3.398671 3.974696,6.179418 5.961238,6.179418 1.986452,0 3.611748,1.598885 3.611748,3.553107 0,1.954223 1.598885,3.553199 3.553107,3.553199 1.954312,0 3.553197,1.598885 3.553197,3.553107 0,1.954223 1.214898,3.553197 2.699813,3.553197 3.429917,0 8.275364,6.1411 12.615693,15.989116 1.866126,4.234239 4.513208,7.698534 5.882542,7.698534 4.051602,0 2.83724,-9.860014 -1.655735,-13.443113 -3.915159,-3.122297 -3.919009,-3.462505 -0.07162,-6.126596 3.752577,-2.597573 3.568417,-3.349789 -2.327197,-9.503423 -4.769975,-4.978846 -5.634549,-7.157068 -3.39115,-8.543592 2.203648,-1.361993 2.387628,-3.501091 0.685786,-7.977055 -1.758872,-4.6263711 -1.540512,-6.4172044 0.896625,-7.3524164 1.772033,-0.6795193 3.855624,0.415411 4.630311,2.4340043 1.137546,2.9644581 2.086366,3.1077031 4.933543,0.7448747 3.314799,-2.7510236 4.609389,-1.5702356 3.681149,3.3577554 -0.22292,1.182489 0.74577,9.566272 2.15209,18.63056 1.65628,10.67481 1.74777,17.4555 0.25964,19.248303 -1.2851,1.54839 -1.42539,4.178193 -0.31873,5.969295 1.5501,2.508133 2.5469,2.139814 4.60203,-1.700321 1.44292,-2.695963 2.62344,-7.040858 2.62344,-9.655262 0,-6.026862 4.62879,-9.04083 7.28644,-4.74437 1.49127,2.410727 2.73249,1.219822 4.74616,-4.553675 2.59363,-7.436036 2.94207,-7.623419 7.13074,-3.832793 4.17139,3.775048 4.52897,3.656333 6.77425,-2.249039 2.68593,-7.064585 7.16216,-8.33705 7.34937,-2.089233 0.10385,3.480054 0.7207,3.289986 3.8421,-1.184369 4.17426,-5.983978 9.76037,-6.98356 11.64091,-2.082874 0.89618,2.335344 4.17999,2.916114 11.69767,2.068818 10.24275,-1.154556 10.44759,-1.04184 10.24364,5.635984 -0.11459,3.747741 0.57477,9.212456 1.53255,12.143789 2.29326,7.022506 -4.24919,7.329319 -9.08443,0.426155 -2.47044,-3.527055 -3.755,-4.025817 -4.5757,-1.776599 -0.91426,2.505448 -1.76505,2.538484 -4.27972,0.166523 -4.20666,-3.968518 -6.92868,-3.735924 -6.92868,0.591781 0,4.63998 -2.14626,4.488767 -7.70614,-0.542541 -4.29252,-3.88463 -4.64741,-3.879258 -6.87649,0.103853 -1.46978,2.62649 -3.94936,3.692413 -6.61837,2.845297 -2.93196,-0.930557 -4.64643,0.09221 -5.47644,3.265901 -0.7592,2.90152 -3.66422,4.909191 -7.80946,5.396225 -3.63064,0.426154 -7.09252,2.26963 -7.69316,4.095648 -0.83083,2.527113 0.25694,2.892657 4.55483,1.530396 3.10583,-0.984453 7.83265,-2.017698 10.50408,-2.296131 2.67144,-0.278433 6.20288,-1.338 7.84769,-2.354593 1.71599,-1.060551 4.6945,-0.306186 6.98822,1.769436 2.9504,2.67009 5.12674,2.985857 8.30804,1.205498 3.46689,-1.940166 4.55708,-1.468979 5.57089,2.407683 0.92608,3.541468 3.5523,5.011173 9.90066,5.540715 6.88965,0.574681 8.48907,1.604865 7.89407,5.084514 -0.41094,2.400082 1.09752,5.711973 3.35095,7.359741 5.45155,3.98628 7.43917,22.6236 2.41269,22.6236 -1.93264,0 -4.15921,-2.033427 -4.94804,-4.518708 -0.78875,-2.485286 -2.99248,-5.1167 -4.8972,-5.847564 -1.90462,-0.730729 -3.46295,-3.494027 -3.46295,-6.14058 0,-3.183911 -1.55555,-4.811865 -4.59781,-4.811865 -2.52873,0 -5.25889,-1.069854 -6.06706,-2.377468 -0.80844,-1.307604 -4.06888,-1.72503 -7.24615,-0.927584 -4.32967,1.086676 -5.77672,0.495539 -5.77672,-2.360072 0,-4.540361 -2.6939,-4.906031 -6.69161,-0.908308 -2.28968,2.289675 -3.90871,2.272764 -7.67642,-0.08058 -2.62613,-1.640041 -5.72372,-2.395417 -6.88356,-1.678627 -1.15974,0.716852 -2.71637,0.320063 -3.4591,-0.881764 -1.87758,-3.037953 -11.21923,-0.267958 -10.12242,3.001533 0.49062,1.462667 4.53156,2.769896 8.97977,2.905012 4.44821,0.135009 10.75243,1.314472 14.00956,2.62085 3.25704,1.306351 7.2902,1.894516 8.96249,1.306987 1.6723,-0.587485 4.55699,0.190247 6.41032,1.728423 1.85341,1.538158 4.48438,2.107754 5.84673,1.265795 1.36235,-0.842013 3.51452,1.198147 4.78268,4.533611 1.4261,3.750804 4.13549,6.064446 7.10183,6.064446 5.33633,0 5.99204,3.652546 2.36722,13.186643 -2.20669,5.80391 -2.80295,6.06315 -6.51417,2.83206 -2.2468,-1.95616 -5.3109,-3.10949 -6.80916,-2.56294 -1.49825,0.54656 -3.90298,-1.99092 -5.34385,-5.63883 l -2.61986,-6.632546 1.38634,7.082566 c 1.52592,7.79566 4.82629,10.8883 9.64595,9.03884 1.83122,-0.70271 4.06924,1.23071 5.36275,4.63291 1.22098,3.2114 4.54087,6.44584 7.37757,7.18767 2.9248,0.76484 4.46818,2.46422 3.5651,3.92542 -0.87558,1.41719 1.1927,5.88673 4.59683,9.93229 5.88783,6.99725 5.99114,7.57464 2.12084,11.85133 -2.55604,2.82433 -4.90123,3.66308 -6.30825,2.25609 -1.23182,-1.23179 -3.61238,-1.71286 -5.29014,-1.06902 -1.67776,0.64379 -3.75159,-1.03841 -4.60855,-3.73828 -0.85679,-2.69983 -3.03206,-4.9088 -4.83381,-4.9088 -1.80167,0 -4.12913,-1.52475 -5.17205,-3.38833 -1.04291,-1.86359 -4.02716,-3.19602 -6.6318,-2.96096 -3.88472,0.35059 -4.59352,-0.7831 -3.94471,-6.30943 0.684,-5.82743 0.14414,-6.5315 -4.0011,-5.21588 -3.45212,1.09565 -5.55595,0.0933 -7.5244,-3.58477 -2.03776,-3.80761 -3.41577,-4.42238 -5.42013,-2.41807 -2.00436,2.00433 -4.69701,0.41281 -10.5911,-6.2598 l -7.90347,-8.94743 1.07837,14.21261 c 1.54159,20.31877 10.16298,37.293 30.87713,60.79261 9.9499,11.28796 18.09079,21.61801 18.09079,22.9557 0,4.97481 -4.84079,5.16882 -9.96038,0.3992 l -5.28422,-4.92298 -1.77642,4.80213 c -2.24913,6.08006 -3.87317,6.027 -10.65932,-0.34826 -4.25223,-3.99482 -5.48235,-4.33792 -5.48235,-1.52916 0,2.77482 -2.74351,3.59903 -11.7368,3.52596 -9.95974,-0.0806 -11.86831,-0.83566 -12.60531,-4.98498 -0.78159,-4.39799 -1.14346,-4.23467 -3.60165,1.6245 -3.059633,7.29258 -2.875295,7.17687 -7.13272,4.47676 z m 23.066085,-24.61128 c 0.0913,-0.97712 -0.8994,-1.77658 -2.20221,-1.77658 -1.30282,0 -2.29389,2.93135 -2.20231,6.51411 0.14772,5.77231 0.3984,5.97463 2.20231,1.77658 1.11964,-2.60565 2.11072,-5.537 2.20221,-6.51411 z m 17.47735,2.5279 c -1.22851,-6.39445 -6.62814,-10.54365 -8.912,-6.8482 -1.17479,1.90076 7.96971,15.40255 9.42777,13.92011 0.38766,-0.39429 0.15578,-3.57667 -0.51568,-7.07191 z m 11.11439,-78.83734 c 0,-0.60557 -2.39837,-2.379 -5.3297,-3.940954 -4.83283,-2.575135 -5.02666,-2.472473 -2.07876,1.101034 3.02686,3.66927 7.40846,5.3489 7.40846,2.83992 z m -18.48561,-7.693672 c -3.00152,-0.573786 -6.43941,-3.626493 -7.6398,-6.783724 -2.62085,-6.893263 -6.04307,-7.429761 -7.6715,-1.202678 -1.68814,6.455631 2.63303,9.725381 12.35955,9.352254 5.76894,-0.221224 6.69573,-0.650154 2.95175,-1.365852 z m -24.1773,-13.678402 c 3.93595,-4.742489 1.3142,-10.689617 -4.71251,-10.689617 -2.68737,0 -5.505002,1.612493 -6.261247,3.583314 -1.361098,3.547108 2.810649,10.629293 6.261247,10.629293 0.983825,0 3.1044,-1.585339 4.71251,-3.52299 z"
       id="path8083" />
  </g>
</svg>
