<?xml version="1.0" encoding="UTF-8" standalone="no"?>
<!-- Created with Inkscape (http://www.inkscape.org/) -->

<svg
   width="210mm"
   height="210mm"
   viewBox="0 0 210 210"
   version="1.1"
   id="svg5"
   inkscape:version="1.2 (dc2aedaf03, 2022-05-15)"
   sodipodi:docname="03-Abusua_pa.svg"
   xmlns:inkscape="http://www.inkscape.org/namespaces/inkscape"
   xmlns:sodipodi="http://sodipodi.sourceforge.net/DTD/sodipodi-0.dtd"
   xmlns="http://www.w3.org/2000/svg"
   xmlns:svg="http://www.w3.org/2000/svg">
  <sodipodi:namedview
     id="namedview7"
     pagecolor="#ffffff"
     bordercolor="#666666"
     borderopacity="1.0"
     inkscape:showpageshadow="2"
     inkscape:pageopacity="0.0"
     inkscape:pagecheckerboard="0"
     inkscape:deskcolor="#d1d1d1"
     inkscape:document-units="mm"
     showgrid="false"
     inkscape:zoom="0.736773"
     inkscape:cx="393.60834"
     inkscape:cy="377.99974"
     inkscape:window-width="1920"
     inkscape:window-height="1002"
     inkscape:window-x="-8"
     inkscape:window-y="-8"
     inkscape:window-maximized="1"
     inkscape:current-layer="layer1" />
  <defs
     id="defs2" />
  <g
     inkscape:label="Camada 1"
     inkscape:groupmode="layer"
     id="layer1">
    <path
       style="display:inline;fill:#000000;stroke-width:0.264583"
       d="m 85.709299,194.1603 c -10.234277,-4.6458 -18.448813,-15.02255 -20.86477,-26.35677 -1.207714,-5.66554 -2.435022,-6.42211 -10.418308,-6.42211 h -9.049335 v -10.50891 c 0,-9.79313 -0.41837,-10.50891 -6.146427,-10.50891 -13.046185,0 -28.311851,-14.73288 -32.1526494,-31.0304 C 3.0868732,92.398534 17.29814,70.679035 35.592843,65.752767 c 9.398595,-2.530789 9.784043,-2.99894 9.784043,-11.885781 0,-9.186498 0.06178,-9.251195 9.049335,-9.251195 8.292297,0 9.173082,-0.618729 10.528284,-7.394742 2.013563,-10.067631 11.175611,-21.511034 20.927703,-26.138705 22.131692,-10.50215795 49.325512,3.036098 54.457432,27.111284 1.20763,5.665565 2.43502,6.422163 10.41822,6.422163 8.98605,0 9.04942,0.06178 9.04942,9.251195 0,8.886841 0.38572,9.354992 9.78396,11.885781 20.01753,5.390182 32.83943,27.058904 27.57653,46.603723 -2.95049,10.95743 -16.03401,25.00691 -25.14469,27.0012 -11.59477,2.53804 -12.2158,3.11977 -12.2158,11.44154 0,8.02514 -0.24449,8.24688 -9.08137,8.24688 -8.39451,0 -9.18985,0.57398 -10.51575,7.58976 -3.39277,17.95306 -19.91117,32.008 -37.61812,32.008 -3.853241,0 -11.450457,-2.01762 -16.882741,-4.48357 z M 116.7101,174.33179 c 3.15269,-3.15268 5.73211,-7.61897 5.73211,-9.92509 0,-3.70485 -2.31066,-4.19294 -19.85017,-4.19294 -18.8324,0 -19.850082,0.26074 -19.850082,5.08496 0,13.28539 23.473572,19.52766 33.968142,9.03307 z m -45.644738,-36.3035 c 0,-2.59479 -1.556886,-4.67063 -3.503014,-4.67063 -1.946041,0 -3.502926,2.07584 -3.502926,4.67063 0,2.59479 1.556885,4.67062 3.502926,4.67062 1.946128,0 3.503014,-2.07583 3.503014,-4.67062 z m 11.676596,0 c 0,-5.31013 -5.856745,-6.36333 -7.762891,-1.39598 -1.46562,3.81927 0.256848,6.0666 4.64912,6.0666 1.712583,0 3.113771,-2.10178 3.113771,-4.67062 z m 11.263962,-0.77734 c 0.509283,-2.62508 -0.822618,-3.89327 -4.086879,-3.89327 -2.663007,0 -4.841799,1.40119 -4.841799,3.11375 0,7.15247 7.564561,7.81291 8.928678,0.77954 z m 25.68838,0 c 0.44661,-2.30439 -0.74407,-3.89327 -2.91915,-3.89327 -2.16626,0 -3.67416,1.9967 -3.67416,4.86523 0,5.69127 5.45709,4.88681 6.59331,-0.97196 z m 10.37143,4.052 c 2.27253,-2.27258 -0.84733,-7.94527 -4.37038,-7.94527 -1.78919,0 -3.25314,2.10178 -3.25314,4.67063 0,4.39641 4.54815,6.35004 7.62352,3.27464 z m 11.05902,-3.27464 c 0,-2.5948 -1.55689,-4.67063 -3.50302,-4.67063 -1.94604,0 -3.50292,2.07583 -3.50292,4.67063 0,2.59479 1.55688,4.67062 3.50292,4.67062 1.94613,0 3.50302,-2.07583 3.50302,-4.67062 z M 71.065362,126.35174 c 0,-2.59479 -1.556886,-4.67063 -3.503014,-4.67063 -1.946041,0 -3.502926,2.07584 -3.502926,4.67063 0,2.59479 1.556885,4.67063 3.502926,4.67063 1.946128,0 3.503014,-2.07584 3.503014,-4.67063 z m 11.676596,0 c 0,-2.59479 -1.556886,-4.67063 -3.503014,-4.67063 -1.946041,0 -3.502926,2.07584 -3.502926,4.67063 0,2.59479 1.556885,4.67063 3.502926,4.67063 1.946128,0 3.503014,-2.07584 3.503014,-4.67063 z m 11.676507,-0.17114 c 0,-3.34207 -1.257582,-4.59968 -4.059958,-4.05999 -6.087555,1.17231 -6.76648,8.9018 -0.782018,8.9018 3.342021,0 4.8418,-1.49982 4.8418,-4.84186 z m 25.275835,0.94858 c -1.13622,-5.85881 -6.59331,-6.66328 -6.59331,-0.97201 0,2.86854 1.5079,4.86524 3.67416,4.86524 2.17473,0 3.36611,-1.58888 2.91915,-3.89328 z m 9.75385,-0.77743 c 0,-2.59479 -1.55688,-4.67063 -3.50292,-4.67063 -1.94613,0 -3.50302,2.07584 -3.50302,4.67063 0,2.59479 1.55689,4.67063 3.50302,4.67063 1.94604,0 3.50292,-2.07584 3.50292,-4.67063 z m 11.6766,0 c 0,-2.59479 -1.55689,-4.67063 -3.50302,-4.67063 -1.94604,0 -3.50292,2.07584 -3.50292,4.67063 0,2.59479 1.55688,4.67063 3.50292,4.67063 1.94613,0 3.50302,-2.07584 3.50302,-4.67063 z M 45.376886,102.99862 c 0,-17.581312 -0.601959,-21.017819 -3.682543,-21.017819 -6.256756,0 -17.335277,12.985107 -17.335277,20.318549 0,10.35674 9.259933,20.72336 19.266313,21.56905 0.963399,0.0812 1.751507,-9.30998 1.751507,-20.86978 z m 130.193694,12.52526 c 7.43605,-8.17941 6.84027,-18.304677 -1.5718,-26.716774 -11.99046,-11.990435 -14.1915,-9.764925 -14.1915,14.348884 0,20.8511 0.0794,21.15201 5.25444,19.66143 2.88993,-0.83259 7.61893,-4.11464 10.50886,-7.29354 z m -104.505218,0.31899 c 0,-1.92663 -1.576392,-3.50297 -3.503014,-3.50297 -1.926623,0 -3.502926,1.57634 -3.502926,3.50297 0,1.92663 1.576303,3.50297 3.502926,3.50297 1.926622,0 3.503014,-1.57634 3.503014,-3.50297 z m 11.676596,0 c 0,-1.92663 -1.576392,-3.50297 -3.503014,-3.50297 -1.926623,0 -3.502926,1.57634 -3.502926,3.50297 0,1.92663 1.576303,3.50297 3.502926,3.50297 1.926622,0 3.503014,-1.57634 3.503014,-3.50297 z m 11.676507,0 c 0,-1.94609 -2.075788,-3.50297 -4.670567,-3.50297 -2.594868,0 -4.670656,1.55688 -4.670656,3.50297 0,1.94608 2.075788,3.50297 4.670656,3.50297 2.594779,0 4.670567,-1.55689 4.670567,-3.50297 z m 25.688465,0 c 0,-1.92663 -1.57639,-3.50297 -3.50301,-3.50297 -1.92663,0 -3.50293,1.57634 -3.50293,3.50297 0,1.92663 1.5763,3.50297 3.50293,3.50297 1.92662,0 3.50301,-1.57634 3.50301,-3.50297 z m 10.18573,0 c 0.91433,-2.3827 -0.12622,-3.50297 -3.25305,-3.50297 -2.52973,0 -4.5974,1.5755 -4.5974,3.50297 0,1.92663 1.46395,3.50297 3.25314,3.50297 1.7892,0 3.85801,-1.57634 4.59731,-3.50297 z m 10.83209,0 c 0,-1.92663 -1.57639,-3.50297 -3.50302,-3.50297 -1.92662,0 -3.50292,1.57634 -3.50292,3.50297 0,1.92663 1.5763,3.50297 3.50292,3.50297 1.92663,0 3.50302,-1.57634 3.50302,-3.50297 z M 71.065362,88.986767 c 0,-2.594788 -1.556886,-4.670629 -3.503014,-4.670629 -1.946041,0 -3.502926,2.075841 -3.502926,4.670629 0,2.594788 1.556885,4.670621 3.502926,4.670621 1.946128,0 3.503014,-2.075833 3.503014,-4.670621 z m 11.676596,0 c 0,-2.594788 -1.556886,-4.670629 -3.503014,-4.670629 -1.946041,0 -3.502926,2.075841 -3.502926,4.670629 0,2.594788 1.556885,4.670621 3.502926,4.670621 1.946128,0 3.503014,-2.075833 3.503014,-4.670621 z m 11.676507,-0.171143 c 0,-3.342065 -1.257582,-4.599683 -4.059958,-4.059994 -6.087555,1.172311 -6.76648,8.901793 -0.782018,8.901793 3.342021,0 4.8418,-1.499805 4.8418,-4.841852 z m 25.275835,0.94858 c -1.13622,-5.858811 -6.59331,-6.663283 -6.59331,-0.972006 0,2.868539 1.5079,4.865225 3.67416,4.865225 2.17473,0 3.36611,-1.588872 2.91915,-3.893263 z m 9.75385,-0.777428 c 0,-2.594788 -1.55688,-4.67063 -3.50292,-4.67063 -1.94613,0 -3.50302,2.075842 -3.50302,4.67063 0,2.594788 1.55689,4.670621 3.50302,4.670621 1.94604,0 3.50292,-2.075833 3.50292,-4.670621 z m 11.6766,0 c 0,-2.594788 -1.55689,-4.67063 -3.50302,-4.67063 -1.94604,0 -3.50292,2.075842 -3.50292,4.67063 0,2.594788 1.55688,4.670621 3.50292,4.670621 1.94613,0 3.50302,-2.075833 3.50302,-4.670621 z M 71.065362,78.477866 c 0,-1.92664 -1.576392,-3.50297 -3.503014,-3.50297 -1.926623,0 -3.502926,1.57633 -3.502926,3.50297 0,1.926631 1.576303,3.50297 3.502926,3.50297 1.926622,0 3.503014,-1.576339 3.503014,-3.50297 z m 11.676596,0 c 0,-1.92664 -1.576392,-3.50297 -3.503014,-3.50297 -1.926623,0 -3.502926,1.57633 -3.502926,3.50297 0,1.926631 1.576303,3.50297 3.502926,3.50297 1.926622,0 3.503014,-1.576339 3.503014,-3.50297 z m 11.676507,0 c 0,-1.946093 -2.075788,-3.50297 -4.670567,-3.50297 -2.594868,0 -4.670656,1.556877 -4.670656,3.50297 0,1.946085 2.075788,3.50297 4.670656,3.50297 2.594779,0 4.670567,-1.556885 4.670567,-3.50297 z m 25.688465,0 c 0,-1.92664 -1.57639,-3.50297 -3.50301,-3.50297 -1.92663,0 -3.50293,1.57633 -3.50293,3.50297 0,1.926631 1.5763,3.50297 3.50293,3.50297 1.92662,0 3.50301,-1.576339 3.50301,-3.50297 z m 9.34122,0 c 0,-1.92664 -1.5763,-3.50297 -3.50292,-3.50297 -1.92663,0 -3.50302,1.57633 -3.50302,3.50297 0,1.926631 1.57639,3.50297 3.50302,3.50297 1.92662,0 3.50292,-1.576339 3.50292,-3.50297 z m 11.6766,0 c 0,-1.92664 -1.57639,-3.50297 -3.50302,-3.50297 -1.92662,0 -3.50292,1.57633 -3.50292,3.50297 0,1.926631 1.5763,3.50297 3.50292,3.50297 1.92663,0 3.50302,-1.576339 3.50302,-3.50297 z M 71.065362,66.801341 c 0,-1.926623 -1.576392,-3.503014 -3.503014,-3.503014 -1.926623,0 -3.502926,1.576391 -3.502926,3.503014 0,1.926622 1.576303,3.502926 3.502926,3.502926 1.926622,0 3.503014,-1.576304 3.503014,-3.502926 z m 11.676596,-0.171232 c 0,-2.174732 -1.588925,-3.366029 -3.893317,-2.919149 -5.858775,1.13622 -6.663211,6.593307 -0.971961,6.593307 2.868574,0 4.865278,-1.507899 4.865278,-3.674158 z m 11.676507,0 c 0,-2.174732 -1.588836,-3.366029 -3.893228,-2.919149 -5.858775,1.13622 -6.6633,6.593307 -0.971961,6.593307 2.868486,0 4.865189,-1.507899 4.865189,-3.674158 z m 25.153235,0.901085 c -1.44338,-4.330311 -6.47071,-5.048513 -6.47071,-0.924475 0,2.033687 1.66386,3.697548 3.69755,3.697548 2.03368,0 3.28165,-1.247874 2.77316,-2.773161 z m 9.87645,-0.729941 c 0,-1.926623 -1.5763,-3.503015 -3.50292,-3.503015 -1.92663,0 -3.50302,1.576392 -3.50302,3.503015 0,1.926622 1.57639,3.502925 3.50302,3.502925 1.92662,0 3.50292,-1.576303 3.50292,-3.502925 z m 11.6766,0 c 0,-1.926623 -1.57639,-3.503015 -3.50302,-3.503015 -1.92662,0 -3.50292,1.576392 -3.50292,3.503015 0,1.926622 1.5763,3.502925 3.50292,3.502925 1.92663,0 3.50302,-1.576303 3.50302,-3.502925 z M 122.44221,41.006684 c 0,-6.936918 -10.89157,-15.073425 -20.17728,-15.073425 -9.68041,0 -19.522972,7.269315 -19.522972,14.418948 0,3.793491 2.188589,4.263584 19.850082,4.263584 16.34725,0 19.85017,-0.637265 19.85017,-3.609107 z"
       id="path8105" />
  </g>
</svg>
