<?xml version="1.0" encoding="UTF-8" standalone="no"?>
<!-- Created with Inkscape (http://www.inkscape.org/) -->

<svg
   width="210mm"
   height="210mm"
   viewBox="0 0 210 210"
   version="1.1"
   id="svg5"
   inkscape:version="1.2 (dc2aedaf03, 2022-05-15)"
   sodipodi:docname="04-Adinkrahene_pa.svg"
   xmlns:inkscape="http://www.inkscape.org/namespaces/inkscape"
   xmlns:sodipodi="http://sodipodi.sourceforge.net/DTD/sodipodi-0.dtd"
   xmlns="http://www.w3.org/2000/svg"
   xmlns:svg="http://www.w3.org/2000/svg">
  <sodipodi:namedview
     id="namedview7"
     pagecolor="#ffffff"
     bordercolor="#666666"
     borderopacity="1.0"
     inkscape:showpageshadow="2"
     inkscape:pageopacity="0.0"
     inkscape:pagecheckerboard="0"
     inkscape:deskcolor="#d1d1d1"
     inkscape:document-units="mm"
     showgrid="false"
     inkscape:zoom="0.736773"
     inkscape:cx="393.60834"
     inkscape:cy="377.99974"
     inkscape:window-width="1920"
     inkscape:window-height="1002"
     inkscape:window-x="-8"
     inkscape:window-y="-8"
     inkscape:window-maximized="1"
     inkscape:current-layer="layer1" />
  <defs
     id="defs2" />
  <g
     inkscape:label="Camada 1"
     inkscape:groupmode="layer"
     id="layer1">
    <g
       id="g1978"
       style="display:inline;stroke-width:0.114001"
       transform="matrix(8.7718654,0,0,8.7718654,-961.36606,-241.98819)">
      <path
         style="fill:#000000;stroke-width:0.0301627"
         d="m 119.52565,42.712081 c -2.38869,-1.57483 -2.3066,-4.875377 0.15863,-6.378446 2.22113,-1.354234 5.13203,0.261115 5.40996,3.002159 0.28212,2.78239 -3.23496,4.914825 -5.56859,3.376287 z m 3.1407,-1.882516 c 0.57412,-0.634394 0.63216,-1.991455 0.10716,-2.505313 -1.13928,-1.115073 -3.15296,-0.345469 -3.15296,1.205015 0,1.587641 2.00942,2.445491 3.0458,1.300298 z"
         id="path8089" />
      <path
         style="fill:#000000;stroke-width:0.0301627"
         d="m 119.22368,46.609811 c -2.19408,-0.826661 -4.17119,-2.883826 -4.88979,-5.0878 -0.43756,-1.341985 -0.21492,-3.738216 0.47251,-5.085702 0.65936,-1.292441 2.65876,-3.173098 3.97024,-3.734438 0.53691,-0.22981 1.70328,-0.42164 2.59192,-0.4263 2.90596,-0.0152 5.54817,1.76177 6.80283,4.575216 0.65504,1.468853 0.70598,3.961556 0.10944,5.355278 -0.56432,1.318432 -2.44405,3.311808 -3.75359,3.980527 -1.25589,0.641318 -4.11841,0.869743 -5.30356,0.423219 z m 5.0702,-2.49881 c 1.408,-0.802145 2.2045,-2.100836 2.38984,-3.896616 0.35302,-3.420462 -1.93648,-5.975384 -5.36791,-5.990174 -4.97567,-0.0215 -7.15831,6.412147 -3.24883,9.57635 1.64133,1.328443 4.21482,1.456742 6.2269,0.31044 z"
         id="path8087" />
      <path
         style="fill:#000000;stroke-width:0.0301627"
         d="m 117.85548,50.125777 c -5.24716,-1.945984 -8.45309,-7.382095 -7.37532,-12.505891 0.92624,-4.403365 3.97767,-7.688515 8.20419,-8.832585 7.89338,-2.13664 15.64769,5.61767 13.51105,13.511051 -0.89657,3.312197 -3.17028,5.96764 -6.37562,7.446012 -2.11117,0.973717 -5.88047,1.154229 -7.9643,0.381413 z m 7.69629,-2.383105 c 3.25413,-1.601999 4.98798,-4.479623 4.98722,-8.277135 -7.9e-4,-3.666016 -1.91928,-6.647176 -5.29422,-8.226496 -1.4243,-0.66651 -2.02645,-0.79499 -3.72761,-0.79533 -3.82328,-7.9e-4 -6.67391,1.72983 -8.30303,5.040715 -0.79236,1.610334 -0.86865,1.979303 -0.85873,4.15326 0.009,2.042842 0.11448,2.599978 0.73134,3.874569 0.39864,0.823687 1.31223,2.04217 2.04524,2.727819 2.04422,1.912128 3.83465,2.551499 6.7957,2.42678 1.50717,-0.06348 2.27189,-0.258493 3.62409,-0.924182 z"
         id="path8085" />
    </g>
  </g>
</svg>
