<?xml version="1.0" encoding="UTF-8" standalone="no"?>
<!-- Created with Inkscape (http://www.inkscape.org/) -->

<svg
   width="210mm"
   height="210mm"
   viewBox="0 0 210 210"
   version="1.1"
   id="svg5"
   inkscape:version="1.2 (dc2aedaf03, 2022-05-15)"
   sodipodi:docname="04-Adinkrahene_dua.svg"
   xmlns:inkscape="http://www.inkscape.org/namespaces/inkscape"
   xmlns:sodipodi="http://sodipodi.sourceforge.net/DTD/sodipodi-0.dtd"
   xmlns="http://www.w3.org/2000/svg"
   xmlns:svg="http://www.w3.org/2000/svg">
  <sodipodi:namedview
     id="namedview7"
     pagecolor="#ffffff"
     bordercolor="#666666"
     borderopacity="1.0"
     inkscape:showpageshadow="2"
     inkscape:pageopacity="0.0"
     inkscape:pagecheckerboard="0"
     inkscape:deskcolor="#d1d1d1"
     inkscape:document-units="mm"
     showgrid="false"
     inkscape:zoom="0.736773"
     inkscape:cx="393.60834"
     inkscape:cy="377.99974"
     inkscape:window-width="1920"
     inkscape:window-height="1002"
     inkscape:window-x="-8"
     inkscape:window-y="-8"
     inkscape:window-maximized="1"
     inkscape:current-layer="layer1" />
  <defs
     id="defs2" />
  <g
     inkscape:label="Camada 1"
     inkscape:groupmode="layer"
     id="layer1">
    <g
       id="g1983"
       style="display:inline;stroke-width:0.108969"
       transform="matrix(9.1769288,0,0,9.1769288,-1328.2481,-251.74943)">
      <path
         style="fill:#000000;stroke-width:0.0288313"
         d="m 155.12719,42.367564 c -0.47396,-0.473959 -0.38435,-1.378241 0.21166,-2.135947 0.89603,-1.139116 0.55014,-1.767985 -0.39687,-0.721553 -0.53625,0.592545 -1.95749,0.714801 -2.46063,0.211667 -0.17462,-0.174625 -0.3175,-0.567532 -0.3175,-0.873125 0,-0.305594 0.14288,-0.6985 0.3175,-0.873125 0.50314,-0.503135 1.92438,-0.380879 2.46063,0.211666 0.95068,1.050494 1.29726,0.357333 0.39687,-0.79375 -0.99407,-1.270852 -0.54191,-2.381246 0.96965,-2.381246 0.58324,0 0.95278,0.166226 1.13771,0.511769 0.39771,0.743133 0.34819,0.968293 -0.38756,1.762189 -0.36381,0.392549 -0.66146,0.808376 -0.66146,0.92406 0,0.475575 0.4887,0.460227 0.93169,-0.02926 0.67384,-0.74459 2.40715,-0.727995 2.64624,0.02535 0.25409,0.800541 -0.0777,1.826519 -0.60641,1.874908 -0.93845,0.0859 -1.39051,-0.04841 -1.9094,-0.567295 -0.29312,-0.29314 -0.65202,-0.532972 -0.79754,-0.532972 -0.40766,0 -0.31327,0.688555 0.14674,1.070322 0.81077,0.672878 0.97773,1.302877 0.52742,1.99013 -0.46097,0.703537 -1.65506,0.879895 -2.20874,0.326215 z"
         id="path8101" />
      <path
         style="fill:#000000;stroke-width:0.0288313"
         d="m 154.48088,45.850597 c -3.03986,-0.755306 -5.47377,-3.78937 -5.48622,-6.839003 -0.008,-2.044157 0.46733,-3.350733 1.73191,-4.757243 2.8372,-3.15566 6.96681,-3.47625 10.03131,-0.77877 3.31145,2.914855 3.37898,7.712791 0.14952,10.624255 -0.62099,0.559842 -1.51266,1.178168 -1.98148,1.374058 -1.18203,0.493884 -3.26348,0.67028 -4.44504,0.376703 z m 3.96415,-2.228662 c 1.93772,-0.902147 2.97924,-2.546416 2.97924,-4.703379 0,-2.58799 -1.33969,-4.438315 -3.77953,-5.220135 -2.41426,-0.77363 -5.29193,0.54685 -6.39898,2.936307 -0.48952,1.056569 -0.55212,1.499444 -0.3855,2.727254 0.53429,3.937257 4.04397,5.908447 7.58477,4.259953 z"
         id="path8099" />
      <path
         style="fill:#000000;stroke-width:0.0288313"
         d="m 152.93891,49.202447 c -4.48265,-1.208651 -7.65422,-5.498822 -7.65422,-10.353841 0,-3.556445 1.6811,-6.873105 4.46667,-8.812315 2.14644,-1.49427 3.94166,-2.03818 6.64583,-2.01355 3.57536,0.0326 6.3691,1.45501 8.53101,4.34357 1.7146,2.2909 1.92003,2.984447 1.92003,6.482295 0,2.863678 -0.0649,3.302444 -0.66146,4.474744 -1.37327,2.698427 -4.50354,5.406231 -6.88368,5.954649 -1.58836,0.36598 -4.87117,0.327007 -6.36418,-0.07555 z m 7.33809,-2.239153 c 5.50635,-2.779598 6.70958,-9.83484 2.46298,-14.441863 -4.48402,-4.86458 -13.0044,-3.0336 -15.19564,3.265453 -0.5759,1.655519 -0.52693,4.726279 0.10176,6.380859 1.87118,4.924552 7.8663,7.200709 12.6309,4.795551 z"
         id="path8097" />
    </g>
  </g>
</svg>
