<?xml version="1.0" encoding="UTF-8" standalone="no"?>
<!-- Created with Inkscape (http://www.inkscape.org/) -->

<svg
   width="210mm"
   height="210mm"
   viewBox="0 0 210 210"
   version="1.1"
   id="svg5"
   inkscape:version="1.2 (dc2aedaf03, 2022-05-15)"
   sodipodi:docname="06-Adwera.svg"
   xmlns:inkscape="http://www.inkscape.org/namespaces/inkscape"
   xmlns:sodipodi="http://sodipodi.sourceforge.net/DTD/sodipodi-0.dtd"
   xmlns="http://www.w3.org/2000/svg"
   xmlns:svg="http://www.w3.org/2000/svg">
  <sodipodi:namedview
     id="namedview7"
     pagecolor="#ffffff"
     bordercolor="#666666"
     borderopacity="1.0"
     inkscape:showpageshadow="2"
     inkscape:pageopacity="0.0"
     inkscape:pagecheckerboard="0"
     inkscape:deskcolor="#d1d1d1"
     inkscape:document-units="mm"
     showgrid="false"
     inkscape:zoom="0.736773"
     inkscape:cx="393.60834"
     inkscape:cy="377.99974"
     inkscape:window-width="1920"
     inkscape:window-height="1002"
     inkscape:window-x="-8"
     inkscape:window-y="-8"
     inkscape:window-maximized="1"
     inkscape:current-layer="layer1" />
  <defs
     id="defs2" />
  <g
     inkscape:label="Camada 1"
     inkscape:groupmode="layer"
     id="layer1">
    <path
       style="display:inline;fill:#000000;stroke-width:0.264583"
       d="m 120.99506,204.74529 c -3.7422,-1.51 -3.81731,-10.73415 -0.11733,-14.43389 1.55215,-1.5521 5.05374,-2.822 7.78135,-2.822 2.7277,0 7.01359,-1.58808 9.52424,-3.52907 4.47974,-3.46321 4.46134,-3.6168 -0.98686,-8.23085 -7.88703,-6.67944 -13.70382,-5.88681 -18.01762,2.4552 -5.60072,10.8307 -13.12888,13.31961 -24.617441,8.139 -15.649199,-7.05681 -10.793844,-19.48355 6.472831,-16.56635 7.40755,1.25149 9.82294,0.6235 13.5831,-3.53138 4.54498,-5.02214 4.53903,-5.08138 -0.95797,-9.53257 -7.18036,-5.81426 -12.61855,-5.66632 -18.167989,0.49419 -6.623484,7.35286 -13.268051,9.09213 -24.166492,6.32581 -11.682645,-2.96536 -12.80318,-8.51633 -3.242236,-16.06066 5.176575,-4.08472 8.441209,-4.83447 16.359437,-3.75722 10.675453,1.45236 14.653099,-1.27712 10.011416,-6.87 -3.936582,-4.74325 -11.549252,-4.25412 -19.903712,1.27883 -9.981801,6.61066 -15.823123,5.80792 -29.224391,-4.0161 -0.552846,-0.40495 2.026598,-3.90001 5.731198,-7.76677 6.976701,-7.28212 12.567999,-8.63791 19.756684,-4.79065 6.481628,3.46885 15.127711,-3.38965 11.892851,-9.43398 -3.18464,-5.95054 -11.644159,-5.8165 -22.09579,0.3501 -8.188251,4.83118 -8.478895,4.84112 -17.183995,0.58796 -11.515103,-5.62609 -12.479384,-11.17022 -2.812225,-16.169257 5.301987,-2.741787 10.412166,-3.449047 17.375446,-2.404817 12.009287,1.80089 17.736041,-0.107459 17.736041,-5.910349 0,-7.275318 -7.013676,-9.087346 -19.546744,-5.050025 -11.20055,3.608093 -11.37707,3.584059 -17.316785,-2.355709 l -6.000955,-6.000946 5.229638,-5.229682 c 4.256468,-4.256424 6.893952,-4.963658 14.171696,-3.799837 4.918106,0.786605 10.357327,1.950159 12.087147,2.586092 4.361527,1.603368 9.985623,-2.391441 7.966402,-5.658653 C 71.296348,61.39188 67.676275,60.913873 62.936199,61.803137 56.423995,63.024819 54.430017,62.251102 50.18537,56.854811 39.611438,43.412306 47.987319,34.88817 62.784122,44.033146 c 8.061684,4.982368 12.947437,4.709589 12.935171,-0.72261 -0.0024,-1.540413 -3.971958,-4.955436 -8.81878,-7.588831 -6.973413,-3.788772 -8.67408,-5.995356 -8.149677,-10.57331 0.364417,-3.181886 2.066595,-7.189129 3.782373,-8.904907 2.59162,-2.591709 3.977023,-1.666359 8.186295,5.46793 6.489628,10.999055 10.885286,9.603697 10.885286,-3.455464 0,-7.124779 1.232082,-10.8768421 4.182341,-12.7365195 5.360223,-3.3788479 9.522654,2.1117467 6.244509,8.2369585 -3.689224,6.893419 -0.297754,11.440531 7.387158,9.903673 5.103272,-1.02072 7.195122,-0.347528 8.360902,2.69028 1.87435,4.884508 -2.61768,8.194295 -11.189037,8.244246 -7.358538,0.04444 -12.576638,5.488195 -10.484268,10.940837 1.340784,3.49395 2.072567,3.372093 6.881793,-1.145866 6.408568,-6.020598 17.527312,-6.704811 19.636402,-1.208528 2.3384,6.093836 -2.19628,10.770002 -13.695887,14.123074 -11.707461,3.413779 -19.00476,13.159571 -13.665442,18.250534 1.986867,1.89444 3.425617,1.384524 5.403863,-1.915148 5.935894,-9.901042 10.948576,-13.140523 20.333586,-13.140523 7.4109,0 9.39555,0.87282 9.3544,4.115412 -0.0942,7.420569 -8.78084,15.677793 -20.34125,19.335935 -9.182926,2.905809 -11.485503,4.717445 -12.041655,9.474115 -0.377748,3.234726 0.973187,7.996856 3.003073,10.582506 3.654204,4.65471 3.730732,4.64307 7.742597,-1.17795 8.476625,-12.299131 14.250075,-16.461677 22.832245,-16.461677 16.71826,0 12.69804,13.113707 -6.85599,22.364247 -14.30243,6.76611 -16.60945,10.21152 -11.61356,17.34414 3.3834,4.83048 10.27179,6.89677 10.27179,3.08121 0,-1.04066 3.58204,-5.80279 7.96009,-10.58251 6.36493,-6.94889 9.66378,-8.6904 16.46174,-8.6904 9.7068,0 10.52558,2.5366 4.17488,12.93418 -2.93311,4.8022 -8.18683,8.44456 -16.45285,11.40661 -13.25017,4.74806 -14.76278,7.84264 -7.17784,14.68517 4.93463,4.45172 5.01978,4.41853 13.52205,-5.26684 8.01191,-9.12673 25.46344,-19.64911 32.58831,-19.64911 6.03198,0 5.85741,7.13965 -0.37419,15.30986 -4.60791,6.04139 -8.05493,8.20683 -13.06378,8.20683 -3.78024,0 -9.70272,2.49312 -13.32608,5.60981 -5.61725,4.83186 -6.08477,6.13637 -3.37067,9.40668 6.22965,7.50622 23.74029,1.99197 23.74029,-7.47601 0,-8.24979 21.2243,-6.8113 25.80563,1.74901 4.89144,9.13976 -4.42463,16.51316 -16.98685,13.44458 -2.91027,-0.71088 -7.29988,0.19919 -9.7548,2.0226 -4.27762,3.17701 -4.19985,3.41533 1.8675,5.72211 3.48204,1.32387 8.92988,3.05933 12.10634,3.85659 7.78766,1.95454 7.30184,4.04247 -2.89639,12.4487 -9.13236,7.52765 -13.14751,6.94993 -16.08799,-2.31475 -1.70209,-5.36279 -8.16346,-6.04077 -8.16346,-0.85655 0,8.84074 -14.06663,17.19744 -22.92879,13.62149 z"
       id="path8091" />
  </g>
</svg>
