<?xml version="1.0" encoding="UTF-8" standalone="no"?>
<!-- Created with Inkscape (http://www.inkscape.org/) -->

<svg
   width="210mm"
   height="210mm"
   viewBox="0 0 210 210"
   version="1.1"
   id="svg5"
   inkscape:version="1.2 (dc2aedaf03, 2022-05-15)"
   sodipodi:docname="07-Adwo.svg"
   xmlns:inkscape="http://www.inkscape.org/namespaces/inkscape"
   xmlns:sodipodi="http://sodipodi.sourceforge.net/DTD/sodipodi-0.dtd"
   xmlns="http://www.w3.org/2000/svg"
   xmlns:svg="http://www.w3.org/2000/svg">
  <sodipodi:namedview
     id="namedview7"
     pagecolor="#ffffff"
     bordercolor="#666666"
     borderopacity="1.0"
     inkscape:showpageshadow="2"
     inkscape:pageopacity="0.0"
     inkscape:pagecheckerboard="0"
     inkscape:deskcolor="#d1d1d1"
     inkscape:document-units="mm"
     showgrid="false"
     inkscape:zoom="0.736773"
     inkscape:cx="393.60834"
     inkscape:cy="377.99974"
     inkscape:window-width="1920"
     inkscape:window-height="1002"
     inkscape:window-x="-8"
     inkscape:window-y="-8"
     inkscape:window-maximized="1"
     inkscape:current-layer="layer1" />
  <defs
     id="defs2" />
  <g
     inkscape:label="Camada 1"
     inkscape:groupmode="layer"
     id="layer1">
    <path
       style="display:inline;fill:#000000;stroke-width:0.264583"
       d="M 66.616506,155.91 C 41.826536,151.42326 24.500632,144.32115 14.79135,134.66622 4.6750117,124.60671 3.7342802,115.81401 11.754652,106.28237 l 5.372255,-6.384499 -5.372255,-6.245584 C -3.502403,75.914922 13.899859,57.12114 56.18337,45.670912 c 22.327627,-6.046277 78.15479,-5.398697 101.16194,1.173372 22.24602,6.354768 33.05367,11.883219 40.4768,20.705077 7.35288,8.738294 7.53179,17.809827 0.51613,26.147929 l -5.37217,6.38446 5.37217,6.24556 c 8.22996,9.56792 7.14922,18.45363 -3.47367,28.55895 -21.17926,20.14729 -79.90226,29.77383 -128.24764,21.02374 z m 89.554674,-10.99772 c 31.88961,-7.76283 44.82298,-20.42114 35.07878,-34.3329 -3.01941,-4.31082 -5.51701,-4.98048 -18.49945,-4.96009 -14.23547,0.022 -15.68572,0.53181 -28.14812,9.88817 l -13.1394,9.86461 -10.01667,-7.64582 c -12.86692,-9.82153 -19.95444,-9.80541 -32.898311,0.0746 l -10.114559,7.72067 -8.556589,-6.81787 c -13.340166,-10.62939 -19.67434,-13.10823 -33.495299,-13.10823 -14.717363,0 -21.029756,4.02542 -21.029756,13.41082 0,11.15939 17.952886,22.13805 43.726051,26.73961 7.399743,1.32118 15.976757,2.8517 19.060068,3.40117 11.203604,1.99664 64.263065,-0.88302 78.033175,-4.23504 z m -69.624471,-40.7299 c 2.774988,-0.7436 5.045371,-2.70228 5.045371,-4.352495 0,-4.341612 -14.836183,-6.557874 -22.012269,-3.288222 -5.773041,2.630396 -5.827875,2.826941 -1.642128,5.887657 4.626958,3.3833 10.471444,3.93386 18.609026,1.75306 z m 55.608081,-1.75306 c 4.18566,-3.060716 4.13083,-3.257261 -1.64213,-5.887657 -7.2827,-3.318214 -22.01218,-1.052924 -22.01218,3.385337 0,5.66926 16.88113,7.45505 23.65431,2.50232 z M 63.600826,84.349554 77.662728,74.315169 l 8.28276,6.582155 c 14.489382,11.514808 21.435792,11.541843 35.783982,0.138991 l 8.45794,-6.721485 14.06191,10.034385 c 13.22592,9.437826 14.93729,10.034385 28.78596,10.034385 12.67334,0 15.2101,-0.694107 18.21468,-4.983674 9.68301,-13.824431 -2.05648,-25.498993 -34.72884,-34.536542 -20.62042,-5.703799 -82.329267,-5.703799 -102.949678,0 -25.048547,6.928784 -38.219551,15.79217 -38.219551,25.719854 0,9.897174 5.884318,13.800447 20.804658,13.800447 12.259684,0 14.562103,-0.841574 27.444362,-10.034385 z"
       id="path8111" />
  </g>
</svg>
