<?xml version="1.0" encoding="UTF-8" standalone="no"?>
<!-- Created with Inkscape (http://www.inkscape.org/) -->

<svg
   width="210mm"
   height="210mm"
   viewBox="0 0 210 210"
   version="1.1"
   id="svg5"
   inkscape:version="1.2 (dc2aedaf03, 2022-05-15)"
   sodipodi:docname="08-Adyinduwura.svg"
   xmlns:inkscape="http://www.inkscape.org/namespaces/inkscape"
   xmlns:sodipodi="http://sodipodi.sourceforge.net/DTD/sodipodi-0.dtd"
   xmlns="http://www.w3.org/2000/svg"
   xmlns:svg="http://www.w3.org/2000/svg">
  <sodipodi:namedview
     id="namedview7"
     pagecolor="#ffffff"
     bordercolor="#666666"
     borderopacity="1.0"
     inkscape:showpageshadow="2"
     inkscape:pageopacity="0.0"
     inkscape:pagecheckerboard="0"
     inkscape:deskcolor="#d1d1d1"
     inkscape:document-units="mm"
     showgrid="false"
     inkscape:zoom="0.736773"
     inkscape:cx="393.60834"
     inkscape:cy="377.99974"
     inkscape:window-width="1920"
     inkscape:window-height="1002"
     inkscape:window-x="-8"
     inkscape:window-y="-8"
     inkscape:window-maximized="1"
     inkscape:current-layer="layer1" />
  <defs
     id="defs2" />
  <g
     inkscape:label="Camada 1"
     inkscape:groupmode="layer"
     id="layer1">
    <path
       style="display:inline;fill:#000000;stroke-width:0.264583"
       d="m 138.92809,194.42351 c -12.13133,-3.88259 -22.7795,-12.21493 -28.85237,-22.57755 l -6.10277,-10.41358 -5.618155,9.42116 C 85.968721,191.62421 55.586941,199.53385 33.209326,187.81363 1.0494679,170.97003 -0.75735464,124.97567 30.0264,106.79125 c 7.642802,-4.51475 9.220289,-7.853423 3.710513,-7.853423 -5.614643,0 -20.282297,-14.422425 -24.8152192,-24.400279 C -4.9176612,44.0738 19.052733,8.4010305 53.424732,8.3078545 68.186704,8.2639035 86.38019,17.268483 93.896677,28.329876 c 3.323569,4.891034 6.042812,10.219732 6.042812,11.841522 0,1.621789 1.046561,2.948755 2.325711,2.948755 1.27914,0 2.32579,-1.593221 2.32579,-3.540599 0,-1.947289 4.33154,-8.239743 9.62578,-13.98325 18.66112,-20.2450282 48.27596,-22.1546959 68.9634,-4.447042 24.62438,21.077632 21.18654,59.627472 -6.71606,75.309584 l -9.46342,5.318854 7.75118,4.6386 c 18.03544,10.79295 27.52005,25.2521 27.52005,41.95368 0,14.98053 -11.87132,33.56711 -26.09366,40.85439 -12.09987,6.19974 -27.43549,8.34018 -37.25017,5.19914 z m 28.53382,-22.26435 c 8.3156,-4.30012 13.87838,-14.42084 13.87838,-25.24977 0,-16.44531 -20.89093,-30.75217 -36.80415,-25.20483 -5.90155,2.05733 -7.64605,1.7311 -11.08943,-2.07369 -3.93185,-4.34463 -3.80606,-4.80395 3.33104,-12.16753 l 7.41698,-7.652454 -5.84758,-5.493417 c -9.01803,-8.472095 -7.74829,-12.389801 3.40514,-10.505467 12.97642,2.192351 22.18678,-0.391075 30.29247,-8.496891 5.8925,-5.892351 6.96974,-8.775444 6.96974,-18.652008 0,-10.184836 -1.01351,-12.696016 -7.90748,-19.589894 -6.74743,-6.747522 -9.50948,-7.907475 -18.82848,-7.907475 -20.39526,0 -33.37291,14.043815 -30.2204,32.703268 2.0468,12.11516 -3.38211,14.709399 -12.50043,5.973458 -8.06974,-7.731319 -9.59396,-7.66091 -17.717585,0.818366 -8.716611,9.098211 -13.200221,6.208578 -9.878849,-6.366906 6.131066,-23.213736 -18.754475,-42.521201 -41.124003,-31.906174 -10.152839,4.817812 -15.32138,13.721215 -15.32138,26.39297 0,16.989405 19.23099,31.68292 34.500247,26.36005 4.724284,-1.646903 7.612651,-1.400927 10.784414,0.918319 4.119432,3.012221 3.959539,3.523652 -3.259928,10.422945 l -7.591995,7.25533 7.465328,7.70227 c 8.901645,9.18419 7.755229,13.33108 -2.845031,10.29097 -18.386871,-5.27326 -36.72724,8.39455 -36.72724,27.37019 0,9.13508 1.143866,11.67304 8.30567,18.42743 6.88289,6.49142 10.089901,7.83327 18.721337,7.83327 21.166062,0 32.825715,-12.56293 30.178815,-32.51656 -0.791117,-5.9656 -0.753319,-11.53184 0.0879,-12.3694 0.837705,-0.83762 5.163795,1.67383 9.613738,5.58095 l 8.090842,7.10385 7.75927,-7.52065 c 6.56372,-6.36177 8.31745,-7.05744 11.38135,-4.51463 2.77199,2.30054 3.28138,5.57429 2.17039,13.94908 -2.55759,19.28047 8.53008,32.31846 27.6555,32.51998 4.86036,0.051 11.9071,-1.49447 15.65919,-3.43486 z"
       id="path8103" />
  </g>
</svg>
