<?xml version="1.0" encoding="UTF-8" standalone="no"?>
<!-- Created with Inkscape (http://www.inkscape.org/) -->

<svg
   width="210mm"
   height="210mm"
   viewBox="0 0 210 210"
   version="1.1"
   id="svg5"
   inkscape:version="1.2 (dc2aedaf03, 2022-05-15)"
   sodipodi:docname="10-Akoben.svg"
   xmlns:inkscape="http://www.inkscape.org/namespaces/inkscape"
   xmlns:sodipodi="http://sodipodi.sourceforge.net/DTD/sodipodi-0.dtd"
   xmlns="http://www.w3.org/2000/svg"
   xmlns:svg="http://www.w3.org/2000/svg">
  <sodipodi:namedview
     id="namedview7"
     pagecolor="#ffffff"
     bordercolor="#666666"
     borderopacity="1.0"
     inkscape:showpageshadow="2"
     inkscape:pageopacity="0.0"
     inkscape:pagecheckerboard="0"
     inkscape:deskcolor="#d1d1d1"
     inkscape:document-units="mm"
     showgrid="false"
     inkscape:zoom="0.736773"
     inkscape:cx="393.60834"
     inkscape:cy="377.99974"
     inkscape:window-width="1920"
     inkscape:window-height="1002"
     inkscape:window-x="-8"
     inkscape:window-y="-8"
     inkscape:window-maximized="1"
     inkscape:current-layer="layer1" />
  <defs
     id="defs2" />
  <g
     inkscape:label="Camada 1"
     inkscape:groupmode="layer"
     id="layer1">
    <path
       style="display:inline;fill:#000000;stroke-width:0.264583"
       d="m 46.344321,192.01409 v -9.40264 l 24.028795,0.8763 c 22.865443,0.83388 24.076767,0.53858 25.019621,-6.09978 0.946844,-6.67005 0.0352,-6.9761 -20.928145,-6.9761 -21.313409,0 -21.91925,-0.21421 -21.91925,-7.75124 0,-7.1319 1.176644,-7.77863 14.727322,-8.09442 8.099987,-0.18878 17.866534,-0.0891 21.70334,0.22195 5.572549,0.45139 6.97617,-1.03919 6.97617,-7.408 0,-7.80449 -0.459357,-7.97313 -21.703434,-7.97313 H 52.545342 v -9.30147 -9.30147 H 74.24874 c 19.636316,0 21.703434,-0.59061 21.703434,-6.20099 0,-5.6104 -2.067118,-6.20097 -21.703434,-6.20097 H 52.545342 V 99.100666 89.799189 H 74.24874 c 19.179889,0 21.703434,-0.678143 21.703434,-5.832923 0,-4.262565 -3.547609,-6.74711 -13.177034,-9.228713 C 41.788445,64.175017 27.669425,33.783076 54.309546,13.463855 c 11.793623,-8.9955056 17.587781,-8.7224671 7.556136,0.356239 -3.800275,3.439347 -6.219888,9.556347 -6.219888,15.724557 0,21.638244 36.333634,37.001582 69.796976,29.512839 32.08507,-7.180397 45.1608,-28.265534 28.64349,-46.189867 l -6.97607,-7.5704318 10.02414,5.0977338 c 10.38051,5.278901 19.4305,18.890515 19.4305,29.224495 0,13.513533 -22.16662,31.009231 -45.73219,36.095775 -7.11564,1.535859 -10.07664,3.924688 -10.07664,8.12961 0,5.305396 2.36629,5.954618 21.70351,5.954618 h 21.7034 v 9.301473 9.301464 h -21.7034 c -19.46741,0 -21.70351,0.62424 -21.70351,6.05931 0,5.32312 2.54277,6.17073 20.92834,6.97611 20.26543,0.88779 20.95928,1.1869 21.90929,9.44314 l 0.98083,8.52635 h -21.90929 c -21.42567,0 -21.90929,0.17484 -21.90929,7.91756 0,7.5528 0.74998,7.89277 16.27755,7.37883 25.98213,-0.8599 27.12924,-0.52944 27.12924,7.81563 0,7.23698 -1.02418,7.65446 -20.92822,8.52635 -18.50873,0.81079 -20.92835,1.62912 -20.92835,7.07793 0,5.64217 2.02401,6.13729 24.0288,5.87815 l 24.02879,-0.28311 v 8.84914 8.84918 H 108.35384 46.344204 Z"
       id="path8107" />
  </g>
</svg>
