<?xml version="1.0" encoding="UTF-8" standalone="no"?>
<!-- Created with Inkscape (http://www.inkscape.org/) -->

<svg
   width="210mm"
   height="210mm"
   viewBox="0 0 210 210"
   version="1.1"
   id="svg5"
   inkscape:version="1.2 (dc2aedaf03, 2022-05-15)"
   sodipodi:docname="11-Akofena.svg"
   xmlns:inkscape="http://www.inkscape.org/namespaces/inkscape"
   xmlns:sodipodi="http://sodipodi.sourceforge.net/DTD/sodipodi-0.dtd"
   xmlns="http://www.w3.org/2000/svg"
   xmlns:svg="http://www.w3.org/2000/svg">
  <sodipodi:namedview
     id="namedview7"
     pagecolor="#ffffff"
     bordercolor="#666666"
     borderopacity="1.0"
     inkscape:showpageshadow="2"
     inkscape:pageopacity="0.0"
     inkscape:pagecheckerboard="0"
     inkscape:deskcolor="#d1d1d1"
     inkscape:document-units="mm"
     showgrid="false"
     inkscape:zoom="0.736773"
     inkscape:cx="393.60834"
     inkscape:cy="333.20982"
     inkscape:window-width="1920"
     inkscape:window-height="1002"
     inkscape:window-x="-8"
     inkscape:window-y="-8"
     inkscape:window-maximized="1"
     inkscape:current-layer="layer1" />
  <defs
     id="defs2" />
  <g
     inkscape:label="Camada 1"
     inkscape:groupmode="layer"
     id="layer1">
    <path
       style="display:inline;fill:#000000;stroke-width:0.264583"
       d="m 36.174651,184.07761 c 0.704706,-2.69356 0,-5.68143 -1.538591,-6.63971 -1.550451,-0.95826 -2.819118,-5.67311 -2.819118,-10.47739 0,-9.96878 9.594486,-19.48439 19.645899,-19.48439 7.864967,0 9.612813,-3.33327 5.956381,-11.35836 -4.555594,-9.99837 1.058823,-21.04453 13.156435,-25.88508 6.622077,-2.64965 11.130233,-6.79465 14.025507,-12.896437 C 90.431305,85.050311 90.294381,84.537189 78.286941,73.68921 64.825983,61.528224 49.45585,54.97005 24.761554,50.851001 L 5.173087,47.583675 12.552895,38.813078 C 36.946103,9.8235923 79.761138,16.795086 101.61819,53.31551 c 2.71101,4.529916 2.90762,4.529916 5.61853,0 11.79485,-19.707649 31.82418,-32.749609 50.45086,-32.850855 13.11163,-0.06861 31.29716,9.041799 39.33855,19.713436 l 6.10418,8.100881 -19.14379,2.847247 c -24.65067,3.666332 -40.21713,10.460421 -54.83178,23.931777 l -11.73517,10.817096 5.77202,10.269875 c 3.43424,6.110263 9.12403,11.670513 14.04805,13.727913 4.55187,1.9019 10.32889,6.59063 12.8375,10.41941 3.79836,5.79728 4.0626,8.28221 1.58006,14.8594 -3.57185,9.46327 -2.24056,12.32443 5.73497,12.32443 10.05141,0 19.6458,9.51561 19.6458,19.48439 0,4.80428 -1.26857,9.51912 -2.81911,10.47739 -1.55045,0.95827 -2.24291,3.94615 -1.53849,6.63971 0.84289,3.22461 0.26854,4.27202 -1.6818,3.06653 -1.62905,-1.00696 -6.73822,-1.50554 -11.3531,-1.10791 -11.43878,0.9855 -22.66536,-9.83294 -20.66415,-19.91308 3.43648,-17.31157 3.41885,-17.39339 -3.58137,-16.58231 -3.80913,0.44136 -9.60085,-1.5693 -13.61444,-4.72636 -5.65734,-4.45005 -6.98511,-7.6224 -6.98511,-16.68855 0,-7.42453 -1.74657,-13.25559 -5.1865,-17.31612 l -5.1864,-6.12209 -5.186491,6.12209 c -3.439925,4.06053 -5.186498,9.89159 -5.186498,17.31612 0,9.06615 -1.32767,12.2385 -6.985114,16.68855 -4.01349,3.15706 -9.80521,5.1677 -13.614444,4.72636 -7.000208,-0.81105 -7.017752,-0.7293 -3.581258,16.58231 2.001208,10.08014 -9.225471,20.89858 -20.664148,19.91308 -4.614888,-0.39764 -9.724152,0.1009 -11.353208,1.10791 -1.950633,1.20549 -2.524983,0.15819 -1.681688,-3.06653 z m 25.619823,-9.24559 c 8.599959,-13.12529 -5.13357,-27.15019 -18.201595,-18.58767 -7.581319,4.96739 -8.530468,13.31415 -2.297596,20.20143 6.075658,6.71367 15.530575,5.96936 20.499191,-1.61376 z m 105.314786,2.06433 c 6.8036,-6.15731 5.96521,-15.53325 -1.84713,-20.652 -13.06812,-8.56252 -26.80155,5.46238 -18.20169,18.58767 4.81953,7.35544 13.24367,8.22283 20.04882,2.06433 z M 85.788382,50.840514 c 1.032065,-5.359097 -6.454086,-8.970248 -10.405143,-5.01919 -3.950958,3.951056 -0.3401,11.437207 5.019192,10.405141 2.483818,-0.478298 4.907751,-2.902034 5.385951,-5.385951 z m 49.271378,0 c 1.03216,-5.359097 -6.45399,-8.970248 -10.40505,-5.01919 -3.95105,3.951056 -0.34009,11.437207 5.0192,10.405141 2.48381,-0.478298 4.90765,-2.902034 5.38585,-5.385951 z M 47.376331,40.876131 c 0,-3.1305 -1.823507,-4.909025 -5.033398,-4.909025 -6.538081,0 -9.182149,4.446311 -5.37321,9.035719 3.918615,4.721725 10.406608,2.148911 10.406608,-4.126694 z M 173.30195,38.809158 c -0.96639,-1.563192 -4.02162,-2.842052 -6.78988,-2.842052 -5.67762,0 -7.15007,9.15598 -1.79195,11.142486 4.30577,1.59632 10.81013,-4.694771 8.58183,-8.300434 z m -105.9009,4.621556 c 3.946353,-3.946352 1.233383,-10.056906 -4.465325,-10.056906 -5.69861,0 -8.41158,6.110554 -4.465228,10.056906 1.600241,1.600143 3.609486,2.909288 4.465228,2.909288 0.855645,0 2.865085,-1.309145 4.465325,-2.909288 z m 83.23682,-4.425239 c 0.61061,-4.148452 -0.51162,-5.631667 -4.26097,-5.631667 -6.10055,0 -8.99926,5.980394 -4.8906,10.089348 4.13777,4.137574 8.17626,2.170376 9.15157,-4.457681 z"
       id="path8109" />
  </g>
</svg>
