<?xml version="1.0" encoding="UTF-8" standalone="no"?>
<!-- Created with Inkscape (http://www.inkscape.org/) -->

<svg
   width="210mm"
   height="210mm"
   viewBox="0 0 210 210"
   version="1.1"
   id="svg5"
   inkscape:version="1.2 (dc2aedaf03, 2022-05-15)"
   sodipodi:docname="12-Akoko_nan.svg"
   xmlns:inkscape="http://www.inkscape.org/namespaces/inkscape"
   xmlns:sodipodi="http://sodipodi.sourceforge.net/DTD/sodipodi-0.dtd"
   xmlns="http://www.w3.org/2000/svg"
   xmlns:svg="http://www.w3.org/2000/svg">
  <sodipodi:namedview
     id="namedview7"
     pagecolor="#ffffff"
     bordercolor="#666666"
     borderopacity="1.0"
     inkscape:showpageshadow="2"
     inkscape:pageopacity="0.0"
     inkscape:pagecheckerboard="0"
     inkscape:deskcolor="#d1d1d1"
     inkscape:document-units="mm"
     showgrid="false"
     inkscape:zoom="0.736773"
     inkscape:cx="393.60834"
     inkscape:cy="333.20982"
     inkscape:window-width="1920"
     inkscape:window-height="1002"
     inkscape:window-x="-8"
     inkscape:window-y="-8"
     inkscape:window-maximized="1"
     inkscape:current-layer="layer1" />
  <defs
     id="defs2" />
  <g
     inkscape:label="Camada 1"
     inkscape:groupmode="layer"
     id="layer1">
    <path
       style="display:inline;fill:#000000;stroke-width:0.264583"
       d="m 100.52471,200.71451 c 0.0263,-1.10278 4.22681,-6.13275 9.34526,-11.17769 16.7385,-16.49827 19.74414,-39.75295 7.83244,-60.60034 -7.29158,-12.76148 -13.70108,-16.48658 -30.052056,-17.46575 -11.698763,-0.70061 -13.860241,-0.21179 -14.538078,3.28692 -1.440722,7.43671 8.519259,23.76124 19.497354,31.9566 l 10.66867,7.96437 -7.769183,0.79336 c -4.27303,0.43636 -13.349606,-0.44415 -20.170024,-1.95676 -15.909259,-3.52813 -33.372575,-19.43861 -37.226675,-33.91648 -1.820588,-6.83942 -3.709757,-9.49696 -6.588837,-9.26964 -2.781421,0.21967 -4.264274,-1.66265 -4.769477,-6.05422 -0.586835,-5.096764 0.206706,-6.372892 3.962273,-6.372892 3.472221,0 5.420949,-2.420254 7.478285,-9.287215 C 41.900915,76.244759 54.254393,62.20719 65.336019,57.773174 70.279004,55.795455 80.99171,53.508815 89.14249,52.691801 L 103.96192,51.206234 91.474499,62.293551 C 79.193457,73.197635 72.67688,83.909482 72.67688,93.192729 c 0,4.204047 1.472691,4.709259 13.72667,4.709259 11.436001,0 14.93345,-1.01539 20.95826,-6.085035 22.78326,-19.170671 22.91744,-54.539272 0.28816,-76.037294 -3.94048,-3.743478 -7.1645,-7.554924 -7.1645,-8.4697725 0,-1.9940108 16.06901,-0.4396879 28.96775,2.8014775 14.0757,3.537298 29.18642,15.779364 37.07812,30.03944 6.00927,10.858359 6.94575,14.918465 6.90634,29.942302 -0.035,12.159585 -1.27947,19.665083 -4.15277,24.985814 -3.98478,7.37888 -3.95658,8.01791 0.94664,21.46536 11.4318,31.35298 -3.1591,65.47358 -33.70838,78.82633 -10.58921,4.62845 -36.05837,8.40924 -35.99881,5.34388 z m 52.72499,-36.13183 c 8.06687,-12.19003 9.75415,-33.85966 3.55885,-45.70952 -4.075,-7.79398 -4.54771,-7.99938 -18.66353,-8.11094 -7.96544,-0.0631 -14.48316,0.22134 -14.48386,0.6316 -7e-4,0.41034 2.86664,5.6245 6.37171,11.58706 5.51782,9.38633 6.37293,13.32868 6.37293,29.38031 0,10.19661 -0.94156,21.59158 -2.09219,25.32212 l -2.09211,6.78286 7.44167,-5.29895 c 4.09278,-2.9144 10.2068,-9.47747 13.58653,-14.58456 z M 60.786648,120.69286 c -2.128019,-9.97754 -5.714716,-12.91074 -10.245954,-8.37946 -1.618261,1.61833 2.506484,10.30639 7.742711,16.30853 4.840161,5.54815 5.160905,4.53235 2.503243,-7.92907 z M 60.734098,86.923761 C 62.021892,80.885752 62.741425,75.61153 62.333356,75.203295 61.137262,74.0073 52.571231,86.999148 50.804859,92.687842 c -1.304261,4.200657 -0.724346,5.214172 2.98436,5.214172 3.615688,0 5.105722,-2.355807 6.944879,-10.978253 z m 96.094772,2.788681 c 8.56033,-17.950922 1.27299,-46.888476 -14.80058,-58.772047 -8.65274,-6.397284 -9.92179,-5.601203 -6.53953,4.101622 1.42154,4.07771 2.18145,14.549985 1.68851,23.271746 -0.7261,12.850394 -2.2947,18.108027 -8.27182,27.723011 l -7.37581,11.86524 h 15.69694 c 15.68635,0 15.69957,-0.0046 19.60229,-8.189572 z"
       id="path8095" />
  </g>
</svg>
