<?xml version="1.0" encoding="UTF-8" standalone="no"?>
<!-- Created with Inkscape (http://www.inkscape.org/) -->

<svg
   width="210mm"
   height="210mm"
   viewBox="0 0 210 210"
   version="1.1"
   id="svg5"
   inkscape:version="1.2 (dc2aedaf03, 2022-05-15)"
   sodipodi:docname="14-Akoma_ntoaso.svg"
   xmlns:inkscape="http://www.inkscape.org/namespaces/inkscape"
   xmlns:sodipodi="http://sodipodi.sourceforge.net/DTD/sodipodi-0.dtd"
   xmlns="http://www.w3.org/2000/svg"
   xmlns:svg="http://www.w3.org/2000/svg">
  <sodipodi:namedview
     id="namedview7"
     pagecolor="#ffffff"
     bordercolor="#666666"
     borderopacity="1.0"
     inkscape:showpageshadow="2"
     inkscape:pageopacity="0.0"
     inkscape:pagecheckerboard="0"
     inkscape:deskcolor="#d1d1d1"
     inkscape:document-units="mm"
     showgrid="false"
     inkscape:zoom="0.736773"
     inkscape:cx="393.60834"
     inkscape:cy="333.20982"
     inkscape:window-width="1920"
     inkscape:window-height="1002"
     inkscape:window-x="-8"
     inkscape:window-y="-8"
     inkscape:window-maximized="1"
     inkscape:current-layer="layer1" />
  <defs
     id="defs2" />
  <g
     inkscape:label="Camada 1"
     inkscape:groupmode="layer"
     id="layer1">
    <path
       style="display:inline;fill:#000000;stroke-width:0.264583"
       d="m 128.29887,199.7764 c -9.38683,-5.09854 -15.34839,-12.24727 -15.34839,-18.40464 0,-1.54709 4.60506,-6.1488 10.23346,-10.22599 l 10.23336,-7.41309 -5.58706,-8.08472 c -4.94714,-7.15855 -6.49962,-7.83117 -13.55226,-5.87155 -9.83006,2.73134 -21.111958,0.63148 -32.820029,-6.10862 -9.266311,-5.33442 -16.240277,-4.7981 -21.600951,1.66114 -2.457616,2.96122 -1.84981,6.0413 2.838032,14.38219 7.099502,12.63196 4.819501,17.26078 -10.53962,21.39655 C 25.359758,188.32301 -1.2462382,163.10244 5.3360711,136.7262 8.2806749,124.92684 19.438038,112.1497 26.796938,112.1497 c 3.576394,0 6.508454,0.89611 6.515679,1.99127 0.0079,1.09521 2.777725,5.44622 6.156735,9.66892 6.066823,7.58193 6.232196,7.61949 13.261955,3.01344 6.463498,-4.23508 7.118468,-6.18982 7.118468,-21.24606 0,-13.126505 1.328303,-18.539252 6.374487,-25.975199 l 6.374489,-9.393321 -5.114322,-8.409822 -5.114323,-8.40979 -8.874851,5.484977 C 41.596121,66.228157 34.827667,65.842571 31.070548,57.596598 22.698035,39.220892 31.040443,14.148379 47.874979,7.1160912 64.366926,0.22532296 77.724714,2.574393 91.046377,14.708059 c 5.578832,5.081227 8.418171,17.774443 3.982601,17.803834 -1.095196,0.008 -5.446273,2.777746 -9.668906,6.156675 -7.57816,6.063943 -7.617296,6.235588 -3.021169,13.250215 4.316659,6.58812 5.651785,6.995531 18.297707,5.583478 11.27678,-1.259153 15.90311,-0.360951 26.68918,5.181694 9.09081,4.671458 14.32464,5.969155 17.25771,4.278938 11.82327,-6.81319 11.88277,-6.967743 5.91369,-15.350532 -8.60432,-12.083612 -7.4462,-18.649324 4.14366,-23.491865 24.05937,-10.052625 51.20012,8.184983 51.22581,34.421868 0.01,11.084371 -3.0583,18.539595 -11.40482,27.703309 -7.68493,8.437458 -14.14281,7.431071 -21.08497,-3.285916 -6.8405,-10.559973 -7.81648,-10.866024 -16.50258,-5.174662 -5.68019,3.721797 -6.19537,5.574156 -4.98438,17.921468 1.11708,11.389167 0.15755,15.986277 -5.55103,26.582357 -6.6665,12.37503 -6.74869,13.07065 -2.41306,20.41043 l 4.48875,7.59875 11.31421,-6.63058 11.31431,-6.63058 5.32103,5.32103 c 2.92655,2.92659 6.10335,9.49151 7.05967,14.58869 5.63191,30.02092 -27.88122,53.62744 -55.12492,38.82974 z"
       id="path7813" />
  </g>
</svg>
