<?xml version="1.0" encoding="UTF-8" standalone="no"?>
<!-- Created with Inkscape (http://www.inkscape.org/) -->

<svg
   width="210mm"
   height="210mm"
   viewBox="0 0 210 210"
   version="1.1"
   id="svg5"
   inkscape:version="1.2 (dc2aedaf03, 2022-05-15)"
   sodipodi:docname="15-Ananse_ntontan.svg"
   xmlns:inkscape="http://www.inkscape.org/namespaces/inkscape"
   xmlns:sodipodi="http://sodipodi.sourceforge.net/DTD/sodipodi-0.dtd"
   xmlns="http://www.w3.org/2000/svg"
   xmlns:svg="http://www.w3.org/2000/svg">
  <sodipodi:namedview
     id="namedview7"
     pagecolor="#ffffff"
     bordercolor="#666666"
     borderopacity="1.0"
     inkscape:showpageshadow="2"
     inkscape:pageopacity="0.0"
     inkscape:pagecheckerboard="0"
     inkscape:deskcolor="#d1d1d1"
     inkscape:document-units="mm"
     showgrid="false"
     inkscape:zoom="0.736773"
     inkscape:cx="393.60834"
     inkscape:cy="333.20982"
     inkscape:window-width="1920"
     inkscape:window-height="1002"
     inkscape:window-x="-8"
     inkscape:window-y="-8"
     inkscape:window-maximized="1"
     inkscape:current-layer="layer1" />
  <defs
     id="defs2" />
  <g
     inkscape:label="Camada 1"
     inkscape:groupmode="layer"
     id="layer1">
    <path
       style="display:inline;fill:#000000;stroke-width:0.264583"
       d="m 57.309635,190.73822 c -11.333558,-5.96594 -19.877827,-14.34195 -19.877827,-19.48639 0,-2.43099 10.200112,-14.26065 22.667016,-26.28818 12.466828,-12.02752 22.235399,-23.163 21.707894,-24.74549 -2.796501,-8.38966 -9.654175,-8.09424 -34.171993,1.47197 C 10.606453,136.13758 9.5149789,136.25168 5.9576715,126.04739 2.4062743,115.8596 2.1272953,99.879467 5.4107325,94.693944 7.3103939,91.693543 12.021081,91.40079 29.886253,93.172802 c 34.393248,3.411447 45.97656,3.149427 45.97656,-1.039925 0,-1.994414 -11.926802,-10.098598 -26.503928,-18.009309 C 34.781858,66.212889 20.648193,57.554093 17.950862,54.881846 c -5.904637,-5.849744 -3.97803,-10.479122 9.929247,-23.858041 9.398736,-9.041783 9.458138,-9.05729 15.201599,-3.975576 3.171345,2.805908 13.990319,16.13387 24.042076,29.61769 27.36701,36.710703 33.386546,33.133422 21.782823,-12.945055 -7.212182,-28.63986 -7.280199,-29.564237 -2.436483,-33.10608 5.605925,-4.0991276 27.124866,-4.8426441 32.978116,-1.1394263 3.3199,2.1004863 3.18507,6.5335493 -1.01374,33.3060733 -4.46526,28.472229 -4.50804,31.218364 -0.54894,35.178012 3.9597,3.959648 6.29591,2.284152 29.92758,-21.462855 23.90234,-24.019157 26.00655,-25.514605 31.17372,-22.154927 8.5636,5.56811 16.70759,22.031124 13.4543,27.198025 -1.47854,2.348342 -15.19429,11.192222 -30.47943,19.653038 -26.0396,14.413827 -33.12737,21.050846 -26.71366,25.014716 1.48284,0.91647 15.56272,2.37601 31.28872,3.24351 43.30184,2.38866 46.43422,4.9153 34.26042,27.63483 -7.88945,14.72384 -10.91354,14.50699 -40.37642,-2.89544 -22.60952,-13.35446 -28.5941,-15.38631 -31.49468,-10.69313 -2.32519,3.7622 7.17472,20.56868 21.0253,37.19628 6.67837,8.01742 11.81308,16.33384 11.41029,18.48097 -0.92559,4.93772 -19.9812,15.87264 -27.76036,15.93042 -8.06074,0.0601 -10.59649,-5.87171 -15.44892,-36.13774 -2.30165,-14.35647 -5.21706,-27.14838 -6.47852,-28.42647 -3.71899,-3.76784 -15.518448,0.57679 -18.992913,6.99327 -1.766633,3.26262 -7.487154,17.17003 -12.712225,30.90532 -5.22507,13.7353 -10.671917,25.31329 -12.104076,25.72884 -1.432188,0.41552 -6.181943,-1.12789 -10.555151,-3.42988 z M 114.74687,113.901 c 10.20963,-9.23959 3.27833,-24.767883 -11.05548,-24.767883 -14.117838,0 -20.78268,14.067783 -11.515971,24.307383 5.461577,6.03494 16.170261,6.25344 22.571451,0.4605 z"
       id="path7827" />
  </g>
</svg>
