<?xml version="1.0" encoding="UTF-8" standalone="no"?>
<!-- Created with Inkscape (http://www.inkscape.org/) -->

<svg
   width="210mm"
   height="210mm"
   viewBox="0 0 210 210"
   version="1.1"
   id="svg5"
   inkscape:version="1.2 (dc2aedaf03, 2022-05-15)"
   sodipodi:docname="16-Ani_bere.svg"
   xmlns:inkscape="http://www.inkscape.org/namespaces/inkscape"
   xmlns:sodipodi="http://sodipodi.sourceforge.net/DTD/sodipodi-0.dtd"
   xmlns="http://www.w3.org/2000/svg"
   xmlns:svg="http://www.w3.org/2000/svg">
  <sodipodi:namedview
     id="namedview7"
     pagecolor="#ffffff"
     bordercolor="#666666"
     borderopacity="1.0"
     inkscape:showpageshadow="2"
     inkscape:pageopacity="0.0"
     inkscape:pagecheckerboard="0"
     inkscape:deskcolor="#d1d1d1"
     inkscape:document-units="mm"
     showgrid="false"
     inkscape:zoom="0.736773"
     inkscape:cx="393.60834"
     inkscape:cy="443.14871"
     inkscape:window-width="1920"
     inkscape:window-height="1002"
     inkscape:window-x="-8"
     inkscape:window-y="-8"
     inkscape:window-maximized="1"
     inkscape:current-layer="layer1" />
  <defs
     id="defs2" />
  <g
     inkscape:label="Camada 1"
     inkscape:groupmode="layer"
     id="layer1">
    <g
       id="g9618"
       style="display:inline;stroke-width:0.109376"
       transform="matrix(9.1428019,0,0,9.1428019,-1010.7573,-618.76367)">
      <path
         style="fill:#000000;stroke-width:0.0289389"
         d="m 126.7643,69.011103 c -0.28127,-0.33891 -0.20398,-0.396875 0.52917,-0.396875 0.73315,0 0.81044,0.05797 0.52917,0.396875 -0.18116,0.218282 -0.41928,0.396875 -0.52917,0.396875 -0.10988,0 -0.34801,-0.178593 -0.52917,-0.396875 z"
         id="path7863" />
      <path
         style="fill:#000000;stroke-width:0.0289389"
         d="m 115.91639,69.011103 c -0.28127,-0.33891 -0.20399,-0.396875 0.52916,-0.396875 0.73315,0 0.81044,0.05797 0.52917,0.396875 -0.18116,0.218282 -0.41928,0.396875 -0.52917,0.396875 -0.10988,0 -0.348,-0.178593 -0.52916,-0.396875 z"
         id="path7861" />
      <path
         style="fill:#000000;stroke-width:0.0289389"
         d="m 125.24295,70.736311 c -1.05503,-1.007671 -1.91823,-1.897367 -1.91823,-1.977104 0,-0.07974 0.44147,-0.144979 0.98103,-0.144979 0.77641,0 1.19273,0.206714 1.99597,0.991061 l 1.01494,0.991058 0.8483,-1.009775 c 0.78304,-0.932082 0.93991,-1.003244 2.03893,-0.924912 l 1.19062,0.08486 -1.98437,1.913514 c -1.09141,1.052433 -2.04391,1.912364 -2.11667,1.910959 -0.0728,-0.0013 -0.99549,-0.827011 -2.05052,-1.834682 z"
         id="path7859" />
      <path
         style="fill:#000000;stroke-width:0.0289389"
         d="m 114.36935,70.664751 -1.93247,-1.918229 1.14444,-0.08645 c 1.04077,-0.07862 1.22274,0.0037 2.00884,0.909193 l 0.86441,0.995637 0.99884,-0.975338 c 0.85312,-0.833054 1.17089,-0.974225 2.1783,-0.967722 l 1.17947,0.0076 -2.11667,1.966262 c -1.16416,1.081444 -2.17877,1.970987 -2.25468,1.97676 -0.0759,0.0058 -1.00763,-0.852707 -2.07048,-1.907733 z"
         id="path7857" />
      <path
         style="fill:#000000;stroke-width:0.0289389"
         d="m 111.15389,73.433428 c 0,-0.88854 0.42995,-1.152287 0.70594,-0.433057 0.0881,0.229566 -0.0347,0.612267 -0.27289,0.850448 -0.40101,0.401018 -0.43305,0.370139 -0.43305,-0.417391 z"
         id="path7855" />
      <path
         style="fill:#000000;stroke-width:0.0289389"
         d="m 132.25441,73.982293 c -0.56764,-0.631288 -0.57436,-0.796605 -0.0536,-1.317419 0.54758,-0.547579 0.70066,-0.331147 0.60027,0.848688 -0.0815,0.958162 -0.0957,0.970317 -0.54672,0.468731 z"
         id="path7853" />
      <path
         style="fill:#000000;stroke-width:0.0289389"
         d="m 130.13774,75.544102 c -1.12778,-1.126199 -2.05052,-2.149933 -2.05052,-2.274962 0,-0.236093 4.12277,-4.190907 4.53081,-4.346228 0.12743,-0.04851 0.23169,0.330001 0.23169,0.841131 0,0.774378 -0.22762,1.146464 -1.36522,2.231658 l -1.36523,1.302334 1.16535,1.097683 c 0.64095,0.603723 1.2553,1.097679 1.36523,1.097679 0.10993,0 0.19987,0.47625 0.19987,1.058333 0,0.675167 -0.11974,1.055016 -0.33073,1.049171 -0.1819,-0.005 -1.25346,-0.9306 -2.38125,-2.056799 z"
         id="path7851" />
      <path
         style="fill:#000000;stroke-width:0.0289389"
         d="m 111.15389,76.601779 c 0,-0.855382 0.18055,-1.175372 1.19062,-2.11011 0.65485,-0.606007 1.19063,-1.157761 1.19063,-1.226124 0,-0.06836 -0.54463,-0.638871 -1.21027,-1.267799 -1.07231,-1.013145 -1.2005,-1.254739 -1.12448,-2.119273 l 0.0858,-0.97577 2.31251,2.179294 2.3125,2.179293 -2.18574,2.174388 c -1.20216,1.195912 -2.27255,2.174386 -2.37865,2.174386 -0.1061,0 -0.19291,-0.453729 -0.19291,-1.008285 z"
         id="path7849" />
      <path
         style="fill:#000000;stroke-width:0.0289389"
         d="m 121.25007,73.818328 c -0.57244,-0.609338 -0.57323,-0.622311 -0.0658,-1.081524 1.03264,-0.934527 2.41567,0.134091 1.49302,1.153604 -0.62107,0.686271 -0.71944,0.681302 -1.42721,-0.07208 z"
         id="path7847" />
      <path
         style="fill:#000000;stroke-width:0.0289389"
         d="m 119.4249,75.59972 -2.25454,-2.274927 2.21145,-2.22299 c 1.21629,-1.222645 2.33313,-2.221055 2.48186,-2.21869 0.33111,0.0053 4.63605,4.114427 4.63605,4.425215 0,0.265062 -4.365,4.566319 -4.63399,4.566319 -0.10247,0 -1.20084,-1.023718 -2.44083,-2.274927 z m 3.8617,-1.258104 1.13039,-1.151782 -1.28299,-1.074177 -1.28298,-1.074173 -1.2835,1.113467 -1.2835,1.11347 1.26385,1.112488 c 0.69512,0.61187 1.34136,1.112488 1.4361,1.112488 0.0947,0 0.68091,-0.518303 1.30263,-1.151781 z"
         id="path7845" />
      <path
         style="fill:#000000;stroke-width:0.0289389"
         d="m 126.62356,79.188227 c -0.47483,-0.524685 -0.47239,-0.553451 0.095,-1.120807 0.46193,-0.461926 0.67726,-0.522502 1.04165,-0.293034 0.61661,0.388308 0.71865,1.069379 0.23298,1.555049 -0.52822,0.528219 -0.788,0.501435 -1.36959,-0.141208 z"
         id="path7843" />
      <path
         style="fill:#000000;stroke-width:0.0289389"
         d="m 124.91402,81.019186 c -1.16516,-1.180921 -2.11847,-2.294406 -2.11847,-2.47441 0,-0.180004 1.02393,-1.312699 2.27538,-2.517098 l 2.27539,-2.189819 2.22253,2.210991 c 1.2224,1.216044 2.22254,2.335308 2.22254,2.487255 0,0.306906 -4.26502,4.630209 -4.56779,4.630209 -0.10511,0 -1.14442,-0.966208 -2.30958,-2.147128 z m 3.62533,-3.60756 c -0.60031,-0.618463 -1.17825,-1.124479 -1.2843,-1.124479 -0.28333,0 -2.07326,1.939208 -2.07595,2.249075 -0.001,0.145587 0.47909,0.791331 1.06745,1.434991 l 1.06975,1.170289 1.15727,-1.302699 1.15726,-1.302698 z"
         id="path7841" />
      <path
         style="fill:#000000;stroke-width:0.0289389"
         d="m 115.7841,79.197564 c -0.46213,-0.510649 -0.46213,-0.547685 0,-1.058334 0.26339,-0.291041 0.62057,-0.529166 0.79375,-0.529166 0.17317,0 0.53036,0.238125 0.79375,0.529166 0.46213,0.510649 0.46213,0.547685 0,1.058334 -0.26339,0.291041 -0.62058,0.529166 -0.79375,0.529166 -0.17318,0 -0.53036,-0.238125 -0.79375,-0.529166 z"
         id="path7839" />
      <path
         style="fill:#000000;stroke-width:0.0289389"
         d="m 114.06764,80.920708 -2.23394,-2.245606 1.04916,-1.110139 c 0.57703,-0.610577 1.64447,-1.680996 2.37207,-2.378713 l 1.32292,-1.268576 2.18281,2.171083 c 1.20055,1.194094 2.18281,2.34619 2.18281,2.560212 0,0.409212 -4.01065,4.517345 -4.41014,4.517345 -0.12747,0 -1.23702,-1.010523 -2.46569,-2.245606 z m 3.8128,-3.415975 c -0.55978,-0.669674 -1.14435,-1.217586 -1.29905,-1.217586 -0.15469,0 -0.76805,0.517282 -1.363,1.149514 l -1.08174,1.149517 1.18093,1.26792 1.18093,1.26792 1.19985,-1.199851 1.19985,-1.199851 z"
         id="path7837" />
      <path
         style="fill:#000000;stroke-width:0.0289389"
         d="m 132.10889,84.436314 c -0.41531,-0.415306 -0.40066,-0.695474 0.0605,-1.156608 0.56437,-0.564361 0.68036,-0.470921 0.68036,0.548066 0,0.969494 -0.20856,1.140814 -0.74083,0.608542 z"
         id="path7835" />
      <path
         style="fill:#000000;stroke-width:0.0289389"
         d="m 111.15389,83.841271 c 0,-0.868746 0.0441,-0.933241 0.39687,-0.580464 0.21828,0.218281 0.39688,0.509865 0.39688,0.647962 0,0.138096 -0.1786,0.399304 -0.39688,0.580461 -0.34059,0.282671 -0.39687,0.190786 -0.39687,-0.647959 z"
         id="path7833" />
      <path
         style="fill:#000000;stroke-width:0.0289389"
         d="m 130.27007,86.302827 c -1.20054,-1.180939 -2.18281,-2.223566 -2.18281,-2.316954 0,-0.235558 4.33165,-4.523737 4.56959,-4.523737 0.1061,0 0.19291,0.424355 0.19291,0.943012 0,0.797568 -0.21167,1.13764 -1.3724,2.204937 l -1.3724,1.26193 1.13983,1.036206 c 0.62691,0.569913 1.24449,1.075894 1.3724,1.1244 0.28217,0.107003 0.31487,2.427005 0.0341,2.421356 -0.10914,-0.0021 -1.1807,-0.970212 -2.38125,-2.15115 z"
         id="path7821" />
      <path
         style="fill:#000000;stroke-width:0.0289389"
         d="m 121.0758,84.489219 c -0.46213,-0.510648 -0.46213,-0.547685 0,-1.058333 0.26339,-0.291042 0.62058,-0.529167 0.79375,-0.529167 0.17318,0 0.53036,0.238125 0.79375,0.529167 0.46213,0.510648 0.46213,0.547685 0,1.058333 -0.26339,0.291042 -0.62057,0.529167 -0.79375,0.529167 -0.17317,0 -0.53036,-0.238125 -0.79375,-0.529167 z"
         id="path7819" />
      <path
         style="fill:#000000;stroke-width:0.0289389"
         d="m 119.3713,86.181788 -2.23366,-2.240735 2.22782,-2.239457 c 1.22531,-1.231704 2.35215,-2.23946 2.50409,-2.23946 0.15195,0 1.28356,1.012555 2.5147,2.25012 l 2.23843,2.25012 -2.24427,2.238568 c -1.23435,1.231215 -2.36334,2.234747 -2.50886,2.230072 -0.14552,-0.0047 -1.26973,-1.016825 -2.49825,-2.249228 z m 4.95647,-2.244093 c 0.0423,-0.09616 -0.4943,-0.653124 -1.19251,-1.237697 l -1.26947,-1.062857 -1.25743,1.083638 -1.25744,1.083638 1.24002,1.258953 1.24003,1.258954 1.20991,-1.104897 c 0.66546,-0.607693 1.24456,-1.183571 1.28689,-1.279732 z"
         id="path7817" />
      <path
         style="fill:#000000;stroke-width:0.0289389"
         d="m 111.15177,87.382412 c -0.002,-1.068139 0.11079,-1.273736 1.25678,-2.291882 l 1.25892,-1.118479 -1.25677,-1.211175 c -1.10503,-1.064937 -1.25677,-1.344485 -1.25677,-2.315263 v -1.104085 l 2.24896,2.237275 c 1.23692,1.2305 2.23358,2.358966 2.2148,2.507699 -0.0188,0.148736 -1.03082,1.215173 -2.24896,2.369868 l -2.2148,2.099442 -0.002,-1.1734 z"
         id="path7815" />
      <path
         style="fill:#000000;stroke-width:0.0289389"
         d="m 126.49972,88.325702 c 0.18116,-0.218282 0.47882,-0.396875 0.66146,-0.396875 0.18264,0 0.4803,0.178593 0.66146,0.396875 0.28281,0.340762 0.18928,0.396875 -0.66146,0.396875 -0.85074,0 -0.94427,-0.05611 -0.66146,-0.396875 z"
         id="path7807" />
      <path
         style="fill:#000000;stroke-width:0.0289389"
         d="m 125.17845,86.736543 c 1.08503,-1.092317 2.05872,-1.95552 2.16376,-1.918229 0.10505,0.03729 1.05532,0.901242 2.11172,1.919888 l 1.92074,1.852083 -1.0978,0.08054 c -0.9795,0.07186 -1.19761,-0.02793 -2.02386,-0.926042 l -0.92605,-1.00658 -1.02009,0.992187 c -0.82806,0.805418 -1.21596,0.992188 -2.06064,0.992188 h -1.04056 z"
         id="path7805" />
      <path
         style="fill:#000000;stroke-width:0.0289389"
         d="m 115.91639,88.325702 c 0.18116,-0.218282 0.47881,-0.396875 0.66146,-0.396875 0.18264,0 0.4803,0.178593 0.66145,0.396875 0.28281,0.340762 0.18929,0.396875 -0.66145,0.396875 -0.85075,0 -0.94427,-0.05611 -0.66146,-0.396875 z"
         id="path7803" />
      <path
         style="fill:#000000;stroke-width:0.0289389"
         d="m 114.38072,86.690637 2.03194,-2.031939 1.93468,1.815902 c 1.06407,0.998746 1.97436,1.913117 2.02287,2.031939 0.0485,0.118822 -0.36319,0.216038 -0.91489,0.216038 -0.80167,0 -1.20757,-0.199221 -2.02151,-0.992188 l -1.01844,-0.992187 -0.88495,0.992187 c -0.76544,0.858192 -1.04004,0.992188 -2.0333,0.992188 h -1.14834 z"
         id="path7801" />
    </g>
  </g>
</svg>
