<?xml version="1.0" encoding="UTF-8" standalone="no"?>
<!-- Created with Inkscape (http://www.inkscape.org/) -->

<svg
   width="210mm"
   height="210mm"
   viewBox="0 0 210 210"
   version="1.1"
   id="svg5"
   inkscape:version="1.2 (dc2aedaf03, 2022-05-15)"
   sodipodi:docname="17-Abase_ye_duru.svg"
   xmlns:inkscape="http://www.inkscape.org/namespaces/inkscape"
   xmlns:sodipodi="http://sodipodi.sourceforge.net/DTD/sodipodi-0.dtd"
   xmlns="http://www.w3.org/2000/svg"
   xmlns:svg="http://www.w3.org/2000/svg">
  <sodipodi:namedview
     id="namedview7"
     pagecolor="#ffffff"
     bordercolor="#666666"
     borderopacity="1.0"
     inkscape:showpageshadow="2"
     inkscape:pageopacity="0.0"
     inkscape:pagecheckerboard="0"
     inkscape:deskcolor="#d1d1d1"
     inkscape:document-units="mm"
     showgrid="false"
     inkscape:zoom="0.736773"
     inkscape:cx="393.60834"
     inkscape:cy="443.14871"
     inkscape:window-width="1920"
     inkscape:window-height="1002"
     inkscape:window-x="-8"
     inkscape:window-y="-8"
     inkscape:window-maximized="1"
     inkscape:current-layer="layer1" />
  <defs
     id="defs2" />
  <g
     inkscape:label="Camada 1"
     inkscape:groupmode="layer"
     id="layer1">
    <path
       style="display:inline;fill:#000000;stroke-width:0.264583"
       d="m 91.698214,195.46761 c -31.235857,-24.88436 -48.14434,-46.53418 -48.14434,-61.64472 0,-4.78193 2.802239,-12.85267 6.227265,-17.93498 l 6.227267,-9.24055 -6.227267,-6.719273 C 33.943642,82.839162 50.77123,51.204123 94.957602,14.996385 l 11.998078,-9.8315231 10.34567,6.8464871 c 20.27272,13.415815 41.66535,35.429731 49.0018,50.424975 6.33888,12.956084 6.89451,16.084854 4.21929,23.758756 -1.6944,4.860774 -5.12859,11.10048 -7.6313,13.866 -4.24802,4.69399 -4.17525,5.43842 1.09504,11.19725 12.12834,13.25255 9.90424,26.04223 -9.00921,51.80751 -11.51743,15.68979 -41.00986,41.13104 -47.68073,41.13104 -2.55237,0 -9.571495,-3.92815 -15.598026,-8.72927 z m 35.043366,-16.0351 c 40.07078,-35.71448 43.75493,-68.13978 7.55165,-66.46348 -16.36888,0.75792 -21.2374,15.33302 -7.56581,22.64984 4.74588,2.53993 6.7574,1.86486 12.32054,-4.1348 3.65677,-3.94366 7.83817,-7.17031 9.29186,-7.17031 4.9517,0 2.66117,8.49612 -4.11819,15.27544 -8.18028,8.18028 -20.37193,8.83172 -29.3424,1.56792 -6.28359,-5.08811 -6.60998,-5.08811 -16.103291,0 -5.329293,2.85634 -12.304905,5.19336 -15.50141,5.19336 -7.342809,0 -15.714439,-9.03894 -14.450433,-15.6023 1.190191,-6.18022 10.539523,-8.54612 10.539523,-2.66707 0,5.81989 4.63833,8.06681 12.552187,6.08056 8.512474,-2.13649 8.835314,-10.42637 0.701704,-18.00436 -14.316963,-13.33833 -40.581961,-1.08589 -36.920187,17.22303 2.592768,12.96339 14.632835,28.70065 34.532413,45.13622 9.763567,8.06408 18.503014,14.66196 19.420854,14.66196 0.91825,0 8.609,-6.18571 17.09141,-13.74601 z m -11.94002,-67.06655 c 4.09758,-4.93726 -7.52323,-16.476319 -13.11355,-13.021315 -3.078951,1.902925 -2.822111,3.608455 1.41986,9.427725 5.96949,8.18901 7.49159,8.65679 11.69369,3.59359 z M 151.98868,96.567932 C 166.61413,85.063607 157.3584,60.369252 129.69384,37.084729 105.75571,16.936744 106.59578,17.082687 90.77996,30.32447 73.653782,44.663349 57.896241,65.686685 55.574577,77.294611 c -2.36789,11.839842 7.127717,22.227844 20.318414,22.227844 18.094821,0 25.148699,-9.025143 15.439275,-19.753887 -5.920557,-6.54221 -11.08121,-6.383733 -15.362546,0.471724 -3.062827,4.904334 -13.133643,7.933804 -13.133643,3.950807 0,-4.786522 6.731576,-12.705199 13.992243,-16.459871 8.954544,-4.630575 17.252468,-3.413377 25.37223,3.721784 4.49351,3.948568 5.63373,3.919594 12.82068,-0.325866 9.27874,-5.481085 23.08432,-6.100885 27.09893,-1.216615 5.7547,7.001453 5.04571,14.41689 -1.46693,15.341829 -4.04208,0.574064 -6.1979,-0.54377 -6.1979,-3.213694 0,-5.512432 -5.53951,-7.075996 -13.08429,-3.693111 -6.98706,3.132882 -7.80048,7.096536 -2.75456,13.421415 9.05574,11.35084 22.57314,13.29544 33.3722,4.800889 z"
       id="path7823" />
  </g>
</svg>
