<?xml version="1.0" encoding="UTF-8" standalone="no"?>
<!-- Created with Inkscape (http://www.inkscape.org/) -->

<svg
   width="210mm"
   height="210mm"
   viewBox="0 0 210 210"
   version="1.1"
   id="svg5"
   inkscape:version="1.2 (dc2aedaf03, 2022-05-15)"
   sodipodi:docname="18-Aya.svg"
   xmlns:inkscape="http://www.inkscape.org/namespaces/inkscape"
   xmlns:sodipodi="http://sodipodi.sourceforge.net/DTD/sodipodi-0.dtd"
   xmlns="http://www.w3.org/2000/svg"
   xmlns:svg="http://www.w3.org/2000/svg">
  <sodipodi:namedview
     id="namedview7"
     pagecolor="#ffffff"
     bordercolor="#666666"
     borderopacity="1.0"
     inkscape:showpageshadow="2"
     inkscape:pageopacity="0.0"
     inkscape:pagecheckerboard="0"
     inkscape:deskcolor="#d1d1d1"
     inkscape:document-units="mm"
     showgrid="false"
     inkscape:zoom="0.736773"
     inkscape:cx="393.60834"
     inkscape:cy="443.14871"
     inkscape:window-width="1920"
     inkscape:window-height="1002"
     inkscape:window-x="-8"
     inkscape:window-y="-8"
     inkscape:window-maximized="1"
     inkscape:current-layer="layer1" />
  <defs
     id="defs2" />
  <g
     inkscape:label="Camada 1"
     inkscape:groupmode="layer"
     id="layer1">
    <path
       style="display:inline;fill:#000000;stroke-width:0.264583"
       d="m 28.912176,201.46522 c -10.776872,-4.71554 -13.067549,-10.00034 -9.721251,-22.42761 3.530477,-13.11128 10.411258,-18.33225 27.504465,-20.86979 12.168484,-1.80648 43.591527,4.85066 46.709449,9.89564 3.522869,5.70011 6.733041,1.57172 6.733041,-8.65882 0,-8.44557 -1.410681,-11.81433 -5.969024,-14.25388 -8.658732,-4.63407 -37.21771,-1.96169 -43.927386,4.11053 -7.801881,7.06056 -15.456904,4.74318 -16.574411,-5.0175 -0.521854,-4.56166 0.685264,-9.05941 2.789444,-10.39359 5.476729,-3.47194 21.033365,-2.77044 39.971932,1.80244 23.272148,5.61933 23.709445,5.51721 23.709445,-5.53641 0,-6.70035 -1.654841,-10.55029 -5.39531,-12.55218 -8.278032,-4.43027 -22.929012,-3.44284 -33.697029,2.27109 -11.810987,6.26733 -16.694911,5.02181 -16.694911,-4.25747 0,-4.65628 1.868977,-7.4909 5.578676,-8.46101 6.19847,-1.62093 6.683847,-3.11053 2.941361,-9.026052 -1.579058,-2.495824 -1.453075,-6.087331 0.331035,-9.419914 2.988064,-5.583314 8.467851,-5.611906 39.266023,-0.205052 9.809345,1.722141 10.460125,1.398401 10.460125,-5.203573 0,-11.309853 -16.380452,-14.247165 -31.067905,-5.571043 -7.199376,4.252734 -8.545339,4.339256 -10.847823,0.697387 -7.190415,-11.373118 3.485354,-16.533709 23.682545,-11.447981 17.056963,4.29502 18.747133,3.992819 17.729783,-3.169985 -1.08672,-7.651618 -12.72106,-9.802217 -25.158311,-4.650503 -6.838816,2.832752 -8.752915,2.757827 -10.716563,-0.419381 -1.504522,-2.43435 -0.867649,-5.551613 1.719589,-8.409856 2.260631,-2.497933 3.38014,-6.44409 2.487928,-8.76923 -0.943555,-2.459748 0.268834,-4.952978 2.89898,-5.962423 2.486556,-0.954203 3.820596,-2.868397 2.964452,-4.253704 -0.856056,-1.385317 0.312047,-6.101257 2.595335,-10.479847 2.283705,-4.37859 4.159846,-9.530115 4.169226,-11.4478089 0.0105,-2.3480916 5.4826,-3.6385372 16.753324,-3.9516182 9.20498,-0.2557613 18.93288,-0.5695065 21.61763,-0.6973871 2.68486,-0.1277753 4.56765,1.3365796 4.18412,3.2542731 -0.38375,1.9176935 0.55769,3.4867151 2.09205,3.4867151 1.53415,0 2.78934,2.436354 2.78934,5.414118 0,2.977775 1.2885,6.210488 2.86335,7.183783 1.57484,0.973285 2.63204,3.244016 2.34939,5.046026 -0.54083,3.450849 1.64822,10.237844 6.69924,20.766324 3.95545,8.24494 -1.07386,14.531525 -7.41507,9.268755 -2.25916,-1.874954 -8.9022,-3.014199 -14.76237,-2.531689 -8.80531,0.725008 -10.81851,2.034926 -11.5976,7.546066 -0.77804,5.506249 -0.0527,6.312066 4.184,4.622744 2.81981,-1.125297 12.34434,-2.731522 21.16578,-3.56942 15.61136,-1.482836 16.03885,-1.339605 16.03885,5.372496 0,9.678378 -2.70046,11.314987 -10.37393,6.287132 -4.08312,-2.675342 -11.14249,-4.020208 -18.35357,-3.496508 -10.59712,0.769603 -11.80603,1.618644 -12.63488,8.873394 -0.90666,7.935855 -0.80123,7.997275 9.76279,5.696509 5.87365,-1.279207 16.95541,-2.378833 24.62625,-2.443596 13.32964,-0.112383 13.98749,0.237944 14.86494,7.920399 1.01314,8.86812 1.34723,8.84893 -23.75259,1.361186 -16.44116,-4.904703 -25.5734,-0.662491 -23.85001,11.079194 1.10296,7.51482 1.95089,8.18098 7.65344,6.01286 3.52721,-1.34105 14.16334,-3.84364 23.63578,-5.56134 18.57886,-3.36894 25.15813,-1.18311 25.15813,8.35844 0,9.09972 -6.48449,11.3913 -15.47114,5.46745 -8.95027,-5.89983 -26.31991,-7.18311 -34.92102,-2.57995 -3.74048,2.00189 -5.39534,5.85183 -5.39534,12.55218 0,10.73153 0.19715,10.82835 13.96525,6.84635 19.55488,-5.65577 42.4141,-8.21866 47.76453,-5.35521 6.36431,3.40608 7.16659,18.75728 1.10191,21.08451 -2.26232,0.86817 -8.37276,-1.05415 -13.57876,-4.27159 -10.26398,-6.34351 -29.82086,-7.79742 -42.09793,-3.12968 -6.07787,2.31081 -7.155,4.44545 -7.155,14.17931 0,6.30244 0.94145,10.9744 2.09195,10.3821 17.75665,-9.14031 26.60214,-11.46059 44.55171,-11.68657 18.01368,-0.22677 20.85425,0.484 26.85357,6.71981 9.54013,9.91628 11.58021,23.70814 4.54709,30.74121 -12.05452,12.0545 -62.4143,5.75603 -74.89917,-9.36758 -4.82309,-5.84251 -12.52703,-5.95383 -17.261232,-0.24933 -10.40941,12.54267 -52.925933,22.16846 -68.267185,15.45577 z m 56.500008,-13.08364 c 7.663738,-4.49131 11.940384,-8.84499 11.402507,-11.60792 -2.000321,-10.27359 -44.891902,-16.27267 -53.659582,-7.50508 -4.361859,4.36191 -6.069113,20.89482 -2.523666,24.44021 1.022623,1.02273 8.757559,1.85959 17.188511,1.85959 11.439469,0 18.440541,-1.82353 27.59223,-7.1868 z m 83.902186,3.83955 c 4.88761,-4.8876 4.08933,-20.45963 -1.27659,-24.9023 -9.93548,-8.22599 -53.953,-0.34864 -53.953,9.65548 0,4.52689 11.25783,12.65038 22.07392,15.92821 11.21111,3.39751 29.45166,3.02267 33.15567,-0.68137 z M 102.08435,99.767015 c -2.498047,-6.509696 -22.304783,-8.560467 -32.376448,-3.352213 -10.136626,5.241878 -11.193407,9.801648 -2.344971,10.118128 3.451829,0.12356 11.924519,1.72386 18.82824,3.55643 11.114797,2.95042 12.832585,2.78267 15.001599,-1.46515 1.34723,-2.63841 1.74847,-6.62415 0.89189,-8.857195 z m 0.8434,-52.035419 c 0,-4.608522 -1.85959,-5.578749 -10.692595,-5.578749 -14.920096,0 -16.930972,3.567807 -4.202646,7.456413 14.646751,4.474685 14.895241,4.443363 14.895241,-1.877664 z m 28.75565,0.06642 c 1.24117,-0.0369 1.48091,-1.321778 0.5324,-2.855935 -0.94778,-1.534167 -6.67067,-2.78938 -12.7168,-2.78938 -8.92962,0 -10.99289,0.991945 -10.99289,5.284993 0,4.679368 1.19868,5.006618 10.46017,2.855935 5.75305,-1.335989 11.47563,-2.459031 12.7168,-2.495624 z M 102.92775,35.09163 c 0,-5.511825 -6.527589,-7.952638 -15.347718,-5.738879 -9.775066,2.453369 -8.671692,6.656109 2.098268,7.992636 4.985943,0.61874 10.006783,1.325911 11.15739,1.571425 1.15061,0.24543 2.09206,-1.475804 2.09206,-3.825182 z m 21.48996,1.482225 c 5.98309,0 6.54606,-0.651633 3.6144,-4.18406 -1.90989,-2.30124 -7.08447,-4.184059 -11.49904,-4.184059 -6.30284,0 -8.02665,1.262128 -8.02665,5.877176 0,4.21321 1.24919,5.39783 4.41226,4.18406 2.42667,-0.93122 7.60125,-1.693117 11.49903,-1.693117 z M 116.48068,23.68207 c 13.46574,-2.693169 7.66598,-6.186103 -10.08919,-6.076261 -17.903334,0.110697 -23.935198,2.132561 -15.830686,5.30631 6.913321,2.707307 15.027766,2.948361 25.919876,0.76992 z M 102.92775,11.469498 c 0,-1.5341578 -2.51049,-2.7893809 -5.578762,-2.7893809 -3.068275,0 -5.57875,1.2552231 -5.57875,2.7893809 0,1.534157 2.510475,2.789369 5.57875,2.789369 3.068272,0 5.578762,-1.255212 5.578762,-2.789369 z m 18.13091,0 c 0.97412,-1.5754739 -1.31086,-2.7893809 -5.24954,-2.7893809 -3.83537,0 -7.74917,1.2552231 -8.69736,2.7893809 -0.97413,1.575462 1.31085,2.789369 5.24953,2.789369 3.83537,0 7.74917,-1.255212 8.69737,-2.789369 z"
       id="path7809" />
  </g>
</svg>
