<?xml version="1.0" encoding="UTF-8" standalone="no"?>
<!-- Created with Inkscape (http://www.inkscape.org/) -->

<svg
   width="210mm"
   height="210mm"
   viewBox="0 0 210 210"
   version="1.1"
   id="svg5"
   inkscape:version="1.2 (dc2aedaf03, 2022-05-15)"
   sodipodi:docname="19-Bese_saka.svg"
   xmlns:inkscape="http://www.inkscape.org/namespaces/inkscape"
   xmlns:sodipodi="http://sodipodi.sourceforge.net/DTD/sodipodi-0.dtd"
   xmlns="http://www.w3.org/2000/svg"
   xmlns:svg="http://www.w3.org/2000/svg">
  <sodipodi:namedview
     id="namedview7"
     pagecolor="#ffffff"
     bordercolor="#666666"
     borderopacity="1.0"
     inkscape:showpageshadow="2"
     inkscape:pageopacity="0.0"
     inkscape:pagecheckerboard="0"
     inkscape:deskcolor="#d1d1d1"
     inkscape:document-units="mm"
     showgrid="false"
     inkscape:zoom="0.736773"
     inkscape:cx="393.60834"
     inkscape:cy="443.14871"
     inkscape:window-width="1920"
     inkscape:window-height="1002"
     inkscape:window-x="-8"
     inkscape:window-y="-8"
     inkscape:window-maximized="1"
     inkscape:current-layer="layer1" />
  <defs
     id="defs2" />
  <g
     inkscape:label="Camada 1"
     inkscape:groupmode="layer"
     id="layer1">
    <path
       style="display:inline;fill:#000000;stroke-width:0.264583"
       d="M 30.748804,191.31853 C 2.7861322,172.63819 9.2153536,131.01559 43.864925,106.40505 c 4.103974,-2.91494 5.309933,-5.05624 3.336598,-5.92462 C 37.930734,96.400586 26.431562,86.520968 19.538685,76.713638 12.670779,66.941693 11.73104,63.470712 11.73104,47.873969 c 0,-16.978572 0.398359,-18.12915 9.394086,-27.124731 16.236926,-16.2369827 42.210332,-15.0629114 63.142504,2.854263 5.66619,4.850081 11.758914,12.33525 13.539375,16.63371 4.157395,10.036853 5.988875,9.843027 9.928065,-1.050803 4.27983,-11.835737 26.5622,-31.6358091 38.02105,-33.7855106 40.26401,-7.5535699 64.00952,24.2504336 46.23978,61.9320326 -6.45915,13.696822 -12.95153,20.673558 -27.14779,29.173309 l -8.83774,5.291371 7.5524,2.84834 c 16.98623,6.40635 37.11542,34.48043 37.11542,51.76479 0,12.07132 -9.37728,29.48131 -19.12348,35.50477 -5.80681,3.58884 -12.87642,5.23837 -22.45064,5.23837 -17.82162,0 -35.23837,-10.35231 -45.29257,-26.92132 -3.83037,-6.31226 -7.69153,-11.51342 -8.58046,-11.55811 -0.88902,-0.0447 -3.04842,3.37672 -4.79906,7.60311 -3.679559,8.88323 -20.449996,24.83646 -29.876311,28.42034 -11.828352,4.49711 -30.37304,2.9228 -39.806865,-3.37937 z M 77.612059,169.8473 c 8.453912,-8.09944 13.566282,-23.41726 10.54314,-31.58963 -1.810581,-4.89456 -2.555505,-5.0943 -6.967061,-1.86843 -2.716895,1.98665 -7.909247,9.22952 -11.538687,16.0953 -3.629344,6.86578 -8.657511,12.87973 -11.173781,13.36431 -6.599451,1.27093 -12.040065,-4.24088 -12.040065,-12.1977 0,-7.99317 4.199968,-13.05293 10.834786,-13.05293 4.105723,0 14.836936,-13.45678 14.86278,-18.63767 0.01943,-3.65368 -15.923096,-1.91849 -23.617549,2.57071 -4.240873,2.47431 -10.014749,8.98765 -12.830663,14.47406 -6.745969,13.14317 -4.619217,24.72557 6.213723,33.84095 10.459357,8.80091 24.639875,7.61011 35.713377,-2.99897 z m 96.716421,0.12495 c 4.19958,-4.73703 5.78408,-9.73686 5.78408,-18.25156 0,-10.19499 -1.30409,-13.03136 -9.98045,-21.70772 -7.32505,-7.32503 -12.11275,-9.9804 -17.99496,-9.9804 -11.89452,0 -10.43934,7.95173 3.55366,19.4179 11.41687,9.35529 13.63117,14.47613 9.25048,21.39215 -3.21894,5.08179 -15.95934,4.35852 -19.97557,-1.13401 -1.87764,-2.56787 -3.41384,-7.87746 -3.41384,-11.79915 0,-7.19929 -5.89349,-12.45266 -13.96997,-12.45266 -3.00344,0 -4.02508,2.69572 -4.02508,10.6211 0,9.15922 1.5911,12.21219 11.55989,22.18095 11.0055,11.00546 12.08418,11.48018 22.49369,9.89874 7.0187,-1.06631 13.00507,-3.99736 16.71807,-8.18538 z m -51.41427,-54.19408 c 18.11222,-19.775117 -12.614,-46.990403 -31.608009,-27.996337 -7.332188,7.332267 -8.211005,18.109707 -2.178818,26.721907 8.346262,11.91605 23.515957,12.48824 33.786827,1.27443 z M 72.040577,84.160195 c 3.206504,-2.028222 3.028016,-3.240672 -1.224323,-8.315456 -8.079792,-9.642848 -12.156075,-12.367877 -18.500285,-12.367877 -7.912482,0 -13.33862,-10.820494 -8.40635,-16.763459 5.163998,-6.222311 15.652892,-3.660618 20.42504,4.988409 5.105993,9.254 16.595032,18.144424 20.404968,15.789723 1.555051,-0.961017 2.822995,-4.860389 2.817745,-8.665147 -0.0292,-18.779282 -24.736575,-37.171281 -42.1986,-31.408287 -17.133719,5.654611 -23.597631,22.154753 -15.113067,38.578237 8.296558,16.05949 30.124309,25.545705 41.794872,18.163798 z m 91.834183,-8.472449 c 18.14244,-12.342508 20.63403,-34.169315 5.36706,-47.015679 -9.04129,-7.607737 -20.20837,-7.564967 -31.94063,0.122326 -13.47445,8.828805 -21.58893,32.819994 -12.30551,36.382384 4.83355,1.854829 19.12688,-11.003593 19.12688,-17.206745 0,-2.34413 2.38141,-6.417147 5.29195,-9.051147 5.65719,-5.119721 11.08313,-3.581229 16.2482,4.607082 3.68249,5.837933 -1.98325,17.380147 -8.5313,17.380147 -6.22907,0 -15.57953,9.548271 -15.57953,15.908998 0,6.657554 11.75208,6.064028 22.32288,-1.127395 z"
       id="path7825" />
  </g>
</svg>
