<?xml version="1.0" encoding="UTF-8" standalone="no"?>
<!-- Created with Inkscape (http://www.inkscape.org/) -->

<svg
   width="210mm"
   height="210mm"
   viewBox="0 0 210 210"
   version="1.1"
   id="svg5"
   inkscape:version="1.2 (dc2aedaf03, 2022-05-15)"
   sodipodi:docname="20-Bi_nka_bi.svg"
   xmlns:inkscape="http://www.inkscape.org/namespaces/inkscape"
   xmlns:sodipodi="http://sodipodi.sourceforge.net/DTD/sodipodi-0.dtd"
   xmlns="http://www.w3.org/2000/svg"
   xmlns:svg="http://www.w3.org/2000/svg">
  <sodipodi:namedview
     id="namedview7"
     pagecolor="#ffffff"
     bordercolor="#666666"
     borderopacity="1.0"
     inkscape:showpageshadow="2"
     inkscape:pageopacity="0.0"
     inkscape:pagecheckerboard="0"
     inkscape:deskcolor="#d1d1d1"
     inkscape:document-units="mm"
     showgrid="false"
     inkscape:zoom="0.736773"
     inkscape:cx="210.37687"
     inkscape:cy="444.50597"
     inkscape:window-width="1920"
     inkscape:window-height="1002"
     inkscape:window-x="-8"
     inkscape:window-y="-8"
     inkscape:window-maximized="1"
     inkscape:current-layer="layer1" />
  <defs
     id="defs2" />
  <g
     inkscape:label="Camada 1"
     inkscape:groupmode="layer"
     id="layer1">
    <path
       style="display:inline;fill:#000000;stroke-width:0.264583"
       d="m 113.30903,172.44709 c -2.10402,-1.18256 -11.33871,-8.10397 -20.521495,-15.38089 -16.049283,-12.71831 -16.862222,-13.11434 -20.987791,-10.22466 -2.360524,1.65336 -6.713167,3.0061 -9.672498,3.0061 -4.591138,0 -5.947507,-1.32244 -9.24387,-9.01256 -2.304714,-5.37664 -3.395983,-10.87438 -2.705002,-13.62757 1.030976,-4.10763 0.439544,-3.85279 -5.380221,2.31788 -9.840147,10.43359 -20.432578,8.88306 -20.432578,-2.99091 0,-4.34295 -0.773612,-5.24858 -4.166559,-4.87755 -2.803684,0.3066 -5.134206,-1.23117 -7.12495,-4.70137 -2.784815,-4.85445 -2.69452,-5.43786 1.538187,-9.94341 l 4.496578,-4.78639 -6.935469,-6.540958 C 4.180385,88.146472 3.1494086,81.170084 9.1959577,75.536924 14.058991,71.006331 21.07073,69.511528 37.459792,69.511528 c 15.56087,0 32.363956,-3.724232 33.810403,-7.493712 0.594975,-1.549682 -0.678112,-5.196783 -2.827685,-8.104685 -7.395183,-10.002524 -2.748523,-18.831343 9.911066,-18.831343 5.40415,0 8.047197,1.392985 12.702098,6.694666 6.49607,7.398632 9.110126,8.690052 6.062165,2.994893 -3.205635,-5.989835 -2.353007,-13.18089 1.828228,-15.41861 6.753723,-3.61449 14.376483,2.25019 21.021193,16.172912 7.42721,15.562221 10.33094,17.731009 8.63971,6.452968 -1.04919,-6.996043 -0.60871,-8.963935 2.67247,-11.933113 3.39461,-3.072108 4.69871,-3.23659 9.59175,-1.209844 7.41925,3.073142 9.73676,10.159299 9.73676,29.770711 0,12.127278 0.70559,16.324663 3.07609,18.29181 2.61362,2.169092 3.47645,2.005535 5.73829,-1.08777 1.46423,-2.002398 2.6622,-5.950204 2.6622,-8.772929 0,-6.712878 5.00741,-20.762872 8.9542,-25.124052 1.71342,-1.89327 4.96916,-3.442301 7.23519,-3.442301 7.10847,0 10.58983,4.227205 11.81477,14.345724 0.96844,7.999216 2.13642,10.193878 7.13905,13.415186 10.3603,6.671107 7.81362,22.592604 -4.42443,27.661811 -7.04051,2.91629 -6.19641,5.45435 1.44146,4.33337 3.71552,-0.54531 5.90984,0.12355 6.63899,2.02398 1.86589,4.86244 -4.92745,15.49201 -12.16308,19.03137 -5.81629,2.84512 -8.47336,3.04198 -17.79596,1.3186 -9.48728,-1.75382 -11.75354,-1.5608 -16.87748,1.43744 -7.86849,4.60437 -6.31729,7.28883 4.21174,7.28883 7.23159,0 8.69755,0.62946 9.17071,3.93764 0.31014,2.16568 -1.35,6.36996 -3.68855,9.34281 -4.17762,5.31116 -4.50858,5.38539 -19.01823,4.26648 l -14.76651,-1.13871 2.10157,5.5676 c 1.75536,4.65038 1.51679,6.21359 -1.44739,9.48895 -3.8896,4.29797 -11.33235,5.00987 -17.30155,1.65488 z m 6.28852,-43.62056 c 9.22117,-4.18517 14.73239,-13.79195 12.65662,-22.06245 -1.51353,-6.03053 -10.04292,-12.922015 -14.03323,-11.338536 -7.76294,3.080545 -14.86844,3.067843 -17.96839,-0.03181 -4.476549,-4.476568 -3.995003,-9.343845 1.5799,-15.969276 2.63004,-3.125642 4.78192,-6.30202 4.78192,-7.058614 0,-2.224027 -17.482062,0.98588 -26.229132,4.815978 -9.369877,4.102818 -11.645457,9.627126 -8.229304,19.978163 2.626203,7.957325 5.311976,9.642905 18.006989,11.300995 15.298517,1.99812 17.964767,6.41754 9.756792,16.1722 -2.630035,3.12564 -4.781921,6.20427 -4.781921,6.84143 0,2.63126 16.846386,0.80761 24.459756,-2.64779 z"
       id="path7799" />
  </g>
</svg>
