<?xml version="1.0" encoding="UTF-8" standalone="no"?>
<!-- Created with Inkscape (http://www.inkscape.org/) -->

<svg
   width="210mm"
   height="210mm"
   viewBox="0 0 210 210"
   version="1.1"
   id="svg5"
   inkscape:version="1.2 (dc2aedaf03, 2022-05-15)"
   sodipodi:docname="21-Biribi_wo_soro.svg"
   xmlns:inkscape="http://www.inkscape.org/namespaces/inkscape"
   xmlns:sodipodi="http://sodipodi.sourceforge.net/DTD/sodipodi-0.dtd"
   xmlns="http://www.w3.org/2000/svg"
   xmlns:svg="http://www.w3.org/2000/svg">
  <sodipodi:namedview
     id="namedview7"
     pagecolor="#ffffff"
     bordercolor="#666666"
     borderopacity="1.0"
     inkscape:showpageshadow="2"
     inkscape:pageopacity="0.0"
     inkscape:pagecheckerboard="0"
     inkscape:deskcolor="#d1d1d1"
     inkscape:document-units="mm"
     showgrid="false"
     inkscape:zoom="0.736773"
     inkscape:cx="210.37687"
     inkscape:cy="444.50597"
     inkscape:window-width="1920"
     inkscape:window-height="1002"
     inkscape:window-x="-8"
     inkscape:window-y="-8"
     inkscape:window-maximized="1"
     inkscape:current-layer="layer1" />
  <defs
     id="defs2" />
  <g
     inkscape:label="Camada 1"
     inkscape:groupmode="layer"
     id="layer1">
    <path
       style="display:inline;fill:#000000;stroke-width:0.264583"
       d="M 49.638672,190.25661 C 41.526011,181.84006 36.947118,174.27461 33.281789,163.23141 18.29398,118.07532 22.903106,57.68492 43.740643,26.197137 50.976241,15.263706 58.503376,9.9896093 69.341382,8.2595416 79.015872,6.715146 91.630329,14.245368 99.022876,25.978144 c 2.642544,4.193837 5.345004,7.600768 6.005614,7.570897 0.66098,-0.02724 4.48138,-4.582524 8.49073,-10.117016 4.995,-6.895304 10.51033,-11.18511 17.52194,-13.6284507 9.50643,-3.3127787 10.85771,-3.2275237 19.04264,1.2011047 11.60449,6.278817 23.58686,22.377575 28.21187,37.903698 13.84509,46.475683 9.40674,102.777933 -10.58569,134.287053 -8.19601,12.91699 -17.70689,18.74983 -30.57359,18.74983 -7.63626,0 -10.71643,-1.81314 -20.73257,-12.20472 -11.01542,-11.42834 -11.97583,-11.92498 -15.0964,-7.80732 -1.833117,2.41864 -3.367158,5.16932 -3.409188,6.11257 -0.204287,4.57581 -18.650746,13.89947 -27.500378,13.89947 -8.211354,0 -11.013782,-1.57781 -20.759182,-11.68865 z m 34.757979,-14.92117 c 12.718217,-15.11473 11.638143,-34.12805 -3.156795,-55.56827 l -9.901745,-14.34899 6.406472,-7.5886 C 93.433663,79.24608 97.085998,57.286519 87.612281,38.503909 80.541837,24.486136 70.672686,20.382184 63.962237,28.66926 55.347125,39.30861 49.235096,64.472815 47.969527,94.515803 c -1.28736,30.557877 1.348645,49.908937 9.336829,68.546187 9.12183,21.28152 16.643245,24.68918 27.090295,12.27345 z m 63.257709,-2.09306 c 10.13553,-15.04019 15.95475,-39.54106 16.00524,-67.38676 0.0726,-40.165628 -11.53149,-79.375117 -24.02675,-81.185446 -10.49735,-1.52088 -22.58231,18.165396 -22.55635,36.743994 0,8.01524 8.93226,27.633966 17.24376,37.921856 3.76792,4.663786 4.69901,7.630096 3.07172,9.784706 -23.0233,30.48298 -26.15939,49.89687 -10.72842,66.41582 8.57244,9.17694 13.63326,8.62383 20.9908,-2.29417 z"
       id="path7797" />
  </g>
</svg>
