<?xml version="1.0" encoding="UTF-8" standalone="no"?>
<!-- Created with Inkscape (http://www.inkscape.org/) -->

<svg
   width="210mm"
   height="210mm"
   viewBox="0 0 210 210"
   version="1.1"
   id="svg5"
   inkscape:version="1.2 (dc2aedaf03, 2022-05-15)"
   sodipodi:docname="22-Boa_me_na_me_boa_wo.svg"
   xmlns:inkscape="http://www.inkscape.org/namespaces/inkscape"
   xmlns:sodipodi="http://sodipodi.sourceforge.net/DTD/sodipodi-0.dtd"
   xmlns="http://www.w3.org/2000/svg"
   xmlns:svg="http://www.w3.org/2000/svg">
  <sodipodi:namedview
     id="namedview7"
     pagecolor="#ffffff"
     bordercolor="#666666"
     borderopacity="1.0"
     inkscape:showpageshadow="2"
     inkscape:pageopacity="0.0"
     inkscape:pagecheckerboard="0"
     inkscape:deskcolor="#d1d1d1"
     inkscape:document-units="mm"
     showgrid="false"
     inkscape:zoom="0.736773"
     inkscape:cx="210.37687"
     inkscape:cy="444.50597"
     inkscape:window-width="1920"
     inkscape:window-height="1002"
     inkscape:window-x="-8"
     inkscape:window-y="-8"
     inkscape:window-maximized="1"
     inkscape:current-layer="layer1" />
  <defs
     id="defs2" />
  <g
     inkscape:label="Camada 1"
     inkscape:groupmode="layer"
     id="layer1">
    <path
       style="display:inline;fill:#000000;stroke-width:0.264583"
       d="M 91.450999,192.41763 V 180.2355 H 75.946494 c -16.35328,0 -18.359152,-1.58253 -12.24242,-9.65793 2.803666,-3.70162 2.345415,-4.91921 -4.507162,-11.97508 -4.195495,-4.31996 -10.366055,-13.42962 -13.712439,-20.24367 -5.429607,-11.05599 -6.075712,-14.77267 -6.00355,-34.53851 0.09292,-25.731986 4.020365,-36.926349 18.438011,-52.567651 7.942534,-8.616531 8.473197,-9.912089 5.644751,-13.780053 -1.716806,-2.348161 -3.121695,-5.075581 -3.121695,-6.060961 0,-0.985381 8.472109,-1.791597 18.826862,-1.791597 10.354837,0 18.82694,-0.669043 18.82694,-1.486795 0,-0.817718 -1.613079,-3.269375 -3.584879,-5.448066 C 89.982739,17.681542 91.972202,8.5330666 98.328182,5.1313729 109.88632,-1.0542887 122.03238,11.000059 115.02209,21.69912 c -2.00027,3.052573 -3.63671,6.083581 -3.63671,6.735546 0,0.651964 8.47211,1.185382 18.82695,1.185382 10.35484,0 18.7953,0.747566 18.75654,1.661204 -0.0419,0.913663 -1.54076,3.605487 -3.33793,5.981826 -2.99545,3.960945 -2.63314,4.975115 4.35104,12.18213 4.18997,4.323836 10.40967,13.343468 13.8216,20.043636 5.57694,10.95212 6.2007,14.418533 6.17659,34.331466 -0.0335,25.7849 -3.92669,36.84649 -18.5707,52.73334 -8.13391,8.82419 -8.63711,10.04929 -5.71516,13.91045 6.2038,8.19787 4.24556,9.7714 -12.15954,9.7714 h -15.50459 v 12.18213 12.18214 h -13.2896 -13.289581 z m 20.394891,-28.24039 c 6.59097,-5.18111 6.93119,-12.19029 0.88528,-18.23632 -6.93646,-6.93651 -9.02646,-6.95465 -15.843616,-0.13755 -6.594906,6.59512 -6.852327,10.867 -1.006661,16.71267 5.067107,5.06702 10.864887,5.6703 15.964997,1.6612 z M 89.236093,129.25662 c 7.918341,-13.34486 14.895387,-24.24989 15.504487,-24.23339 0.60944,0.0159 7.58617,10.88587 15.50459,24.15412 l 14.39705,24.12407 5.93022,-5.6203 c 15.68549,-14.8653 20.91653,-48.348654 11.00027,-70.412407 -4.86043,-10.814787 -12.69138,-21.069468 -16.0895,-21.069468 -0.94027,0 -7.98481,10.465565 -15.65493,23.256798 -7.67005,12.791241 -14.45181,23.253967 -15.07037,23.250477 -0.61864,-0.004 -7.470287,-10.469022 -15.225887,-23.256789 C 81.776422,66.661973 74.724102,56.199245 73.860006,56.199245 c -3.175774,0 -11.107174,10.295274 -15.378933,19.961999 -6.641702,15.030248 -7.997869,30.496726 -3.908021,44.565466 3.301095,11.3555 15.697214,33.00765 18.813384,32.86146 0.798632,-0.0377 7.931233,-10.98666 15.849657,-24.33155 z M 116.92273,53.984314 V 41.802186 H 104.74058 92.558451 l -0.6672,12.849798 -0.668038,12.849799 12.849917,-0.667703 12.84977,-0.667703 z"
       id="path7795" />
  </g>
</svg>
