<?xml version="1.0" encoding="UTF-8" standalone="no"?>
<!-- Created with Inkscape (http://www.inkscape.org/) -->

<svg
   width="210mm"
   height="210mm"
   viewBox="0 0 210 210"
   version="1.1"
   id="svg5"
   inkscape:version="1.2 (dc2aedaf03, 2022-05-15)"
   sodipodi:docname="23-Dame_dame.svg"
   xmlns:inkscape="http://www.inkscape.org/namespaces/inkscape"
   xmlns:sodipodi="http://sodipodi.sourceforge.net/DTD/sodipodi-0.dtd"
   xmlns="http://www.w3.org/2000/svg"
   xmlns:svg="http://www.w3.org/2000/svg">
  <sodipodi:namedview
     id="namedview7"
     pagecolor="#ffffff"
     bordercolor="#666666"
     borderopacity="1.0"
     inkscape:showpageshadow="2"
     inkscape:pageopacity="0.0"
     inkscape:pagecheckerboard="0"
     inkscape:deskcolor="#d1d1d1"
     inkscape:document-units="mm"
     showgrid="false"
     inkscape:zoom="0.736773"
     inkscape:cx="210.37687"
     inkscape:cy="444.50597"
     inkscape:window-width="1920"
     inkscape:window-height="1002"
     inkscape:window-x="-8"
     inkscape:window-y="-8"
     inkscape:window-maximized="1"
     inkscape:current-layer="layer1" />
  <defs
     id="defs2" />
  <g
     inkscape:label="Camada 1"
     inkscape:groupmode="layer"
     id="layer1">
    <path
       style="display:inline;fill:#000000;stroke-width:0.264583"
       d="M 82.54,201.06961 C 65.61897,196.8236 40.975108,182.27648 31.039938,170.66954 -13.735646,118.35947 2.2921063,42.130745 64.212748,12.898374 80.041275,5.42586 84.984666,4.3950287 104.99157,4.3950287 c 19.84645,0 25.00111,1.0550968 40.18448,8.2252193 21.32597,10.070923 39.99802,28.232233 50.02986,48.661547 6.75151,13.748804 7.54892,18.202209 7.54892,42.157195 0,24.17339 -0.76228,28.33689 -7.8189,42.70925 -15.98443,32.55525 -48.21557,54.2929 -83.66642,56.42708 -10.08186,0.60699 -23.010172,-0.0709 -28.72951,-1.50571 z m 14.41623,-30.49157 c 0,-5.11965 -1.580342,-6.70004 -7.365785,-7.36572 -6.187741,-0.71197 -7.378844,-2.1325 -7.447075,-8.88285 -0.07086,-7.32148 -0.966771,-8.10918 -10.044197,-8.86665 -9.405926,-0.78485 -9.962806,-1.34619 -9.962806,-10.04417 0,-8.45087 -0.664086,-9.21286 -8.035339,-9.21286 -7.142567,0 -8.035338,-0.89277 -8.035338,-8.03534 0,-6.78538 -1.041582,-8.03533 -6.69603,-8.03533 -8.940661,0 -8.868684,7.98056 0.235872,26.25222 8.080588,16.21609 24.009843,30.83656 39.633171,36.37744 15.477959,5.48935 17.71692,5.21301 17.71692,-2.18674 z m 32.69125,2.35516 c 16.61682,-5.66191 32.39393,-19.81854 40.72952,-36.54586 9.10506,-18.27166 9.17714,-26.25222 0.23587,-26.25222 -5.65455,0 -6.69613,1.24995 -6.69613,8.03533 0,7.14253 -0.89287,8.03534 -8.03534,8.03534 -7.37085,0 -8.03534,0.76198 -8.03534,9.21286 0,8.71258 -0.54564,9.25802 -10.04419,10.04417 -9.16996,0.75894 -10.11729,1.58904 -10.88362,9.53626 -0.69547,7.20965 -1.96037,8.70495 -7.36569,8.70495 -5.17582,0 -6.52636,1.38564 -6.52636,6.69612 0,7.8738 0.65396,7.97343 16.62057,2.53305 z m -11.26375,-22.6214 c 0,-4.64263 -1.78564,-5.35689 -13.39216,-5.35689 -11.606522,0 -13.392265,0.7143 -13.392265,5.35689 0,4.64263 1.785743,5.35689 13.392265,5.35689 11.60652,0 13.39216,-0.7143 13.39216,-5.35689 z M 62.136367,103.43899 c 0,-11.308979 -0.933365,-14.731441 -4.017619,-14.731441 -3.084254,0 -4.01772,3.422462 -4.01772,14.731441 0,11.30899 0.933364,14.73146 4.01772,14.73146 3.084254,0 4.017619,-3.42247 4.017619,-14.73146 z m 93.745643,0 c 0,-11.308979 -0.93337,-14.731441 -4.01762,-14.731441 -3.08425,0 -4.01772,3.422462 -4.01772,14.731441 0,11.30899 0.93337,14.73146 4.01772,14.73146 3.08415,0 4.01762,-3.42247 4.01762,-14.73146 z m -43.21539,4.75645 c 3.41073,-6.09473 -0.93134,-14.130996 -7.63628,-14.130996 -6.767602,0 -11.077985,7.779406 -7.752696,13.992676 3.246226,6.06566 12.027856,6.1446 15.388976,0.13819 z M 46.06569,88.707549 c 0,-7.142527 0.892872,-8.035338 8.035338,-8.035338 7.370848,0 8.035339,-0.761978 8.035339,-9.212865 0,-8.712584 0.545643,-9.258015 10.044197,-10.044167 9.189794,-0.76056 10.044197,-1.514794 10.044197,-8.866647 0,-6.774729 1.155469,-8.168297 7.365684,-8.882847 5.802855,-0.66773 7.365785,-2.241411 7.365785,-7.416756 0,-5.809972 -0.851366,-6.364625 -7.365785,-4.798921 C 67.98427,36.642987 49.126964,51.384529 39.577997,70.54718 30.49966,88.764573 30.43649,96.742887 39.369457,96.742887 c 5.654449,0 6.696132,-1.24995 6.696132,-8.035338 z m 131.24392,1.865109 c 0,-9.342098 -12.76391,-33.001503 -21.99359,-40.767742 -9.50524,-7.998105 -24.39716,-15.824954 -34.92343,-18.354908 -6.5544,-1.575352 -7.36568,-1.027238 -7.36568,4.976827 0,5.364518 1.33728,6.747133 6.52626,6.747133 5.40542,0 6.67072,1.495296 7.36579,8.70495 0.76633,7.947213 1.71366,8.77732 10.88351,9.536261 9.49886,0.786173 10.0442,1.331583 10.0442,10.044167 0,8.450877 0.66409,9.212865 8.03534,9.212865 7.14267,0 8.03534,0.892771 8.03534,8.035338 0,6.785388 1.04168,8.035338 6.69613,8.035338 5.20477,0 6.69613,-1.374284 6.69613,-6.170229 z m -58.92588,-34.00646 c 0,-4.642626 -1.78564,-5.356893 -13.39216,-5.356893 -11.606522,0 -13.392265,0.714298 -13.392265,5.356893 0,4.642629 1.785743,5.356896 13.392265,5.356896 11.60652,0 13.39216,-0.714298 13.39216,-5.356896 z"
       id="path7829" />
  </g>
</svg>
