<?xml version="1.0" encoding="UTF-8" standalone="no"?>
<!-- Created with Inkscape (http://www.inkscape.org/) -->

<svg
   width="210mm"
   height="210mm"
   viewBox="0 0 210 210"
   version="1.1"
   id="svg5"
   inkscape:version="1.2 (dc2aedaf03, 2022-05-15)"
   sodipodi:docname="24-Denkyem.svg"
   xmlns:inkscape="http://www.inkscape.org/namespaces/inkscape"
   xmlns:sodipodi="http://sodipodi.sourceforge.net/DTD/sodipodi-0.dtd"
   xmlns="http://www.w3.org/2000/svg"
   xmlns:svg="http://www.w3.org/2000/svg">
  <sodipodi:namedview
     id="namedview7"
     pagecolor="#ffffff"
     bordercolor="#666666"
     borderopacity="1.0"
     inkscape:showpageshadow="2"
     inkscape:pageopacity="0.0"
     inkscape:pagecheckerboard="0"
     inkscape:deskcolor="#d1d1d1"
     inkscape:document-units="mm"
     showgrid="false"
     inkscape:zoom="0.736773"
     inkscape:cx="210.37687"
     inkscape:cy="444.50597"
     inkscape:window-width="1920"
     inkscape:window-height="1002"
     inkscape:window-x="-8"
     inkscape:window-y="-8"
     inkscape:window-maximized="1"
     inkscape:current-layer="layer1" />
  <defs
     id="defs2" />
  <g
     inkscape:label="Camada 1"
     inkscape:groupmode="layer"
     id="layer1">
    <path
       style="display:inline;fill:#000000;stroke-width:0.264583"
       d="m 170.75399,194.19443 c -0.96761,-2.52151 -3.22438,-3.40757 -6.24052,-2.45022 -2.59883,0.82477 -4.725,0.80237 -4.725,-0.0503 0,-3.22564 7.53471,-15.94981 9.9291,-16.76797 1.37591,-0.47009 -0.37774,-4.52725 -3.89577,-9.01594 -6.11021,-7.79499 -7.17168,-8.16127 -23.65109,-8.16127 h -17.25368 l -6.10015,10.22913 c -5.08205,8.52261 -34.399412,32.52741 -31.52288,25.81088 14.17301,-33.09317 13.49848,-34.71901 -13.607718,-32.80611 -11.377527,0.80294 -23.784919,2.63787 -27.571732,4.07761 l -6.885149,2.61772 5.032602,13.24129 c 2.768049,7.28271 5.03336,13.35109 5.03412,13.48525 7.59e-4,0.13411 -5.366305,-0.20244 -11.926768,-0.74779 -6.560367,-0.54545 -15.095336,-1.09691 -18.966525,-1.22543 -5.457991,-0.18127 -6.656515,-1.14112 -5.336411,-4.27454 5.440148,-12.91427 11.080458,-34.42093 9.86058,-37.59975 -2.174672,-5.66738 3.496009,-7.79464 20.891299,-7.83681 l 15.865721,-0.038 -5.747273,-8.07112 C 49.162584,127.90618 47.947452,122.17175 46.75766,100.7335 45.969908,86.539886 44.241692,73.923095 42.917033,72.696146 41.592185,71.469169 36.161531,69.075027 30.848376,67.375825 19.882192,63.86856 15.775151,56.537832 13.246653,35.957923 11.333646,20.387325 13.796182,15.418844 21.407206,19.492248 c 2.966411,1.587606 6.575458,2.156127 8.019893,1.263384 1.444435,-0.892723 3.96363,0.104971 5.59817,2.217382 1.634444,2.112317 5.797006,4.203003 9.249831,4.645995 6.998282,0.897849 9.941915,9.944696 5.124285,15.749618 -2.178944,2.625523 -0.911136,4.531743 5.753537,8.650845 9.981303,6.168769 28.409977,7.068895 35.693083,1.743373 4.594497,-3.359481 4.620598,-3.783843 0.511565,-8.324345 -2.381291,-2.631389 -5.591052,-8.402912 -7.132959,-12.825565 -2.327762,-6.677885 -2.045785,-9.20474 1.663392,-14.903913 9.635071,-14.8044192 16.885637,-16.4184393 28.783017,-6.407448 7.39558,6.223 7.89385,7.602412 6.57517,18.205907 -0.7849,6.310013 -2.14999,14.474321 -3.03446,18.142924 -1.53355,6.360572 -0.97453,6.811926 12.04076,9.724666 10.12651,2.266204 14.99843,2.332365 18.8774,0.256447 7.25824,-3.884485 9.65538,-16.487249 4.60294,-24.198437 -5.0755,-7.746306 -5.00821,-8.571747 0.5818,-7.110096 2.51341,0.657252 6.05213,-0.591004 7.86396,-2.774105 2.99384,-3.607385 3.57516,-3.584787 6.37785,0.248095 2.84939,3.896861 3.79507,3.777559 12.44887,-1.570713 l 9.36486,-5.787895 -1.56848,14.782115 c -4.21353,39.711136 -3.92168,39.090131 -18.6258,39.644263 -7.70071,0.290234 -7.72833,1.813463 -0.40431,22.286874 4.90153,13.701341 4.97717,15.319391 1.36983,29.240831 -4.83576,18.66165 -4.96607,17.77868 2.62417,17.77868 15.09011,0 17.06965,4.17485 19.42911,40.9764 0.91494,14.2764 0.80199,14.57538 -4.98562,13.12283 -3.2575,-0.81756 -8.17611,-0.28037 -10.93059,1.1938 -3.93706,2.10703 -5.33223,1.83553 -6.52373,-1.26965 z M 102.0172,129.49862 c -0.0285,-9.92951 -3.63316,-32.653551 -7.451103,-46.832769 -3.036265,-11.27503 -7.600011,-11.713875 -7.603333,-0.731092 -0.0017,6.056614 6.569953,44.691951 8.94479,52.586151 1.911203,6.35331 6.123696,2.89047 6.109646,-5.02231 z m 24.02157,-5.98806 c 3.27003,-26.171978 -2.38993,-58.955715 -9.42741,-54.606285 -2.79045,1.724514 -1.17973,51.126815 2.05736,63.105495 2.60386,9.63504 5.52509,6.2661 7.37005,-8.49921 z m -44.097598,11.01037 c -6.65e-4,-0.34528 -2.27708,-6.61529 -5.058417,-13.93336 -2.781337,-7.31808 -5.323406,-19.40361 -5.648852,-26.856763 -0.570409,-13.058037 -0.715621,-13.314598 -4.00008,-7.050131 -4.881125,9.309843 -2.816738,36.567034 3.279903,43.303594 3.77476,4.17124 11.432761,7.21142 11.427446,4.53666 z m 70.131498,-5.98876 c 7.11587,-9.04618 6.67796,-22.3908 -1.14234,-34.817592 l -6.3211,-10.044636 1.17224,16.396088 c 0.64443,9.01789 0.22398,20.6006 -0.93487,25.73939 -2.47829,10.98844 0,11.92126 7.22607,2.72675 z"
       id="path7811" />
  </g>
</svg>
