<?xml version="1.0" encoding="UTF-8" standalone="no"?>
<!-- Created with Inkscape (http://www.inkscape.org/) -->

<svg
   width="210mm"
   height="210mm"
   viewBox="0 0 210 210"
   version="1.1"
   id="svg5"
   inkscape:version="1.2 (dc2aedaf03, 2022-05-15)"
   sodipodi:docname="25-Dono.svg"
   xmlns:inkscape="http://www.inkscape.org/namespaces/inkscape"
   xmlns:sodipodi="http://sodipodi.sourceforge.net/DTD/sodipodi-0.dtd"
   xmlns="http://www.w3.org/2000/svg"
   xmlns:svg="http://www.w3.org/2000/svg">
  <sodipodi:namedview
     id="namedview7"
     pagecolor="#ffffff"
     bordercolor="#666666"
     borderopacity="1.0"
     inkscape:showpageshadow="2"
     inkscape:pageopacity="0.0"
     inkscape:pagecheckerboard="0"
     inkscape:deskcolor="#d1d1d1"
     inkscape:document-units="mm"
     showgrid="false"
     inkscape:zoom="0.736773"
     inkscape:cx="210.37687"
     inkscape:cy="444.50597"
     inkscape:window-width="1920"
     inkscape:window-height="1002"
     inkscape:window-x="-8"
     inkscape:window-y="-8"
     inkscape:window-maximized="1"
     inkscape:current-layer="layer1" />
  <defs
     id="defs2" />
  <g
     inkscape:label="Camada 1"
     inkscape:groupmode="layer"
     id="layer1">
    <path
       style="display:inline;fill:#000000;stroke-width:0.264583"
       d="m 79.060574,202.82228 c -19.419232,-3.49764 -26.849402,-6.80512 -31.61026,-14.07113 -3.74851,-5.72088 -3.762526,-7.52677 -0.138139,-17.79928 2.218494,-6.28776 10.035554,-22.53312 17.371345,-36.10069 7.335791,-13.56758 13.337784,-26.65924 13.337784,-29.0924 0,-2.43327 -6.811266,-17.751783 -15.136113,-34.041207 C 39.176891,25.327033 41.903979,13.839608 78.051856,7.8301533 107.62279,2.9141155 146.84109,7.9844255 158.72327,18.26026 c 7.83006,6.771438 5.39912,17.059272 -12.70315,53.760211 l -17.37185,35.220029 11.8482,21.81004 c 16.03825,29.52295 23.56925,49.44252 21.62361,57.19464 -3.4918,13.91253 -48.2532,22.84599 -83.059506,16.5771 z"
       id="path7513" />
  </g>
</svg>
