<?xml version="1.0" encoding="UTF-8" standalone="no"?>
<!-- Created with Inkscape (http://www.inkscape.org/) -->

<svg
   width="210mm"
   height="210mm"
   viewBox="0 0 210 210"
   version="1.1"
   id="svg5"
   inkscape:version="1.2 (dc2aedaf03, 2022-05-15)"
   sodipodi:docname="26-Dono_ntoaso.svg"
   xmlns:inkscape="http://www.inkscape.org/namespaces/inkscape"
   xmlns:sodipodi="http://sodipodi.sourceforge.net/DTD/sodipodi-0.dtd"
   xmlns="http://www.w3.org/2000/svg"
   xmlns:svg="http://www.w3.org/2000/svg">
  <sodipodi:namedview
     id="namedview7"
     pagecolor="#ffffff"
     bordercolor="#666666"
     borderopacity="1.0"
     inkscape:showpageshadow="2"
     inkscape:pageopacity="0.0"
     inkscape:pagecheckerboard="0"
     inkscape:deskcolor="#d1d1d1"
     inkscape:document-units="mm"
     showgrid="false"
     inkscape:zoom="0.736773"
     inkscape:cx="210.37687"
     inkscape:cy="444.50597"
     inkscape:window-width="1920"
     inkscape:window-height="1002"
     inkscape:window-x="-8"
     inkscape:window-y="-8"
     inkscape:window-maximized="1"
     inkscape:current-layer="layer1" />
  <defs
     id="defs2" />
  <g
     inkscape:label="Camada 1"
     inkscape:groupmode="layer"
     id="layer1">
    <path
       style="display:inline;fill:#000000;stroke-width:0.264583"
       d="M 45.356184,194.8951 C 46.041286,184.45189 46.042986,184.44976 56.827982,181.72262 76.61977,176.71789 87.326737,160.13631 84.205614,139.32358 82.49524,127.918 72.19738,116.73146 61.222153,114.35672 c -7.237343,-1.56604 -7.309168,-1.71131 -7.309168,-14.794708 0,-13.122332 0.051,-13.222802 7.309168,-14.605161 14.260825,-2.715841 21.927418,-12.826871 21.927418,-28.919195 0,-13.55048 -3.395503,-20.260057 -12.43417,-24.570247 C 58.29398,25.543999 53.912985,20.601747 53.912985,12.512363 V 5.0994094 l 52.288475,0.6035014 52.28839,0.6035015 0.6426,7.8713597 c 0.6103,7.471518 0.1003,8.092954 -10.05094,12.233655 -5.88159,2.3993 -13.50815,7.241337 -16.94793,10.760091 -5.24367,5.364193 -6.25406,8.318375 -6.25406,18.284566 0,10.072525 1.04703,13.059517 6.86045,19.570873 4.4019,4.930522 10.2449,8.500871 16.30491,9.96313 l 9.44463,2.279025 0.66555,12.629756 c 0.65535,12.434082 0.561,12.650752 -6.09639,13.982112 -3.7191,0.74375 -10.84007,5.03677 -15.82457,9.54 -21.55673,19.47524 -14.49407,48.0864 14.5086,58.77424 10.84475,3.99645 11.26941,4.48189 11.93632,13.64415 l 0.69191,9.5003 h -59.8501 -59.850003 z"
       id="path7499" />
  </g>
</svg>
