<?xml version="1.0" encoding="UTF-8" standalone="no"?>
<!-- Created with Inkscape (http://www.inkscape.org/) -->

<svg
   width="210mm"
   height="210mm"
   viewBox="0 0 210 210"
   version="1.1"
   id="svg5"
   inkscape:version="1.2 (dc2aedaf03, 2022-05-15)"
   sodipodi:docname="27-Duafe.svg"
   xmlns:inkscape="http://www.inkscape.org/namespaces/inkscape"
   xmlns:sodipodi="http://sodipodi.sourceforge.net/DTD/sodipodi-0.dtd"
   xmlns="http://www.w3.org/2000/svg"
   xmlns:svg="http://www.w3.org/2000/svg">
  <sodipodi:namedview
     id="namedview7"
     pagecolor="#ffffff"
     bordercolor="#666666"
     borderopacity="1.0"
     inkscape:showpageshadow="2"
     inkscape:pageopacity="0.0"
     inkscape:pagecheckerboard="0"
     inkscape:deskcolor="#d1d1d1"
     inkscape:document-units="mm"
     showgrid="false"
     inkscape:zoom="0.736773"
     inkscape:cx="210.37687"
     inkscape:cy="444.50597"
     inkscape:window-width="1920"
     inkscape:window-height="1002"
     inkscape:window-x="-8"
     inkscape:window-y="-8"
     inkscape:window-maximized="1"
     inkscape:current-layer="layer1" />
  <defs
     id="defs2" />
  <g
     inkscape:label="Camada 1"
     inkscape:groupmode="layer"
     id="layer1">
    <path
       style="display:inline;fill:#000000;stroke-width:0.264583"
       d="m 22.518976,170.57386 c -7.562275,-56.70741 -7.576582,-54.63249 0.433514,-62.64241 l 7.064811,-7.06472 20.239152,1.52781 c 23.114823,1.74491 34.44005,-0.87004 41.247339,-9.524206 C 99.434046,82.78868 92.837256,73.615336 71.23706,64.687794 45.965613,54.243039 37.958534,43.995822 44.772459,30.819241 52.110393,16.629199 76.753977,7.5502283 107.93298,7.5502283 c 31.87077,0 57.38164,9.9782317 63.5434,24.8540527 4.80235,11.593868 -0.32578,18.085717 -23.67236,29.967704 -11.19086,5.695494 -22.37845,13.076262 -24.86128,16.401822 -4.32006,5.786247 -4.34454,6.305774 -0.56883,12.06832 6.65689,10.159653 17.72296,13.239323 41.34516,11.506303 18.74607,-1.37535 21.20615,-1.07904 26.65912,3.21016 3.30393,2.59901 6.68577,6.86322 7.51513,9.4762 1.65735,5.2219 -8.12558,84.06308 -10.43096,84.06308 -1.52445,0 -9.04993,-32.75288 -9.04993,-39.38779 0,-2.1662 -0.76964,-3.93791 -1.71027,-3.93722 -0.94063,6.8e-4 -3.59247,9.49257 -5.89303,21.09308 -5.9225,29.86505 -6.44884,29.86066 -12.26663,-0.10084 -2.24048,-11.53811 -4.62895,-20.98182 -5.30766,-20.98595 -0.67914,-0.005 -3.01813,9.42923 -5.19855,20.96311 -5.70592,30.18308 -6.50132,30.14412 -12.63998,-0.61881 -4.68816,-23.49396 -5.04031,-23.35761 -10.74917,4.16147 -2.14645,10.34702 -4.64066,18.81269 -5.5426,18.81269 -0.90202,0 -3.51473,-9.23531 -5.80624,-20.52296 -2.29142,-11.28756 -4.80071,-20.52296 -5.57613,-20.52296 -0.77567,0 -3.28462,9.2354 -5.57612,20.52296 -2.291417,11.28765 -4.904202,20.52296 -5.806139,20.52296 -0.902014,0 -3.396215,-8.46567 -5.542669,-18.81269 -5.712472,-27.53649 -5.98051,-27.6344 -10.919035,-3.99057 -6.245616,29.90212 -6.553385,29.99046 -11.918701,3.42045 -2.026053,-10.03339 -4.285841,-19.78185 -5.02178,-21.66311 -0.736026,-1.88126 -3.374169,6.32792 -5.86278,18.24266 -6.355848,30.42975 -6.728774,30.4438 -12.548892,0.47058 -2.240482,-11.53811 -4.654974,-20.98173 -5.365574,-20.98596 -0.71017,-0.005 -3.128109,9.74079 -5.372212,21.65545 -2.244102,11.91473 -4.841824,21.66319 -5.772715,21.66319 -0.930892,0 -3.404334,-12.8358 -5.496405,-28.524 z M 131.91958,51.623943 c 3.90231,-1.786198 8.26296,-5.810723 9.69028,-8.943314 2.24488,-4.92689 1.83981,-6.451083 -3.0009,-11.291787 -6.27957,-6.279577 -10.364,-7.205901 -10.364,-2.350456 0,1.785078 -2.65658,6.402734 -5.90354,10.261438 C 111.8977,51.711594 92.065291,47.15108 88.119625,31.430556 86.348769,24.374704 83.89084,24.333163 76.98168,31.241809 c -6.93855,6.93855 -5.378934,13.939411 4.23637,19.015833 14.217957,7.506599 36.00359,8.093437 50.70153,1.365784 z"
       id="path7501" />
  </g>
</svg>
