<?xml version="1.0" encoding="UTF-8" standalone="no"?>
<!-- Created with Inkscape (http://www.inkscape.org/) -->

<svg
   width="210mm"
   height="210mm"
   viewBox="0 0 210 210"
   version="1.1"
   id="svg5"
   inkscape:version="1.2 (dc2aedaf03, 2022-05-15)"
   sodipodi:docname="28-Dewnnimmen.svg"
   xmlns:inkscape="http://www.inkscape.org/namespaces/inkscape"
   xmlns:sodipodi="http://sodipodi.sourceforge.net/DTD/sodipodi-0.dtd"
   xmlns="http://www.w3.org/2000/svg"
   xmlns:svg="http://www.w3.org/2000/svg">
  <sodipodi:namedview
     id="namedview7"
     pagecolor="#ffffff"
     bordercolor="#666666"
     borderopacity="1.0"
     inkscape:showpageshadow="2"
     inkscape:pageopacity="0.0"
     inkscape:pagecheckerboard="0"
     inkscape:deskcolor="#d1d1d1"
     inkscape:document-units="mm"
     showgrid="false"
     inkscape:zoom="0.736773"
     inkscape:cx="210.37687"
     inkscape:cy="444.50597"
     inkscape:window-width="1920"
     inkscape:window-height="1002"
     inkscape:window-x="-8"
     inkscape:window-y="-8"
     inkscape:window-maximized="1"
     inkscape:current-layer="layer1" />
  <defs
     id="defs2" />
  <g
     inkscape:label="Camada 1"
     inkscape:groupmode="layer"
     id="layer1">
    <path
       style="display:inline;fill:#000000;stroke-width:0.264583"
       d="m 39.401014,199.90732 c -4.133877,-2.17238 -11.180132,-7.4217 -15.658397,-11.66514 -7.851687,-7.43988 -8.142385,-8.4238 -8.142385,-27.56129 0,-19.71293 0.06628,-19.91121 9.726642,-29.57261 8.514043,-8.51404 11.181174,-9.72655 21.395185,-9.72655 37.258681,0 54.849081,38.36712 27.465851,59.90681 -7.845533,6.17132 -18.405068,6.70641 -28.573723,1.44799 -8.740162,-4.51974 -12.476532,-10.77864 -12.476532,-20.89986 0,-10.96594 2.251442,-15.14167 10.450168,-19.38132 17.134992,-8.86089 35.975917,10.22954 22.305629,22.60106 -6.110908,5.53027 -13.965815,4.19675 -13.965815,-2.37094 0,-3.71771 1.472334,-4.81716 5.821347,-4.34693 7.925072,0.85695 6.374335,-7.82858 -1.600449,-8.9641 -12.754069,-1.81606 -18.317101,15.59296 -7.421417,23.22459 19.450823,13.62399 40.521885,-15.37641 23.523152,-32.37514 -6.94844,-6.94844 -22.093239,-10.50007 -31.094178,-7.29188 -15.038179,5.35992 -21.717605,29.99928 -12.108283,44.66504 5.050381,7.70776 21.934065,16.30144 32.189835,16.38438 17.64698,0.14299 34.53338,-16.74988 34.53338,-34.546 0,-17.56346 -11.455366,-35.53258 -26.85185,-42.12025 -4.61263,-1.97362 -16.67158,-3.44946 -28.185021,-3.44946 H 20.610938 V 103.73078 93.595925 l 9.395038,1.790775 c 5.167228,0.984965 16.241687,1.881583 24.609908,1.99256 12.301829,0.162867 16.952997,-0.989226 24.293549,-6.018586 C 104.57035,73.778841 104.92704,32.889182 79.51166,22.270087 67.997462,17.459177 59.082312,17.799398 46.456549,23.531736 28.435733,31.713417 22.694305,52.431758 33.849439,69.025502 c 5.253965,7.815516 6.901096,8.574456 20.108445,9.266166 13.102621,0.686502 15.050109,0.08522 21.835966,-6.697039 4.097612,-4.097611 7.450203,-9.738763 7.450203,-12.535713 0,-13.165685 -11.034121,-24.154165 -22.549077,-22.455617 -7.868542,1.160709 -16.032896,12.535902 -13.87567,19.332744 2.037064,6.418366 12.507969,9.572392 17.639689,5.313429 4.39863,-3.650485 2.281269,-8.444541 -2.858499,-6.472245 -4.535079,1.740306 -7.52425,-5.443249 -3.810417,-9.157177 5.021027,-5.020932 15.432656,1.84759 15.432656,10.18087 0,15.798917 -22.318222,21.673858 -32.613856,8.585155 C 24.489247,43.89319 54.818047,15.645676 77.196966,30.308977 91.099811,39.41843 95.268987,62.3617 85.320034,75.00981 74.357878,88.945987 50.270469,95.123936 35.890291,87.687653 15.993573,77.398647 10.687435,41.440437 26.487772,23.969392 44.483969,4.0704022 83.554446,3.5538688 99.912553,22.998537 l 5.394577,6.4124 7.88369,-8.979065 c 9.94746,-11.3295532 21.7713,-15.2998065 40.50484,-13.6011642 18.76565,1.7015777 31.40495,9.4050752 37.5187,22.8670452 11.69563,25.75272 -0.75468,55.138692 -24.72259,58.353509 -27.98068,3.75294 -52.58263,-21.592519 -43.12405,-44.427465 7.13933,-17.23574 24.49656,-24.233798 40.09729,-16.166312 20.20711,10.449505 15.4176,41.312165 -6.41117,41.312165 -15.35842,0 -24.04868,-14.418717 -14.11078,-23.412459 8.05877,-7.293111 17.29568,-4.326287 13.91989,4.470973 -1.03771,2.70406 -3.20772,3.534964 -6.50179,2.489493 -3.85653,-1.224057 -4.75022,-0.551095 -4.06201,3.057064 1.0503,5.507733 10.87921,7.509762 16.00089,3.259132 8.91458,-7.398407 -0.0757,-24.938955 -12.7784,-24.938955 -9.3049,0 -18.67617,10.456985 -18.67617,20.839829 0,16.399251 19.50575,27.676251 37.2014,21.507487 10.03201,-3.497182 15.41068,-13.491892 15.41068,-28.636217 0,-14.340408 -8.7661,-24.357464 -25.18486,-28.778536 -34.662,-9.3334898 -57.7457,26.94496 -36.76128,57.774196 10.46722,15.377736 17.5557,18.703909 39.23903,18.41198 10.70441,-0.143929 22.44738,-1.011099 26.0955,-1.926656 6.51021,-1.633969 6.63293,-1.433416 6.63293,10.842469 v 12.50731 l -23.31881,-1.53171 c -19.42298,-1.27585 -24.90165,-0.78024 -32.79301,2.96399 -18.7897,8.91638 -28.77645,35.17389 -20.7155,54.46648 7.30002,17.47133 27.82756,23.92426 49.06897,15.42518 12.99752,-5.20056 17.73703,-12.87044 17.73703,-28.70354 0,-10.93299 -1.11686,-13.92444 -7.63106,-20.43854 -6.99313,-6.99313 -8.70844,-7.52746 -20.52157,-6.39232 -9.97521,0.95845 -14.19885,2.75945 -18.67503,7.96342 -12.07041,14.03257 -4.65988,34.00409 12.61734,34.00409 14.13758,0 21.92118,-14.43651 12.73598,-23.62181 -4.91602,-4.91593 -9.58612,-5.01582 -13.50932,-0.28881 -3.62369,4.36625 -1.32679,9.19534 3.49378,7.34557 4.43518,-1.70196 7.78531,3.69158 4.3973,7.07949 -4.54663,4.54673 -15.27149,-0.009 -17.092,-7.26679 -1.33229,-5.30803 -0.29827,-7.83511 5.11221,-12.48855 8.74168,-7.51923 17.68315,-7.40826 25.40682,0.31531 12.15127,12.15128 5.47942,32.96649 -12.46479,38.88868 -23.82493,7.86286 -45.42284,-22.46244 -31.64688,-44.43466 7.6213,-12.15592 19.08314,-18.12043 34.84238,-18.13151 16.51307,-0.009 25.74941,5.88327 31.41859,20.05172 11.03554,27.58071 -1.6995,52.3354 -30.92658,60.11569 -20.47291,5.44997 -41.85512,-1.8688 -51.03862,-17.46962 l -4.5847,-7.78844 -7.266298,10.03088 c -3.996366,5.51692 -10.614606,11.76238 -14.707199,13.8787 -9.665851,4.9984 -34.251802,4.82938 -44.017173,-0.30301 z m 83.302356,-85.2587 c 4.51491,-6.12133 3.87859,-10.93896 -2.31564,-17.532503 -6.47992,-6.897498 -20.614847,-7.820535 -29.069849,-1.898438 -10.481603,7.341591 -5.395051,23.870381 8.211182,26.682291 7.276247,1.50368 19.549487,-2.33666 23.174307,-7.25135 z"
       id="path7507" />
  </g>
</svg>
