<?xml version="1.0" encoding="UTF-8" standalone="no"?>
<!-- Created with Inkscape (http://www.inkscape.org/) -->

<svg
   width="210mm"
   height="210mm"
   viewBox="0 0 210 210"
   version="1.1"
   id="svg5"
   inkscape:version="1.2 (dc2aedaf03, 2022-05-15)"
   sodipodi:docname="29-Eban.svg"
   xmlns:inkscape="http://www.inkscape.org/namespaces/inkscape"
   xmlns:sodipodi="http://sodipodi.sourceforge.net/DTD/sodipodi-0.dtd"
   xmlns="http://www.w3.org/2000/svg"
   xmlns:svg="http://www.w3.org/2000/svg">
  <sodipodi:namedview
     id="namedview7"
     pagecolor="#ffffff"
     bordercolor="#666666"
     borderopacity="1.0"
     inkscape:showpageshadow="2"
     inkscape:pageopacity="0.0"
     inkscape:pagecheckerboard="0"
     inkscape:deskcolor="#d1d1d1"
     inkscape:document-units="mm"
     showgrid="false"
     inkscape:zoom="0.736773"
     inkscape:cx="210.37687"
     inkscape:cy="444.50597"
     inkscape:window-width="1920"
     inkscape:window-height="1002"
     inkscape:window-x="-8"
     inkscape:window-y="-8"
     inkscape:window-maximized="1"
     inkscape:current-layer="layer1" />
  <defs
     id="defs2" />
  <g
     inkscape:label="Camada 1"
     inkscape:groupmode="layer"
     id="layer1">
    <path
       style="display:inline;fill:#000000;stroke-width:0.264583"
       d="M 97.624245,198.11658 C 92.831252,194.18465 85.793414,187.66631 81.984686,183.63135 63.689549,164.24986 51.897049,153.14092 43.151599,147.04919 37.890531,143.3846 31.109483,136.4633 28.082784,131.66861 25.056,126.87401 19.306512,121.29307 15.306182,119.2666 -1.7776985,110.6126 -2.4141473,105.2312 12.552234,95.981453 16.912208,93.286869 23.950215,85.656492 28.192306,79.025079 c 4.242092,-6.631413 8.77374,-12.057061 10.070535,-12.057061 1.296711,0 7.090278,-4.383871 12.874556,-9.741967 5.784278,-5.358008 12.697225,-10.879415 15.362254,-12.269604 2.664945,-1.390274 5.51938,-5.596223 6.343039,-9.346601 1.005635,-4.578598 4.289633,-8.581292 9.995548,-12.183304 4.67385,-2.950447 10.742786,-8.517199 13.486593,-12.370514 l 4.988719,-7.0060876 8.0982,7.6492076 c 4.45395,4.207047 11.23289,9.791617 15.06433,12.410118 3.83136,2.618501 8.17056,7.66863 9.64266,11.222508 2.9806,7.195916 21.89411,24.43408 33.25409,30.308543 4.05387,2.096304 9.92622,8.04246 13.04969,13.213596 3.58665,5.93788 9.71258,11.654013 16.62637,15.514167 6.02098,3.361601 10.94723,7.60513 10.94723,9.43012 0,1.8249 -4.88082,7.10353 -10.84632,11.73035 -5.96541,4.62673 -13.08127,12.56895 -15.81292,17.64923 -2.82539,5.25473 -8.30863,11.03411 -12.71843,13.40537 -4.26345,2.29263 -9.23783,6.43398 -11.05429,9.20304 -1.81638,2.76907 -7.29869,7.55734 -12.18297,10.64061 -4.8842,3.08328 -8.88039,7.18139 -8.88039,9.10678 0,3.25403 -25.94873,30.09364 -28.85358,29.84428 -0.71946,-0.0591 -5.22999,-3.32935 -10.022975,-7.26128 z m 16.255135,-26.85126 c 3.65108,-5.30659 10.2276,-12.09304 14.6146,-15.08106 4.38699,-2.98794 7.98318,-6.05315 7.99162,-6.81145 0.008,-0.7583 -4.00016,-4.03605 -8.90792,-7.28382 -4.90775,-3.24777 -11.4554,-9.91651 -14.5505,-14.81945 -3.09501,-4.90286 -6.36879,-8.88723 -7.27495,-8.85421 -0.90625,0.0338 -4.1612,4.1606 -7.233231,9.17231 -3.072033,5.0117 -9.826648,12.17004 -15.010282,15.90742 -5.183549,3.73737 -8.885541,7.66736 -8.226714,8.73345 0.658657,1.06602 5.07715,3.91733 9.818554,6.3362 5.203478,2.65456 10.620343,7.95582 13.665182,13.37345 2.774461,4.93647 5.816441,8.97547 6.760011,8.97547 0.94349,0 4.70265,-4.34173 8.35363,-9.64831 z m 43.4686,-41.56846 c 3.19078,-4.82154 9.85951,-12.02768 14.81937,-16.01357 4.95994,-3.98589 9.01803,-7.83456 9.01803,-8.55258 0,-0.71776 -4.37238,-3.62515 -9.71646,-6.460162 -6.0561,-3.212812 -11.5808,-8.471769 -14.66543,-13.960074 -2.72194,-4.843073 -5.75641,-8.805573 -6.74338,-8.805573 -0.98689,0 -4.60748,4.272997 -8.04567,9.495475 -3.43828,5.222561 -7.84486,10.635881 -9.79238,12.029701 -1.9476,1.393905 -6.00923,4.535873 -9.02588,6.982273 l -5.48485,4.44805 9.51389,4.85363 c 6.12247,3.12347 11.65587,8.39974 15.52261,14.80147 3.30477,5.47125 6.63648,9.94784 7.40373,9.94784 0.76759,0 4.00565,-3.94494 7.19642,-8.76648 z m -89.310195,-3.01234 c 3.510981,-5.19554 10.496634,-12.3435 15.523625,-15.88437 L 92.701463,104.3622 82.609566,99.233278 C 76.636979,96.197965 70.059441,90.389959 66.495682,85.004675 c -3.312117,-5.004867 -6.843196,-9.099774 -7.846973,-9.099774 -1.003693,0 -3.24279,2.649323 -4.975734,5.887299 -1.732945,3.237977 -8.550977,10.700396 -15.151231,16.583135 l -12.000485,10.695835 9.272208,4.73035 c 5.099782,2.60169 11.999302,8.67409 15.332277,13.4942 3.33306,4.82002 7.065451,8.77981 8.294269,8.7994 1.228819,0.0169 5.106875,-4.21515 8.617772,-9.4106 z M 108.48456,87.63466 c 2.07722,-3.379335 8.89466,-10.814394 15.14979,-16.522336 l 11.37299,-10.378244 -9.30818,-4.748753 c -5.35345,-2.731064 -11.69294,-8.526235 -14.92095,-13.639696 -3.08691,-4.890025 -6.53693,-8.89103 -7.66669,-8.89103 -1.12968,0 -4.264291,3.267531 -6.965706,7.261275 -2.701419,3.993659 -8.999704,10.903566 -13.996042,15.355414 l -9.084405,8.094141 6.875116,3.555315 c 7.68687,3.974997 17.527282,14.757809 19.69181,21.577446 1.932397,6.088527 4.368417,5.630676 8.852267,-1.663532 z"
       id="path7503" />
  </g>
</svg>
