<?xml version="1.0" encoding="UTF-8" standalone="no"?>
<!-- Created with Inkscape (http://www.inkscape.org/) -->

<svg
   width="210mm"
   height="210mm"
   viewBox="0 0 210 210"
   version="1.1"
   id="svg5"
   inkscape:version="1.2 (dc2aedaf03, 2022-05-15)"
   sodipodi:docname="30-Epa.svg"
   xmlns:inkscape="http://www.inkscape.org/namespaces/inkscape"
   xmlns:sodipodi="http://sodipodi.sourceforge.net/DTD/sodipodi-0.dtd"
   xmlns="http://www.w3.org/2000/svg"
   xmlns:svg="http://www.w3.org/2000/svg">
  <sodipodi:namedview
     id="namedview7"
     pagecolor="#ffffff"
     bordercolor="#666666"
     borderopacity="1.0"
     inkscape:showpageshadow="2"
     inkscape:pageopacity="0.0"
     inkscape:pagecheckerboard="0"
     inkscape:deskcolor="#d1d1d1"
     inkscape:document-units="mm"
     showgrid="false"
     inkscape:zoom="0.736773"
     inkscape:cx="210.37687"
     inkscape:cy="444.50597"
     inkscape:window-width="1920"
     inkscape:window-height="1002"
     inkscape:window-x="-8"
     inkscape:window-y="-8"
     inkscape:window-maximized="1"
     inkscape:current-layer="layer1" />
  <defs
     id="defs2" />
  <g
     inkscape:label="Camada 1"
     inkscape:groupmode="layer"
     id="layer1">
    <path
       style="display:inline;fill:#000000;stroke-width:0.264583"
       d="M 38.685779,154.84174 C 18.380592,128.80331 2.0957061,106.30813 2.4971098,104.85244 2.8988988,103.39675 18.95543,80.45844 38.179158,53.878504 L 73.131244,5.5513711 79.513042,12.837532 c 3.510017,4.007389 10.496908,12.340995 15.526401,18.519201 l 9.144597,11.233039 13.73328,-18.351547 c 7.55335,-10.093385 14.47414,-18.3516443 15.37947,-18.3516443 2.6493,0 75.0278,94.4214893 74.34553,96.9875493 -0.34109,1.28255 -16.36814,24.26768 -35.61576,51.07799 L 137.03082,202.6981 126.7588,190.44864 c -5.64961,-6.73715 -12.68352,-15.0881 -15.63075,-18.55745 l -5.35873,-6.30809 -13.695215,18.30067 c -7.532341,10.06525 -14.319493,18.30058 -15.082507,18.30058 -0.76311,0 -18.000633,-21.30417 -38.305819,-47.34261 z m 44.896027,-1.74137 5.334931,-8.22791 -13.905082,-18.47468 C 66.268744,114.78174 61.676786,106.43666 62.642815,103.91936 63.487824,101.71733 69.436519,92.548148 75.862157,83.543351 83.779329,72.448481 87.052802,65.619801 86.017592,62.358276 84.404077,57.27444 75.052701,47.673994 73.447279,49.453139 69.61477,53.700541 33.633835,105.66372 33.633835,106.95128 c 0,2.07186 41.623133,54.24114 43.338397,54.31919 0.701444,0.0289 3.675454,-3.64472 6.609574,-8.1701 z m 73.507924,-21.50169 c 17.66822,-24.15051 19.57532,-27.82124 16.77985,-32.297489 -5.81245,-9.30715 -39.18455,-50.076118 -40.99067,-50.076118 -2.35177,0 -10.01891,11.779164 -10.01891,15.392279 0,1.553873 6.30771,10.886556 14.01705,20.739542 l 14.01704,17.914306 -14.1792,20.12038 c -8.44095,11.97765 -13.44086,21.41767 -12.35458,23.32603 2.92718,5.1428 9.34424,12.12825 11.1414,12.12825 0.90957,0 10.62439,-12.26122 21.58802,-27.24718 z m -44.60061,-18.39683 c 2.89982,-4.07224 5.23107,-8.37417 5.18058,-9.55989 -0.12622,-2.96987 -12.21169,-17.532554 -13.34239,-16.077442 -8.22934,10.589888 -12.059151,16.225632 -12.059151,17.745592 0,2.92266 10.320381,15.29593 12.758091,15.29593 1.20489,0 4.56315,-3.33186 7.46287,-7.40419 z"
       id="path7511" />
  </g>
</svg>
