<?xml version="1.0" encoding="UTF-8" standalone="no"?>
<!-- Created with Inkscape (http://www.inkscape.org/) -->

<svg
   width="210mm"
   height="210mm"
   viewBox="0 0 210 210"
   version="1.1"
   id="svg5"
   inkscape:version="1.2 (dc2aedaf03, 2022-05-15)"
   sodipodi:docname="31-Ese_ne_tekrema.svg"
   xmlns:inkscape="http://www.inkscape.org/namespaces/inkscape"
   xmlns:sodipodi="http://sodipodi.sourceforge.net/DTD/sodipodi-0.dtd"
   xmlns="http://www.w3.org/2000/svg"
   xmlns:svg="http://www.w3.org/2000/svg">
  <sodipodi:namedview
     id="namedview7"
     pagecolor="#ffffff"
     bordercolor="#666666"
     borderopacity="1.0"
     inkscape:showpageshadow="2"
     inkscape:pageopacity="0.0"
     inkscape:pagecheckerboard="0"
     inkscape:deskcolor="#d1d1d1"
     inkscape:document-units="mm"
     showgrid="false"
     inkscape:zoom="0.736773"
     inkscape:cx="210.37687"
     inkscape:cy="444.50597"
     inkscape:window-width="1920"
     inkscape:window-height="1002"
     inkscape:window-x="-8"
     inkscape:window-y="-8"
     inkscape:window-maximized="1"
     inkscape:current-layer="layer1" />
  <defs
     id="defs2" />
  <g
     inkscape:label="Camada 1"
     inkscape:groupmode="layer"
     id="layer1">
    <path
       style="display:inline;fill:#000000;stroke-width:0.264583"
       d="M 65.888193,202.73115 C 57.10297,199.17915 41.749013,179.38024 36.126953,164.35378 25.397032,135.67535 22.987309,101.39644 29.35994,68.089726 36.185427,32.41593 49.503759,10.582782 66.369445,7.4188276 76.986572,5.4270341 83.662558,7.507875 93.662191,15.920781 l 7.861699,6.615236 9.18812,-8.067204 c 12.39342,-10.8816971 19.98957,-12.4113344 31.63153,-6.3696629 19.16687,9.9466989 32.99297,38.4002279 38.1783,78.5692379 7.37432,57.126712 -15.01716,115.994792 -44.12044,115.994792 -10.00843,0 -20.01786,-4.76958 -26.32806,-12.5457 -2.74998,-3.38875 -4.63235,-2.61968 -13.751203,5.6187 -10.755447,9.71685 -19.009453,11.61406 -30.433944,6.99497 z M 87.606569,181.0661 C 99.285933,168.24327 99.715241,165.24653 97.809922,109.85268 96.817043,80.98914 94.798634,52.820658 93.324404,47.255886 90.445105,36.387447 80.5737,24.650795 74.311785,24.650795 c -8.035543,0 -19.780209,13.387888 -24.287098,27.685247 -5.340077,16.940885 -3.195913,20.744596 11.693909,20.744596 7.910282,0 9.655513,0.946871 9.655513,5.235594 0,4.458408 -1.533397,5.141402 -10.328514,4.60029 -11.639887,-0.716337 -14.441715,2.000204 -14.500783,14.058514 -0.05936,11.314074 5.90157,15.972044 14.524529,11.357214 5.629777,-3.01297 7.123895,-2.90483 10.811646,0.78263 3.431889,3.43188 3.643822,5.04434 1.070647,8.14487 -2.517272,3.03325 -4.87228,3.28575 -10.933641,1.17275 -4.24885,-1.48115 -9.477518,-2.02058 -11.619307,-1.19877 -4.523412,1.73583 -5.224611,15.22335 -1.184034,22.77339 3.034242,5.66935 12.902382,6.72892 17.727863,1.90344 4.356894,-4.3569 11.844794,3.08608 9.43151,9.37501 -1.341055,3.49491 -3.525785,4.13368 -9.585562,2.80272 -14.403623,-3.16356 -16.710051,9.48622 -4.305543,23.6141 9.436852,10.74802 17.423716,11.81728 25.123649,3.36342 z m 58.443031,-1.62798 c 7.88752,-7.88743 11.97342,-18.64802 9.51422,-25.05657 -1.05561,-2.75067 -4.00476,-3.37628 -10.75367,-2.2811 -8.67965,1.40854 -9.29922,1.05017 -9.29922,-5.37807 0,-7.34038 6.75633,-9.55499 12.28459,-4.02672 4.11924,4.11923 13.44339,-1.46375 15.38869,-9.21424 4.04977,-16.13579 -3.39054,-23.89776 -16.28995,-16.99411 -4.88485,2.61424 -6.94511,2.655 -9.414,0.18601 -3.97379,-3.97379 0.98744,-12.72617 6.29506,-11.10481 1.93372,0.59068 6.46089,1.17978 10.06049,1.3089 6.13952,0.21965 6.54449,-0.57485 6.54449,-12.854296 V 80.93393 l -12.63672,0.806374 c -11.88942,0.758882 -12.58607,0.449195 -11.78019,-5.235594 0.74503,-5.25746 2.13674,-5.942136 10.71023,-5.270125 7.16614,0.561989 10.29774,-0.384883 11.48128,-3.468794 2.53815,-6.614147 -3.35263,-22.492102 -12.40698,-33.441574 -6.72911,-8.137551 -9.68866,-9.81382 -16.17665,-9.162389 -5.0857,0.510539 -9.91623,3.465035 -13.43519,8.217101 -5.21392,7.040982 -5.4867,10.459414 -5.34165,66.937171 0.14049,54.53335 0.59859,60.37892 5.47186,69.80617 4.70151,9.09452 13.78257,16.68215 20.10048,16.79484 1.19067,0.0198 5.54786,-3.34462 9.68283,-7.47949 z"
       id="path7509" />
  </g>
</svg>
