<?xml version="1.0" encoding="UTF-8" standalone="no"?>
<!-- Created with Inkscape (http://www.inkscape.org/) -->

<svg
   width="210mm"
   height="210mm"
   viewBox="0 0 210 210"
   version="1.1"
   id="svg5"
   inkscape:version="1.2 (dc2aedaf03, 2022-05-15)"
   sodipodi:docname="32-Fafanto.svg"
   xmlns:inkscape="http://www.inkscape.org/namespaces/inkscape"
   xmlns:sodipodi="http://sodipodi.sourceforge.net/DTD/sodipodi-0.dtd"
   xmlns="http://www.w3.org/2000/svg"
   xmlns:svg="http://www.w3.org/2000/svg">
  <sodipodi:namedview
     id="namedview7"
     pagecolor="#ffffff"
     bordercolor="#666666"
     borderopacity="1.0"
     inkscape:showpageshadow="2"
     inkscape:pageopacity="0.0"
     inkscape:pagecheckerboard="0"
     inkscape:deskcolor="#d1d1d1"
     inkscape:document-units="mm"
     showgrid="false"
     inkscape:zoom="0.736773"
     inkscape:cx="210.37687"
     inkscape:cy="444.50597"
     inkscape:window-width="1920"
     inkscape:window-height="1002"
     inkscape:window-x="-8"
     inkscape:window-y="-8"
     inkscape:window-maximized="1"
     inkscape:current-layer="layer1" />
  <defs
     id="defs2" />
  <g
     inkscape:label="Camada 1"
     inkscape:groupmode="layer"
     id="layer1">
    <path
       style="display:inline;fill:#000000;stroke-width:0.264583"
       d="M 36.174815,191.57947 C 29.122016,188.37735 22.167944,182.26282 17.420714,175.08932 10.697615,164.92989 9.8758973,161.3115 9.8758973,141.86377 c 0,-19.14607 0.8748787,-23.14651 7.1285407,-32.59652 C 25.032565,97.135891 38.845215,89.47169 56.207003,87.514756 77.336946,85.13304 62.018162,81.666637 37.890443,83.370017 11.061236,85.264069 5.8004208,82.40198 5.9423861,65.986459 6.0902244,48.893821 20.823628,36.084441 40.369874,36.055076 55.078267,36.034826 67.102383,43.2145 76.739719,57.777484 l 7.298454,11.028738 5.147102,-8.463845 c 3.971788,-6.53111 4.501981,-9.669332 2.321973,-13.742784 C 89.953427,43.696089 89.410881,37.419238 90.301657,32.650946 93.584984,15.0753 73.614762,5.5585617 58.461841,17.477875 c -8.542524,6.719555 -9.356647,4.833806 -1.195668,-2.769235 3.750334,-3.494047 9.50246,-5.4627275 15.960665,-5.4627275 8.32836,0 11.407852,1.6426255 17.579089,9.3770005 4.114969,5.157228 8.337469,9.376898 9.383173,9.377 1.0458,0 6.36332,-4.822365 11.81673,-10.716557 6.24101,-6.745276 12.28729,-10.7165573 16.31599,-10.7165573 7.52942,0 22.20936,7.0692043 22.20936,10.6949893 0,1.386035 -4.2468,0.01013 -9.43704,-3.048001 -8.23814,-4.8605398 -10.46402,-5.142749 -17.51702,-2.221321 -10.46473,4.334599 -14.00454,10.950769 -10.62077,19.850838 1.67108,4.395152 1.69134,9.298017 0.0608,13.598391 -1.97546,5.19601 -1.35353,8.698766 2.73551,15.405054 2.9107,4.774064 5.29687,7.342704 5.30234,5.70828 0.0203,-6.63956 22.06638,-27.810106 32.08203,-30.810819 25.72579,-7.707642 50.26836,10.892039 44.53153,33.74865 -2.84315,11.328668 -11.6289,15.034245 -28.95788,12.213875 -8.46982,-1.378541 -18.3918,-1.457017 -22.65136,-0.179228 l -7.57986,2.273874 9.377,0.289601 c 28.92325,0.892093 50.90377,25.259908 50.90377,56.433538 0,32.84411 -19.77904,53.5196 -51.24562,53.568 -15.55876,0.0203 -17.36351,-4.86621 -9.26581,-25.10689 9.5383,-23.84207 9.68452,-47.38188 0.35238,-56.71392 -10.6713,-10.67119 -14.27865,-8.74099 -12.78164,6.83904 1.62622,16.92475 -3.22135,34.51468 -12.61192,45.76305 -9.09267,10.89153 -13.577327,9.5299 -24.300059,-7.37815 -7.031838,-11.08828 -8.029949,-15.09419 -8.029949,-32.23108 0,-10.76303 -0.937659,-19.56914 -2.083001,-19.56914 -5.861486,0 -14.169695,9.4651 -16.763549,19.09758 -3.503363,13.01088 -0.101259,32.32586 8.054859,45.69996 2.977322,4.88342 5.417971,11.54931 5.423439,14.81289 0.02025,11.94098 -19.862179,15.11262 -39.330253,6.27381 z m 32.909006,-3.89898 c 0.790834,-2.06113 -1.845144,-10.19902 -5.85784,-18.08427 -5.447336,-10.70431 -7.360323,-18.52485 -7.550184,-30.86672 -0.291626,-18.97069 5.128471,-29.01377 19.274977,-35.71338 10.091889,-4.779441 10.683445,-6.854645 2.573602,-9.02797 -21.991759,-5.893585 -47.448398,3.520476 -57.557602,21.28508 -10.9044934,19.16238 -6.127494,52.51227 9.51461,66.42386 9.707403,8.63355 37.002913,12.75743 39.602437,5.9834 z M 180.47168,175.49405 c 11.15248,-12.56757 14.21638,-23.27491 12.31686,-43.04494 -2.56722,-26.7156 -26.6594,-45.060219 -54.59457,-41.57002 -7.90337,0.987276 -14.95799,2.747059 -15.67673,3.910121 -0.71894,1.163062 3.38003,3.955687 9.10856,6.205969 20.40857,8.01669 25.7023,36.30353 12.75673,68.16299 -3.69728,9.09884 -5.93591,17.34538 -4.97517,18.32547 0.96095,0.98019 8.32006,1.24498 16.35396,0.58832 13.16885,-1.07608 15.60231,-2.31458 24.71036,-12.57811 z m -69.20564,-17.29434 c 4.21602,-6.43441 4.21308,-6.43715 -7.72932,-7.38696 -6.570694,-0.5225 -11.946844,-0.59743 -11.946844,-0.16708 0,0.43036 1.947111,3.755 4.326903,7.38696 5.451481,8.32006 9.974831,8.36927 15.349261,0.16708 z m 5.58433,-13.8482 c 6.29285,-6.29275 5.61087,-12.803 -0.97208,-9.27989 -6.38469,3.41699 -23.430041,3.65069 -25.470513,0.34934 -0.85159,-1.37874 3.149867,-1.80089 9.279076,-0.97917 13.908847,1.86559 20.940187,-3.89727 20.572717,-16.86147 -0.2572,-9.08375 -2.66788,-11.75173 -5.89693,-6.52696 -0.91032,1.47352 -5.73319,2.67911 -10.71656,2.67911 -4.983457,0 -9.805923,-1.20559 -10.716648,-2.67911 -2.273976,-3.67945 -6.697885,-3.37639 -6.697885,0.4587 0,9.46429 20.769053,17.83477 25.451983,10.25775 0.91032,-1.47352 3.09164,-2.64083 4.84656,-2.59395 1.75503,0.0506 0.7797,1.93415 -2.16745,4.19405 -5.35742,4.10808 -16.568011,3.9887 -26.495556,-0.28251 -4.308677,-1.85375 -4.659945,-1.45905 -2.359641,2.65137 1.486484,2.65612 2.153781,6.92835 1.482838,9.49375 -2.743616,10.49186 21.180869,17.79781 29.860089,9.11848 z m -3.82729,-36.06901 c 3.47846,-2.32754 3.31948,-3.22257 -1.18189,-6.65687 -6.73191,-5.136177 -13.346151,-5.041095 -17.741607,0.25517 -2.904517,3.49972 -2.845989,4.63969 0.342256,6.65678 5.071564,3.2092 13.579041,3.09245 18.581751,-0.25518 z m -1.22867,-25.009084 c 2.3484,-12.518057 0.72096,-20.715287 -4.79938,-24.175918 -10.445787,-6.548021 -17.639032,5.719115 -14.176476,24.175918 1.461878,7.792396 2.758703,9.026137 9.487976,9.026137 6.72917,0 8.026,-1.233741 9.48788,-9.026137 z M 80.706039,75.896689 C 72.123215,59.073094 64.434205,49.417533 56.224217,45.153309 33.905699,33.561266 6.7573194,50.059617 12.235336,71.885816 c 2.029537,8.086452 8.011318,9.609288 26.085559,6.640877 17.63701,-2.896619 31.019517,-0.986264 39.833212,5.68661 3.661833,2.772374 7.061406,4.637061 7.554538,4.143827 0.493132,-0.493132 -1.75796,-6.100355 -5.002606,-12.460441 z m 64.170731,-0.07088 c 3.84674,-0.217707 14.5558,-0.09113 23.79812,0.278463 23.92176,0.961961 30.01604,-5.986743 20.83032,-23.750122 -7.76232,-15.010146 -28.19671,-17.170307 -46.21203,-4.885044 -7.95694,5.42597 -24.91177,32.033422 -24.91177,39.094119 0,1.591287 4.38786,-0.08101 9.75085,-3.723906 5.36299,-3.639455 12.89808,-6.795702 16.74451,-7.013814 z M 107.83203,43.760186 c 2.36997,-4.428264 2.20128,-6.504582 -0.76956,-9.475525 -4.29248,-4.292577 -12.793278,-2.194386 -12.793278,3.157563 0,11.996168 8.423938,15.920162 13.562948,6.317759 z"
       id="path7515" />
  </g>
</svg>
