<?xml version="1.0" encoding="UTF-8" standalone="no"?>
<!-- Created with Inkscape (http://www.inkscape.org/) -->

<svg
   width="210mm"
   height="210mm"
   viewBox="0 0 210 210"
   version="1.1"
   id="svg5"
   inkscape:version="1.2 (dc2aedaf03, 2022-05-15)"
   sodipodi:docname="33-Fawohodie.svg"
   xmlns:inkscape="http://www.inkscape.org/namespaces/inkscape"
   xmlns:sodipodi="http://sodipodi.sourceforge.net/DTD/sodipodi-0.dtd"
   xmlns="http://www.w3.org/2000/svg"
   xmlns:svg="http://www.w3.org/2000/svg">
  <sodipodi:namedview
     id="namedview7"
     pagecolor="#ffffff"
     bordercolor="#666666"
     borderopacity="1.0"
     inkscape:showpageshadow="2"
     inkscape:pageopacity="0.0"
     inkscape:pagecheckerboard="0"
     inkscape:deskcolor="#d1d1d1"
     inkscape:document-units="mm"
     showgrid="false"
     inkscape:zoom="0.736773"
     inkscape:cx="210.37687"
     inkscape:cy="444.50597"
     inkscape:window-width="1920"
     inkscape:window-height="1002"
     inkscape:window-x="-8"
     inkscape:window-y="-8"
     inkscape:window-maximized="1"
     inkscape:current-layer="layer1" />
  <defs
     id="defs2" />
  <g
     inkscape:label="Camada 1"
     inkscape:groupmode="layer"
     id="layer1">
    <g
       id="g9746"
       style="display:inline;stroke-width:0.104188"
       transform="matrix(9.5980358,0,0,9.5980358,-2756.7944,-1025.251)">
      <path
         style="fill:#000000;stroke-width:0.0275664"
         d="m 291.07055,122.87405 v -2.62537 l 1.46963,-1.25555 1.46965,-1.25555 -1.60194,-1.6163 -1.60192,-1.6163 v -2.42466 c 0,-1.33356 0.11631,-2.49655 0.25847,-2.58441 0.63945,-0.3952 2.55341,0.47725 3.74481,1.707 3.80748,3.93002 3.15769,11.46737 -1.17473,13.6263 -0.73972,0.36862 -1.61922,0.67022 -1.95445,0.67022 -0.59534,0 -0.60952,-0.061 -0.60952,-2.62538 z m 3.22194,0.32848 c 1.22915,-1.17245 1.90788,-3.11805 1.92355,-5.51387 0.0124,-1.88384 -0.0847,-2.32251 -0.86387,-3.9052 -0.59311,-1.20478 -1.19218,-1.99663 -1.84735,-2.44184 -1.49008,-1.01253 -1.64052,-0.90842 -1.64052,1.13536 v 1.79422 l 1.5875,1.57094 c 0.87313,0.86401 1.58422,1.75325 1.58023,1.97609 -0.004,0.22283 -0.65173,0.94094 -1.43939,1.59578 l -1.43211,1.19063 -0.0159,1.91168 -0.0159,1.91168 0.7276,-0.27487 c 0.40019,-0.15118 1.04638,-0.57895 1.436,-0.9506 z"
         id="path7521" />
      <path
         style="fill:#000000;stroke-width:0.0275664"
         d="m 302.57993,125.63099 c -4.21897,-1.49242 -5.61978,-9.03071 -2.48285,-13.36111 0.82036,-1.13248 2.97841,-2.37326 4.13649,-2.37829 0.57306,-0.002 0.59531,0.0857 0.59531,2.35703 0,1.29779 -0.0697,2.54134 -0.15496,2.76346 -0.0852,0.22212 -0.80325,0.8933 -1.59557,1.49151 l -1.4406,1.08767 1.46208,1.63898 c 1.59544,1.78847 1.63262,1.93697 1.29448,5.17204 -0.0964,0.92293 -0.29671,1.62129 -0.46302,1.6147 -0.16116,-0.006 -0.76928,-0.18008 -1.35136,-0.38599 z m 0.92604,-2.66964 c 0,-1.74302 0,-1.74551 -1.45521,-3.35238 -0.80036,-0.88443 -1.45521,-1.81893 -1.45521,-2.07667 0,-0.26063 0.70456,-1.01076 1.5875,-1.69017 l 1.5875,-1.22155 v -1.70433 c 0,-1.57576 -0.0436,-1.70432 -0.5778,-1.70432 -0.99168,0 -3.03662,2.38795 -3.54629,4.14113 -0.91355,3.14256 0.16741,7.34669 2.24984,8.75002 1.43078,0.96421 1.60967,0.83733 1.60967,-1.14173 z"
         id="path7519" />
      <path
         style="fill:#000000;stroke-width:0.0275664"
         d="m 288.95389,123.83855 v -4.10306 l 1.32291,-1.00887 c 0.72761,-0.55488 1.32292,-1.09108 1.32292,-1.19155 0,-0.10048 -0.53393,-0.64156 -1.18647,-1.20241 l -1.1865,-1.01972 -0.0265,-3.83646 -0.0265,-3.83646 1.36044,0.0755 c 2.70042,0.14994 5.7813,1.87981 6.77696,3.80518 l 0.40587,0.78488 0.73842,-1.01936 c 1.55745,-2.15 3.95626,-3.42684 6.96876,-3.70935 l 1.52135,-0.14267 v 1.29352 c 0,0.71144 -0.0788,2.64005 -0.17362,4.28581 l -0.17243,2.99228 -1.21544,0.8209 c -0.6685,0.4515 -1.27331,0.86941 -1.34406,0.92869 -0.0707,0.0593 0.51142,0.70873 1.29366,1.44323 l 1.42226,1.33546 -0.18687,3.60276 c -0.10276,1.98152 -0.23238,3.64828 -0.288,3.70391 -0.0556,0.0556 -0.85135,-0.0288 -1.76824,-0.18765 -2.28504,-0.3958 -4.88905,-1.75902 -5.88298,-3.07976 l -0.79645,-1.05833 -1.46259,1.48844 c -1.61594,1.64449 -3.28459,2.42201 -5.89902,2.74866 l -1.51669,0.1895 v -4.10307 z m 4.35438,2.21996 c 2.14656,-0.95412 3.50157,-2.55383 3.83288,-4.52501 0.18455,-1.09799 1.06942,-1.49597 1.07897,-0.48527 0.0225,2.3676 2.95347,5.06296 6.10754,5.61635 l 0.95401,0.16738 0.17047,-1.63113 c 0.0938,-0.89713 0.17049,-2.26166 0.17049,-3.03229 0,-1.36811 -0.034,-1.43049 -1.44184,-2.64594 -0.79301,-0.68463 -1.50305,-1.40436 -1.5779,-1.5994 -0.0837,-0.21802 0.45755,-0.75773 1.40515,-1.40123 l 1.54123,-1.04663 0.19055,-3.34486 c 0.1048,-1.83968 0.11739,-3.41803 0.028,-3.50744 -0.0894,-0.0894 -0.83677,-0.0211 -1.66079,0.15169 -2.90224,0.60875 -5.30365,2.86282 -5.77072,5.41666 -0.10009,0.5473 -0.30086,1.06857 -0.44617,1.15837 -0.34636,0.21408 -0.72501,-0.4039 -0.73012,-1.19164 -0.007,-1.03562 -1.31328,-3.11127 -2.49076,-3.95688 -1.22187,-0.87747 -3.65283,-1.77255 -4.22148,-1.55433 -0.28898,0.11088 -0.34126,0.75948 -0.25299,3.13832 l 0.11123,2.99854 1.4442,1.32292 c 0.79431,0.72761 1.44259,1.39311 1.4406,1.4789 -0.003,0.0858 -0.71797,0.71074 -1.59109,1.38878 l -1.5875,1.23281 v 3.34139 3.34138 l 1.11323,-0.17802 c 0.6123,-0.0979 1.59456,-0.39195 2.18281,-0.65342 z"
         id="path7517" />
    </g>
  </g>
</svg>
