<?xml version="1.0" encoding="UTF-8" standalone="no"?>
<!-- Created with Inkscape (http://www.inkscape.org/) -->

<svg
   width="210mm"
   height="210mm"
   viewBox="0 0 210 210"
   version="1.1"
   id="svg5"
   inkscape:version="1.2 (dc2aedaf03, 2022-05-15)"
   sodipodi:docname="34-Fihankra.svg"
   xmlns:inkscape="http://www.inkscape.org/namespaces/inkscape"
   xmlns:sodipodi="http://sodipodi.sourceforge.net/DTD/sodipodi-0.dtd"
   xmlns="http://www.w3.org/2000/svg"
   xmlns:svg="http://www.w3.org/2000/svg">
  <sodipodi:namedview
     id="namedview7"
     pagecolor="#ffffff"
     bordercolor="#666666"
     borderopacity="1.0"
     inkscape:showpageshadow="2"
     inkscape:pageopacity="0.0"
     inkscape:pagecheckerboard="0"
     inkscape:deskcolor="#d1d1d1"
     inkscape:document-units="mm"
     showgrid="false"
     inkscape:zoom="0.736773"
     inkscape:cx="210.37687"
     inkscape:cy="444.50597"
     inkscape:window-width="1920"
     inkscape:window-height="1002"
     inkscape:window-x="-8"
     inkscape:window-y="-8"
     inkscape:window-maximized="1"
     inkscape:current-layer="layer1" />
  <defs
     id="defs2" />
  <g
     inkscape:label="Camada 1"
     inkscape:groupmode="layer"
     id="layer1">
    <path
       style="display:inline;fill:#000000;stroke-width:0.264584"
       d="m 30.686282,188.71463 c 14.28078,-14.49893 17.28228,-23.05573 9.178531,-26.16547 -3.067069,-1.17699 -9.745745,3.14973 -19.531032,12.65319 -9.886153,9.60121 -14.318423,12.46062 -13.2236478,8.53089 3.8961088,-13.98644 7.8613608,-54.23443 7.8613608,-79.79594 0,-25.561399 -3.965252,-65.809382 -7.8613608,-79.795943 C 6.0042997,20.171303 10.211159,22.839713 19.924176,32.268787 34.908333,46.815301 42.616886,49.63272 45.66921,41.678202 46.829218,38.655255 42.214095,31.518049 32.365809,21.104783 L 17.285814,5.1600032 27.211284,8.0310375 C 56.850751,16.604375 137.01498,17.135734 177.51876,9.0274047 l 10.3439,-2.0707012 -14.00678,15.0820055 c -8.98719,9.676938 -13.37534,16.728023 -12.24426,19.675125 3.0387,7.918774 10.76769,5.081696 25.73152,-9.444935 9.64432,-9.362725 13.89899,-12.069559 12.77416,-8.12743 -10.26917,35.989853 -10.26917,123.602141 0,159.591891 1.12483,3.94224 -3.12984,1.23529 -12.77416,-8.12732 -15.16869,-14.72568 -22.69227,-17.36572 -25.87226,-9.07867 -1.31985,3.44003 2.43149,9.4322 12.24426,19.55784 l 14.14752,14.59834 -11.82159,-2.10734 c -39.26524,-6.99959 -121.106315,-6.32749 -148.437606,1.2191 l -10.756521,2.97 z M 137.082,149.18376 c -12.97422,-13.5421 -1.52438,-24.30342 12.16975,-11.43822 l 6.10152,5.7319 V 103.9373 64.397271 l -6.10152,5.731904 C 135.55762,82.994376 124.10778,72.233051 137.082,58.690949 l 7.61763,-7.950944 H 103.83751 62.975836 l 6.90621,8.207408 c 11.625103,13.815656 0.04468,24.379606 -12.057156,11.002818 -2.942187,-3.251039 -6.140504,-5.909396 -7.107829,-5.90772 -0.967325,0.0018 -1.758387,18.552871 -1.758387,41.224689 v 41.22157 l 7.550162,-7.23763 c 14.739417,-14.12875 27.706265,-4.7114 13.676365,9.93262 l -7.617518,7.95084 h 41.065977 41.06597 z"
       id="path7525" />
  </g>
</svg>
