<?xml version="1.0" encoding="UTF-8" standalone="no"?>
<!-- Created with Inkscape (http://www.inkscape.org/) -->

<svg
   width="210mm"
   height="210mm"
   viewBox="0 0 210 210"
   version="1.1"
   id="svg5"
   inkscape:version="1.2 (dc2aedaf03, 2022-05-15)"
   sodipodi:docname="35-Fofoo.svg"
   xmlns:inkscape="http://www.inkscape.org/namespaces/inkscape"
   xmlns:sodipodi="http://sodipodi.sourceforge.net/DTD/sodipodi-0.dtd"
   xmlns="http://www.w3.org/2000/svg"
   xmlns:svg="http://www.w3.org/2000/svg">
  <sodipodi:namedview
     id="namedview7"
     pagecolor="#ffffff"
     bordercolor="#666666"
     borderopacity="1.0"
     inkscape:showpageshadow="2"
     inkscape:pageopacity="0.0"
     inkscape:pagecheckerboard="0"
     inkscape:deskcolor="#d1d1d1"
     inkscape:document-units="mm"
     showgrid="false"
     inkscape:zoom="0.736773"
     inkscape:cx="343.38935"
     inkscape:cy="444.50597"
     inkscape:window-width="1920"
     inkscape:window-height="1002"
     inkscape:window-x="-8"
     inkscape:window-y="-8"
     inkscape:window-maximized="1"
     inkscape:current-layer="layer1" />
  <defs
     id="defs2" />
  <g
     inkscape:label="Camada 1"
     inkscape:groupmode="layer"
     id="layer1">
    <path
       style="display:inline;fill:#000000;stroke-width:0.264583"
       d="m 110.29054,195.86974 c -4.90548,-4.90548 -6.01976,-7.92906 -4.82193,-13.08483 3.71877,-16.00563 3.95926,-24.50601 0.86003,-30.38221 -8.04127,-15.2447 -21.820717,-0.0188 -21.827876,24.12216 0,15.33749 -4.224801,20.73987 -16.201195,20.73987 -6.116209,0 -9.785428,-1.80664 -13.651239,-6.72125 -8.038615,-10.21941 -5.952967,-20.28084 5.862159,-28.28046 14.805265,-10.02413 21.971225,-27.85948 12.633142,-31.44288 -6.247525,-2.39735 -13.015964,2.06247 -22.954092,15.12498 -5.119781,6.72925 -11.097899,13.3433 -13.284434,14.69797 -6.336731,3.92544 -16.758473,-0.13941 -20.90217,-8.15278 -8.7182589,-16.85908 -1.633024,-28.04034 18.337052,-28.93758 24.87207,-1.11748 36.288922,-15.01599 19.087531,-23.23652 -6.50968,-3.111088 -8.819803,-3.025556 -19.355714,0.71686 -10.15874,3.60809 -12.991759,3.75852 -18.777524,0.99728 C 9.5308387,99.279655 8.3651326,96.999958 7.7323073,87.238924 7.0832798,77.226568 7.869837,75.002636 13.676044,70.435329 c 8.538998,-6.716728 10.906488,-6.615276 21.228474,0.909957 15.551132,11.33754 24.523537,15.07656 29.16479,12.153864 2.324814,-1.464127 4.611294,-4.615443 5.08059,-7.002903 C 70.309105,70.598575 58.30502,58.562082 49.509615,56.803019 40.389884,54.979054 33.559929,44.930903 35.684858,36.464156 c 2.282241,-9.09345 10.337247,-16.154944 18.427577,-16.154944 11.074914,0 15.81884,5.225943 18.154208,19.998524 2.642362,16.715896 10.98618,26.341662 20.716505,23.899473 7.962222,-1.998422 8.347122,-8.360681 1.428143,-23.608399 -6.447979,-14.210123 -6.280683,-23.82157 0.524686,-30.161881 7.430483,-6.922552 18.290353,-6.4866957 25.812943,1.035807 7.6248,7.624989 7.61454,9.80201 -0.11209,24.31922 -9.24285,17.362568 -8.0877,31.871583 2.53742,31.871583 6.7091,0 19.08631,-13.402748 17.1169,-18.535058 -1.73721,-4.526425 5.22509,-17.821597 10.36532,-19.794113 12.59179,-4.831817 26.98381,5.026053 26.60843,18.225709 -0.27318,9.604193 -6.66822,17.611159 -14.06628,17.611159 -7.20129,0 -23.13477,11.206133 -25.20441,17.726551 -3.49777,11.020845 13.03387,13.117514 27.26764,3.458309 10.92984,-7.417377 23.90022,-8.146567 29.75871,-1.67306 5.7884,6.396265 5.31684,21.665754 -0.86004,27.842534 -6.37196,6.37196 -13.46265,6.31299 -23.99998,-0.1997 -6.26947,-3.87476 -10.43512,-4.74628 -16.49424,-3.45068 -17.41617,3.72414 -19.02329,11.7361 -3.74477,18.67127 5.82589,2.64443 15.29548,4.83266 21.04356,4.86281 11.56098,0.0565 18.21073,6.26862 18.21073,17.00113 0,7.89684 -12.88211,20.43862 -20.99316,20.43862 -7.52938,0 -16.39186,-7.94263 -16.39186,-14.69044 0,-7.2353 -13.80252,-20.71736 -20.23204,-19.76237 -11.23288,1.66844 -11.26858,7.84023 -0.15166,26.23983 12.20954,20.20755 13.07579,28.18852 3.84697,35.44773 -8.79794,6.92048 -17.2385,6.50996 -24.9625,-1.21412 z m 2.40828,-73.74817 c 7.46061,-3.92685 9.10004,-6.9527 9.14441,-16.87698 0.0471,-10.946998 -6.05291,-17.642625 -16.07827,-17.642625 -17.574724,0 -25.74842,21.569665 -12.209273,32.219465 7.488973,5.89089 11.423183,6.36358 19.143133,2.30014 z"
       id="path7523" />
  </g>
</svg>
