<?xml version="1.0" encoding="UTF-8" standalone="no"?>
<!-- Created with Inkscape (http://www.inkscape.org/) -->

<svg
   width="210mm"
   height="210mm"
   viewBox="0 0 210 210"
   version="1.1"
   id="svg5"
   inkscape:version="1.2 (dc2aedaf03, 2022-05-15)"
   sodipodi:docname="36-Funtunfunefu_dua.svg"
   xmlns:inkscape="http://www.inkscape.org/namespaces/inkscape"
   xmlns:sodipodi="http://sodipodi.sourceforge.net/DTD/sodipodi-0.dtd"
   xmlns="http://www.w3.org/2000/svg"
   xmlns:svg="http://www.w3.org/2000/svg">
  <sodipodi:namedview
     id="namedview7"
     pagecolor="#ffffff"
     bordercolor="#666666"
     borderopacity="1.0"
     inkscape:showpageshadow="2"
     inkscape:pageopacity="0.0"
     inkscape:pagecheckerboard="0"
     inkscape:deskcolor="#d1d1d1"
     inkscape:document-units="mm"
     showgrid="false"
     inkscape:zoom="0.736773"
     inkscape:cx="343.38935"
     inkscape:cy="444.50597"
     inkscape:window-width="1920"
     inkscape:window-height="1002"
     inkscape:window-x="-8"
     inkscape:window-y="-8"
     inkscape:window-maximized="1"
     inkscape:current-layer="layer1" />
  <defs
     id="defs2" />
  <g
     inkscape:label="Camada 1"
     inkscape:groupmode="layer"
     id="layer1">
    <path
       style="display:inline;fill:#000000;stroke-width:0.264583"
       d="m 106.45752,197.81337 -5.12401,-5.12401 5.01506,-6.78343 c 6.00843,-8.12663 7.02433,-25.14375 2.05565,-34.43038 -4.11148,-7.68474 -6.01472,-7.84746 -18.333732,-1.56682 -9.412923,4.79892 -9.536384,4.8001 -14.204721,0.13149 -6.061568,-6.06157 -2.830022,-10.38417 11.996206,-16.04632 9.196135,-3.51207 10.682055,-5.04228 10.682055,-10.99966 0,-6.05389 -0.893086,-6.92004 -7.135189,-6.92004 -6.069514,0 -7.815231,1.53359 -11.688009,10.26838 -6.499071,14.65857 -10.687625,17.57918 -16.30676,11.37014 -4.219054,-4.66213 -4.238322,-5.28647 -0.367097,-11.84079 2.248238,-3.80556 4.087374,-7.56684 4.087374,-8.35848 0,-3.17273 -6.045314,-1.14201 -11.302283,3.79662 -3.864377,3.63043 -9.468536,5.51385 -18.27648,6.14239 C 23.287945,128.47065 15.666855,125.38686 8.4617165,115.68044 -6.9088559,94.973075 31.890333,76.738053 56.208018,93.240507 c 10.900943,7.397643 12.896232,6.376979 7.010815,-3.586315 -4.326535,-7.324308 -4.310646,-7.499729 1.180462,-12.851851 l 5.566992,-5.426272 4.020165,5.794921 c 2.211255,3.187166 5.197796,9.167005 6.636595,13.288532 2.095738,6.002303 4.172391,7.646933 10.433945,8.263235 7.490689,0.736933 7.785462,0.44289 7.048255,-7.048164 C 97.488853,85.412948 95.844224,83.336295 89.841921,81.24074 85.720302,79.801758 79.740372,76.815308 76.553297,74.604144 l -5.794738,-4.020255 5.12328,-5.264093 c 4.936171,-5.071777 5.407552,-5.116979 12.909108,-1.237809 4.282063,2.214451 8.282137,3.529972 8.888851,2.923349 0.606349,-0.606349 -1.669102,-5.187568 -5.056892,-10.179808 -16.502271,-24.317685 1.732568,-63.1167835 22.440104,-47.7461198 9.70624,7.2049568 12.79012,14.8262288 11.77202,29.0937768 -0.62826,8.807944 -2.51205,14.412103 -6.14247,18.27648 -4.93855,5.256969 -6.96936,11.302283 -3.79672,11.302283 0.79173,0 4.55292,-1.839318 8.35858,-4.087282 6.5544,-3.871774 7.17847,-3.852414 11.8406,0.367096 6.20913,5.619135 3.28852,9.807781 -11.36995,16.30676 -8.7348,3.872687 -10.26848,5.618313 -10.26848,11.687918 0,6.242103 0.8666,7.13528 6.91995,7.13528 5.95765,0 7.48777,-1.48601 10.99984,-10.682237 5.66215,-14.826137 9.98457,-18.057683 16.04632,-11.996114 4.66816,4.668336 4.66697,4.79198 -0.13241,14.204721 -6.26137,12.28167 -6.10695,14.36947 1.31315,17.75023 9.33585,4.25375 25.4965,3.37546 34.06912,-1.85174 l 7.60539,-4.63756 5.31888,5.66168 5.31879,5.66169 -10.27012,6.7965 c -8.52842,5.64379 -12.87569,6.80343 -25.63229,6.83731 -12.16706,0.0365 -15.09251,0.74515 -14.06665,3.42559 0.71227,1.86169 -1.04586,5.56626 -3.90775,8.23246 l -5.20337,4.8476 -4.47511,-5.81629 c -2.46128,-3.19904 -5.66918,-9.34992 -7.1287,-13.66869 -2.18396,-6.46245 -3.90347,-7.8524 -9.71473,-7.8524 -6.19298,0 -7.06086,0.86752 -7.06086,7.06095 0,5.81118 1.39004,7.53069 7.8524,9.71464 4.31877,1.45943 10.46974,4.66742 13.66859,7.1287 l 5.81638,4.4752 -4.8475,5.20328 c -2.6662,2.8618 -6.37999,4.61528 -8.25273,3.89661 -2.69633,-1.03463 -3.22132,1.00166 -2.52283,9.78449 0.97509,12.25902 -4.51045,29.57256 -11.32265,35.73759 -3.93149,3.55782 -4.67007,3.45847 -9.39091,-1.26247 z"
       id="path7505" />
  </g>
</svg>
