<?xml version="1.0" encoding="UTF-8" standalone="no"?>
<!-- Created with Inkscape (http://www.inkscape.org/) -->

<svg
   width="210mm"
   height="210mm"
   viewBox="0 0 210 210"
   version="1.1"
   id="svg5"
   inkscape:version="1.2.2 (732a01da63, 2022-12-09)"
   sodipodi:docname="37-Funtunfunefu_denkyemfunefu.svg"
   xmlns:inkscape="http://www.inkscape.org/namespaces/inkscape"
   xmlns:sodipodi="http://sodipodi.sourceforge.net/DTD/sodipodi-0.dtd"
   xmlns="http://www.w3.org/2000/svg"
   xmlns:svg="http://www.w3.org/2000/svg">
  <sodipodi:namedview
     id="namedview7"
     pagecolor="#ffffff"
     bordercolor="#666666"
     borderopacity="1.0"
     inkscape:showpageshadow="2"
     inkscape:pageopacity="0.0"
     inkscape:pagecheckerboard="0"
     inkscape:deskcolor="#d1d1d1"
     inkscape:document-units="mm"
     showgrid="false"
     inkscape:zoom="0.52097718"
     inkscape:cx="336.86696"
     inkscape:cy="445.31701"
     inkscape:window-width="1920"
     inkscape:window-height="1002"
     inkscape:window-x="-8"
     inkscape:window-y="-8"
     inkscape:window-maximized="1"
     inkscape:current-layer="layer1" />
  <defs
     id="defs2" />
  <g
     inkscape:label="Camada 1"
     inkscape:groupmode="layer"
     id="layer1">
    <path
       style="display:inline;fill:#000000;stroke-width:2.32404"
       d="m 102.42791,198.70517 c -6.076802,-9.27433 -6.677964,-16.25101 -2.71745,-31.53521 4.62695,-17.85593 3.51739,-22.08751 -5.21668,-19.89534 -13.11866,3.2925 -16.539236,12.4393 -6.382464,17.06704 6.437626,2.93325 7.278671,5.60721 2.905056,9.23666 -4.634941,3.84623 -17.56026,-2.72156 -19.344341,-9.82956 -3.001854,-11.9606 3.477943,-21.56232 18.763295,-27.8031 1.278302,-0.52175 -1.595046,-4.77265 -6.385196,-9.44615 -9.72627,-9.48964 -12.110458,-9.27997 -14.216455,1.24993 -2.226422,11.13211 -15.455845,23.07092 -25.564904,23.07092 -9.713014,0 -13.770591,-5.431 -12.6547,-16.93766 1.012154,-10.43643 8.364531,-11.65738 10.352122,-1.71934 1.856363,9.28209 6.977821,8.54214 14.107871,-2.03818 10.26332,-15.22965 4.947996,-20.06011 -15.591712,-14.16945 -6.967736,1.99831 -9.784868,1.4343 -20.314412,-4.06707 -6.723715,-3.51288 -12.2274516,-6.99258 -12.2304381,-7.73288 -0.00308,-0.74046 5.0575211,-3.71721 11.2457771,-6.615568 9.723371,-4.554208 13.352825,-5.044781 26.726381,-3.612587 14.699123,1.574139 15.475168,1.41243 15.475168,-3.224874 0,-2.6852 -3.059131,-8.297599 -6.798119,-12.471999 l -6.798112,-7.589801 -2.440484,6.391168 c -2.645488,6.92776 -8.849474,8.538704 -11.027322,2.863246 -2.248998,-5.860796 3.897885,-17.318619 10.130236,-18.882833 7.701699,-1.933044 16.734148,4.913554 23.222807,17.602862 6.935411,13.562942 6.771417,13.496361 14.651603,5.946612 8.943381,-8.568305 8.76103,-11.800127 -0.844121,-14.970277 C 67.59601,65.009148 56.553658,48.294237 61.413104,39.214271 c 2.920789,-5.457617 17.306858,-8.532728 21.937829,-4.689388 4.623083,3.836835 1.875071,9.38959 -4.64687,9.38959 -2.983416,0 -6.067837,1.041228 -6.854336,2.313821 -1.931376,3.125002 10.05039,13.954524 15.439331,13.954524 7.475867,0 7.803854,-0.187096 7.374767,-4.203211 C 94.432811,53.817561 93.626724,46.296632 92.872461,39.266447 91.633774,27.722291 92.20226,25.380976 98.744062,15.09417 l 7.243198,-11.3900032 6.83061,12.4906982 c 6.31589,11.549562 6.64941,13.335741 4.42544,23.705682 -1.32284,6.168147 -2.40517,13.8485 -2.40517,17.067234 0,5.000777 0.76068,5.61608 5.22907,4.228683 8.05822,-2.501882 18.01129,-10.244697 18.01129,-14.011705 0,-1.861896 -2.69951,-4.411648 -5.99896,-5.666147 -6.51774,-2.477908 -6.52679,-7.586722 -0.0176,-8.849125 7.42502,-1.439572 15.43766,2.008409 18.06436,7.773552 2.20929,4.848817 1.66338,7.041335 -3.66899,14.736014 -3.48654,5.030905 -10.34087,10.877823 -15.45671,13.184705 -5.05568,2.279827 -9.19213,4.857171 -9.19213,5.727291 0,0.870471 4.05037,4.837048 9.00081,8.815393 l 9.00082,7.233269 4.19803,-9.309576 c 4.59928,-10.19911 9.24176,-13.6752 18.26462,-13.6752 7.03853,0 13.7019,8.848692 12.58689,16.714912 -0.9721,6.857585 -7.04125,6.939011 -10.0265,0.134391 -2.81599,-6.418654 -7.19857,-6.727666 -10.40632,-0.733445 -3.48337,6.508695 -2.96742,9.447218 1.66119,9.460745 2.23697,0.007 8.25033,2.588489 13.36328,5.73755 9.98038,6.147062 18.22958,7.219022 27.73714,3.604242 7.79928,-2.965229 7.6554,0.6219 -0.2319,5.79026 -4.98489,3.26625 -9.18045,3.78423 -21.49732,2.65411 -8.41722,-0.77209 -17.65695,-2.07728 -20.53294,-2.89996 -4.7038,-1.34568 -5.22906,-0.68777 -5.22906,6.549 0,4.8424 1.69193,9.57615 4.25002,11.89129 5.54616,5.01923 7.94844,4.85137 11.4789,-0.80196 4.014,-6.42752 9.83553,-5.95292 9.83553,0.80196 0,7.42949 -7.77776,13.89294 -16.42239,13.64718 -8.32121,-0.23629 -12.78206,-3.43429 -17.4891,-12.53674 -1.86594,-3.60819 -4.15008,-6.48488 -5.07588,-6.39256 -0.92582,0.0922 -4.62581,3.71079 -8.22223,8.04128 l -6.53882,7.87342 8.10111,3.38483 c 11.04304,4.61403 16.52235,13.27246 13.7386,21.70998 -3.57297,10.82967 -21.54422,16.23591 -21.54422,6.48092 0,-1.98908 2.61458,-4.6106 5.81011,-5.82549 7.49433,-2.84936 7.41755,-7.81763 -0.17392,-11.27669 -7.09061,-3.23075 -10.28403,-1.79953 -10.28403,4.60893 0,2.57294 -2.71287,9.30729 -6.02865,14.96526 -5.19464,8.86397 -5.80757,11.89542 -4.43001,21.91121 1.79197,13.02923 1.01496,14.12984 -4.27524,6.05597 z m -2.439618,-86.4005 c -1.351911,-3.523 -15.363001,-4.73595 -15.363001,-1.33004 0,1.09287 3.398889,4.81403 7.553086,8.26939 7.396111,6.15189 7.569064,6.17956 8.317963,1.33013 0.42075,-2.72386 0.19237,-6.445 -0.507697,-8.26948 z m 28.793738,-1.39803 c 0,-1.05546 -3.13748,-1.9189 -6.97212,-1.9189 -7.08279,0 -8.48626,2.64611 -5.51304,10.3941 1.28358,3.34495 2.12198,3.17937 6.97211,-1.37702 3.03216,-2.84859 5.51305,-6.0428 5.51305,-7.09818 z M 99.091381,96.070947 c 1.621749,-1.621743 -0.537567,-10.349746 -2.535963,-10.250578 -0.809863,0.04392 -3.351009,2.654729 -5.647525,5.810035 -4.121433,5.662714 -4.103867,5.737114 1.355687,5.737114 3.042171,0 6.114734,-0.583236 6.827801,-1.296571 z m 22.718529,-4.048698 c 0,-3.348813 -4.54068,-8.598971 -7.43695,-8.598971 -1.02251,0 -1.85918,2.614578 -1.85918,5.810124 0,4.260743 1.23948,5.810111 4.64803,5.810111 2.55642,0 4.6481,-1.359639 4.6481,-3.021264 z"
       id="path7251" />
  </g>
</svg>
