<?xml version="1.0" encoding="UTF-8" standalone="no"?>
<!-- Created with Inkscape (http://www.inkscape.org/) -->

<svg
   width="210mm"
   height="210mm"
   viewBox="0 0 210 210"
   version="1.1"
   id="svg5"
   inkscape:version="1.2.2 (732a01da63, 2022-12-09)"
   sodipodi:docname="38-Gyawu_atiko.svg"
   xmlns:inkscape="http://www.inkscape.org/namespaces/inkscape"
   xmlns:sodipodi="http://sodipodi.sourceforge.net/DTD/sodipodi-0.dtd"
   xmlns="http://www.w3.org/2000/svg"
   xmlns:svg="http://www.w3.org/2000/svg">
  <sodipodi:namedview
     id="namedview7"
     pagecolor="#ffffff"
     bordercolor="#666666"
     borderopacity="1.0"
     inkscape:showpageshadow="2"
     inkscape:pageopacity="0.0"
     inkscape:pagecheckerboard="0"
     inkscape:deskcolor="#d1d1d1"
     inkscape:document-units="mm"
     showgrid="false"
     inkscape:zoom="0.52097718"
     inkscape:cx="336.86696"
     inkscape:cy="445.31701"
     inkscape:window-width="1920"
     inkscape:window-height="1002"
     inkscape:window-x="-8"
     inkscape:window-y="-8"
     inkscape:window-maximized="1"
     inkscape:current-layer="layer1" />
  <defs
     id="defs2" />
  <g
     inkscape:label="Camada 1"
     inkscape:groupmode="layer"
     id="layer1">
    <path
       style="display:inline;fill:#000000;stroke-width:2.68875"
       d="M 34.732467,163.75839 C 15.441347,155.3447 1.9313031,134.17662 6.5549039,119.60879 c 2.2166821,-6.98408 6.6675251,-3.98247 6.6675251,4.49657 0,10.28385 7.251345,22.0027 16.609111,26.84184 13.075,6.76133 36.696135,4.14517 49.287617,-5.45883 12.714851,-9.698 17.454505,-21.23891 17.454505,-42.50059 0,-18.891756 -3.75392,-26.548369 -16.162177,-32.964989 -10.45122,-5.404567 -47.02866,-5.384242 -57.413623,0.03049 -4.235709,2.209061 -8.168076,4.016511 -8.738379,4.016511 -0.5701,0 -1.037054,-7.259678 -1.037054,-16.132503 0,-14.445069 0.574165,-16.132504 5.484645,-16.132504 3.016549,0 10.578654,2.691461 16.804631,5.98117 9.615785,5.080697 15.570533,5.983 39.55202,5.99367 26.876595,0.01016 29.070825,-0.42478 45.708695,-9.106455 17.70988,-9.240495 36.91584,-13.049696 49.66392,-9.850125 12.11447,3.040532 27.66742,19.420485 29.6646,31.241976 2.02939,12.011932 -2.34452,28.287519 -8.20669,30.537025 -4.87441,1.870456 -4.90591,-0.62904 -0.15345,-12.121074 11.02284,-26.651708 -21.96897,-49.298693 -52.95618,-36.351432 -20.17503,8.429652 -33.87663,43.46142 -25.15898,64.32566 6.68236,15.99308 16.16584,19.07345 53.43512,17.35634 l 31.68525,-1.4599 v 15.87906 c 0,17.85184 -1.65603,18.94753 -15.69847,10.38628 -10.71219,-6.53095 -47.52275,-11.78227 -64.96404,-9.26773 -6.65462,0.95931 -21.173876,5.76634 -32.26501,10.68211 -25.06305,11.10841 -38.626852,13.15955 -51.086226,7.72551 z"
       id="path7271" />
  </g>
</svg>
