<?xml version="1.0" encoding="UTF-8" standalone="no"?>
<!-- Created with Inkscape (http://www.inkscape.org/) -->

<svg
   width="210mm"
   height="210mm"
   viewBox="0 0 210 210"
   version="1.1"
   id="svg5"
   inkscape:version="1.2.2 (732a01da63, 2022-12-09)"
   sodipodi:docname="39-Gye_nyame.svg"
   xmlns:inkscape="http://www.inkscape.org/namespaces/inkscape"
   xmlns:sodipodi="http://sodipodi.sourceforge.net/DTD/sodipodi-0.dtd"
   xmlns="http://www.w3.org/2000/svg"
   xmlns:svg="http://www.w3.org/2000/svg">
  <sodipodi:namedview
     id="namedview7"
     pagecolor="#ffffff"
     bordercolor="#666666"
     borderopacity="1.0"
     inkscape:showpageshadow="2"
     inkscape:pageopacity="0.0"
     inkscape:pagecheckerboard="0"
     inkscape:deskcolor="#d1d1d1"
     inkscape:document-units="mm"
     showgrid="false"
     inkscape:zoom="0.52097718"
     inkscape:cx="336.86696"
     inkscape:cy="445.31701"
     inkscape:window-width="1920"
     inkscape:window-height="1002"
     inkscape:window-x="-8"
     inkscape:window-y="-8"
     inkscape:window-maximized="1"
     inkscape:current-layer="layer1" />
  <defs
     id="defs2" />
  <g
     inkscape:label="Camada 1"
     inkscape:groupmode="layer"
     id="layer1">
    <path
       style="display:inline;fill:#000000;stroke-width:2.68642"
       d="m 116.2422,197.16793 c -2.32188,-2.32188 -4.22149,-6.42366 -4.22149,-9.11513 0,-8.58898 -7.95439,-8.63244 -18.305564,-0.10153 -10.320947,8.50744 -23.658174,10.6948 -29.512839,4.84013 -1.772991,-1.77299 -3.223711,-7.47332 -3.223711,-12.6672 0,-8.12507 2.331225,-11.60739 16.697197,-24.94249 12.495002,-11.59835 15.926656,-16.26943 13.635637,-18.56035 -2.278326,-2.27842 -5.277646,-2.28898 -11.725169,-0.0406 -12.436417,4.33531 -21.294057,3.84195 -21.294057,-1.18612 0,-8.61305 6.072557,-14.97589 20.295772,-21.26614 8.045266,-3.55796 14.627723,-7.74452 14.627723,-9.30327 0,-1.55886 -0.0305,-3.74093 -0.0609,-4.849082 -0.04061,-1.108144 -6.987173,-2.014844 -15.447003,-2.014844 -13.5803,0 -15.381415,-0.627482 -15.381415,-5.362224 0,-3.675843 4.220472,-7.641667 13.419876,-12.610141 C 91.187781,71.649224 100.12397,62.150903 96.210564,58.23747 87.63642,49.663313 52.96574,78.56218 39.501899,105.50571 c -6.231458,12.47053 -8.069329,19.75815 -8.069329,31.99657 0,22.26716 -4.212654,17.10892 -8.038462,-9.84292 -6.481639,-45.661567 3.976993,-70.108058 39.307239,-91.879022 4.020957,-2.47784 4.3415,-3.76438 1.639878,-6.581751 -4.514636,-4.708151 -4.251764,-14.460003 0.496483,-18.400342 2.119831,-1.7592838 7.862097,-2.8139195 12.760615,-2.3437146 7.512109,0.7208928 9.381049,2.3267576 11.939203,10.2573916 4.11447,12.756046 10.426917,13.231734 21.090954,1.589315 9.69448,-10.5838243 18.01135,-12.2273583 27.6637,-5.466703 10.17789,7.128919 7.60176,16.048699 -10.26694,35.549256 -10.93787,11.936767 -15.95863,19.524011 -15.38314,23.246559 0.4701,3.039325 2.25437,5.251349 3.96552,4.915474 20.47031,-4.017302 24.93974,-3.933841 26.64044,0.498533 2.24888,5.860452 -5.92533,14.182297 -21.07921,21.460264 -7.85661,3.77323 -11.48646,7.21442 -11.48646,10.88935 0,4.77587 1.79096,5.37289 16.11855,5.37289 15.28588,0 16.11856,0.33811 16.11856,6.539 0,4.91152 -3.00866,8.2987 -12.08887,13.60914 -9.0802,5.31054 -12.08896,8.69762 -12.08896,13.60924 0,15.00472 26.46803,0.11778 38.95319,-21.90865 6.1684,-10.88263 6.70196,-14.47735 6.54296,-44.085849 -0.0914,-17.730409 -1.02042,-35.863808 -2.05607,-40.296385 -1.81563,-7.77153 -1.72679,-7.86748 2.48871,-2.686392 7.28142,8.949326 16.58084,31.796044 19.98508,49.0994 5.88999,29.938176 -6.74421,59.498436 -32.5871,76.244066 -12.31336,7.97876 -13.13071,9.18712 -11.62922,17.19106 1.31395,7.00414 0.45792,9.41984 -4.59452,12.95841 -7.83052,5.48467 -14.19916,5.5263 -19.59753,0.12793 z"
       id="path7263" />
  </g>
</svg>
