<?xml version="1.0" encoding="UTF-8" standalone="no"?>
<!-- Created with Inkscape (http://www.inkscape.org/) -->

<svg
   width="210mm"
   height="210mm"
   viewBox="0 0 210 210"
   version="1.1"
   id="svg5"
   inkscape:version="1.2.2 (732a01da63, 2022-12-09)"
   sodipodi:docname="40-Hwemudua.svg"
   xmlns:inkscape="http://www.inkscape.org/namespaces/inkscape"
   xmlns:sodipodi="http://sodipodi.sourceforge.net/DTD/sodipodi-0.dtd"
   xmlns="http://www.w3.org/2000/svg"
   xmlns:svg="http://www.w3.org/2000/svg">
  <sodipodi:namedview
     id="namedview7"
     pagecolor="#ffffff"
     bordercolor="#666666"
     borderopacity="1.0"
     inkscape:showpageshadow="2"
     inkscape:pageopacity="0.0"
     inkscape:pagecheckerboard="0"
     inkscape:deskcolor="#d1d1d1"
     inkscape:document-units="mm"
     showgrid="false"
     inkscape:zoom="0.52097718"
     inkscape:cx="336.86696"
     inkscape:cy="362.7798"
     inkscape:window-width="1920"
     inkscape:window-height="1002"
     inkscape:window-x="-8"
     inkscape:window-y="-8"
     inkscape:window-maximized="1"
     inkscape:current-layer="layer1" />
  <defs
     id="defs2" />
  <g
     inkscape:label="Camada 1"
     inkscape:groupmode="layer"
     id="layer1">
    <path
       style="display:inline;fill:#000000;stroke-width:2.47639"
       d="m 96.957795,184.0214 c -2.858608,-4.8449 -5.197478,-9.64656 -5.197478,-10.6704 0,-1.02385 -1.510826,-3.92776 -3.357381,-6.45317 -3.200421,-4.37673 -3.81881,-4.22089 -13.216688,3.33146 -11.509872,9.24962 -23.923037,11.94902 -36.245509,7.88228 -12.190577,-4.02332 -20.758352,-11.31978 -26.494008,-22.56253 -8.0937129,-15.86489 -6.1076998,-29.73301 6.140365,-42.87707 6.578019,-7.05938 6.589718,-7.13847 1.822126,-12.38199 -7.793176,-8.571237 -10.369874,-15.404492 -10.369874,-27.500555 0,-39.266507 45.356405,-58.773781 65.778486,-28.290601 5.074867,7.575003 8.512086,9.22248 8.515268,4.081627 0.0011,-1.702511 3.368332,-10.211321 7.482718,-18.908446 7.214378,-15.249874 7.648195,-15.661228 12.1849,-11.555547 2.58737,2.341491 7.85663,10.571666 11.70942,18.289309 3.85288,7.71755 7.26819,14.480702 7.5896,15.029081 0.32104,0.548472 2.79843,-1.817541 5.50448,-5.257754 6.86011,-8.72118 19.86153,-14.312323 33.28141,-14.312323 9.59387,0 12.93469,1.403285 21.27053,8.934204 17.87843,16.152045 18.66941,37.904125 2.06595,56.814443 -4.20593,4.790232 -7.22018,8.950672 -6.69839,9.245402 0.52133,0.29483 3.1774,1.75483 5.90142,3.24469 23.03088,12.59596 20.13661,53.24647 -4.64526,65.24323 -5.79622,2.80592 -13.56571,5.10164 -17.26547,5.10164 -10.02001,0 -23.40601,-6.37379 -31.43346,-14.96731 l -7.11563,-7.61721 -8.80439,17.48326 c -4.84247,9.61577 -9.79472,17.48326 -11.00511,17.48326 -1.21038,0 -4.539507,-3.96407 -7.398025,-8.80898 z m 13.599045,-41.33806 c 6.73011,-22.05861 6.26419,-52.569581 -1.13495,-74.309492 -3.13228,-9.203386 -6.68706,-16.120316 -7.89941,-15.371081 -4.890211,3.022308 -9.762163,27.789863 -9.762163,49.627853 0,22.32976 7.228043,55.53022 12.089433,55.53022 1.09161,0 4.1098,-6.96485 6.70709,-15.4775 z M 55.796999,152.78281 C 72.057522,145.37403 79.291087,111.77869 70.865858,82.797081 64.175056,59.78155 48.872863,49.851578 36.855608,60.72715 c -5.597227,5.065414 -5.960941,18.879525 -0.637389,24.203171 5.236695,5.236695 17.456679,4.97837 20.914207,-0.441773 2.234324,-3.502643 2.489653,-2.702865 1.331871,4.171198 -0.788078,4.67774 -3.304406,10.57335 -5.592265,13.101464 -3.895932,4.30495 -3.89406,5.04642 0.02808,11.68836 2.304051,3.90043 4.144616,11.37734 4.09005,16.61525 l -0.09921,9.52349 -3.694513,-6.81005 c -6.524763,-12.02661 -25.824047,-7.79738 -25.824047,5.659 0,14.14282 13.696254,21.05592 28.422832,14.34602 z m 117.684321,-4.52752 c 6.23911,-6.23901 6.31258,-12.86018 0.20404,-18.38814 -6.15834,-5.57327 -15.43529,-4.15454 -18.93625,2.89595 -1.51765,3.05647 -3.49571,4.82094 -4.39564,3.92102 -2.51689,-2.51699 -1.93903,-17.90538 0.86951,-23.15312 1.89279,-3.53662 1.28928,-6.67714 -2.4671,-12.83828 -2.73506,-4.485956 -4.93241,-12.056654 -4.8829,-16.823684 l 0.0936,-8.667362 3.69451,6.810043 c 4.02716,7.423191 15.54302,9.515435 20.36883,3.700785 15.57661,-18.768707 -11.47871,-38.048917 -28.91049,-20.602253 -6.16498,6.170222 -6.49388,7.786531 -6.4745,31.821697 0.0187,28.058474 3.14117,40.189354 12.81956,49.867744 7.9653,7.9653 20.84186,8.63423 28.02048,1.4556 z"
       id="path7269" />
  </g>
</svg>
