<?xml version="1.0" encoding="UTF-8" standalone="no"?>
<!-- Created with Inkscape (http://www.inkscape.org/) -->

<svg
   width="210mm"
   height="210mm"
   viewBox="0 0 210 210"
   version="1.1"
   id="svg5"
   inkscape:version="1.2.2 (732a01da63, 2022-12-09)"
   sodipodi:docname="41-Hye_wo_nhye.svg"
   xmlns:inkscape="http://www.inkscape.org/namespaces/inkscape"
   xmlns:sodipodi="http://sodipodi.sourceforge.net/DTD/sodipodi-0.dtd"
   xmlns="http://www.w3.org/2000/svg"
   xmlns:svg="http://www.w3.org/2000/svg">
  <sodipodi:namedview
     id="namedview7"
     pagecolor="#ffffff"
     bordercolor="#666666"
     borderopacity="1.0"
     inkscape:showpageshadow="2"
     inkscape:pageopacity="0.0"
     inkscape:pagecheckerboard="0"
     inkscape:deskcolor="#d1d1d1"
     inkscape:document-units="mm"
     showgrid="false"
     inkscape:zoom="0.52097718"
     inkscape:cx="336.86696"
     inkscape:cy="380.05503"
     inkscape:window-width="1920"
     inkscape:window-height="1002"
     inkscape:window-x="-8"
     inkscape:window-y="-8"
     inkscape:window-maximized="1"
     inkscape:current-layer="layer1" />
  <defs
     id="defs2" />
  <g
     inkscape:label="Camada 1"
     inkscape:groupmode="layer"
     id="layer1">
    <path
       style="display:inline;fill:#000000;stroke-width:2.60721"
       d="m 42.724745,189.73455 c 0,-8.70209 0.425694,-9.12523 9.185438,-9.12523 h 9.185438 l -0.712447,-46.24892 -0.711461,-46.248943 -6.518049,-0.02956 -6.51805,-0.02956 -0.732155,31.938423 -0.732154,31.93831 h -9.111237 -9.111139 l 0.718359,-40.71155 0.718359,-40.711572 32.848719,0.425695 32.848719,0.425694 1.686123,-19.946733 C 96.696471,40.439909 96.804281,30.410473 96.008661,29.123044 95.213441,27.835713 81.651235,26.782316 65.87128,26.782316 H 37.180668 l 0.8169,-8.473484 0.816899,-8.4734854 h 66.483863 66.48399 l 0.8169,8.4734854 0.8169,8.473484 h -28.84453 -28.84453 v 22.161227 22.161329 h 33.89373 33.89374 v 40.569278 40.56915 l -9.45524,-0.80901 -9.45524,-0.80902 0.46807,-30.63471 0.46806,-30.634835 h -7.95959 -7.9595 v 25.678745 c 0,14.12339 -0.75876,34.65516 -1.68622,45.62625 l -1.68613,19.94752 h 9.50777 c 9.12799,0 9.50786,0.3646 9.50786,9.12523 v 9.12523 H 103.99484 42.725336 Z m 86.939565,-30.63481 c 1.98765,-25.53249 2.24199,-68.337647 0.41682,-70.162614 -0.7085,-0.708505 -4.81517,-0.771571 -9.12523,-0.138942 l -7.83652,1.150262 v 30.990664 30.99064 h -9.12523 -9.125206 V 120.64319 89.356612 h -7.82164 -7.821639 v 45.626168 45.62625 h 24.382115 24.38203 z"
       id="path7265" />
  </g>
</svg>
