<?xml version="1.0" encoding="UTF-8" standalone="no"?>
<!-- Created with Inkscape (http://www.inkscape.org/) -->

<svg
   width="210mm"
   height="210mm"
   viewBox="0 0 210 210"
   version="1.1"
   id="svg5"
   inkscape:version="1.2.2 (732a01da63, 2022-12-09)"
   sodipodi:docname="42-Kae_me.svg"
   xmlns:inkscape="http://www.inkscape.org/namespaces/inkscape"
   xmlns:sodipodi="http://sodipodi.sourceforge.net/DTD/sodipodi-0.dtd"
   xmlns="http://www.w3.org/2000/svg"
   xmlns:svg="http://www.w3.org/2000/svg">
  <sodipodi:namedview
     id="namedview7"
     pagecolor="#ffffff"
     bordercolor="#666666"
     borderopacity="1.0"
     inkscape:showpageshadow="2"
     inkscape:pageopacity="0.0"
     inkscape:pagecheckerboard="0"
     inkscape:deskcolor="#d1d1d1"
     inkscape:document-units="mm"
     showgrid="false"
     inkscape:zoom="0.52097718"
     inkscape:cx="336.86696"
     inkscape:cy="380.05503"
     inkscape:window-width="1920"
     inkscape:window-height="1002"
     inkscape:window-x="-8"
     inkscape:window-y="-8"
     inkscape:window-maximized="1"
     inkscape:current-layer="layer1" />
  <defs
     id="defs2" />
  <g
     inkscape:label="Camada 1"
     inkscape:groupmode="layer"
     id="layer1">
    <path
       style="display:inline;fill:#000000;stroke-width:2.59799"
       d="M 8.1916506,188.04957 V 177.7626 l 21.4334134,-0.7551 21.433514,-0.75509 0.755094,-23.04234 0.755095,-23.04219 -10.497689,-8.98563 c -7.550856,-6.46328 -10.497593,-10.99504 -10.497593,-16.14412 0,-10.596874 1.8735,-10.827428 11.308951,-1.39197 8.809773,8.80968 34.818339,18.54649 42.08866,15.75656 2.270097,-0.87096 3.758185,-4.97725 3.758185,-10.36975 0,-7.80459 -1.438795,-9.770887 -11.437475,-15.630485 C 62.44726,84.702981 50.839904,68.660005 44.470886,48.039421 37.21117,24.535141 37.962239,23.001286 50.562021,35.601068 64.012046,49.051092 96.28442,65.837676 108.69226,65.837676 c 17.7416,0 34.59475,-14.52935 34.59475,-29.824595 0,-10.676891 -6.92134,-16.939273 -18.72184,-16.939273 -11.6488,0 -16.12173,5.155367 -14.06323,16.209019 1.2213,6.557744 0.1895,10.207338 -4.56483,16.15256 l -6.142647,7.680665 -6.749473,-7.680665 c -3.712221,-4.224312 -6.767157,-8.265201 -6.788857,-8.979645 -0.145325,-4.811989 13.162363,-22.951657 20.433317,-27.851626 15.4984,-10.4443742 45.95014,-4.8640332 55.84218,10.233259 14.53328,22.180655 0.0393,57.229253 -28.98701,70.11605 -10.30141,4.572794 -11.04148,5.589765 -11.04148,15.171725 0,11.80463 0.84641,12.05345 20.82501,6.1205 8.44813,-2.5088 17.33303,-7.50873 22.46797,-12.64358 9.3783,-9.378407 11.26486,-9.14903 11.26486,1.36939 0,4.85225 -2.87152,9.61308 -9.09306,15.07559 l -9.09295,7.98368 v 24.76035 24.76031 h 20.78397 20.78398 v 10.39193 10.39205 H 104.31715 8.1915522 Z M 93.389732,157.41799 c 0.674579,-16.65481 0.223881,-18.83958 -3.897012,-18.87091 -2.563188,-0.0197 -7.290732,-0.74036 -10.50573,-1.602 -5.713194,-1.53111 -5.845557,-1.08551 -5.845557,19.67726 v 21.24386 l 9.742497,-0.80616 9.742465,-0.80615 z m 42.103398,-0.95246 c 0,-20.60007 -0.1355,-21.05077 -5.84546,-19.52045 -3.21499,0.86114 -7.89139,1.58256 -10.39194,1.602 -3.883,0.0295 -4.54647,2.62644 -4.54647,17.78844 0,9.76425 0.77964,18.53238 1.732,19.48495 0.95246,0.95246 5.62895,1.732 10.39193,1.732 h 8.65994 z M 121.20426,88.911386 c 13.39827,-3.711063 22.15934,-10.091274 28.30233,-20.611156 5.229,-8.954704 4.04285,-8.772165 -10.11642,1.557126 -4.28667,3.127214 -11.28215,7.886376 -15.54544,10.576048 l -7.75136,4.890347 5.97978,-8.443518 c 7.18813,-10.149502 5.14978,-10.40323 -15.65746,-1.948518 -19.199241,7.80144 -18.431777,7.740659 -16.387235,1.299078 1.444881,-4.552469 0.466402,-5.196018 -7.896871,-5.196018 -7.418002,0 -9.212654,-0.868998 -8.050651,-3.897038 1.080405,-2.815358 -0.284757,-3.89694 -4.917939,-3.89694 -3.527444,0 -6.413499,0.965225 -6.413499,2.145099 0,5.517596 20.861447,19.292439 36.355081,24.005452 9.141984,2.780892 10.427614,2.752906 22.099684,-0.480159 z"
       id="path7267" />
  </g>
</svg>
