<?xml version="1.0" encoding="UTF-8" standalone="no"?>
<!-- Created with Inkscape (http://www.inkscape.org/) -->

<svg
   width="210mm"
   height="210mm"
   viewBox="0 0 210 210"
   version="1.1"
   id="svg5"
   inkscape:version="1.2.2 (732a01da63, 2022-12-09)"
   sodipodi:docname="43-Kete_pa.svg"
   xmlns:inkscape="http://www.inkscape.org/namespaces/inkscape"
   xmlns:sodipodi="http://sodipodi.sourceforge.net/DTD/sodipodi-0.dtd"
   xmlns="http://www.w3.org/2000/svg"
   xmlns:svg="http://www.w3.org/2000/svg">
  <sodipodi:namedview
     id="namedview7"
     pagecolor="#ffffff"
     bordercolor="#666666"
     borderopacity="1.0"
     inkscape:showpageshadow="2"
     inkscape:pageopacity="0.0"
     inkscape:pagecheckerboard="0"
     inkscape:deskcolor="#d1d1d1"
     inkscape:document-units="mm"
     showgrid="false"
     inkscape:zoom="0.52097718"
     inkscape:cx="336.86696"
     inkscape:cy="380.05503"
     inkscape:window-width="1920"
     inkscape:window-height="1002"
     inkscape:window-x="-8"
     inkscape:window-y="-8"
     inkscape:window-maximized="1"
     inkscape:current-layer="layer1" />
  <defs
     id="defs2" />
  <g
     inkscape:label="Camada 1"
     inkscape:groupmode="layer"
     id="layer1">
    <path
       style="display:inline;fill:#000000;stroke-width:2.42624"
       d="m 16.781263,194.37828 c 0,-2.52901 -2.166791,-5.13615 -4.852517,-5.83848 -2.6688531,-0.69784 -4.852426,-2.46298 -4.852426,-3.92231 0,-1.45941 2.1835729,-2.65344 4.852426,-2.65344 2.668853,0 4.852517,-1.5104 4.852517,-3.35633 0,-1.84603 -2.183664,-3.92744 -4.852517,-4.62538 -2.6688531,-0.69784 -4.852426,-2.46298 -4.852426,-3.9223 0,-1.45942 2.1835729,-2.65345 4.852426,-2.65345 3.235012,0 4.852517,-1.61751 4.852517,-4.85243 0,-3.23501 -1.617505,-4.85251 -4.852517,-4.85251 -2.6688531,0 -4.852426,-1.09179 -4.852426,-2.42621 0,-1.33452 2.1835729,-2.42631 4.852426,-2.42631 3.235012,0 4.852517,-1.6175 4.852517,-4.85242 0,-3.23501 -1.617505,-4.85252 -4.852517,-4.85252 -2.6688531,0 -4.852426,-1.09179 -4.852426,-2.42621 0,-1.33452 2.1835729,-2.42631 4.852426,-2.42631 3.235012,0 4.852517,-1.6175 4.852517,-4.85242 0,-3.23501 -1.617505,-4.85252 -4.852517,-4.85252 -2.6688531,0 -4.852426,-1.09178 -4.852426,-2.42621 0,-1.33452 2.1835729,-2.42631 4.852426,-2.42631 3.235012,0 4.852517,-1.6175 4.852517,-4.85242 0,-3.23501 -1.617505,-4.85252 -4.852517,-4.85252 -2.6688531,0 -4.852426,-1.19403 -4.852426,-2.65335 0,-1.45942 2.1835729,-3.22447 4.852426,-3.9224 2.668853,-0.69784 4.852517,-2.77936 4.852517,-4.6253 0,-1.84603 -2.183664,-3.356435 -4.852517,-3.356435 -2.6688531,0 -4.852426,-1.194032 -4.852426,-2.653354 0,-1.459414 2.1835729,-3.224466 4.852426,-3.922399 2.668853,-0.697841 4.852517,-2.779351 4.852517,-4.625282 0,-1.846024 -2.183664,-3.356423 -4.852517,-3.356423 -2.6958131,0 -4.852426,-1.617506 -4.852426,-3.63941 0,-2.021814 2.1566129,-3.639319 4.852426,-3.639319 2.695813,0 4.852517,-1.617506 4.852517,-3.63941 0,-2.021814 -2.156704,-3.639319 -4.852517,-3.639319 -2.6958131,0 -4.852426,-1.617506 -4.852426,-3.639411 0,-2.021813 2.1566129,-3.639318 4.852426,-3.639318 2.695813,0 4.852517,-1.617506 4.852517,-3.63941 0,-2.021813 -2.156704,-3.639318 -4.852517,-3.639318 -2.6958131,0 -4.852426,-1.617506 -4.852426,-3.639411 0,-2.021813 2.1566129,-3.639318 4.852426,-3.639318 2.695813,0 4.852517,-1.617506 4.852517,-3.639411 0,-2.021813 -2.156704,-3.639319 -4.852517,-3.639319 -2.6958131,0 -4.852426,-1.617505 -4.852426,-3.63941 0,-2.021813 2.1566129,-3.639291 4.852426,-3.639291 2.695813,0 4.852517,-1.617506 4.852517,-3.639411 0,-2.021813 -2.156704,-3.639318 -4.852517,-3.639318 -2.6958131,0 -4.852426,-1.617506 -4.852426,-3.639411 0,-2.021813 2.1566129,-3.639318 4.852426,-3.639318 3.235012,0 4.852517,-1.617506 4.852517,-4.852518 0,-2.695813 1.617506,-4.8524269 3.639319,-4.8524269 2.021905,0 3.63941,2.1566139 3.63941,4.8524269 0,2.695813 1.617506,4.852518 3.639319,4.852518 2.021905,0 3.639411,-2.156705 3.639411,-4.852518 0,-2.695813 1.617505,-4.8524269 3.639318,-4.8524269 2.021905,0 3.639411,2.1566139 3.639411,4.8524269 0,2.695813 1.617505,4.852518 3.639318,4.852518 2.021905,0 3.639411,-2.156705 3.639411,-4.852518 0,-2.695813 1.617505,-4.8524269 3.639318,-4.8524269 2.021905,0 3.639411,2.1566139 3.639411,4.8524269 0,2.695813 1.617505,4.852518 3.639318,4.852518 2.021905,0 3.639411,-2.156705 3.639411,-4.852518 0,-2.695813 1.617505,-4.8524269 3.63932,-4.8524269 2.021905,0 3.639411,2.1566139 3.639411,4.8524269 0,2.695813 1.617505,4.852518 3.639319,4.852518 2.021904,0 3.63941,-2.156705 3.63941,-4.852518 0,-2.695813 1.617505,-4.8524269 3.639319,-4.8524269 2.021904,0 3.63941,2.1566139 3.63941,4.8524269 0,2.822543 1.617506,4.852518 3.866461,4.852518 2.126627,0 4.437572,-2.183665 5.135504,-4.852518 0.697841,-2.668853 2.233458,-4.8524269 3.412177,-4.8524269 1.17881,0 2.143316,2.1835739 2.143316,4.8524269 0,3.235012 1.617506,4.852518 4.852525,4.852518 3.23493,0 4.85243,-1.617506 4.85243,-4.852518 0,-2.668853 1.09188,-4.8524269 2.42631,-4.8524269 1.33442,0 2.42621,2.1835739 2.42621,4.8524269 0,3.235012 1.61751,4.852518 4.85252,4.852518 3.23492,0 4.85242,-1.617506 4.85242,-4.852518 0,-2.668853 0.96451,-4.8524269 2.14332,-4.8524269 1.17881,0 2.71424,2.1835739 3.41218,4.8524269 0.69784,2.668853 3.00887,4.852518 5.1355,4.852518 2.24896,0 3.86646,-2.029975 3.86646,-4.852518 0,-2.695813 1.61751,-4.8524269 3.63941,-4.8524269 2.02181,0 3.63932,2.1566139 3.63932,4.8524269 0,2.695813 1.61751,4.852518 3.63941,4.852518 2.02181,0 3.63932,-2.156705 3.63932,-4.852518 0,-2.695813 1.6175,-4.8524269 3.63941,-4.8524269 2.02181,0 3.63932,2.1566139 3.63932,4.8524269 0,2.695813 1.6175,4.852518 3.63941,4.852518 2.02181,0 3.63932,-2.156705 3.63932,-4.852518 0,-2.695813 1.6175,-4.8524269 3.63941,-4.8524269 2.02181,0 3.63932,2.1566139 3.63932,4.8524269 0,2.695813 1.6175,4.852518 3.63941,4.852518 2.02181,0 3.63932,-2.156705 3.63932,-4.852518 0,-2.695813 1.6175,-4.8524269 3.63941,-4.8524269 2.02181,0 3.63931,2.1566139 3.63931,4.8524269 0,3.235012 1.61751,4.852518 4.85252,4.852518 2.69581,0 4.85252,1.617505 4.85252,3.639318 0,2.021905 -2.15671,3.639411 -4.85252,3.639411 -2.69581,0 -4.85252,1.617505 -4.85252,3.639318 0,2.021905 2.15671,3.639411 4.85252,3.639411 2.69581,0 4.85252,1.617478 4.85252,3.639291 0,2.021905 -2.15671,3.63941 -4.85252,3.63941 -2.69581,0 -4.85252,1.617506 -4.85252,3.639319 0,2.021905 2.15671,3.639411 4.85252,3.639411 2.69581,0 4.85252,1.617505 4.85252,3.639318 0,2.021905 -2.15671,3.639411 -4.85252,3.639411 -2.69581,0 -4.85252,1.617505 -4.85252,3.639318 0,2.021904 2.15671,3.63941 4.85252,3.63941 2.69581,0 4.85252,1.617505 4.85252,3.639318 0,2.021905 -2.15671,3.639411 -4.85252,3.639411 -2.69581,0 -4.85252,1.617505 -4.85252,3.639319 0,2.021904 2.15671,3.63941 4.85252,3.63941 2.69581,0 4.85252,1.617505 4.85252,3.639319 0,2.021904 -2.15671,3.63941 -4.85252,3.63941 -2.69581,0 -4.85252,1.617506 -4.85252,3.639319 0,2.021905 2.15671,3.63941 4.85252,3.63941 2.69581,0 4.85252,1.617506 4.85252,3.639319 0,2.021905 -2.15671,3.63941 -4.85252,3.63941 -2.69581,0 -4.85252,1.617515 -4.85252,3.639335 0,2.02192 2.15671,3.63942 4.85252,3.63942 2.69581,0 4.85252,1.61751 4.85252,3.63932 0,2.02191 -2.15671,3.63941 -4.85252,3.63941 -3.23501,0 -4.85252,1.61751 -4.85252,4.85252 0,3.23492 1.61751,4.85242 4.85252,4.85242 2.66885,0 4.85252,1.09179 4.85252,2.42631 0,1.33443 -2.18367,2.42621 -4.85252,2.42621 -3.23501,0 -4.85252,1.61751 -4.85252,4.85252 0,3.23492 1.61751,4.85242 4.85252,4.85242 2.66885,0 4.85252,1.09179 4.85252,2.42631 0,1.33442 -2.18367,2.42621 -4.85252,2.42621 -3.23501,0 -4.85252,1.61751 -4.85252,4.85252 0,3.23492 1.61751,4.85242 4.85252,4.85242 2.66885,0 4.85252,1.09179 4.85252,2.42631 0,1.33442 -2.18367,2.42621 -4.85252,2.42621 -3.23501,0 -4.85252,1.6175 -4.85252,4.85251 0,3.23492 1.61751,4.85243 4.85252,4.85243 2.66885,0 4.85252,1.19403 4.85252,2.65345 0,1.45932 -2.18367,3.22437 -4.85252,3.9223 -2.66885,0.69784 -4.85252,2.77935 -4.85252,4.62538 0,1.84593 2.18367,3.35633 4.85252,3.35633 2.69581,0 4.85252,1.6175 4.85252,3.63941 0,2.02181 -2.15671,3.63932 -4.85252,3.63932 -3.23501,0 -4.85252,1.6175 -4.85252,4.85251 0,2.69582 -1.6175,4.85252 -3.63931,4.85252 -2.02191,0 -3.63941,-2.1567 -3.63941,-4.85252 0,-2.69581 -1.61751,-4.85251 -3.63932,-4.85251 -2.02191,0 -3.63941,2.1567 -3.63941,4.85251 0,2.69582 -1.61751,4.85252 -3.63932,4.85252 -2.02191,0 -3.63941,-2.1567 -3.63941,-4.85252 0,-2.66885 -1.5104,-4.85251 -3.35633,-4.85251 -1.84603,0 -3.92745,2.18366 -4.62538,4.85251 -0.69784,2.66886 -2.46298,4.85252 -3.9223,4.85252 -1.45942,0 -2.65345,-2.18366 -2.65345,-4.85252 0,-2.66885 -1.5104,-4.85251 -3.35633,-4.85251 -1.84602,0 -3.92744,2.18366 -4.62538,4.85251 -0.69784,2.66886 -2.46298,4.85252 -3.9223,4.85252 -1.45942,0 -2.65345,-2.18366 -2.65345,-4.85252 0,-3.23501 -1.6175,-4.85251 -4.85242,-4.85251 -3.23501,0 -4.85252,1.6175 -4.85252,4.85251 0,2.66886 -1.09179,4.85252 -2.42621,4.85252 -1.33443,0 -2.42631,-2.18366 -2.42631,-4.85252 0,-3.23501 -1.6175,-4.85251 -4.85242,-4.85251 -3.23501,0 -4.85252,1.6175 -4.85252,4.85251 0,2.66886 -1.09179,4.85252 -2.42621,4.85252 -1.33443,0 -2.42631,-2.18366 -2.42631,-4.85252 0,-3.23501 -1.6175,-4.85251 -4.85243,-4.85251 -3.235019,0 -4.852525,1.6175 -4.852525,4.85251 0,2.66886 -1.091786,4.85252 -2.426212,4.85252 -1.334426,0 -2.426304,-2.18366 -2.426304,-4.85252 0,-3.23501 -1.617506,-4.85251 -4.852425,-4.85251 -3.235011,0 -4.852517,1.6175 -4.852517,4.85251 0,2.66886 -1.194033,4.85252 -2.653355,4.85252 -1.459414,0 -3.224465,-2.18366 -3.922398,-4.85252 -0.697841,-2.66885 -2.779351,-4.85251 -4.625283,-4.85251 -1.846023,0 -3.356422,2.18366 -3.356422,4.85251 0,2.66886 -1.194033,4.85252 -2.653355,4.85252 -1.459414,0 -3.224467,-2.18366 -3.9224,-4.85252 -0.697841,-2.66885 -2.779351,-4.85251 -4.625283,-4.85251 -1.846023,0 -3.356422,2.18366 -3.356422,4.85251 0,2.69582 -1.617506,4.85252 -3.639411,4.85252 -2.021813,0 -3.639318,-2.1567 -3.639318,-4.85252 0,-2.69581 -1.617506,-4.85251 -3.639411,-4.85251 -2.021813,0 -3.639318,2.1567 -3.639318,4.85251 0,2.69582 -1.617506,4.85252 -3.639411,4.85252 -2.021813,0 -3.639318,-2.1567 -3.639318,-4.85252 0,-2.69581 -1.617506,-4.85251 -3.639411,-4.85251 -2.021813,0 -3.639319,2.1567 -3.639319,4.85251 0,2.69582 -1.617505,4.85252 -3.63941,4.85252 -2.001639,0 -3.639319,-2.05629 -3.639319,-4.56953 z m 14.557459,-16.05355 c 0,-2.00164 -1.63768,-3.63941 -3.639411,-3.63941 -2.001639,0 -3.639319,1.63777 -3.639319,3.63941 0,2.00164 1.63768,3.63932 3.639319,3.63932 2.001731,0 3.639411,-1.63768 3.639411,-3.63932 z m 14.557458,0 c 0,-2.00164 -1.63768,-3.63941 -3.639411,-3.63941 -2.001639,0 -3.639318,1.63777 -3.639318,3.63941 0,2.00164 1.637679,3.63932 3.639318,3.63932 2.001731,0 3.639411,-1.63768 3.639411,-3.63932 z m 14.557458,0 c 0,-2.00164 -1.63768,-3.63941 -3.639411,-3.63941 -2.001639,0 -3.639318,1.63777 -3.639318,3.63941 0,2.00164 1.637679,3.63932 3.639318,3.63932 2.001731,0 3.639411,-1.63768 3.639411,-3.63932 z m 14.55746,0 c 0,-2.00164 -1.63768,-3.63941 -3.63941,-3.63941 -2.00164,0 -3.639319,1.63777 -3.639319,3.63941 0,2.00164 1.637679,3.63932 3.639319,3.63932 2.00173,0 3.63941,-1.63768 3.63941,-3.63932 z m 16.378264,-0.60614 c 0.592385,-1.7789 -1.080049,-3.03281 -4.04491,-3.03281 -2.980176,0 -5.054625,1.56661 -5.054625,3.81721 0,4.45922 7.570979,3.80649 9.099535,-0.78403 z m 14.557478,0 c 0.59238,-1.7789 -1.08005,-3.03281 -4.04492,-3.03281 -2.980186,0 -5.054635,1.56661 -5.054635,3.81721 0,4.45922 7.570995,3.80649 9.099555,-0.78403 z m 15.16286,0.60614 c 0,-2.02191 -2.15661,-3.63941 -4.85242,-3.63941 -4.83372,0 -6.31102,2.58531 -3.23501,5.66122 2.95495,2.95505 8.08743,1.67189 8.08743,-2.02181 z m 14.55746,0 c 0,-2.02191 -2.15661,-3.63941 -4.85242,-3.63941 -4.83372,0 -6.31102,2.58531 -3.23501,5.66122 2.95495,2.95505 8.08743,1.67189 8.08743,-2.02181 z m 14.55746,0 c 0,-2.00164 -1.63768,-3.63941 -3.63932,-3.63941 -2.00164,0 -3.63941,1.63777 -3.63941,3.63941 0,2.00164 1.63777,3.63932 3.63941,3.63932 2.00164,0 3.63932,-1.63768 3.63932,-3.63932 z m 14.55746,0 c 0,-2.00164 -1.63768,-3.63941 -3.63932,-3.63941 -2.00164,0 -3.63941,1.63777 -3.63941,3.63941 0,2.00164 1.63777,3.63932 3.63941,3.63932 2.00164,0 3.63932,-1.63768 3.63932,-3.63932 z m 14.55746,0 c 0,-2.00164 -1.63768,-3.63941 -3.63932,-3.63941 -2.00164,0 -3.63941,1.63777 -3.63941,3.63941 0,2.00164 1.63777,3.63932 3.63941,3.63932 2.00164,0 3.63932,-1.63768 3.63932,-3.63932 z M 31.338722,162.55416 c 0,-2.6959 -1.617506,-4.85251 -3.639411,-4.85251 -2.021813,0 -3.639319,2.15661 -3.639319,4.85251 0,2.69582 1.617506,4.85243 3.639319,4.85243 2.021905,0 3.639411,-2.15661 3.639411,-4.85243 z m 14.557458,0 c 0,-2.6959 -1.617506,-4.85251 -3.639319,-4.85251 -2.021905,0 -3.63941,2.15661 -3.63941,4.85251 0,2.69582 1.617505,4.85243 3.63941,4.85243 2.021813,0 3.639319,-2.15661 3.639319,-4.85243 z m 14.557458,-0.20174 c 0,-5.91294 -5.669568,-5.07709 -6.850029,1.00981 -0.464005,2.39412 0.773035,4.04482 3.032811,4.04482 2.250606,0 3.817218,-2.07445 3.817218,-5.05463 z m 14.55746,0 c 0,-5.91294 -5.669568,-5.07709 -6.850029,1.00981 -0.464005,2.39412 0.773035,4.04482 3.032811,4.04482 2.250606,0 3.817218,-2.07445 3.817218,-5.05463 z m 15.770564,0.16873 c 0,-5.2007 -7.049844,-4.44949 -8.072397,0.86015 -0.62448,3.24235 0.364051,4.23052 3.606123,3.60613 2.456474,-0.47318 4.466274,-2.48289 4.466274,-4.46628 z m 14.557478,0 c 0,-5.2007 -7.049864,-4.44949 -8.072417,0.86015 -0.62448,3.24235 0.364051,4.23052 3.606127,3.60613 2.45649,-0.47318 4.46629,-2.48289 4.46629,-4.46628 z m 15.77056,1.38954 c 0,-4.74367 -4.70295,-7.32889 -7.76391,-4.26783 -1.36882,1.36881 -1.75515,3.67563 -0.85832,5.12633 2.37816,3.84812 8.62242,3.22639 8.62242,-0.85832 z m 14.55746,0 c 0,-4.74367 -4.70295,-7.32889 -7.76392,-4.26783 -1.36881,1.36881 -1.75514,3.67563 -0.85831,5.12633 2.37816,3.84812 8.62251,3.22639 8.62251,-0.85832 z m 14.12885,-0.54837 c -1.18055,-6.0869 -6.85012,-6.92265 -6.85012,-1.0098 0,2.98017 1.56661,5.05462 3.81731,5.05462 2.25941,0 3.49709,-1.6507 3.03281,-4.04482 z m 14.98607,-0.80788 c 0,-2.69581 -1.61751,-4.85252 -3.63932,-4.85252 -2.02191,0 -3.63941,2.15671 -3.63941,4.85252 0,2.69581 1.6175,4.85252 3.63941,4.85252 2.02181,0 3.63932,-2.15671 3.63932,-4.85252 z m 14.55746,0 c 0,-2.69581 -1.61751,-4.85252 -3.63932,-4.85252 -2.02191,0 -3.63941,2.15671 -3.63941,4.85252 0,2.69581 1.6175,4.85252 3.63941,4.85252 2.02181,0 3.63932,-2.15671 3.63932,-4.85252 z M 31.338722,147.99698 c 0,-2.69581 -1.617506,-4.85252 -3.639319,-4.85252 -2.021905,0 -3.639411,2.15671 -3.639411,4.85252 0,2.69581 1.617506,4.85252 3.639411,4.85252 2.021813,0 3.639319,-2.15671 3.639319,-4.85252 z m 14.557458,0 c 0,-2.69581 -1.617506,-4.85252 -3.639319,-4.85252 -2.021905,0 -3.63941,2.15671 -3.63941,4.85252 0,2.69581 1.617505,4.85252 3.63941,4.85252 2.021813,0 3.639319,-2.15671 3.639319,-4.85252 z m 14.557458,0 c 0,-2.69581 -1.617506,-4.85252 -3.639411,-4.85252 -2.021813,0 -3.639318,2.15671 -3.639318,4.85252 0,2.69581 1.617505,4.85252 3.639318,4.85252 2.021905,0 3.639411,-2.15671 3.639411,-4.85252 z m 14.55746,0 c 0,-2.69581 -1.617506,-4.85252 -3.63941,-4.85252 -2.021814,0 -3.639319,2.15671 -3.639319,4.85252 0,2.69581 1.617505,4.85252 3.639319,4.85252 2.021904,0 3.63941,-2.15671 3.63941,-4.85252 z m 15.901238,2.21484 c 2.500306,-4.04555 -3.123137,-8.68477 -6.470114,-5.3377 -2.799709,2.79962 -1.047495,7.97538 2.700122,7.97538 1.176884,0 2.873344,-1.18697 3.769992,-2.63768 z m 14.557474,0 c 2.50031,-4.04555 -3.12314,-8.68477 -6.47013,-5.3377 -2.799709,2.79962 -1.047495,7.97538 2.70013,7.97538 1.17689,0 2.87335,-1.18697 3.77,-2.63768 z m 14.55746,0 c 2.50031,-4.04555 -3.12304,-8.68477 -6.47011,-5.3377 -2.79971,2.79962 -1.0475,7.97538 2.70012,7.97538 1.17688,0 2.87343,-1.18697 3.76999,-2.63768 z m 14.55746,0 c 2.5003,-4.04555 -3.12305,-8.68477 -6.47012,-5.3377 -2.7997,2.79962 -1.04749,7.97538 2.70013,7.97538 1.17688,0 2.87343,-1.18697 3.76999,-2.63768 z m 15.63989,-2.21484 c 0,-2.69581 -1.61751,-4.85252 -3.63932,-4.85252 -2.0219,0 -3.63941,2.15671 -3.63941,4.85252 0,2.69581 1.61751,4.85252 3.63941,4.85252 2.02181,0 3.63932,-2.15671 3.63932,-4.85252 z m 14.55746,0 c 0,-2.69581 -1.61751,-4.85252 -3.63932,-4.85252 -2.02191,0 -3.63941,2.15671 -3.63941,4.85252 0,2.69581 1.6175,4.85252 3.63941,4.85252 2.02181,0 3.63932,-2.15671 3.63932,-4.85252 z m 14.55746,0 c 0,-2.69581 -1.61751,-4.85252 -3.63932,-4.85252 -2.02191,0 -3.63941,2.15671 -3.63941,4.85252 0,2.69581 1.6175,4.85252 3.63941,4.85252 2.02181,0 3.63932,-2.15671 3.63932,-4.85252 z M 31.338722,133.43952 c 0,-2.69581 -1.617506,-4.85251 -3.639319,-4.85251 -2.021905,0 -3.639411,2.1567 -3.639411,4.85251 0,2.69582 1.617506,4.85252 3.639411,4.85252 2.021813,0 3.639319,-2.1567 3.639319,-4.85252 z m 14.557458,0 c 0,-2.69581 -1.617506,-4.85251 -3.639319,-4.85251 -2.021905,0 -3.63941,2.1567 -3.63941,4.85251 0,2.69582 1.617505,4.85252 3.63941,4.85252 2.021813,0 3.639319,-2.1567 3.639319,-4.85252 z m 14.557458,0 c 0,-2.69581 -1.617506,-4.85251 -3.639411,-4.85251 -2.021813,0 -3.639318,2.1567 -3.639318,4.85251 0,2.69582 1.617505,4.85252 3.639318,4.85252 2.021905,0 3.639411,-2.1567 3.639411,-4.85252 z m 14.55746,0 c 0,-2.69581 -1.617506,-4.85251 -3.639319,-4.85251 -2.021905,0 -3.63941,2.1567 -3.63941,4.85251 0,2.69582 1.617505,4.85252 3.63941,4.85252 2.021813,0 3.639319,-2.1567 3.639319,-4.85252 z m 15.770564,-0.16873 c 0,-1.87215 -1.910672,-3.77191 -4.245917,-4.22161 -4.182186,-0.80513 -5.911108,4.34284 -2.577885,7.67616 2.543222,2.54313 6.823802,0.37597 6.823802,-3.45455 z m 14.688148,2.38376 c 2.50031,-4.04555 -3.12305,-8.68468 -6.47013,-5.3377 -2.799709,2.79961 -1.047495,7.97528 2.70013,7.97528 1.17689,0 2.87345,-1.18697 3.77,-2.63767 z m 14.55746,0 c 2.50031,-4.04555 -3.12304,-8.68468 -6.47011,-5.3377 -2.79971,2.79961 -1.0475,7.97528 2.70012,7.97528 1.17688,0 2.87343,-1.18697 3.76999,-2.63767 z m 15.21128,-3.02245 c 0.45392,-2.34038 -0.76386,-4.04491 -2.88966,-4.04491 -4.50727,0 -7.22766,3.95514 -5.09443,7.40674 2.19467,3.55101 7.03903,1.51114 7.98409,-3.36192 z m 14.55746,0 c 0.46401,-2.39421 -0.77303,-4.04491 -3.03281,-4.04491 -2.2507,0 -3.81731,2.07445 -3.81731,5.05462 0,5.91285 5.66957,5.0771 6.85012,-1.0098 z m 14.98607,0.80788 c 0,-2.69581 -1.61751,-4.85242 -3.63932,-4.85242 -2.02191,0 -3.63941,2.15661 -3.63941,4.85242 0,2.69581 1.6175,4.85252 3.63941,4.85252 2.02181,0 3.63932,-2.15671 3.63932,-4.85252 z m 14.55746,0 c 0,-2.69581 -1.61751,-4.85242 -3.63932,-4.85242 -2.02191,0 -3.63941,2.15661 -3.63941,4.85242 0,2.69581 1.6175,4.85252 3.63941,4.85252 2.02181,0 3.63932,-2.15671 3.63932,-4.85252 z M 31.338722,118.88252 c 0,-2.69581 -1.617506,-4.85242 -3.639319,-4.85242 -3.693789,0 -4.976863,5.13248 -2.021905,8.08743 3.076002,3.07601 5.661224,1.59871 5.661224,-3.23501 z m 14.557458,0 c 0,-2.69581 -1.617506,-4.85242 -3.639319,-4.85242 -3.693789,0 -4.976863,5.13248 -2.021905,8.08743 3.076003,3.07601 5.661224,1.59871 5.661224,-3.23501 z m 14.557458,0 c 0,-2.69581 -1.617506,-4.85242 -3.639319,-4.85242 -3.693789,0 -4.976862,5.13248 -2.021905,8.08743 3.076003,3.07601 5.661224,1.59871 5.661224,-3.23501 z m 14.55746,0 c 0,-2.69581 -1.617506,-4.85242 -3.639319,-4.85242 -3.693789,0 -4.976862,5.13248 -2.021905,8.08743 3.076003,3.07601 5.661224,1.59871 5.661224,-3.23501 z m 15.770564,-0.16873 c 0,-1.87215 -1.910672,-3.77191 -4.245917,-4.22161 -4.182186,-0.80513 -5.911108,4.34284 -2.577885,7.67616 2.543222,2.54322 6.823802,0.37597 6.823802,-3.45455 z m 14.557478,0 c 0,-1.87215 -1.91067,-3.77191 -4.24593,-4.22161 -4.182193,-0.80513 -5.911115,4.34284 -2.577892,7.67616 2.543232,2.54322 6.823822,0.37597 6.823822,-3.45455 z m 15.34195,-0.63823 c 0.45392,-2.34038 -0.76386,-4.04491 -2.88966,-4.04491 -4.50727,0 -7.22765,3.95513 -5.09442,7.40674 2.19466,3.55101 7.03902,1.51113 7.98408,-3.36192 z m 14.55746,0 c 0.45392,-2.34038 -0.76386,-4.04491 -2.88966,-4.04491 -4.50727,0 -7.22766,3.95513 -5.09443,7.40674 2.19467,3.55101 7.03903,1.51113 7.98409,-3.36192 z m 14.55746,0 c 0.46401,-2.39421 -0.77303,-4.04491 -3.03281,-4.04491 -2.2507,0 -3.81731,2.07445 -3.81731,5.05462 0,5.91285 5.66957,5.07709 6.85012,-1.0098 z m 14.55746,0 c 0.464,-2.39421 -0.77304,-4.04491 -3.03281,-4.04491 -2.2507,0 -3.81731,2.07445 -3.81731,5.05462 0,5.91285 5.66957,5.07709 6.85012,-1.0098 z m 14.55746,0 c 0.464,-2.39421 -0.77304,-4.04491 -3.03281,-4.04491 -2.2507,0 -3.81731,2.07445 -3.81731,5.05462 0,5.91285 5.66956,5.07709 6.85012,-1.0098 z M 31.338722,103.11249 c 0,-2.00164 -1.63768,-3.639329 -3.639319,-3.639329 -2.001731,0 -3.639411,1.637689 -3.639411,3.639329 0,2.00165 1.63768,3.63943 3.639411,3.63943 2.001639,0 3.639319,-1.63778 3.639319,-3.63943 z m 14.557458,0 c 0,-2.00164 -1.63768,-3.639329 -3.639319,-3.639329 -2.001731,0 -3.63941,1.637689 -3.63941,3.639329 0,2.00165 1.637679,3.63943 3.63941,3.63943 2.001639,0 3.639319,-1.63778 3.639319,-3.63943 z m 14.557458,0 c 0,-2.00164 -1.63768,-3.639329 -3.639319,-3.639329 -2.001731,0 -3.63941,1.637689 -3.63941,3.639329 0,2.00165 1.637679,3.63943 3.63941,3.63943 2.001639,0 3.639319,-1.63778 3.639319,-3.63943 z m 14.55746,0 c 0,-2.00164 -1.63768,-3.639329 -3.639319,-3.639329 -2.001731,0 -3.63941,1.637689 -3.63941,3.639329 0,2.00165 1.637679,3.63943 3.63941,3.63943 2.001639,0 3.639319,-1.63778 3.639319,-3.63943 z m 16.378264,0.60615 c -1.528556,-4.590915 -9.099535,-5.243548 -9.099535,-0.78405 0,2.25071 2.074449,3.81733 5.054625,3.81733 2.964861,0 4.637203,-1.25391 4.04491,-3.03282 z m 15.162878,-0.60615 c 0,-2.02182 -2.15661,-3.639329 -4.85243,-3.639329 -2.69582,0 -4.852525,1.617509 -4.852525,3.639329 0,2.02192 2.156705,3.63943 4.852525,3.63943 2.69582,0 4.85243,-1.61751 4.85243,-3.63943 z m 14.55746,0 c 0,-2.02182 -2.15661,-3.639329 -4.85242,-3.639329 -2.69581,0 -4.85252,1.617509 -4.85252,3.639329 0,2.02192 2.15671,3.63943 4.85252,3.63943 2.69581,0 4.85242,-1.61751 4.85242,-3.63943 z m 14.55746,-0.1779 c 0,-2.25942 -1.6507,-3.497101 -4.04482,-3.032821 -6.08689,1.180471 -6.92265,6.850061 -1.0098,6.850061 2.98017,0 5.05462,-1.56662 5.05462,-3.81724 z m 14.55746,0.1779 c 0,-2.00164 -1.63768,-3.639329 -3.63932,-3.639329 -2.00164,0 -3.63941,1.637689 -3.63941,3.639329 0,2.00165 1.63777,3.63943 3.63941,3.63943 2.00164,0 3.63932,-1.63778 3.63932,-3.63943 z m 14.55746,0 c 0,-2.00164 -1.63768,-3.639329 -3.63932,-3.639329 -2.00164,0 -3.63941,1.637689 -3.63941,3.639329 0,2.00165 1.63777,3.63943 3.63941,3.63943 2.00164,0 3.63932,-1.63778 3.63932,-3.63943 z m 14.55746,0 c 0,-2.00164 -1.63768,-3.639329 -3.63932,-3.639329 -2.00164,0 -3.63941,1.637689 -3.63941,3.639329 0,2.00165 1.63777,3.63943 3.63941,3.63943 2.00164,0 3.63932,-1.63778 3.63932,-3.63943 z M 31.338722,88.555021 c 0,-2.001639 -1.63768,-3.639318 -3.639319,-3.639318 -2.001731,0 -3.639411,1.637679 -3.639411,3.639318 0,2.001639 1.63768,3.639411 3.639411,3.639411 2.001639,0 3.639319,-1.637772 3.639319,-3.639411 z m 14.557458,0 c 0,-2.001639 -1.63768,-3.639318 -3.639319,-3.639318 -2.001731,0 -3.63941,1.637679 -3.63941,3.639318 0,2.001639 1.637679,3.639411 3.63941,3.639411 2.001639,0 3.639319,-1.637772 3.639319,-3.639411 z m 14.557458,0 c 0,-2.001639 -1.63768,-3.639318 -3.639319,-3.639318 -2.001731,0 -3.63941,1.637679 -3.63941,3.639318 0,2.001639 1.637679,3.639411 3.63941,3.639411 2.001639,0 3.639319,-1.637772 3.639319,-3.639411 z m 14.55746,0 c 0,-2.001639 -1.63768,-3.639318 -3.639319,-3.639318 -2.001731,0 -3.63941,1.637679 -3.63941,3.639318 0,2.001639 1.637679,3.639411 3.63941,3.639411 2.001639,0 3.639319,-1.637772 3.639319,-3.639411 z m 16.378264,0.607058 c -1.528556,-4.590895 -9.099535,-5.24362 -9.099535,-0.784957 0,2.250698 2.074449,3.81731 5.054625,3.81731 2.964861,0 4.637203,-1.253913 4.04491,-3.032812 z m 15.162878,-0.607058 c 0,-2.021813 -2.15661,-3.639318 -4.85243,-3.639318 -2.69582,0 -4.852525,1.617505 -4.852525,3.639318 0,2.021905 2.156705,3.639411 4.852525,3.639411 2.69582,0 4.85243,-1.617506 4.85243,-3.639411 z m 14.55746,0 c 0,-2.021813 -2.15661,-3.639318 -4.85242,-3.639318 -2.69581,0 -4.85252,1.617505 -4.85252,3.639318 0,2.021905 2.15671,3.639411 4.85252,3.639411 2.69581,0 4.85242,-1.617506 4.85242,-3.639411 z m 14.55746,-0.177899 c 0,-2.259409 -1.6507,-3.497091 -4.04482,-3.032811 -6.08689,1.180461 -6.92265,6.850029 -1.0098,6.850029 2.98017,0 5.05462,-1.566612 5.05462,-3.817218 z m 14.55746,0.177899 c 0,-2.001639 -1.63768,-3.639318 -3.63932,-3.639318 -2.00164,0 -3.63941,1.637679 -3.63941,3.639318 0,2.001639 1.63777,3.639411 3.63941,3.639411 2.00164,0 3.63932,-1.637772 3.63932,-3.639411 z m 14.55746,0 c 0,-2.001639 -1.63768,-3.639318 -3.63932,-3.639318 -2.00164,0 -3.63941,1.637679 -3.63941,3.639318 0,2.001639 1.63777,3.639411 3.63941,3.639411 2.00164,0 3.63932,-1.637772 3.63932,-3.639411 z m 14.55746,0 c 0,-2.001639 -1.63768,-3.639318 -3.63932,-3.639318 -2.00164,0 -3.63941,1.637679 -3.63941,3.639318 0,2.001639 1.63777,3.639411 3.63941,3.639411 2.00164,0 3.63932,-1.637772 3.63932,-3.639411 z M 31.338722,73.997563 c 0,-2.001639 -1.63768,-3.639319 -3.639319,-3.639319 -2.001731,0 -3.639411,1.63768 -3.639411,3.639319 0,2.001639 1.63768,3.63941 3.639411,3.63941 2.001639,0 3.639319,-1.637771 3.639319,-3.63941 z m 14.557458,0 c 0,-2.001639 -1.63768,-3.639319 -3.639319,-3.639319 -2.001731,0 -3.63941,1.63768 -3.63941,3.639319 0,2.001639 1.637679,3.63941 3.63941,3.63941 2.001639,0 3.639319,-1.637771 3.639319,-3.63941 z m 14.557458,0 c 0,-2.001639 -1.63768,-3.639319 -3.639319,-3.639319 -2.001731,0 -3.63941,1.63768 -3.63941,3.639319 0,2.001639 1.637679,3.63941 3.63941,3.63941 2.001639,0 3.639319,-1.637771 3.639319,-3.63941 z m 14.55746,0 c 0,-2.001639 -1.63768,-3.639319 -3.639319,-3.639319 -2.001731,0 -3.63941,1.63768 -3.63941,3.639319 0,2.001639 1.637679,3.63941 3.63941,3.63941 2.001639,0 3.639319,-1.637771 3.639319,-3.63941 z m 16.983671,0 c 0,-2.021813 -2.156613,-3.639319 -4.852425,-3.639319 -2.695812,0 -4.852517,1.617506 -4.852517,3.639319 0,2.021905 2.156705,3.63941 4.852517,3.63941 2.695812,0 4.852425,-1.617505 4.852425,-3.63941 z m 14.557471,0 c 0,-2.021813 -2.15661,-3.639319 -4.85243,-3.639319 -2.69582,0 -4.852525,1.617506 -4.852525,3.639319 0,2.021905 2.156705,3.63941 4.852525,3.63941 2.69582,0 4.85243,-1.617505 4.85243,-3.63941 z m 14.55746,0 c 0,-2.021813 -2.15661,-3.639319 -4.85242,-3.639319 -2.69581,0 -4.85252,1.617506 -4.85252,3.639319 0,2.021905 2.15671,3.63941 4.85252,3.63941 2.69581,0 4.85242,-1.617505 4.85242,-3.63941 z m 14.55746,0 c 0,-2.021813 -2.15661,-3.639319 -4.85242,-3.639319 -2.69582,0 -4.85252,1.617506 -4.85252,3.639319 0,2.021905 2.1567,3.63941 4.85252,3.63941 2.69581,0 4.85242,-1.617505 4.85242,-3.63941 z m 14.55746,0 c 0,-2.001639 -1.63768,-3.639319 -3.63932,-3.639319 -2.00164,0 -3.63941,1.63768 -3.63941,3.639319 0,2.001639 1.63777,3.63941 3.63941,3.63941 2.00164,0 3.63932,-1.637771 3.63932,-3.63941 z m 14.55746,0 c 0,-2.001639 -1.63768,-3.639319 -3.63932,-3.639319 -2.00164,0 -3.63941,1.63768 -3.63941,3.639319 0,2.001639 1.63777,3.63941 3.63941,3.63941 2.00164,0 3.63932,-1.637771 3.63932,-3.63941 z m 14.55746,0 c 0,-2.001639 -1.63768,-3.639319 -3.63932,-3.639319 -2.00164,0 -3.63941,1.63768 -3.63941,3.639319 0,2.001639 1.63777,3.63941 3.63941,3.63941 2.00164,0 3.63932,-1.637771 3.63932,-3.63941 z M 31.338722,59.440106 c 0,-2.001639 -1.63768,-3.639319 -3.639319,-3.639319 -2.001731,0 -3.639411,1.63768 -3.639411,3.639319 0,2.001638 1.63768,3.639409 3.639411,3.639409 2.001639,0 3.639319,-1.637771 3.639319,-3.639409 z m 14.557458,0 c 0,-2.001639 -1.63768,-3.639319 -3.639319,-3.639319 -2.001731,0 -3.63941,1.63768 -3.63941,3.639319 0,2.001638 1.637679,3.639409 3.63941,3.639409 2.001639,0 3.639319,-1.637771 3.639319,-3.639409 z m 14.557458,0 c 0,-2.001639 -1.63768,-3.639319 -3.639319,-3.639319 -2.001731,0 -3.63941,1.63768 -3.63941,3.639319 0,2.001638 1.637679,3.639409 3.63941,3.639409 2.001639,0 3.639319,-1.637771 3.639319,-3.639409 z m 14.55746,0 c 0,-2.001639 -1.63768,-3.639319 -3.639319,-3.639319 -2.001731,0 -3.63941,1.63768 -3.63941,3.639319 0,2.001638 1.637679,3.639409 3.63941,3.639409 2.001639,0 3.639319,-1.637771 3.639319,-3.639409 z m 16.983671,0 c 0,-2.021813 -2.156613,-3.639319 -4.852425,-3.639319 -2.695812,0 -4.852517,1.617506 -4.852517,3.639319 0,2.021904 2.156705,3.639409 4.852517,3.639409 2.695812,0 4.852425,-1.617505 4.852425,-3.639409 z m 14.557471,0 c 0,-2.021813 -2.15661,-3.639319 -4.85243,-3.639319 -2.69582,0 -4.852525,1.617506 -4.852525,3.639319 0,2.021904 2.156705,3.639409 4.852525,3.639409 2.69582,0 4.85243,-1.617505 4.85243,-3.639409 z m 14.55746,0 c 0,-2.021813 -2.15661,-3.639319 -4.85242,-3.639319 -2.69581,0 -4.85252,1.617506 -4.85252,3.639319 0,2.021904 2.15671,3.639409 4.85252,3.639409 2.69581,0 4.85242,-1.617505 4.85242,-3.639409 z m 14.55746,0 c 0,-2.021813 -2.15661,-3.639319 -4.85242,-3.639319 -2.69582,0 -4.85252,1.617506 -4.85252,3.639319 0,2.021904 2.1567,3.639409 4.85252,3.639409 2.69581,0 4.85242,-1.617505 4.85242,-3.639409 z m 14.55746,0 c 0,-2.001639 -1.63768,-3.639319 -3.63932,-3.639319 -2.00164,0 -3.63941,1.63768 -3.63941,3.639319 0,2.001638 1.63777,3.639409 3.63941,3.639409 2.00164,0 3.63932,-1.637771 3.63932,-3.639409 z m 14.55746,0 c 0,-2.001639 -1.63768,-3.639319 -3.63932,-3.639319 -2.00164,0 -3.63941,1.63768 -3.63941,3.639319 0,2.001638 1.63777,3.639409 3.63941,3.639409 2.00164,0 3.63932,-1.637771 3.63932,-3.639409 z m 14.55746,0 c 0,-2.001639 -1.63768,-3.639319 -3.63932,-3.639319 -2.00164,0 -3.63941,1.63768 -3.63941,3.639319 0,2.001638 1.63777,3.639409 3.63941,3.639409 2.00164,0 3.63932,-1.637771 3.63932,-3.639409 z M 31.338722,44.882648 c 0,-2.001639 -1.63768,-3.639319 -3.639319,-3.639319 -2.001731,0 -3.639411,1.63768 -3.639411,3.639319 0,2.001639 1.63768,3.63941 3.639411,3.63941 2.001639,0 3.639319,-1.637771 3.639319,-3.63941 z m 14.557458,0 c 0,-2.001639 -1.63768,-3.639319 -3.639319,-3.639319 -2.001731,0 -3.63941,1.63768 -3.63941,3.639319 0,2.001639 1.637679,3.63941 3.63941,3.63941 2.001639,0 3.639319,-1.637771 3.639319,-3.63941 z m 14.557458,0 c 0,-2.001639 -1.63768,-3.639319 -3.639319,-3.639319 -2.001731,0 -3.63941,1.63768 -3.63941,3.639319 0,2.001639 1.637679,3.63941 3.63941,3.63941 2.001639,0 3.639319,-1.637771 3.639319,-3.63941 z m 14.55746,0 c 0,-2.001639 -1.63768,-3.639319 -3.639319,-3.639319 -2.001731,0 -3.63941,1.63768 -3.63941,3.639319 0,2.001639 1.637679,3.63941 3.63941,3.63941 2.001639,0 3.639319,-1.637771 3.639319,-3.63941 z m 16.983671,0 c 0,-2.021814 -2.156613,-3.639319 -4.852425,-3.639319 -2.695812,0 -4.852517,1.617505 -4.852517,3.639319 0,2.021904 2.156705,3.63941 4.852517,3.63941 2.695812,0 4.852425,-1.617506 4.852425,-3.63941 z m 14.557471,0 c 0,-2.021814 -2.15661,-3.639319 -4.85243,-3.639319 -2.69582,0 -4.852525,1.617505 -4.852525,3.639319 0,2.021904 2.156705,3.63941 4.852525,3.63941 2.69582,0 4.85243,-1.617506 4.85243,-3.63941 z m 14.55746,0 c 0,-2.021814 -2.15661,-3.639319 -4.85242,-3.639319 -2.69581,0 -4.85252,1.617505 -4.85252,3.639319 0,2.021904 2.15671,3.63941 4.85252,3.63941 2.69581,0 4.85242,-1.617506 4.85242,-3.63941 z m 14.55746,0 c 0,-2.021814 -2.15661,-3.639319 -4.85242,-3.639319 -2.69582,0 -4.85252,1.617505 -4.85252,3.639319 0,2.021904 2.1567,3.63941 4.85252,3.63941 2.69581,0 4.85242,-1.617506 4.85242,-3.63941 z m 14.55746,0 c 0,-2.001639 -1.63768,-3.639319 -3.63932,-3.639319 -2.00164,0 -3.63941,1.63768 -3.63941,3.639319 0,2.001639 1.63777,3.63941 3.63941,3.63941 2.00164,0 3.63932,-1.637771 3.63932,-3.63941 z m 14.55746,0 c 0,-2.001639 -1.63768,-3.639319 -3.63932,-3.639319 -2.00164,0 -3.63941,1.63768 -3.63941,3.639319 0,2.001639 1.63777,3.63941 3.63941,3.63941 2.00164,0 3.63932,-1.637771 3.63932,-3.63941 z m 14.55746,0 c 0,-2.001639 -1.63768,-3.639319 -3.63932,-3.639319 -2.00164,0 -3.63941,1.63768 -3.63941,3.639319 0,2.001639 1.63777,3.63941 3.63941,3.63941 2.00164,0 3.63932,-1.637771 3.63932,-3.63941 z M 31.338722,30.325217 c 0,-2.001639 -1.63768,-3.639319 -3.639319,-3.639319 -2.001731,0 -3.639411,1.63768 -3.639411,3.639319 0,2.001639 1.63768,3.63941 3.639411,3.63941 2.001639,0 3.639319,-1.637771 3.639319,-3.63941 z m 14.557458,0 c 0,-2.001639 -1.63768,-3.639319 -3.639319,-3.639319 -2.001731,0 -3.63941,1.63768 -3.63941,3.639319 0,2.001639 1.637679,3.63941 3.63941,3.63941 2.001639,0 3.639319,-1.637771 3.639319,-3.63941 z m 14.557458,0 c 0,-2.001639 -1.63768,-3.639319 -3.639319,-3.639319 -2.001731,0 -3.63941,1.63768 -3.63941,3.639319 0,2.001639 1.637679,3.63941 3.63941,3.63941 2.001639,0 3.639319,-1.637771 3.639319,-3.63941 z m 14.55746,0 c 0,-2.001639 -1.63768,-3.639319 -3.639319,-3.639319 -2.001731,0 -3.63941,1.63768 -3.63941,3.639319 0,2.001639 1.637679,3.63941 3.63941,3.63941 2.001639,0 3.639319,-1.637771 3.639319,-3.63941 z m 16.983671,0 c 0,-2.021813 -2.156613,-3.639319 -4.852425,-3.639319 -2.695812,0 -4.852517,1.617506 -4.852517,3.639319 0,2.021905 2.156705,3.63941 4.852517,3.63941 2.695812,0 4.852425,-1.617505 4.852425,-3.63941 z m 14.557471,0 c 0,-2.021813 -2.15661,-3.639319 -4.85243,-3.639319 -2.69582,0 -4.852525,1.617506 -4.852525,3.639319 0,2.021905 2.156705,3.63941 4.852525,3.63941 2.69582,0 4.85243,-1.617505 4.85243,-3.63941 z m 14.55746,0 c 0,-2.021813 -2.15661,-3.639319 -4.85242,-3.639319 -2.69581,0 -4.85252,1.617506 -4.85252,3.639319 0,2.021905 2.15671,3.63941 4.85252,3.63941 2.69581,0 4.85242,-1.617505 4.85242,-3.63941 z m 14.55746,0 c 0,-2.021813 -2.15661,-3.639319 -4.85242,-3.639319 -2.69582,0 -4.85252,1.617506 -4.85252,3.639319 0,2.021905 2.1567,3.63941 4.85252,3.63941 2.69581,0 4.85242,-1.617505 4.85242,-3.63941 z m 14.55746,0 c 0,-2.001639 -1.63768,-3.639319 -3.63932,-3.639319 -2.00164,0 -3.63941,1.63768 -3.63941,3.639319 0,2.001639 1.63777,3.63941 3.63941,3.63941 2.00164,0 3.63932,-1.637771 3.63932,-3.63941 z m 14.55746,0 c 0,-2.001639 -1.63768,-3.639319 -3.63932,-3.639319 -2.00164,0 -3.63941,1.63768 -3.63941,3.639319 0,2.001639 1.63777,3.63941 3.63941,3.63941 2.00164,0 3.63932,-1.637771 3.63932,-3.63941 z m 14.55746,0 c 0,-2.001639 -1.63768,-3.639319 -3.63932,-3.639319 -2.00164,0 -3.63941,1.63768 -3.63941,3.639319 0,2.001639 1.63777,3.63941 3.63941,3.63941 2.00164,0 3.63932,-1.637771 3.63932,-3.63941 z"
       id="path7249" />
  </g>
</svg>
