<?xml version="1.0" encoding="UTF-8" standalone="no"?>
<!-- Created with Inkscape (http://www.inkscape.org/) -->

<svg
   width="210mm"
   height="210mm"
   viewBox="0 0 210 210"
   version="1.1"
   id="svg5"
   inkscape:version="1.2.2 (732a01da63, 2022-12-09)"
   sodipodi:docname="44-Kojo_baiden.svg"
   xmlns:inkscape="http://www.inkscape.org/namespaces/inkscape"
   xmlns:sodipodi="http://sodipodi.sourceforge.net/DTD/sodipodi-0.dtd"
   xmlns="http://www.w3.org/2000/svg"
   xmlns:svg="http://www.w3.org/2000/svg">
  <sodipodi:namedview
     id="namedview7"
     pagecolor="#ffffff"
     bordercolor="#666666"
     borderopacity="1.0"
     inkscape:showpageshadow="2"
     inkscape:pageopacity="0.0"
     inkscape:pagecheckerboard="0"
     inkscape:deskcolor="#d1d1d1"
     inkscape:document-units="mm"
     showgrid="false"
     inkscape:zoom="0.52097718"
     inkscape:cx="336.86696"
     inkscape:cy="380.05503"
     inkscape:window-width="1920"
     inkscape:window-height="1002"
     inkscape:window-x="-8"
     inkscape:window-y="-8"
     inkscape:window-maximized="1"
     inkscape:current-layer="layer1" />
  <defs
     id="defs2" />
  <g
     inkscape:label="Camada 1"
     inkscape:groupmode="layer"
     id="layer1">
    <path
       style="display:inline;fill:#000000;stroke-width:1.82582"
       d="m 99.9453,168.27744 c -1.323491,-1.32349 -2.190982,-7.73944 -2.190982,-16.20415 v -14.01318 l -5.812898,-1.16256 c -6.926677,-1.38532 -8.111946,0.069 -9.744728,11.93833 -1.35061,9.82063 -4.883784,14.16927 -8.842595,10.88376 -1.777144,-1.47489 -2.10976,-4.02278 -1.161461,-8.89621 4.130845,-21.22899 4.323307,-19.26091 -2.319474,-23.71823 -3.367349,-2.25943 -6.620836,-4.10807 -7.229963,-4.10807 -0.609334,0 -2.861043,5.26926 -5.004133,11.70937 -3.921547,11.7841 -6.610554,14.74382 -10.955668,12.0584 -1.874721,-1.15863 -1.538655,-4.14561 1.6461,-14.63072 2.200988,-7.24618 3.612739,-13.56394 3.13721,-14.0394 -1.030969,-1.03103 -19.017374,20.50932 -27.287416,32.67924 -3.21643,4.73314 -6.875059,9.02084 -8.13037,9.52825 -3.096427,1.25158 -7.266607,-0.5217 -8.4443545,-3.591 -1.3411569,-3.49502 11.1090705,-21.59542 25.6778915,-37.33116 8.580504,-9.26768 11.688454,-13.84268 10.48897,-15.43986 C 42.833895,102.6919 36.62524,94.46815 29.974318,85.665234 13.45197,63.796753 3.9759568,46.571213 6.6773854,43.316139 10.87434,38.259216 15.529297,40.661912 22.21079,51.333752 c 3.615085,5.774117 8.610248,13.676287 11.100445,17.560294 l 4.527498,7.061861 7.591493,-7.195114 c 9.832505,-9.319098 14.942219,-12.37826 26.318693,-15.756719 31.964321,-9.492368 71.266871,-3.135416 88.758361,14.356147 9.4404,9.440336 8.93776,9.716572 21.68382,-11.918396 6.50449,-11.040477 8.92278,-13.693669 12.48183,-13.693669 7.37101,0 6.49317,6.746291 -2.88934,22.200344 -4.66061,7.676786 -13.23628,20.213824 -19.05698,27.860178 l -10.58303,13.902512 12.99435,13.77713 c 18.21696,19.31431 28.01593,33.85877 25.50144,37.85174 -3.75738,5.96672 -7.53077,4.40274 -15.42092,-6.39173 -9.6054,-13.14085 -28.92897,-35.25445 -30.80665,-35.25445 -0.76571,0 0.11869,4.58229 1.96698,10.18286 5.04892,15.30437 5.15043,19.83131 0.45959,20.50013 -3.31829,0.47339 -4.39238,-1.03883 -7.13315,-10.04201 -1.77466,-5.82939 -3.82473,-11.28483 -4.55572,-12.12306 -0.73093,-0.83823 -4.33966,0.39403 -8.0192,2.73869 -6.09059,3.88069 -6.60055,4.83569 -5.688,10.65321 2.81999,17.97985 3.12217,23.33847 1.3767,24.4172 -4.38693,2.71129 -7.23935,-1.29444 -9.15534,-12.85731 -1.09183,-6.58888 -2.30719,-12.30179 -2.7008,-12.69541 -0.39335,-0.39334 -3.31173,-0.19667 -6.48476,0.4382 l -5.76901,1.1538 v 12.6725 c 0,16.58135 -3.24037,23.06831 -8.763928,17.54476 z m 20.85539,-45.38851 c 4.27176,-2.06794 11.28214,-6.87941 15.57846,-10.69213 l 7.81156,-6.93223 -9.98101,-5.723142 c -12.02631,-6.895968 -12.71977,-6.969116 -12.71977,-1.342192 0,6.884954 -1.84228,10.106094 -7.43381,12.997644 -12.59756,6.51443 -27.25671,0.5148 -27.25671,-11.15501 0,-3.441809 -0.616235,-6.25013 -1.369381,-6.240745 -2.50945,0.0345 -20.540436,10.988745 -20.540436,12.482275 0,2.62437 8.089381,9.15999 18.310259,14.79326 12.422348,6.84663 25.862968,7.4944 37.600838,1.81227 z M 60.956109,94.018153 C 74.495133,84.470994 85.80122,80.384589 100.99345,79.547461 c 17.06634,-0.9405 25.74594,1.478896 41.76432,11.641669 l 9.40011,5.963818 4.08813,-4.351738 c 3.67885,-3.915888 3.85689,-4.910698 1.77639,-9.933394 C 155.12989,75.884968 144.36033,67.224552 133.97908,63.53349 122.56617,59.475509 98.363653,58.143254 84.643001,60.817632 69.590094,63.75176 56.352839,71.057355 50.750688,79.522826 l -4.49058,6.785694 3.96164,5.563575 c 4.668619,6.556522 4.521496,6.527124 10.734361,2.146058 z"
       id="path7257" />
  </g>
</svg>
