<?xml version="1.0" encoding="UTF-8" standalone="no"?>
<!-- Created with Inkscape (http://www.inkscape.org/) -->

<svg
   width="210mm"
   height="210mm"
   viewBox="0 0 210 210"
   version="1.1"
   id="svg5"
   inkscape:version="1.2.2 (732a01da63, 2022-12-09)"
   sodipodi:docname="45-Kontire_ne_akwamu.svg"
   xmlns:inkscape="http://www.inkscape.org/namespaces/inkscape"
   xmlns:sodipodi="http://sodipodi.sourceforge.net/DTD/sodipodi-0.dtd"
   xmlns="http://www.w3.org/2000/svg"
   xmlns:svg="http://www.w3.org/2000/svg">
  <sodipodi:namedview
     id="namedview7"
     pagecolor="#ffffff"
     bordercolor="#666666"
     borderopacity="1.0"
     inkscape:showpageshadow="2"
     inkscape:pageopacity="0.0"
     inkscape:pagecheckerboard="0"
     inkscape:deskcolor="#d1d1d1"
     inkscape:document-units="mm"
     showgrid="false"
     inkscape:zoom="0.52097718"
     inkscape:cx="653.57948"
     inkscape:cy="380.05503"
     inkscape:window-width="1920"
     inkscape:window-height="1002"
     inkscape:window-x="-8"
     inkscape:window-y="-8"
     inkscape:window-maximized="1"
     inkscape:current-layer="layer1" />
  <defs
     id="defs2" />
  <g
     inkscape:label="Camada 1"
     inkscape:groupmode="layer"
     id="layer1">
    <path
       style="display:inline;fill:#000000;stroke-width:2.598"
       d="M 20.570078,105.21216 V 9.0864529 h 83.135812 83.13576 V 105.21216 201.33794 H 103.70589 20.570078 Z m 77.939773,46.76387 V 110.40816 H 63.437002 28.364058 v 39.83586 c 0,21.90974 0.779644,40.61528 1.732105,41.56795 0.952461,0.95244 16.735228,1.73199 35.072844,1.73199 h 33.340844 z m 17.537809,37.02136 c 0.63433,-1.90473 -1.15661,-3.24741 -4.33135,-3.24741 -3.19114,0 -5.41245,1.67742 -5.41245,4.08743 0,4.77479 8.10684,4.07595 9.7438,-0.83952 z m 12.22824,2.12812 c 1.92123,-3.10885 -2.96589,-6.18904 -6.42636,-4.05042 -2.9056,1.79573 -0.99812,6.46887 2.64038,6.46887 1.26019,0 2.96403,-1.08834 3.78598,-2.41845 z m 11.80199,-1.47858 c 0,-2.14333 -1.75371,-3.89695 -3.89705,-3.89695 -2.14332,0 -3.89693,1.75362 -3.89693,3.89695 0,2.14334 1.75361,3.89703 3.89693,3.89703 2.14334,0 3.89705,-1.75369 3.89705,-3.89703 z m 12.98989,0 c 0,-2.14333 -1.75361,-3.89695 -3.89693,-3.89695 -2.14334,0 -3.89705,1.75362 -3.89705,3.89695 0,2.14334 1.75371,3.89703 3.89705,3.89703 2.14332,0 3.89693,-1.75369 3.89693,-3.89703 z m 12.98999,0 c 0,-2.14333 -1.7537,-3.89695 -3.89704,-3.89695 -2.14332,0 -3.89693,1.75362 -3.89693,3.89695 0,2.14334 1.75361,3.89703 3.89693,3.89703 2.14334,0 3.89704,-1.75369 3.89704,-3.89703 z m 12.39446,-0.81204 c 0.56559,-1.69686 -0.82283,-3.0851 -3.08508,-3.0851 -2.26234,0 -4.11346,1.85102 -4.11346,4.11345 0,4.58792 5.59301,3.78893 7.19854,-1.02835 z m -62.35184,-10.39194 c 0.57443,-1.72337 -1.36055,-3.08519 -4.38408,-3.08519 -5.39684,0 -7.01436,2.72806 -3.62633,6.11618 2.40708,2.40697 6.74491,0.76589 8.01041,-3.03099 z m 12.17551,2.29032 c 1.92123,-3.10876 -2.96589,-6.18903 -6.42636,-4.05031 -2.9056,1.79573 -0.99812,6.46878 2.64038,6.46878 1.26019,0 2.96403,-1.08826 3.78598,-2.41847 z m 24.79188,-1.47848 c 0,-2.14333 -1.75361,-3.89703 -3.89693,-3.89703 -2.14334,0 -3.89705,1.7537 -3.89705,3.89703 0,2.14334 1.75371,3.89695 3.89705,3.89695 2.14332,0 3.89693,-1.75361 3.89693,-3.89695 z m 23.77166,0 c 0,-1.35749 -1.25667,-2.88703 -2.79287,-3.399 -1.53592,-0.51159 -2.79288,1.01747 -2.79288,3.399 0,2.38146 1.25696,3.91108 2.79288,3.39901 1.5362,-0.51158 2.79287,-2.0416 2.79287,-3.39901 z m -36.76155,-1.29898 c 0,-1.42898 -1.75371,-2.59805 -3.89705,-2.59805 -2.14332,0 -3.89693,1.16907 -3.89693,2.59805 0,1.42889 1.75361,2.59796 3.89693,2.59796 2.14334,0 3.89705,-1.16907 3.89705,-2.59796 z m 25.97988,0 c 0,-1.42898 -1.7537,-2.59805 -3.89704,-2.59805 -2.14332,0 -3.89693,1.16907 -3.89693,2.59805 0,1.42889 1.75361,2.59796 3.89693,2.59796 2.14334,0 3.89704,-1.16907 3.89704,-2.59796 z m -12.98999,-9.09305 c 0,-2.14332 -1.75361,-3.89694 -3.89693,-3.89694 -4.0571,0 -5.15449,3.07262 -2.16493,6.06197 2.98925,2.98936 6.06186,1.89197 6.06186,-2.16503 z m -36.37185,-1.29898 c 0,-1.42888 -2.33825,-2.59796 -5.19604,-2.59796 -2.85777,0 -5.19603,1.16908 -5.19603,2.59796 0,1.42888 2.33826,2.59805 5.19603,2.59805 2.85779,0 5.19604,-1.16917 5.19604,-2.59805 z m 12.98992,0 c 0,-1.42888 -2.33814,-2.59796 -5.19593,-2.59796 -2.85788,0 -5.19602,1.16908 -5.19602,2.59796 0,1.42888 2.33814,2.59805 5.19602,2.59805 2.85779,0 5.19593,-1.16917 5.19593,-2.59805 z m 10.39204,0 c 0,-1.42888 -1.75371,-2.59796 -3.89705,-2.59796 -2.14332,0 -3.89693,1.16908 -3.89693,2.59796 0,1.42888 1.75361,2.59805 3.89693,2.59805 2.14334,0 3.89705,-1.16917 3.89705,-2.59805 z m 25.97988,0 c 0,-1.42888 -1.7537,-2.59796 -3.89704,-2.59796 -2.14332,0 -3.89693,1.16908 -3.89693,2.59796 0,1.42888 1.75361,2.59805 3.89693,2.59805 2.14334,0 3.89704,-1.16917 3.89704,-2.59805 z m 12.9899,0 c 0,-1.42888 -1.75361,-2.59796 -3.89694,-2.59796 -2.14333,0 -3.89704,1.16908 -3.89704,2.59796 0,1.42888 1.75371,2.59805 3.89704,2.59805 2.14333,0 3.89694,-1.16917 3.89694,-2.59805 z m -25.97989,-9.09296 c 0,-2.14332 -1.75361,-3.89693 -3.89693,-3.89693 -6.7613,0 -4.57014,5.12011 3.24749,7.58885 0.35742,0.11292 0.64905,-1.54859 0.64905,-3.69192 z m -36.37185,-1.29898 c 0,-1.42888 -2.33825,-2.59795 -5.19604,-2.59795 -2.85777,0 -5.19603,1.16907 -5.19603,2.59795 0,1.42889 2.33826,2.59796 5.19603,2.59796 2.85779,0 5.19604,-1.16907 5.19604,-2.59796 z m 12.98992,0 c 0,-1.42888 -2.33814,-2.59795 -5.19593,-2.59795 -2.85788,0 -5.19602,1.16907 -5.19602,2.59795 0,1.42889 2.33814,2.59796 5.19602,2.59796 2.85779,0 5.19593,-1.16907 5.19593,-2.59796 z m 10.39204,0 c 0,-1.42888 -1.75371,-2.59795 -3.89705,-2.59795 -2.14332,0 -3.89693,1.16907 -3.89693,2.59795 0,1.42889 1.75361,2.59796 3.89693,2.59796 2.14334,0 3.89705,-1.16907 3.89705,-2.59796 z m 25.97988,0 c 0,-1.42888 -1.7537,-2.59795 -3.89704,-2.59795 -2.14332,0 -3.89693,1.16907 -3.89693,2.59795 0,1.42889 1.75361,2.59796 3.89693,2.59796 2.14334,0 3.89704,-1.16907 3.89704,-2.59796 z m 12.9899,0 c 0,-1.42888 -1.75361,-2.59795 -3.89694,-2.59795 -2.14333,0 -3.89704,1.16907 -3.89704,2.59795 0,1.42889 1.75371,2.59796 3.89704,2.59796 2.14333,0 3.89694,-1.16907 3.89694,-2.59796 z m -62.35174,-10.39193 c 0,-1.42899 -2.33825,-2.59805 -5.19604,-2.59805 -2.85777,0 -5.19603,1.16906 -5.19603,2.59805 0,1.42888 2.33826,2.59795 5.19603,2.59795 2.85779,0 5.19604,-1.16907 5.19604,-2.59795 z m 12.98992,0 c 0,-1.42899 -2.40728,-2.59805 -5.34931,-2.59805 -2.94222,0 -4.6267,1.16906 -3.74367,2.59805 0.88275,1.42888 3.29041,2.59795 5.3493,2.59795 2.05919,0 3.74368,-1.16907 3.74368,-2.59795 z m 10.39204,0 c 0,-1.42899 -1.75371,-2.59805 -3.89705,-2.59805 -2.14332,0 -3.89693,1.16906 -3.89693,2.59805 0,1.42888 1.75361,2.59795 3.89693,2.59795 2.14334,0 3.89705,-1.16907 3.89705,-2.59795 z m 12.98989,0 c 0,-1.42899 -1.75361,-2.59805 -3.89693,-2.59805 -2.14334,0 -3.89705,1.16906 -3.89705,2.59805 0,1.42888 1.75371,2.59795 3.89705,2.59795 2.14332,0 3.89693,-1.16907 3.89693,-2.59795 z m 12.98999,0 c 0,-1.42899 -1.7537,-2.59805 -3.89704,-2.59805 -2.14332,0 -3.89693,1.16906 -3.89693,2.59805 0,1.42888 1.75361,2.59795 3.89693,2.59795 2.14334,0 3.89704,-1.16907 3.89704,-2.59795 z m 12.9899,0 c 0,-1.42899 -1.75361,-2.59805 -3.89694,-2.59805 -2.14333,0 -3.89704,1.16906 -3.89704,2.59805 0,1.42888 1.75371,2.59795 3.89704,2.59795 2.14333,0 3.89694,-1.16907 3.89694,-2.59795 z m -62.35174,-10.23866 c 0,-3.5083 -4.73591,-5.94031 -7.83641,-4.0242 -1.45227,0.89747 -1.96768,2.72021 -1.14571,4.05042 1.95029,3.15549 8.98212,3.13497 8.98212,-0.0295 z m 11.57997,0.0294 c 1.92123,-3.10875 -2.96589,-6.18903 -6.42636,-4.05031 -2.9056,1.79563 -0.99812,6.46876 2.64038,6.46876 1.26019,0 2.96403,-1.08834 3.78598,-2.41845 z m 11.80199,-1.39707 c 0,-2.32411 -1.52325,-3.23091 -3.89705,-2.31998 -2.14332,0.82284 -3.89693,2.53943 -3.89693,3.81544 0,1.276 1.75361,2.31998 3.89693,2.31998 2.14334,0 3.89705,-1.71689 3.89705,-3.81544 z m 12.98989,-0.29753 c 0,-2.26244 -1.38833,-3.65068 -3.08509,-3.08509 -4.81719,1.60573 -5.61638,7.19853 -1.02826,7.19853 2.26233,0 4.11335,-1.851 4.11335,-4.11344 z m 12.98999,1.51549 c 0,-1.42888 -1.7537,-2.59795 -3.89704,-2.59795 -2.14332,0 -3.89693,1.16907 -3.89693,2.59795 0,1.4289 1.75361,2.59795 3.89693,2.59795 2.14334,0 3.89704,-1.16905 3.89704,-2.59795 z m 12.9899,0 c 0,-1.42888 -1.75361,-2.59795 -3.89694,-2.59795 -2.14333,0 -3.89704,1.16907 -3.89704,2.59795 0,1.4289 1.75371,2.59795 3.89704,2.59795 2.14333,0 3.89694,-1.16905 3.89694,-2.59795 z m -63.54399,-10.56499 c 2.39118,-3.86886 -0.38099,-5.97233 -5.35549,-4.06348 -2.29534,0.88079 -3.44606,2.77893 -2.55673,4.21793 2.10593,3.40736 5.75483,3.33617 7.91222,-0.15416 z m 12.77222,0.3525 c 1.92123,-3.10875 -2.96589,-6.18902 -6.42636,-4.05031 -2.9056,1.79564 -0.99812,6.46879 2.64038,6.46879 1.26019,0 2.96403,-1.08837 3.78598,-2.41848 z m 11.80199,-1.69508 c 0,-2.26235 -1.38844,-3.65067 -3.08519,-3.08508 -4.8172,1.60572 -5.61628,7.19864 -1.02827,7.19864 2.26235,0 4.11346,-1.85112 4.11346,-4.11356 z M 153.06778,124.7 c 0,-2.14334 -1.75361,-3.89695 -3.89693,-3.89695 -2.14334,0 -3.89705,1.75361 -3.89705,3.89695 0,2.14343 1.75371,3.89703 3.89705,3.89703 2.14332,0 3.89693,-1.7536 3.89693,-3.89703 z m 12.98999,0 c 0,-2.14334 -1.7537,-3.89695 -3.89704,-3.89695 -2.14332,0 -3.89693,1.75361 -3.89693,3.89695 0,2.14343 1.75361,3.89703 3.89693,3.89703 2.14334,0 3.89704,-1.7536 3.89704,-3.89703 z m 12.39446,0.81203 c -1.60553,-4.81719 -7.19854,-5.61617 -7.19854,-1.02836 0,2.26244 1.85112,4.11355 4.11346,4.11355 2.26263,0 3.65067,-1.38833 3.08508,-3.08519 z m -61.7563,-11.20378 c 0,-2.16493 -2.30939,-3.89694 -5.19604,-3.89694 -5.1757,0 -6.75768,2.76823 -3.46391,6.06198 3.16413,3.16412 8.65995,1.79022 8.65995,-2.16504 z m 11.79767,1.12617 c 2.39127,-3.86877 -0.38099,-5.97224 -5.35549,-4.06338 -2.29533,0.88078 -3.44594,2.77893 -2.55662,4.21792 2.10592,3.40736 5.75473,3.33607 7.91211,-0.15415 z m 11.58429,-1.12617 c 0,-2.14333 -1.75371,-3.89694 -3.89705,-3.89694 -4.05698,0 -5.15437,3.07262 -2.16493,6.06198 2.98926,2.98934 6.06198,1.89195 6.06198,-2.16504 z m 12.98989,0 c 0,-2.14333 -1.75361,-3.89694 -3.89693,-3.89694 -2.14334,0 -3.89705,1.75361 -3.89705,3.89694 0,2.14343 1.75371,3.89704 3.89705,3.89704 2.14332,0 3.89693,-1.75361 3.89693,-3.89704 z m 12.98999,0 c 0,-2.14333 -1.7537,-3.89694 -3.89704,-3.89694 -2.14332,0 -3.89693,1.75361 -3.89693,3.89694 0,2.14343 1.75361,3.89704 3.89693,3.89704 2.14334,0 3.89704,-1.75361 3.89704,-3.89704 z m 12.9899,0 c 0,-2.14333 -1.75361,-3.89694 -3.89694,-3.89694 -2.14333,0 -3.89704,1.75361 -3.89704,3.89694 0,2.14343 1.75371,3.89704 3.89704,3.89704 2.14333,0 3.89694,-1.75361 3.89694,-3.89704 z M 36.158037,98.720284 c 0,-2.143327 -1.753609,-3.896933 -3.896941,-3.896933 -2.143331,0 -3.897038,1.753606 -3.897038,3.896933 0,2.143446 1.753707,3.897056 3.897038,3.897056 2.143332,0 3.896941,-1.75361 3.896941,-3.897056 z m 12.989995,0 c 0,-2.143327 -1.753707,-3.896933 -3.897038,-3.896933 -2.143332,0 -3.896941,1.753606 -3.896941,3.896933 0,2.143446 1.753609,3.897056 3.896941,3.897056 2.143331,0 3.897038,-1.75361 3.897038,-3.897056 z m 12.989994,0 c 0,-2.143327 -1.753706,-3.896933 -3.897037,-3.896933 -2.143332,0 -3.89694,1.753606 -3.89694,3.896933 0,2.143446 1.753608,3.897056 3.89694,3.897056 2.143331,0 3.897037,-1.75361 3.897037,-3.897056 z m 12.989892,0 c 0,-2.143327 -1.753607,-3.896933 -3.896939,-3.896933 -2.143332,0 -3.897038,1.753606 -3.897038,3.896933 0,2.143446 1.753706,3.897056 3.897038,3.897056 2.143332,0 3.896939,-1.75361 3.896939,-3.897056 z m 11.797751,1.126174 c 2.391167,-3.868767 -0.380984,-5.972235 -5.355482,-4.063385 -2.295333,0.880782 -3.445944,2.778937 -2.556719,4.217927 2.10592,3.40738 5.754827,3.33609 7.912201,-0.154153 z m 11.584182,-1.126174 c 0,-2.143327 -1.753608,-3.896933 -3.896939,-3.896933 -4.057091,0 -5.154483,3.07262 -2.164934,6.061969 2.989254,2.98936 6.061873,1.89197 6.061873,-2.165036 z m 79.953089,-39.693065 0.71385,-42.291129 -35.78709,0.723673 -35.78714,0.722692 -0.72172,38.855789 c -0.39768,21.37067 -0.12765,40.402603 0.59701,42.2931 1.02238,2.664236 9.07433,3.274316 35.795,2.712166 l 34.47584,-0.72565 z M 37.457015,87.029372 c 0.882745,-1.428888 -0.801245,-2.59796 -3.743662,-2.59796 -2.942023,0 -5.349295,1.169072 -5.349295,2.59796 0,1.428882 1.684579,2.597961 3.743761,2.597961 2.058886,0 4.466158,-1.169079 5.349196,-2.597961 z m 11.691017,0 c 0,-1.428888 -1.753707,-2.59796 -3.897038,-2.59796 -2.143332,0 -3.896941,1.169072 -3.896941,2.59796 0,1.428882 1.753609,2.597961 3.896941,2.597961 2.143331,0 3.897038,-1.169079 3.897038,-2.597961 z m 12.989994,0 c 0,-1.428888 -1.753706,-2.59796 -3.897037,-2.59796 -2.143332,0 -3.89694,1.169072 -3.89694,2.59796 0,1.428882 1.753608,2.597961 3.89694,2.597961 2.143331,0 3.897037,-1.169079 3.897037,-2.597961 z m 12.989892,0 c 0,-1.428888 -1.753607,-2.59796 -3.896939,-2.59796 -2.143332,0 -3.897038,1.169072 -3.897038,2.59796 0,1.428882 1.753706,2.597961 3.897038,2.597961 2.143332,0 3.896939,-1.169079 3.896939,-2.597961 z m 12.989996,0 c 0,-1.428888 -2.338242,-2.59796 -5.196018,-2.59796 -2.857776,0 -5.195919,1.169072 -5.195919,2.59796 0,1.428882 2.338143,2.597961 5.195919,2.597961 2.857776,0 5.196018,-1.169079 5.196018,-2.597961 z m 10.391937,0 c 0,-1.428888 -1.753608,-2.59796 -3.896939,-2.59796 -2.143332,0 -3.897038,1.169072 -3.897038,2.59796 0,1.428882 1.753706,2.597961 3.897038,2.597961 2.143331,0 3.896939,-1.169079 3.896939,-2.597961 z M 37.457015,76.637434 c 0.882745,-1.428888 -0.801245,-2.598058 -3.743662,-2.598058 -2.942023,0 -5.349295,1.16917 -5.349295,2.598058 0,1.428888 1.684579,2.597961 3.743761,2.597961 2.058886,0 4.466158,-1.169073 5.349196,-2.597961 z m 11.691017,0 c 0,-1.428888 -1.753707,-2.598058 -3.897038,-2.598058 -2.143332,0 -3.896941,1.16917 -3.896941,2.598058 0,1.428888 1.753609,2.597961 3.896941,2.597961 2.143331,0 3.897038,-1.169073 3.897038,-2.597961 z m 12.989994,0 c 0,-1.428888 -1.753706,-2.598058 -3.897037,-2.598058 -2.143332,0 -3.89694,1.16917 -3.89694,2.598058 0,1.428888 1.753608,2.597961 3.89694,2.597961 2.143331,0 3.897037,-1.169073 3.897037,-2.597961 z m 12.989892,0 c 0,-1.428888 -1.753607,-2.598058 -3.896939,-2.598058 -2.143332,0 -3.897038,1.16917 -3.897038,2.598058 0,1.428888 1.753706,2.597961 3.897038,2.597961 2.143332,0 3.896939,-1.169073 3.896939,-2.597961 z m 12.989996,0 c 0,-1.428888 -2.407271,-2.598058 -5.349296,-2.598058 -2.942219,0 -4.6267,1.16917 -3.743662,2.598058 0.882745,1.428888 3.290311,2.597961 5.349198,2.597961 2.059181,0 3.74376,-1.169073 3.74376,-2.597961 z m 10.391937,0 c 0,-1.428888 -1.753608,-2.598058 -3.896939,-2.598058 -2.143332,0 -3.897038,1.16917 -3.897038,2.598058 0,1.428888 1.753706,2.597961 3.897038,2.597961 2.143331,0 3.896939,-1.169073 3.896939,-2.597961 z M 36.295209,64.946419 c -0.202275,-3.85619 -6.015919,-3.147736 -7.364289,0.897473 -0.728584,2.18526 0.459538,3.159127 3.168258,2.597961 2.383215,-0.493906 4.271639,-2.066645 4.196031,-3.495531 z m 12.852823,-0.216022 c 0,-4.587916 -5.593009,-3.788929 -7.198543,1.028364 -0.565585,1.696853 0.822848,3.085088 3.08509,3.085088 2.26234,0 4.113453,-1.851014 4.113453,-4.113452 z m 12.989994,0 c 0,-2.262438 -1.388432,-3.650773 -3.085188,-3.085089 -4.817192,1.60573 -5.616277,7.198541 -1.028263,7.198541 2.262339,0 4.113451,-1.851014 4.113451,-4.113452 z m 12.989892,1.515395 c 0,-1.428888 -1.753607,-2.59796 -3.896939,-2.59796 -2.143332,0 -3.897038,1.169072 -3.897038,2.59796 0,1.428887 1.753706,2.59796 3.897038,2.59796 2.143332,0 3.896939,-1.169073 3.896939,-2.59796 z m 12.989996,0 c 0,-1.428888 -2.407271,-2.59796 -5.349296,-2.59796 -2.942219,0 -4.6267,1.169072 -3.743662,2.59796 0.882745,1.428887 3.290311,2.59796 5.349198,2.59796 2.059181,0 3.74376,-1.169073 3.74376,-2.59796 z m 10.391937,0 c 0,-1.428888 -1.822734,-2.59796 -4.050216,-2.59796 -2.227777,0 -3.327821,1.169072 -2.444781,2.59796 0.882745,1.428887 2.705872,2.59796 4.050315,2.59796 1.344737,0 2.444682,-1.169073 2.444682,-2.59796 z M 37.346158,56.033349 c 1.921221,-3.108754 -2.965886,-6.189031 -6.42646,-4.050316 -2.905595,1.795732 -0.998121,6.468781 2.640378,6.468781 1.260292,0 2.96402,-1.08826 3.786082,-2.418465 z m 24.791868,-1.478475 c 0,-2.143331 -1.753706,-3.897038 -3.897037,-3.897038 -2.143332,0 -3.89694,1.753707 -3.89694,3.897038 0,2.143332 1.753608,3.89694 3.89694,3.89694 2.143331,0 3.897037,-1.753608 3.897037,-3.89694 z m 12.394458,-0.812046 c 0.565585,-1.696853 -0.822848,-3.085189 -3.08509,-3.085189 -2.262339,0 -4.113453,1.851114 -4.113453,4.113553 0,4.587817 5.593007,3.78883 7.198543,-1.028364 z m 11.377096,0.812046 c 0,-1.357502 -1.25666,-2.887037 -2.792773,-3.399009 -1.536014,-0.512561 -2.79287,1.017465 -2.79287,3.399009 0,2.381447 1.256856,3.91108 2.79287,3.399009 1.536113,-0.51158 2.792773,-2.041605 2.792773,-3.399009 z m 12.600271,0 c 0,-2.143331 -1.099945,-3.897038 -2.444682,-3.897038 -3.276072,0 -5.622366,4.056993 -3.546494,6.13267 2.925529,2.925822 5.991176,1.781887 5.991176,-2.235632 z m -49.361819,-1.29898 c 0,-1.428887 -1.100043,-2.598058 -2.444683,-2.598058 -1.344542,0 -3.167276,1.169171 -4.050316,2.598058 -0.882745,1.428888 0.216023,2.59796 2.444683,2.59796 2.22758,0 4.050316,-1.169072 4.050316,-2.59796 z M 37.457015,42.863859 c -0.882744,-1.428889 -3.29031,-2.59796 -5.349196,-2.59796 -2.059182,0 -3.743761,1.169071 -3.743761,2.59796 0,1.428888 2.407272,2.598058 5.349295,2.598058 2.942222,0 4.6268,-1.16917 3.743662,-2.598058 z m 11.691017,0 c 0,-1.428889 -1.753707,-2.59796 -3.897038,-2.59796 -2.143332,0 -3.896941,1.169071 -3.896941,2.59796 0,1.428888 1.753609,2.598058 3.896941,2.598058 2.143331,0 3.897038,-1.16917 3.897038,-2.598058 z m 12.989994,0 c 0,-1.428889 -1.753706,-2.59796 -3.897037,-2.59796 -2.143332,0 -3.89694,1.169071 -3.89694,2.59796 0,1.428888 1.753608,2.598058 3.89694,2.598058 2.143331,0 3.897037,-1.16917 3.897037,-2.598058 z m 12.989892,0 c 0,-1.428889 -1.753607,-2.59796 -3.896939,-2.59796 -2.143332,0 -3.897038,1.169071 -3.897038,2.59796 0,1.428888 1.753706,2.598058 3.897038,2.598058 2.143332,0 3.896939,-1.16917 3.896939,-2.598058 z m 11.691017,0 c -0.882744,-1.428889 -2.705874,-2.59796 -4.050317,-2.59796 -1.344737,0 -2.444681,1.169071 -2.444681,2.59796 0,1.428888 1.822735,2.598058 4.050217,2.598058 2.227776,0 3.327819,-1.16917 2.444781,-2.598058 z m 11.690916,0 c 0,-1.428889 -1.099945,-2.59796 -2.444682,-2.59796 -1.344443,0 -3.167177,1.169071 -4.050315,2.59796 -0.882745,1.428888 0.216022,2.598058 2.444781,2.598058 2.227482,0 4.050216,-1.16917 4.050216,-2.598058 z M 37.457015,32.471921 c -0.882744,-1.428886 -3.29031,-2.597959 -5.349196,-2.597959 -2.059182,0 -3.743761,1.169073 -3.743761,2.597959 0,1.428888 2.407272,2.597961 5.349295,2.597961 2.942222,0 4.6268,-1.169073 3.743662,-2.597961 z m 11.691017,0 c 0,-1.428886 -1.753707,-2.597959 -3.897038,-2.597959 -2.143332,0 -3.896941,1.169073 -3.896941,2.597959 0,1.428888 1.753609,2.597961 3.896941,2.597961 2.143331,0 3.897038,-1.169073 3.897038,-2.597961 z m 12.989994,0 c 0,-1.428886 -1.753706,-2.597959 -3.897037,-2.597959 -2.143332,0 -3.89694,1.169073 -3.89694,2.597959 0,1.428888 1.753608,2.597961 3.89694,2.597961 2.143331,0 3.897037,-1.169073 3.897037,-2.597961 z m 12.989892,0 c 0,-1.428886 -1.753607,-2.597959 -3.896939,-2.597959 -2.143332,0 -3.897038,1.169073 -3.897038,2.597959 0,1.428888 1.753706,2.597961 3.897038,2.597961 2.143332,0 3.896939,-1.169073 3.896939,-2.597961 z m 12.989996,0 c 0,-1.428886 -1.753706,-2.597959 -3.897037,-2.597959 -2.143333,0 -3.89694,1.169073 -3.89694,2.597959 0,1.428888 1.753607,2.597961 3.89694,2.597961 2.143331,0 3.897037,-1.169073 3.897037,-2.597961 z m 10.391937,0 c 0,-1.428886 -1.099945,-2.597959 -2.444682,-2.597959 -1.344443,0 -3.167177,1.169073 -4.050315,2.597959 -0.882745,1.428888 0.216022,2.597961 2.444781,2.597961 2.227482,0 4.050216,-1.169073 4.050216,-2.597961 z M 38.107831,21.430445 c -1.636957,-4.915877 -9.743773,-5.614806 -9.743773,-0.840523 0,2.410021 2.221297,4.08753 5.412433,4.08753 3.174738,0 4.965561,-1.342772 4.33134,-3.247498 z m 11.040201,-0.65003 c 0,-2.143331 -1.753707,-3.89694 -3.897038,-3.89694 -2.143332,0 -3.896941,1.753609 -3.896941,3.89694 0,2.143332 1.753609,3.897037 3.896941,3.897037 2.143331,0 3.897038,-1.753705 3.897038,-3.897037 z m 12.989994,0 c 0,-2.143331 -1.753706,-3.89694 -3.897037,-3.89694 -2.143332,0 -3.89694,1.753609 -3.89694,3.89694 0,2.143332 1.753608,3.897037 3.89694,3.897037 2.143331,0 3.897037,-1.753705 3.897037,-3.897037 z m 12.989892,0 c 0,-2.143331 -1.753607,-3.89694 -3.896939,-3.89694 -2.143332,0 -3.897038,1.753609 -3.897038,3.89694 0,2.143332 1.753706,3.897037 3.897038,3.897037 2.143332,0 3.896939,-1.753705 3.896939,-3.897037 z m 12.989996,0 c 0,-2.143331 -1.753706,-3.89694 -3.897037,-3.89694 -2.143333,0 -3.89694,1.753609 -3.89694,3.89694 0,2.143332 1.753607,3.897037 3.89694,3.897037 2.143331,0 3.897037,-1.753705 3.897037,-3.897037 z m 10.391937,-0.216021 c 0,-2.262439 -1.388334,-3.650676 -3.085088,-3.085091 -4.817194,1.605731 -5.616378,7.198543 -1.028265,7.198543 2.262339,0 4.113353,-1.851015 4.113353,-4.113452 z"
       id="path7261" />
  </g>
</svg>
