<?xml version="1.0" encoding="UTF-8" standalone="no"?>
<!-- Created with Inkscape (http://www.inkscape.org/) -->

<svg
   width="210mm"
   height="210mm"
   viewBox="0 0 210 210"
   version="1.1"
   id="svg5"
   inkscape:version="1.2.2 (732a01da63, 2022-12-09)"
   sodipodi:docname="46-Krado.svg"
   xmlns:inkscape="http://www.inkscape.org/namespaces/inkscape"
   xmlns:sodipodi="http://sodipodi.sourceforge.net/DTD/sodipodi-0.dtd"
   xmlns="http://www.w3.org/2000/svg"
   xmlns:svg="http://www.w3.org/2000/svg">
  <sodipodi:namedview
     id="namedview7"
     pagecolor="#ffffff"
     bordercolor="#666666"
     borderopacity="1.0"
     inkscape:showpageshadow="2"
     inkscape:pageopacity="0.0"
     inkscape:pagecheckerboard="0"
     inkscape:deskcolor="#d1d1d1"
     inkscape:document-units="mm"
     showgrid="false"
     inkscape:zoom="0.52097718"
     inkscape:cx="653.57948"
     inkscape:cy="385.81344"
     inkscape:window-width="1920"
     inkscape:window-height="1002"
     inkscape:window-x="-8"
     inkscape:window-y="-8"
     inkscape:window-maximized="1"
     inkscape:current-layer="layer1" />
  <defs
     id="defs2" />
  <g
     inkscape:label="Camada 1"
     inkscape:groupmode="layer"
     id="layer1">
    <path
       style="display:inline;fill:#000000;stroke-width:2.42183"
       d="m 75.126096,198.53746 c -23.296829,-11.62883 -39.318457,-31.0622 -47.612797,-57.75179 -2.630591,-8.46533 -4.783101,-16.36662 -4.783101,-17.5583 0,-1.19168 5.449102,-2.1667 12.109196,-2.1667 H 46.948499 V 108.95148 96.842365 H 34.510238 22.071978 l 1.44294,-10.527492 C 28.322458,51.239648 52.539295,18.05524 80.209062,8.6272531 92.990742,4.2721641 114.22116,3.68113 127.30876,7.3161222 c 13.69932,3.8048798 31.30778,17.1402628 41.17677,31.1843938 9.52676,13.556895 18.9293,37.958176 18.9293,49.124756 0,6.43904 -0.57117,6.795198 -10.8983,6.795198 h -10.8982 v 11.96998 11.96988 l 10.2928,0.74509 10.29279,0.74508 -0.40732,9.77536 c -0.98381,23.61699 -24.59542,57.07362 -48.02955,68.05576 -16.09019,7.54046 -48.366616,7.98184 -62.641229,0.85675 z m 57.972814,-14.04065 c 12.0692,-6.23319 28.09861,-22.9123 34.68795,-36.09409 6.24801,-12.49901 6.25505,-12.81105 0.28558,-12.81105 -3.17943,0 -5.9745,2.78409 -8.24106,8.20894 -4.95043,11.8482 -20.52235,28.17336 -31.75172,33.28754 -23.9427,10.90433 -54.645201,1.36898 -69.128968,-21.46954 -3.90932,-6.16417 -7.73754,-13.19202 -8.507431,-15.6173 -0.7698,-2.42528 -3.505838,-4.40964 -6.079953,-4.40964 -5.912446,0 -5.895238,0.18581 1.338042,14.45994 9.316773,18.38549 26.006323,32.95255 44.824214,39.12349 9.636176,3.16002 32.196066,0.68101 42.573166,-4.67829 z m -9.89828,-21.95751 c 3.97668,-2.29366 10.93408,-9.02277 15.46098,-14.95352 7.17763,-9.40343 7.67118,-10.89369 3.85724,-11.64637 -2.7938,-0.55104 -7.30669,2.66812 -12.4952,8.91439 -4.46703,5.37767 -11.91231,11.02861 -16.54502,12.5575 -14.651351,4.83537 -32.628282,-2.19654 -39.780462,-15.56064 -3.907855,-7.30165 -12.423524,-8.77645 -10.608865,-1.83726 2.415121,9.23518 19.792731,24.72079 31.18593,27.79038 7.120387,1.91846 20.783637,-0.56843 28.925397,-5.26448 z m -14.34546,-30.73548 c 1.44047,-9.60639 2.78629,-11.52494 11.03797,-15.73467 5.16864,-2.63682 9.39769,-6.28151 9.39769,-8.09928 0,-3.73376 -10.17902,-11.127505 -15.31929,-11.127505 -2.2661,0 -3.86986,-4.13074 -4.86456,-12.529154 -0.81649,-6.891126 -2.50776,-13.553051 -3.75912,-14.80441 -4.1462,-4.146117 -7.540355,0.83845 -7.577885,11.129052 -0.0458,12.317801 -1.537671,14.803952 -10.688277,17.801869 -14.182987,4.646718 -13.89676,15.327258 0.508013,18.942568 7.155269,1.7959 10.123424,5.11738 10.180634,11.39166 0.0641,6.84848 4.731545,16.88315 7.157925,15.38346 1.25768,-0.77712 3.02492,-6.33634 3.92726,-12.35359 z M 50.313466,69.355848 c 9.544143,-24.991582 31.512633,-41.248086 55.969964,-41.417606 23.92182,-0.165677 42.76178,13.97255 54.75857,41.093393 4.61093,10.423692 11.84183,14.819422 11.84183,7.19868 0,-8.061387 -11.3989,-27.305009 -23.20145,-39.168254 C 116.35508,3.5625937 66.29848,14.899794 43.921291,61.01565 c -7.863948,16.206251 -8.167199,18.873822 -2.145553,18.873822 3.09659,0 5.778532,-3.309132 8.537728,-10.533624 z m 19.58266,5.878395 c 0.812821,-2.560385 5.793544,-8.554479 11.068548,-13.320097 8.17919,-7.389532 11.292701,-8.664781 21.154156,-8.664781 14.43626,0 23.4409,5.500544 32.70824,19.980104 4.45303,6.957579 11.41656,9.025695 11.41656,3.390688 0,-5.503106 -13.5957,-22.405568 -22.17041,-27.562768 -11.51853,-6.927648 -20.26468,-8.459284 -30.597161,-5.358117 -13.819953,4.147857 -31.996562,22.060852 -31.996562,31.532408 0,6.046452 6.497805,6.048374 8.416629,0.0024 z"
       id="path7253" />
  </g>
</svg>
