<?xml version="1.0" encoding="UTF-8" standalone="no"?>
<!-- Created with Inkscape (http://www.inkscape.org/) -->

<svg
   width="210mm"
   height="210mm"
   viewBox="0 0 210 210"
   version="1.1"
   id="svg5"
   inkscape:version="1.2.2 (732a01da63, 2022-12-09)"
   sodipodi:docname="47-Kramo_bone.svg"
   xmlns:inkscape="http://www.inkscape.org/namespaces/inkscape"
   xmlns:sodipodi="http://sodipodi.sourceforge.net/DTD/sodipodi-0.dtd"
   xmlns="http://www.w3.org/2000/svg"
   xmlns:svg="http://www.w3.org/2000/svg">
  <sodipodi:namedview
     id="namedview7"
     pagecolor="#ffffff"
     bordercolor="#666666"
     borderopacity="1.0"
     inkscape:showpageshadow="2"
     inkscape:pageopacity="0.0"
     inkscape:pagecheckerboard="0"
     inkscape:deskcolor="#d1d1d1"
     inkscape:document-units="mm"
     showgrid="false"
     inkscape:zoom="0.52097718"
     inkscape:cx="653.57948"
     inkscape:cy="385.81344"
     inkscape:window-width="1920"
     inkscape:window-height="1002"
     inkscape:window-x="-8"
     inkscape:window-y="-8"
     inkscape:window-maximized="1"
     inkscape:current-layer="layer1" />
  <defs
     id="defs2" />
  <g
     inkscape:label="Camada 1"
     inkscape:groupmode="layer"
     id="layer1">
    <path
       style="display:inline;fill:#000000;stroke-width:2.49996"
       d="m 37.593339,199.95043 c -22.049134,-14.72972 -22.587614,-41.76038 -1.352483,-67.88142 4.557472,-5.6059 10.258139,-13.24099 12.668306,-16.96679 L 53.291644,108.328 38.966325,90.102634 C 14.629762,59.139904 10.734548,45.140281 21.03615,25.659484 35.798375,-2.2560476 70.490114,-0.57465663 92.687472,29.132249 c 4.724123,6.322483 9.265048,11.495441 10.091048,11.495441 0.82581,0 5.59616,-5.484292 10.60037,-12.187273 21.88586,-29.31544693 58.17679,-30.0501755 72.01786,-1.458024 9.71257,20.063213 5.28814,33.421743 -22.99391,69.428079 l -9.45188,12.033368 12.8261,16.71621 c 15.4155,20.09071 19.57216,29.33737 19.55997,43.51037 -0.0378,39.38707 -48.14702,49.983 -75.03463,16.52497 l -7.72164,-9.60864 -8.059027,10.64431 C 79.798661,205.6769 55.081884,211.63353 37.593339,199.95043 Z m 31.069025,-8.05404 c 10.092597,-4.21704 27.11178,-24.75061 25.023832,-30.19143 -2.236205,-5.82719 -5.21139,-4.21345 -13.883944,7.5303 -13.784855,18.66642 -30.222802,20.91142 -37.421933,5.11098 -4.076723,-8.94714 0.124723,-16.53801 28.937027,-52.28186 13.2168,-16.39647 24.030291,-30.673514 24.030291,-31.726947 0,-1.053432 -1.331401,-2.738319 -2.958922,-3.744225 -3.466612,-2.142391 -14.356955,9.76454 -40.94353,44.765172 -16.572496,21.81717 -18.596496,25.67345 -18.596496,35.43261 0,12.37426 8.6444,25.22965 18.209951,27.08121 3.047007,0.5896 6.245949,1.2254 7.109369,1.41267 0.863608,0.18708 5.585676,-1.33755 10.494355,-3.38848 z m 97.309146,-6.30416 c 12.1011,-13.28142 8.74342,-29.13299 -11.25932,-53.15756 -7.84589,-9.42325 -10.66084,-11.3452 -13.34927,-9.11399 -2.78499,2.31114 -1.43298,5.40407 7.40511,16.94127 15.99556,20.88053 17.54401,24.49767 14.07351,32.87609 -1.60816,3.88217 -6.19558,8.41385 -10.19454,10.0702 -10.42434,4.31785 -15.30024,0.32126 -41.10286,-33.69027 -17.270907,-22.76582 -22.631857,-28.31247 -25.257832,-26.13304 -4.002174,3.32149 -2.281193,7.10625 12.387341,27.24108 27.160001,37.28153 37.985341,46.23159 52.923131,43.75509 4.12491,-0.68408 10.59356,-4.63882 14.37473,-8.78887 z M 70.137396,161.25085 c 10.952993,-12.77857 12.046015,-15.98913 6.898852,-20.26107 -2.577975,-2.13946 -5.583692,0.34677 -13.565551,11.21936 -9.14055,12.45136 -11.386593,20.91652 -5.549393,20.91652 1.120707,0 6.618132,-5.3437 12.216092,-11.87481 z m 79.870874,8.53281 c 2.12878,-2.56503 0.42613,-6.48793 -7.32339,-16.87476 -10.38654,-13.92129 -15.41002,-16.69684 -16.83422,-9.30136 -0.77668,4.03458 16.25096,29.51812 19.72372,29.51812 0.91369,0 2.9084,-1.50385 4.43389,-3.342 z m -7.16635,-68.02315 c 35.34068,-44.301147 40.15062,-55.399366 30.84122,-71.158899 -7.24184,-12.259555 -22.06492,-15.844948 -35.90939,-8.68569 -4.02873,2.083337 -11.97062,10.07644 -17.64851,17.762461 -9.03435,12.229226 -9.86961,14.428877 -6.68664,17.611756 3.18298,3.182879 4.17773,2.812113 7.96542,-2.968678 10.5895,-16.161762 21.94964,-26.193511 29.66174,-26.193511 10.07436,0 16.78075,6.404121 16.78075,16.024379 0,7.795437 -4.8399,15.043985 -43.05533,64.480862 -13.39425,17.32763 -16.11801,24.49313 -9.30987,24.49313 1.28653,0 13.59881,-14.11462 27.36061,-31.36581 z m -35.83399,9.94803 c 2.08353,-5.42977 -3.20612,-10.53612 -6.99239,-6.74984 -3.199869,3.19998 -1.217451,10.66783 2.83195,10.66783 1.46124,0 3.33349,-1.76303 4.16044,-3.91799 z M 66.212418,90.002856 C 65.34314,88.596138 59.177788,80.23945 52.511656,71.432438 35.139614,48.480859 33.611197,39.000724 45.81425,29.898536 c 10.913309,-8.14003 17.666746,-3.071291 45.783518,34.362925 19.147872,25.493084 25.757502,32.673129 28.238242,30.674262 1.78127,-1.435442 2.63647,-4.179619 1.90023,-6.098172 -2.396,-6.243776 -46.776715,-63.198192 -52.213386,-67.006196 -12.017575,-8.417442 -31.592197,-2.943828 -38.03638,10.635896 -6.097888,12.850382 -2.961686,22.931735 14.231021,45.748388 12.204092,16.195778 15.816791,19.539095 18.609724,17.221147 1.906175,-1.582085 2.754665,-4.027307 1.885199,-5.43393 z M 71.620553,58.156675 C 59.259047,42.091951 54.145331,38.330719 50.127946,42.348199 c -2.461001,2.461001 7.404072,18.13266 19.790146,31.438754 5.568385,5.982048 6.91038,6.431048 9.996316,3.345113 3.08603,-3.086031 1.972788,-5.633203 -8.293855,-18.975391 z m 72.646607,4.728871 c 11.63556,-16.523835 13.53305,-22.257856 7.36609,-22.257856 -3.85922,0 -26.28186,26.764591 -26.2846,31.374503 -0.002,3.021496 5.43866,9.017906 6.87693,7.579629 0.52913,-0.529125 5.94785,-8.042425 12.04158,-16.696276 z"
       id="path7255" />
  </g>
</svg>
