<?xml version="1.0" encoding="UTF-8" standalone="no"?>
<!-- Created with Inkscape (http://www.inkscape.org/) -->

<svg
   width="210mm"
   height="210mm"
   viewBox="0 0 210 210"
   version="1.1"
   id="svg5"
   inkscape:version="1.2.2 (732a01da63, 2022-12-09)"
   sodipodi:docname="48-Krapa.svg"
   xmlns:inkscape="http://www.inkscape.org/namespaces/inkscape"
   xmlns:sodipodi="http://sodipodi.sourceforge.net/DTD/sodipodi-0.dtd"
   xmlns="http://www.w3.org/2000/svg"
   xmlns:svg="http://www.w3.org/2000/svg">
  <sodipodi:namedview
     id="namedview7"
     pagecolor="#ffffff"
     bordercolor="#666666"
     borderopacity="1.0"
     inkscape:showpageshadow="2"
     inkscape:pageopacity="0.0"
     inkscape:pagecheckerboard="0"
     inkscape:deskcolor="#d1d1d1"
     inkscape:document-units="mm"
     showgrid="false"
     inkscape:zoom="0.52097718"
     inkscape:cx="653.57948"
     inkscape:cy="385.81344"
     inkscape:window-width="1920"
     inkscape:window-height="1002"
     inkscape:window-x="-8"
     inkscape:window-y="-8"
     inkscape:window-maximized="1"
     inkscape:current-layer="layer1" />
  <defs
     id="defs2" />
  <g
     inkscape:label="Camada 1"
     inkscape:groupmode="layer"
     id="layer1">
    <path
       style="display:inline;fill:#000000;stroke-width:2.44342"
       d="m 33.028865,192.41955 c 4.141341,-3.65632 13.904764,-12.05684 21.696146,-18.66799 14.713288,-12.48433 28.194158,-30.916 28.194158,-38.54844 0,-5.54922 -0.458977,-5.52013 -12.877825,0.81545 -13.318342,6.79464 -38.727787,32.29524 -45.597701,45.76162 -2.967112,5.81555 -5.747954,10.19229 -6.179967,9.72611 -0.432198,-0.46637 -0.08311,-39.30193 0.78128,-86.3016 l 1.566718,-85.454005 13.32259,23.146595 c 14.619553,25.39984 34.193127,47.013305 45.041662,49.736151 3.829833,0.961179 7.495182,1.215603 8.145599,0.565182 C 89.5239,90.796139 79.898594,67.130103 70.78236,53.025679 65.610578,45.024109 54.756687,33.134606 46.662582,26.604632 38.5682,20.074567 31.869319,13.750532 31.77623,12.551182 c -0.09512,-1.216988 6.468191,-1.486927 14.849874,-0.611357 8.260519,0.863473 40.885408,1.569766 72.499876,1.569766 h 57.48111 l -11.42988,7.570759 c -6.28645,4.163967 -15.81752,12.685375 -21.18037,18.936544 -16.85452,19.646623 -32.58578,54.12573 -24.69521,54.12573 4.45754,0 31.49429,-21.735736 39.87791,-32.059077 4.77957,-5.885462 12.13257,-17.572996 16.34022,-25.972225 4.20755,-8.399321 8.18396,-15.271451 8.8366,-15.271451 0.65291,0 1.17626,38.209057 1.16361,84.909049 l -0.0277,84.90905 -7.02682,-12.21706 c -3.86475,-6.71948 -13.52437,-18.40193 -21.46601,-25.96115 -13.92212,-13.25185 -34.03788,-25.89604 -36.80164,-23.13237 -0.73603,0.73603 0.55872,6.30362 2.87689,12.37314 4.30434,11.27113 19.83261,28.79102 41.69443,47.04242 l 12.21707,10.1996 -75.74617,0.0554 -75.746163,0.0554 7.530216,-6.64782 z"
       id="path7259" />
  </g>
</svg>
