<?xml version="1.0" encoding="UTF-8" standalone="no"?>
<!-- Created with Inkscape (http://www.inkscape.org/) -->

<svg
   width="210mm"
   height="210mm"
   viewBox="0 0 210 210"
   version="1.1"
   id="svg5"
   inkscape:version="1.2.2 (732a01da63, 2022-12-09)"
   sodipodi:docname="49-Kuntinkantan.svg"
   xmlns:inkscape="http://www.inkscape.org/namespaces/inkscape"
   xmlns:sodipodi="http://sodipodi.sourceforge.net/DTD/sodipodi-0.dtd"
   xmlns="http://www.w3.org/2000/svg"
   xmlns:svg="http://www.w3.org/2000/svg">
  <sodipodi:namedview
     id="namedview7"
     pagecolor="#ffffff"
     bordercolor="#666666"
     borderopacity="1.0"
     inkscape:showpageshadow="2"
     inkscape:pageopacity="0.0"
     inkscape:pagecheckerboard="0"
     inkscape:deskcolor="#d1d1d1"
     inkscape:document-units="mm"
     showgrid="false"
     inkscape:zoom="0.52097718"
     inkscape:cx="653.57948"
     inkscape:cy="385.81344"
     inkscape:window-width="1920"
     inkscape:window-height="1002"
     inkscape:window-x="-8"
     inkscape:window-y="-8"
     inkscape:window-maximized="1"
     inkscape:current-layer="layer1" />
  <defs
     id="defs2" />
  <g
     inkscape:label="Camada 1"
     inkscape:groupmode="layer"
     id="layer1">
    <path
       style="display:inline;fill:#000000;stroke-width:2.65085"
       d="m 128.3118,202.10208 c -8.94495,-4.10748 -22.5322,-16.8862 -22.5322,-21.19145 0,-1.55505 -4.47339,1.44874 -9.94076,6.67514 -13.292287,12.70648 -19.252682,15.43115 -33.755764,15.43115 -14.015158,0 -23.541309,-4.25677 -33.581234,-15.00574 -6.89206,-7.37878 -15.502274,-28.27528 -15.502274,-37.62289 0,-10.80237 8.5503,-32.27797 16.045904,-40.30197 l 8.036328,-8.6029 -6.598804,-6.889355 C 3.1195441,66.02553 15.984224,16.756866 53.4409,6.6708544 68.411167,2.6398159 82.893811,7.2018606 95.662707,19.970756 l 9.895673,9.895652 8.53477,-8.805686 c 36.54375,-37.703445 93.8261,9.704189 71.4007,59.092278 -2.74811,6.052369 -8.68616,13.732022 -13.1956,17.066039 l -8.19904,6.061781 9.61993,7.92953 c 26.69438,22.00369 25.60562,67.4452 -2.05449,85.74969 -12.31825,8.15185 -31.77291,10.45942 -43.35285,5.14204 z M 82.274337,180.14688 C 88.764736,173.9287 97.428653,156.05372 94.77763,154.3509 94.267663,154.02328 88.804511,150.52344 82.636924,146.57306 71.9115,139.70324 60.714983,123.22952 60.714983,114.31884 c 0,-5.17501 -3.485905,-5.15707 -13.59426,0.0701 -9.139518,4.72626 -18.068538,21.82686 -18.157807,34.7755 -0.108205,15.73181 9.867197,32.68453 22.474086,38.19257 8.644381,3.77676 22.831765,0.45987 30.837335,-7.21016 z m 79.226253,5.61203 c 8.2346,-4.25827 12.33036,-10.22527 16.14258,-23.51756 3.51246,-12.24721 0.11322,-24.69079 -9.54288,-34.92869 -8.85999,-9.3943 -19.90702,-12.25472 -19.90702,-5.15447 0,5.82845 -17.3641,24.05388 -26.53719,27.85348 -9.21005,3.81493 -10.47455,12.0828 -3.62216,23.68308 8.88123,15.03469 27.64919,20.24376 43.46667,12.06416 z M 129.26721,125.7496 c 1.68619,-2.70012 2.04778,-4.9092 0.80352,-4.9092 -2.34885,0 -8.75159,6.69098 -12.23639,12.78723 -3.20407,5.60502 7.70871,-1.91463 11.43297,-7.87803 z m -36.755073,6.35695 c -0.03006,-3.85 -12.789035,-17.87047 -14.618201,-16.05783 -2.172917,2.15338 8.536977,18.04589 12.160944,18.04589 1.358675,0 2.46447,-0.89469 2.457257,-1.98806 z m 32.229293,-25.38551 c 2.68709,-1.11241 2.29485,-2.27611 -1.5851,-4.70361 -2.83558,-1.77406 -7.88304,-6.168487 -11.21656,-9.765303 l -6.06088,-6.539892 -7.874746,8.429874 -7.874622,8.429871 7.162272,10.11787 7.162296,10.11787 8.35844,-7.30424 c 4.59711,-4.01741 9.96508,-7.9695 11.9289,-8.78244 z M 63.005223,85.052885 C 67.481205,72.67473 77.359924,61.305486 87.169914,57.242086 97.730325,52.867797 97.679629,44.350554 87.020631,32.211051 72.220686,15.35491 48.758727,17.420223 36.692563,36.641446 c -4.29573,6.843167 -5.219681,11.913078 -4.423873,24.276105 0.90271,14.017762 2.004899,16.542246 10.710586,24.520464 5.337714,4.891569 11.272059,8.893753 13.187589,8.893753 1.91543,0 4.992561,-4.175512 6.837957,-9.278883 z M 92.097751,76.98099 c 2.80742,-6.161576 2.645914,-6.461945 -2.106391,-3.918626 -5.304452,2.83888 -13.371238,12.864778 -13.371238,16.618691 0,4.12141 12.478546,-6.117792 15.477629,-12.700065 z M 160.8729,87.543805 c 19.33734,-13.544465 18.13206,-50.358729 -1.98947,-60.763946 -12.61741,-6.524764 -22.87235,-5.104372 -33.16826,4.594106 -5.03023,4.738379 -9.88533,11.783228 -10.78914,15.655265 -1.35146,5.789975 -0.54403,7.38129 4.54591,8.962987 11.22718,3.488711 20.23174,11.698769 26.07942,23.778359 6.44271,13.308819 7.00848,13.595863 15.32154,7.773229 z m -30.07038,-4.602421 c -1.84981,-4.820534 -14.41953,-13.76839 -14.41953,-10.264651 0,3.183733 13.2448,17.246481 14.78892,15.702355 0.6823,-0.682293 0.51598,-3.12953 -0.3697,-5.437704 z"
       id="path6893" />
  </g>
</svg>
