<?xml version="1.0" encoding="UTF-8" standalone="no"?>
<!-- Created with Inkscape (http://www.inkscape.org/) -->

<svg
   width="210mm"
   height="210mm"
   viewBox="0 0 210 210"
   version="1.1"
   id="svg5"
   inkscape:version="1.2.2 (732a01da63, 2022-12-09)"
   sodipodi:docname="50-Mako.svg"
   xmlns:inkscape="http://www.inkscape.org/namespaces/inkscape"
   xmlns:sodipodi="http://sodipodi.sourceforge.net/DTD/sodipodi-0.dtd"
   xmlns="http://www.w3.org/2000/svg"
   xmlns:svg="http://www.w3.org/2000/svg">
  <sodipodi:namedview
     id="namedview7"
     pagecolor="#ffffff"
     bordercolor="#666666"
     borderopacity="1.0"
     inkscape:showpageshadow="2"
     inkscape:pageopacity="0.0"
     inkscape:pagecheckerboard="0"
     inkscape:deskcolor="#d1d1d1"
     inkscape:document-units="mm"
     showgrid="false"
     inkscape:zoom="0.52097718"
     inkscape:cx="653.57948"
     inkscape:cy="385.81344"
     inkscape:window-width="1920"
     inkscape:window-height="1002"
     inkscape:window-x="-8"
     inkscape:window-y="-8"
     inkscape:window-maximized="1"
     inkscape:current-layer="layer1" />
  <defs
     id="defs2" />
  <g
     inkscape:label="Camada 1"
     inkscape:groupmode="layer"
     id="layer1">
    <g
       id="g9640"
       style="display:inline"
       transform="matrix(10.501867,0,0,10.501867,-426.71926,-1948.6693)">
      <path
         style="fill:#000000;stroke-width:0.264583"
         d="m 49.919502,188.8741 c -0.52634,-1.37819 -0.46825,-2.21676 0.18179,-2.62424 0.60149,-0.37706 1.35631,0.0695 1.47548,0.87287 0.0876,0.59086 -0.74441,2.9324 -1.04266,2.93422 -0.0894,5.3e-4 -0.36595,-0.53174 -0.61461,-1.18285 z"
         id="path6977" />
      <path
         style="fill:#000000;stroke-width:0.264583"
         d="m 52.327672,189.9438 c -0.5389,-1.40435 0.0473,-3.32544 1.01476,-3.32544 0.4759,0 1.19063,0.73222 1.19063,1.21977 0,0.21352 -0.45665,0.87776 -1.01476,1.4761 -0.85666,0.91837 -1.04216,1.01646 -1.19063,0.62957 z"
         id="path6975" />
      <path
         style="fill:#000000;stroke-width:0.264583"
         d="m 47.575362,189.28886 c -1.08774,-1.20399 -1.23996,-1.98348 -0.46803,-2.39661 0.69529,-0.37211 0.96615,-0.34567 1.4537,0.14188 0.42958,0.42959 0.53067,1.9759 0.18636,2.85081 -0.16904,0.42955 -0.31038,0.35766 -1.17203,-0.59608 z"
         id="path6973" />
      <path
         style="fill:#000000;stroke-width:0.264583"
         d="m 54.003892,191.29659 c 0,-0.0464 0.1826,-0.69915 0.40577,-1.45066 0.44515,-1.49895 0.99326,-1.96325 1.90933,-1.61733 0.72719,0.27459 0.79929,1.3039 0.13229,1.88872 -0.71574,0.62757 -2.44739,1.46196 -2.44739,1.17927 z"
         id="path6971" />
      <path
         style="fill:#000000;stroke-width:0.264583"
         d="m 45.934102,190.94028 c -1.22955,-0.64966 -1.71979,-1.1742 -1.71979,-1.84007 0,-0.78986 0.86364,-1.28175 1.5786,-0.89911 0.3962,0.21204 1.33181,2.38665 1.33181,3.09549 0,0.17562 -0.42407,0.0487 -1.19062,-0.35631 z"
         id="path6969" />
      <path
         style="fill:#000000;stroke-width:0.264583"
         d="m 55.326812,192.71161 c 0,-0.0925 0.36748,-0.66788 0.81663,-1.27863 0.5323,-0.72381 1.02056,-1.11045 1.4023,-1.11045 1.0217,0 1.53893,0.94049 0.99177,1.80336 -0.22314,0.3519 -3.2107,0.89692 -3.2107,0.58572 z"
         id="path6967" />
      <path
         style="fill:#000000;stroke-width:0.264583"
         d="m 44.307222,192.68441 c -1.68294,-0.22346 -1.945,-0.379 -1.945,-1.15446 0,-0.76571 0.58621,-1.27498 1.33707,-1.16157 0.51411,0.0776 2.3557,2.21286 2.08231,2.41432 -0.0617,0.0454 -0.72512,0.001 -1.47438,-0.0983 z"
         id="path6965" />
      <path
         style="fill:#000000;stroke-width:0.264583"
         d="m 57.443472,195.04979 c -1.74574,-0.47527 -1.74791,-0.48074 -0.51547,-1.29835 1.6498,-1.09451 2.89672,-0.95969 2.89672,0.31319 0,0.40969 -0.95294,1.32315 -1.31564,1.26113 -0.0768,-0.0131 -0.55628,-0.13731 -1.06561,-0.27597 z"
         id="path6959" />
      <path
         style="fill:#000000;stroke-width:0.264583"
         d="m 41.836582,194.89898 c -0.94147,-0.65943 -0.51387,-1.9306 0.64943,-1.9306 0.58767,0 2.52205,1.19802 2.52205,1.56198 0,0.12099 -0.59373,0.33737 -1.3194,0.48086 -1.03499,0.20464 -1.43421,0.18045 -1.85208,-0.11224 z"
         id="path6957" />
      <path
         style="fill:#000000;stroke-width:0.264583"
         d="m 56.943092,197.22897 -1.16185,-0.77737 1.03434,-0.30989 c 1.96189,-0.5878 3.56219,0.11913 2.84881,1.25845 -0.46165,0.7373 -1.45709,0.67468 -2.7213,-0.17119 z"
         id="path6955" />
      <path
         style="fill:#000000;stroke-width:0.264583"
         d="m 41.621392,197.67797 c -0.17463,-0.17462 -0.3175,-0.508 -0.3175,-0.74083 0,-1.02351 1.42017,-1.36584 3.15597,-0.76074 l 0.85368,0.2976 -1.14493,0.7596 c -1.2258,0.81326 -2.03684,0.95475 -2.54722,0.44437 z"
         id="path6953" />
      <path
         style="fill:#000000;stroke-width:0.264583"
         d="m 49.782642,196.29024 c -0.75254,-0.90676 0.28536,-2.43964 1.24469,-1.83827 0.94412,0.59184 0.6045,2.22058 -0.46302,2.22058 -0.25541,0 -0.60716,-0.17204 -0.78167,-0.38231 z"
         id="path6951" />
      <path
         style="fill:#000000;stroke-width:0.264583"
         d="m 48.004122,199.70939 c -1.34936,-0.8088 -2.14859,-2.04182 -2.36985,-3.65611 -0.21454,-1.56525 0.77447,-3.71616 2.12859,-4.62925 1.84402,-1.24344 4.35284,-1.08162 5.97677,0.3855 2.54365,2.29803 2.30645,6.03181 -0.49608,7.80913 -1.6064,1.01875 -3.63265,1.05384 -5.23943,0.0907 z m 4.51417,-1.4727 c 1.53355,-1.20629 1.88683,-3.00715 0.88234,-4.49772 -0.72774,-1.0799 -1.59627,-1.55653 -2.83632,-1.55653 -1.24006,0 -2.10859,0.47663 -2.83633,1.55653 -1.48817,2.2083 0.10793,5.05025 2.83633,5.05025 0.86856,0 1.4665,-0.16908 1.95398,-0.55253 z"
         id="path6949" />
      <path
         style="fill:#000000;stroke-width:0.264583"
         d="m 56.100622,199.51682 c -0.80446,-1.10722 -0.80801,-1.12584 -0.23158,-1.21356 0.89447,-0.13613 2.27747,0.19015 2.63572,0.62182 0.18215,0.21946 0.24861,0.67373 0.15384,1.05133 -0.13144,0.52373 -0.33398,0.66489 -0.95393,0.66489 -0.62139,0 -0.959,-0.23667 -1.60405,-1.12448 z"
         id="path6947" />
      <path
         style="fill:#000000;stroke-width:0.264583"
         d="m 42.463832,200.25988 c -0.43971,-1.14587 0.74762,-2.09597 2.43626,-1.94948 l 0.94468,0.0819 -0.81689,1.12448 c -0.65025,0.89508 -0.98018,1.12448 -1.61729,1.12448 -0.45297,0 -0.86392,-0.16556 -0.94676,-0.38142 z"
         id="path6945" />
      <path
         style="fill:#000000;stroke-width:0.264583"
         d="m 55.281412,202.74839 c -0.40902,-0.23867 -1.45502,-2.81153 -1.23321,-3.03334 0.054,-0.054 0.69123,0.22158 1.41602,0.61245 1.46331,0.78915 1.8749,1.73006 1.02777,2.3495 -0.55569,0.40633 -0.62915,0.41066 -1.21058,0.0714 z"
         id="path6941" />
      <path
         style="fill:#000000;stroke-width:0.264583"
         d="m 44.636622,202.67699 c -0.84713,-0.61944 -0.43554,-1.56035 1.02777,-2.3495 0.72479,-0.39087 1.34947,-0.67901 1.38817,-0.6403 0.23254,0.23254 -0.82504,2.84294 -1.24226,3.06623 -0.62953,0.33691 -0.60633,0.33842 -1.17368,-0.0764 z"
         id="path6939" />
      <path
         style="fill:#000000;stroke-width:0.264583"
         d="m 52.425702,203.83362 c -0.32607,-0.60926 -0.35565,-2.38928 -0.0478,-2.87464 0.27333,-0.43091 2.15513,1.55636 2.15513,2.27592 0,1.09241 -1.59988,1.54695 -2.10736,0.59872 z"
         id="path6923" />
      <path
         style="fill:#000000;stroke-width:0.264583"
         d="m 46.913062,204.02789 c -0.54538,-0.54537 -0.35286,-1.22934 0.6623,-2.353 0.86165,-0.95374 1.00299,-1.02563 1.17203,-0.59608 0.28846,0.73299 0.26515,2.17626 -0.0445,2.75481 -0.30615,0.57206 -1.30378,0.68034 -1.78985,0.19427 z"
         id="path6921" />
      <path
         style="fill:#000000;stroke-width:0.264583"
         d="m 49.823472,204.55706 c -0.45416,-0.45417 -0.39294,-1.3083 0.18657,-2.60268 l 0.50407,-1.12588 0.55427,1.08645 c 0.85499,1.67592 0.63635,2.95961 -0.50407,2.95961 -0.23284,0 -0.56621,-0.14288 -0.74084,-0.3175 z"
         id="path6919" />
    </g>
  </g>
</svg>
