<?xml version="1.0" encoding="UTF-8" standalone="no"?>
<!-- Created with Inkscape (http://www.inkscape.org/) -->

<svg
   width="210mm"
   height="210mm"
   viewBox="0 0 210 210"
   version="1.1"
   id="svg5"
   inkscape:version="1.2.2 (732a01da63, 2022-12-09)"
   sodipodi:docname="51-Me_ware_wo.svg"
   xmlns:inkscape="http://www.inkscape.org/namespaces/inkscape"
   xmlns:sodipodi="http://sodipodi.sourceforge.net/DTD/sodipodi-0.dtd"
   xmlns="http://www.w3.org/2000/svg"
   xmlns:svg="http://www.w3.org/2000/svg">
  <sodipodi:namedview
     id="namedview7"
     pagecolor="#ffffff"
     bordercolor="#666666"
     borderopacity="1.0"
     inkscape:showpageshadow="2"
     inkscape:pageopacity="0.0"
     inkscape:pagecheckerboard="0"
     inkscape:deskcolor="#d1d1d1"
     inkscape:document-units="mm"
     showgrid="false"
     inkscape:zoom="0.52097718"
     inkscape:cx="653.57948"
     inkscape:cy="385.81344"
     inkscape:window-width="1920"
     inkscape:window-height="1002"
     inkscape:window-x="-8"
     inkscape:window-y="-8"
     inkscape:window-maximized="1"
     inkscape:current-layer="layer1" />
  <defs
     id="defs2" />
  <g
     inkscape:label="Camada 1"
     inkscape:groupmode="layer"
     id="layer1">
    <path
       style="display:inline;fill:#000000;stroke-width:2.65228"
       d="M 29.294001,198.13767 C 19.903683,190.66612 10.33082,171.94994 10.33082,161.06198 c 0,-17.01565 17.356277,-40.89628 33.62541,-46.26553 9.008491,-2.97312 12.250569,-10.4534 4.53071,-10.4534 -13.815973,0 -33.206592,-19.306715 -38.445022,-38.278617 C 2.8092423,39.869879 29.72966,8.8610263 59.703095,8.8610263 c 11.79005,0 26.923325,6.3736887 36.176209,15.2364247 l 7.306256,6.998206 8.60742,-8.330644 c 16.34201,-15.816434 38.95607,-20.7866116 55.81704,-12.26761 19.91489,10.061951 28.38036,23.221128 28.38036,44.115904 0,19.106429 -9.76142,34.447909 -27.0772,42.555611 -14.53281,6.804632 -16.02053,11.329432 -4.55316,13.848052 10.73028,2.35683 25.60843,15.65013 30.42924,27.18807 8.34238,19.96611 3.33591,41.2772 -13.08369,55.69383 -9.37027,8.2272 -10.69118,8.57845 -32.2613,8.57845 -21.94202,0 -22.73294,-0.22254 -32.39822,-9.12507 l -9.90708,-9.12498 -9.282962,8.81582 c -8.804295,8.36142 -10.582215,8.90224 -34.479586,10.4903 -24.483295,1.62695 -25.44824,1.47418 -34.082421,-5.39572 z m 24.848983,-16.51834 c -1.4815,-10.77147 -1.023086,-13.18945 2.777048,-14.64769 2.503283,-0.96033 6.799523,-1.03301 9.5472,-0.16139 4.334533,1.37574 4.766483,3.31475 3.26313,14.64769 -1.432581,10.79894 -1.016971,13.06204 2.398528,13.06204 6.120072,0 22.440531,-16.44135 24.511664,-24.6932 7.006836,-27.91754 -22.595106,-52.11955 -49.829988,-40.7401 -14.18908,5.92861 -18.820132,14.68378 -17.322092,32.74858 1.086741,13.10424 2.459175,16.10704 10.895977,23.83873 13.40327,12.28325 15.904247,11.54615 13.758533,-4.05506 z m 88.328346,-3.67553 c -0.85107,-13.89296 -0.83503,-13.92453 7.10416,-13.92453 7.93879,0 7.95483,0.0301 7.10407,13.92453 -0.46914,7.65841 -0.11127,13.92444 0.79493,13.92444 5.4309,0 18.29245,-9.46109 22.70968,-16.7055 18.1065,-29.69576 -14.36891,-63.35535 -46.44205,-48.13567 -20.39105,9.67622 -23.44738,39.85225 -5.68512,56.1301 13.18825,12.08617 15.42438,11.27741 14.41443,-5.21337 z m -12.61445,-64.71285 c 12.97302,-5.72371 13.19496,-9.47673 0.825,-13.9499 -5.28594,-1.911445 -13.1699,-6.87661 -17.51997,-11.033712 l -7.90912,-7.558467 -8.339774,8.790962 c -4.586846,4.834949 -12.815441,10.396965 -18.285835,12.359837 -5.470293,1.96297 -9.945969,4.95734 -9.945969,6.65427 0,1.69692 5.35762,5.13137 11.905832,7.63214 6.548312,2.50078 14.574817,7.76948 17.836643,11.70816 l 5.930723,7.1612 7.5335,-8.58015 c 4.14347,-4.71907 12.22952,-10.65209 17.96917,-13.18434 z M 50.463643,73.166992 c -3.598244,-6.723337 0.253617,-11.923474 8.831661,-11.923474 10.02035,0 14.132844,4.656315 9.982358,11.302365 -3.559851,5.700252 -4.433774,18.546168 -1.259761,18.5183 3.859177,-0.03007 16.922522,-9.90507 21.211243,-16.028049 C 95.036055,66.745689 94.839077,46.615873 88.862253,37.510245 86.278474,33.57408 78.960892,28.366325 72.600737,25.937422 62.456386,22.063208 59.644052,21.964969 49.687858,25.137479 21.49515,34.120006 17.209235,76.181418 43.358277,87.255929 c 7.643173,3.237066 8.128051,3.080586 8.909651,-2.874886 0.455106,-3.463918 -0.356868,-8.51018 -1.804084,-11.21375 z m 120.916137,6.520245 c 26.12679,-23.504116 0.1233,-66.942573 -34.37193,-57.417928 -16.51693,4.560582 -26.28657,23.690168 -20.71714,40.565777 3.65739,11.081829 14.12954,22.942049 20.25723,22.942049 3.76324,0 4.20963,-1.867438 2.83809,-11.873653 -1.38226,-10.084606 -0.83703,-12.296581 3.61789,-14.680875 9.2554,-4.953337 21.95455,6.557736 13.20229,11.96698 -2.8774,1.778221 -3.64055,12.715199 -1.0669,15.288853 2.30019,2.300189 9.4651,-0.695691 16.24047,-6.791203 z"
       id="path6895" />
  </g>
</svg>
