<?xml version="1.0" encoding="UTF-8" standalone="no"?>
<!-- Created with Inkscape (http://www.inkscape.org/) -->

<svg
   width="210mm"
   height="210mm"
   viewBox="0 0 210 210"
   version="1.1"
   id="svg5"
   inkscape:version="1.2.2 (732a01da63, 2022-12-09)"
   sodipodi:docname="52-Mframadan.svg"
   xmlns:inkscape="http://www.inkscape.org/namespaces/inkscape"
   xmlns:sodipodi="http://sodipodi.sourceforge.net/DTD/sodipodi-0.dtd"
   xmlns="http://www.w3.org/2000/svg"
   xmlns:svg="http://www.w3.org/2000/svg">
  <sodipodi:namedview
     id="namedview7"
     pagecolor="#ffffff"
     bordercolor="#666666"
     borderopacity="1.0"
     inkscape:showpageshadow="2"
     inkscape:pageopacity="0.0"
     inkscape:pagecheckerboard="0"
     inkscape:deskcolor="#d1d1d1"
     inkscape:document-units="mm"
     showgrid="false"
     inkscape:zoom="0.52097718"
     inkscape:cx="653.57948"
     inkscape:cy="385.81344"
     inkscape:window-width="1920"
     inkscape:window-height="1002"
     inkscape:window-x="-8"
     inkscape:window-y="-8"
     inkscape:window-maximized="1"
     inkscape:current-layer="g9656" />
  <defs
     id="defs2" />
  <g
     inkscape:label="Camada 1"
     inkscape:groupmode="layer"
     id="layer1">
    <g
       id="g9656"
       style="display:inline"
       transform="translate(144.68706,-163.41509)">
      <g
         id="g2659"
         transform="matrix(10.274147,0,0,10.274147,-1272.6999,-1754.6996)">
        <path
           style="fill:#000000;stroke-width:0.264583"
           d="m 117.83965,202.83912 c 0.25743,-0.0671 0.61462,-0.0627 0.79375,0.01 0.17913,0.0725 -0.0315,0.12736 -0.46805,0.12197 -0.43657,-0.005 -0.58313,-0.0647 -0.3257,-0.13177 z"
           id="path6927" />
        <path
           style="fill:#000000;stroke-width:0.264583"
           d="m 112.4768,196.93706 v -7.40834 h 7.48996 7.48995 l 0.0207,7.40834 0.0207,7.40833 h -7.51063 -7.51064 v -7.40833 z m 4.48749,4.11151 c 2.4759,-2.48623 2.48931,-2.50676 1.99461,-3.05339 l -0.49804,-0.55034 -2.59515,2.58542 c -2.6167,2.60687 -3.1347,3.52138 -1.99462,3.52138 0.40636,0 1.40654,-0.80937 3.0932,-2.50307 z m 7.28647,2.23849 c -0.0899,-0.14552 -1.07923,-0.28791 -2.19843,-0.31641 l -2.0349,-0.0518 1.80789,-0.0931 c 1.54495,-0.0795 1.7615,-0.14895 1.48895,-0.47734 -0.23418,-0.28218 -1.03096,-0.39888 -2.99851,-0.4392 l -2.67958,-0.0549 2.47129,-0.0876 c 2.13185,-0.0756 2.42722,-0.14073 2.15041,-0.47426 -0.22698,-0.27349 -0.87735,-0.38663 -2.22262,-0.38663 -1.77119,0 -1.95953,0.0565 -2.74337,0.82284 -0.46289,0.45256 -0.77612,0.92881 -0.69607,1.05833 0.08,0.12953 -0.033,0.2355 -0.25133,0.2355 -0.21828,0 -0.47046,0.11906 -0.56039,0.26459 -0.10651,0.17233 1.36947,0.26458 4.23333,0.26458 2.86386,0 4.33984,-0.0923 4.23333,-0.26458 z m 2.51354,-0.2034 c 0,-0.25739 -1.16781,-1.63142 -2.59515,-3.0534 l -2.59515,-2.58542 -0.49804,0.55034 c -0.4947,0.54663 -0.48129,0.56716 1.99461,3.05339 1.68666,1.6937 2.68684,2.50307 3.0932,2.50307 0.39797,0 0.60053,-0.15785 0.60053,-0.46798 z m -11.10753,-8.39057 c -1.40356,-1.41089 -2.29329,-2.1259 -2.38943,-1.92021 -0.0842,0.18025 -0.10697,2.22084 -0.0505,4.53466 l 0.10269,4.20695 2.28674,-2.28674 2.28673,-2.28673 z m 11.10753,2.17971 v -4.56217 l -2.31123,2.31123 -2.31123,2.31124 2.23924,2.25093 c 1.23159,1.23802 2.27164,2.25094 2.31124,2.25094 0.0396,0 0.072,-2.05297 0.072,-4.56217 z m -5.49451,3.45974 c -0.16977,-0.16977 -0.73334,-0.30868 -1.25236,-0.30868 -0.51903,0 -1.08259,0.13891 -1.25236,0.30868 -0.23519,0.23519 0.063,0.30868 1.25236,0.30868 1.18937,0 1.48755,-0.0735 1.25236,-0.30868 z m -0.85549,-0.86632 c 0,-0.27927 -0.50776,-0.39659 -0.65879,-0.15223 -0.0914,0.1479 0.0194,0.2689 0.2463,0.2689 0.22687,0 0.41249,-0.0525 0.41249,-0.11667 z m 0.1323,-3.05833 -0.4958,-0.54784 -0.52916,0.52916 c -0.51789,0.51789 -0.5186,0.54085 -0.0334,1.07702 l 0.4958,0.54784 0.52916,-0.52917 c 0.51789,-0.51788 0.5186,-0.54085 0.0334,-1.07701 z m -1.57802,-0.53964 c 0.48183,-0.53242 0.45499,-0.57316 -2.00429,-3.04271 -1.68666,-1.6937 -2.68684,-2.50307 -3.0932,-2.50307 -1.10133,0 -0.64763,0.84904 1.84686,3.45617 1.34607,1.40684 2.51824,2.57395 2.60483,2.59357 0.0866,0.0196 0.37719,-0.20716 0.6458,-0.50396 z m 7.79572,-5.07779 c 0,-1.09398 -1.18301,-0.44454 -3.70655,2.03478 l -2.5474,2.50278 0.54125,0.54124 0.54124,0.54124 2.58573,-2.57603 c 1.42216,-1.41681 2.58573,-2.78662 2.58573,-3.04401 z m -6.48229,3.76535 c 0.0899,-0.14552 -0.0291,-0.26459 -0.26458,-0.26459 -0.23546,0 -0.35452,0.11907 -0.26458,0.26459 0.0899,0.14552 0.209,0.26458 0.26458,0.26458 0.0556,0 0.17465,-0.11906 0.26458,-0.26458 z m 0.92604,-0.92604 c 0.28628,-0.34495 0.13049,-0.39688 -1.19062,-0.39688 -1.32112,0 -1.4769,0.0519 -1.19063,0.39688 0.18116,0.21828 0.71694,0.39687 1.19063,0.39687 0.47369,0 1.00947,-0.17859 1.19062,-0.39687 z m 1.05834,-1.05834 c 0.28894,-0.34816 0.0129,-0.39687 -2.24896,-0.39687 -2.26185,0 -2.5379,0.0487 -2.24896,0.39687 0.2374,0.28605 0.86544,0.39688 2.24896,0.39688 1.38352,0 2.01156,-0.11083 2.24896,-0.39688 z m 1.41235,-1.45521 0.74917,-0.79375 h -4.41048 -4.41048 l 0.74917,0.79375 c 0.74421,0.7885 0.76847,0.79376 3.66131,0.79376 2.89283,0 2.9171,-0.005 3.66131,-0.79376 z"
           id="path6925" />
        <path
           style="fill:#000000;stroke-width:0.264583"
           d="m 110.48058,206.1298 c -0.0701,-0.18279 -0.0962,-4.43928 -0.0578,-9.45885 l 0.0697,-9.1265 9.45885,-0.0695 9.45886,-0.0695 v 6.88251 c 0,5.94139 -0.0543,6.88251 -0.39688,6.88251 -0.34198,0 -0.39687,-0.89705 -0.39687,-6.48591 v -6.48591 l -8.66511,0.0698 -8.6651,0.0698 v 8.59896 8.59896 l 6.35,0.13229 c 3.4925,0.0728 7.57061,0.0728 9.06247,0 2.45744,-0.11985 2.71242,-0.0888 2.71198,0.33073 -5.3e-4,0.43228 -0.62474,0.46302 -9.4015,0.46302 -7.30128,0 -9.4295,-0.0742 -9.52855,-0.33236 z"
           id="path6897" />
        <path
           style="fill:#000000;stroke-width:0.264583"
           d="m 129.33515,206.1298 c 0.0701,-0.18279 0.0962,-4.43928 0.0578,-9.45885 l -0.0697,-9.1265 -9.45885,-0.0695 -9.45886,-0.0695 v 6.88251 c 0,5.94139 0.0543,6.88251 0.39688,6.88251 0.34198,0 0.39687,-0.89705 0.39687,-6.48591 v -6.48591 l 8.66511,0.0698 8.6651,0.0698 v 8.59896 8.59896 l -6.35,0.13229 c -3.4925,0.0728 -7.57061,0.0728 -9.06247,0 -2.45744,-0.11985 -2.71242,-0.0888 -2.71198,0.33073 5.3e-4,0.43228 0.62474,0.46302 9.4015,0.46302 7.30128,0 9.4295,-0.0742 9.52855,-0.33236 z"
           id="path9650" />
      </g>
    </g>
  </g>
</svg>
