<?xml version="1.0" encoding="UTF-8" standalone="no"?>
<!-- Created with Inkscape (http://www.inkscape.org/) -->

<svg
   width="210mm"
   height="210mm"
   viewBox="0 0 210 210"
   version="1.1"
   id="svg5"
   inkscape:version="1.2.2 (732a01da63, 2022-12-09)"
   sodipodi:docname="53-MMere_dane.svg"
   xmlns:inkscape="http://www.inkscape.org/namespaces/inkscape"
   xmlns:sodipodi="http://sodipodi.sourceforge.net/DTD/sodipodi-0.dtd"
   xmlns="http://www.w3.org/2000/svg"
   xmlns:svg="http://www.w3.org/2000/svg">
  <sodipodi:namedview
     id="namedview7"
     pagecolor="#ffffff"
     bordercolor="#666666"
     borderopacity="1.0"
     inkscape:showpageshadow="2"
     inkscape:pageopacity="0.0"
     inkscape:pagecheckerboard="0"
     inkscape:deskcolor="#d1d1d1"
     inkscape:document-units="mm"
     showgrid="false"
     inkscape:zoom="0.52097718"
     inkscape:cx="653.57948"
     inkscape:cy="385.81344"
     inkscape:window-width="1920"
     inkscape:window-height="1002"
     inkscape:window-x="-8"
     inkscape:window-y="-8"
     inkscape:window-maximized="1"
     inkscape:current-layer="g9656" />
  <defs
     id="defs2" />
  <g
     inkscape:label="Camada 1"
     inkscape:groupmode="layer"
     id="layer1">
    <g
       id="g9656"
       style="display:inline"
       transform="translate(144.68706,-163.41509)">
      <g
         id="g2712"
         style="display:inline"
         transform="matrix(11.456703,0,0,11.456703,-1802.9345,-1962.5711)">
        <path
           style="fill:#000000;stroke-width:0.264583"
           d="m 153.26275,190.08835 c -0.53555,-0.33939 -0.25131,-1.20899 0.4268,-1.30572 0.71102,-0.10142 1.06006,0.57837 0.58862,1.14641 -0.37418,0.45087 -0.5194,0.47365 -1.01542,0.15931 z"
           id="path6937" />
        <path
           style="fill:#000000;stroke-width:0.264583"
           d="m 153.05374,200.77359 c -0.23747,-0.61882 0.0978,-1.19063 0.69806,-1.19063 0.67316,0 0.96601,0.66427 0.52637,1.19399 -0.42013,0.50624 -1.02952,0.50456 -1.22443,-0.003 z"
           id="path6935" />
        <path
           style="fill:#000000;stroke-width:0.264583"
           d="m 148.18602,202.77136 0.55566,-0.78036 -0.90622,-1.1872 c -1.39836,-1.83196 -1.88886,-3.38572 -1.88886,-5.98334 0,-1.91091 0.11161,-2.48758 0.74256,-3.83646 0.40841,-0.87312 1.04813,-1.90695 1.42159,-2.29739 l 0.67903,-0.70988 -0.58328,-0.94376 -0.58327,-0.94376 h 6.13927 6.13926 l -0.43288,0.59531 c -0.75773,1.04205 -0.75259,1.20983 0.0685,2.23562 1.40877,1.75996 1.97884,3.40499 1.99889,5.76803 0.0208,2.44417 -0.48425,4.0639 -1.88367,6.04174 -0.85756,1.21203 -0.88344,1.31233 -0.49254,1.90892 0.22692,0.34633 0.41258,0.6934 0.41258,0.77128 0,0.0779 -2.68702,0.1416 -5.97114,0.1416 h -5.97115 z m 8.74078,-0.70072 c 0,-0.11949 -2.5419,-3.88751 -3.09531,-4.58838 -0.0505,-0.064 -0.25829,0.11461 -0.4617,0.39687 -0.20342,0.28226 -0.9827,1.37641 -1.73174,2.43144 l -1.36189,1.91822 h 3.32532 c 1.82893,0 3.32532,-0.0712 3.32532,-0.15815 z m -5.45642,-4.00903 1.73202,-2.4474 h -2.10655 c -2.07059,0 -2.10655,-0.0113 -2.10655,-0.66146 0,-0.64758 0.0422,-0.66146 2.01269,-0.66146 1.66332,0 1.98674,-0.0676 1.86323,-0.38946 -0.35255,-0.91873 -3.16956,-4.65284 -3.44327,-4.56426 -0.1652,0.0535 -0.70672,0.88969 -1.20338,1.85827 -0.78989,1.54042 -0.90147,2.00226 -0.89062,3.68614 0.007,1.16234 0.18506,2.33831 0.44819,2.96806 0.42893,1.02657 1.71639,2.90568 1.87899,2.74249 0.0458,-0.0459 0.86263,-1.18486 1.81525,-2.53092 z m 7.83005,0.39469 c 0.65641,-1.3136 0.80137,-1.92927 0.80137,-3.40359 0,-2.0659 -0.7265,-4.32619 -1.67777,-5.21986 -0.58326,-0.54794 -0.6338,-0.55344 -1.00859,-0.10972 -0.86226,1.02085 -2.86989,4.01831 -2.86989,4.28485 0,0.17618 0.75038,0.28331 1.98438,0.28331 1.93158,0 1.98437,0.0173 1.98437,0.65076 0,0.63 -0.0668,0.65321 -2.09417,0.72761 l -2.09418,0.0769 1.73859,2.44553 c 1.97839,2.78284 1.97739,2.78276 3.23589,0.26426 z m -3.81927,-8.53063 1.47329,-2.11667 -3.09193,-0.0748 c -1.70055,-0.0412 -3.14528,-0.0215 -3.21049,0.0437 -0.18623,0.18623 2.86851,4.42992 3.12589,4.34253 0.12647,-0.0429 0.89293,-1.03056 1.70324,-2.19473 z"
           id="path6933" />
      </g>
    </g>
  </g>
</svg>
