<?xml version="1.0" encoding="UTF-8" standalone="no"?>
<!-- Created with Inkscape (http://www.inkscape.org/) -->

<svg
   width="210mm"
   height="210mm"
   viewBox="0 0 210 210"
   version="1.1"
   id="svg5"
   inkscape:version="1.2.2 (732a01da63, 2022-12-09)"
   sodipodi:docname="54-Mmomudwan.svg"
   xmlns:inkscape="http://www.inkscape.org/namespaces/inkscape"
   xmlns:sodipodi="http://sodipodi.sourceforge.net/DTD/sodipodi-0.dtd"
   xmlns="http://www.w3.org/2000/svg"
   xmlns:svg="http://www.w3.org/2000/svg">
  <sodipodi:namedview
     id="namedview7"
     pagecolor="#ffffff"
     bordercolor="#666666"
     borderopacity="1.0"
     inkscape:showpageshadow="2"
     inkscape:pageopacity="0.0"
     inkscape:pagecheckerboard="0"
     inkscape:deskcolor="#d1d1d1"
     inkscape:document-units="mm"
     showgrid="false"
     inkscape:zoom="0.52097718"
     inkscape:cx="653.57948"
     inkscape:cy="385.81344"
     inkscape:window-width="1920"
     inkscape:window-height="1002"
     inkscape:window-x="-8"
     inkscape:window-y="-8"
     inkscape:window-maximized="1"
     inkscape:current-layer="g9656" />
  <defs
     id="defs2" />
  <g
     inkscape:label="Camada 1"
     inkscape:groupmode="layer"
     id="layer1">
    <g
       id="g9656"
       style="display:inline"
       transform="translate(144.68706,-163.41509)">
      <path
         style="display:inline;fill:#000000;stroke-width:2.70834"
         d="m -116.08552,354.65295 c -14.17873,-9.19862 -22.12811,-24.63659 -22.12811,-42.97375 0,-14.09575 7.56543,-32.89191 14.88955,-36.99294 5.86051,-3.2814 5.10406,-6.44679 -4.35518,-18.22391 -6.90076,-8.59165 -8.64537,-13.57048 -9.67425,-27.60909 -1.04115,-14.20673 -0.18317,-19.20234 5.03448,-29.29627 9.04591,-17.50164 20.72276,-24.40346 41.286768,-24.40346 10.961517,0 18.736831,1.49992 22.900332,4.41763 7.167138,5.02284 13.854426,19.19374 13.854426,29.35872 0,6.50874 0.762397,6.85973 14.891899,6.85973 h 14.891898 l 0.01027,-8.80452 c 0.02047,-18.62313 16.8395443,-34.5407 36.495142,-34.5407 22.555967,0 38.642116,13.91943 44.546847,38.54651 3.150078,13.13757 3.044264,16.65887 -0.84324,28.07383 -2.444681,7.17868 -7.707876,16.45973 -11.695975,20.62465 l -7.251666,7.57257 7.10328,7.45001 c 9.307884,9.76198 12.863106,19.71665 12.863106,36.01665 0,20.10717 -6.550773,33.54403 -21.03241,43.14137 -14.87583,9.85874 -28.4863841,10.68471 -44.1672909,2.68057 -11.6519711,-5.94754 -16.0287381,-13.73277 -16.0287381,-28.51084 v -9.30542 H -40.740071 -56.98576 l -0.04093,11.51357 c -0.05116,13.09712 -0.669271,14.26407 -13.027456,24.42526 -12.501863,10.27966 -30.167274,10.27189 -46.031534,-0.0204 z m 32.488002,-21.43864 c 2.72334,-2.46587 4.951481,-5.67047 4.951481,-7.12124 0,-1.45087 5.019228,-9.99482 11.153702,-18.98681 15.659207,-22.95311 18.884501,-31.81283 16.887636,-46.3897 -1.152906,-8.41575 -4.547973,-15.63077 -10.786421,-22.9229 -5.007049,-5.85293 -12.460826,-17.16018 -16.563848,-25.12735 -8.366709,-16.24615 -14.978679,-19.13427 -25.076212,-10.9533 -5.04065,4.08383 -6.57906,8.43573 -7.46713,21.1236 -0.94251,13.46308 -0.12075,17.41012 5.21339,25.05897 3.48248,4.99346 9.987129,11.08885 14.454668,13.54539 4.467539,2.45655 8.668086,4.80886 9.334593,5.22733 0.666201,0.41877 -5.03212,6.22583 -12.66345,12.90515 -16.310751,14.27584 -21.706081,26.75618 -17.181221,39.74314 6.07014,17.42209 17.517392,23.15654 27.742812,13.89772 z m 107.701702,-1.4092 C 35.990502,319.03972 33.813734,298.49923 18.62036,280.05713 12.934218,273.15512 8.0226505,269.92072 3.0622666,269.81167 -3.6415007,269.66423 -3.7988923,269.40928 0.96961626,266.42542 11.746108,259.68088 24.669176,247.20547 28.443088,239.90362 c 7.45388,-14.42197 2.772051,-35.31395 -9.315249,-41.56794 -9.7249976,-5.03176 -14.7565024,-1.79633 -23.1220888,14.86817 -3.7318542,7.43394 -11.0848362,19.15034 -16.3401512,26.03668 -8.330585,10.91613 -9.435496,14.13363 -8.622547,25.10995 1.089153,14.70569 13.967711,45.95547 21.1531712,51.32797 2.7340869,2.04423 4.9710307,5.12545 4.9710307,6.84714 0,6.42529 8.6129293,15.17227 14.9398931,15.17227 3.580496,0 8.979179,-2.6518 11.997037,-5.89275 z"
         id="path6929" />
    </g>
  </g>
</svg>
