<?xml version="1.0" encoding="UTF-8" standalone="no"?>
<!-- Created with Inkscape (http://www.inkscape.org/) -->

<svg
   width="210mm"
   height="210mm"
   viewBox="0 0 210 210"
   version="1.1"
   id="svg5"
   inkscape:version="1.2.2 (732a01da63, 2022-12-09)"
   sodipodi:docname="55-Mmrakrado.svg"
   xmlns:inkscape="http://www.inkscape.org/namespaces/inkscape"
   xmlns:sodipodi="http://sodipodi.sourceforge.net/DTD/sodipodi-0.dtd"
   xmlns="http://www.w3.org/2000/svg"
   xmlns:svg="http://www.w3.org/2000/svg">
  <sodipodi:namedview
     id="namedview7"
     pagecolor="#ffffff"
     bordercolor="#666666"
     borderopacity="1.0"
     inkscape:showpageshadow="2"
     inkscape:pageopacity="0.0"
     inkscape:pagecheckerboard="0"
     inkscape:deskcolor="#d1d1d1"
     inkscape:document-units="mm"
     showgrid="false"
     inkscape:zoom="0.52097718"
     inkscape:cx="653.57948"
     inkscape:cy="385.81344"
     inkscape:window-width="1920"
     inkscape:window-height="1002"
     inkscape:window-x="-8"
     inkscape:window-y="-8"
     inkscape:window-maximized="1"
     inkscape:current-layer="g9656" />
  <defs
     id="defs2" />
  <g
     inkscape:label="Camada 1"
     inkscape:groupmode="layer"
     id="layer1">
    <g
       id="g9656"
       style="display:inline"
       transform="translate(144.68706,-163.41509)">
      <path
         style="display:inline;fill:#000000;stroke-width:2.69179"
         d="M -79.163139,363.88136 C -115.76556,352.18595 -124.6811,339.59099 -123.49107,301.26078 l 0.77422,-24.95106 10.76715,-1.34588 c 8.88522,-1.11066 10.8046,-2.40456 10.98092,-7.4025 0.19024,-5.39909 -1.077,-6.05652 -11.67823,-6.05652 h -11.89206 l 0.91055,-28.93681 c 1.13539,-36.05964 5.1595,-43.10667 31.642015,-55.41199 16.727023,-7.77222 19.609544,-8.24041 51.368954,-8.34276 33.1438507,-0.10682 33.9284481,0.0305 52.423358,9.27935 26.544258,13.27193 31.270562,22.06772 30.355843,56.49427 l -0.679605,25.57206 -10.767155,1.34588 c -8.524053,1.0655 -10.767257,2.46754 -10.767257,6.72961 0,4.26198 2.243204,5.66392 10.767257,6.72941 l 10.767155,1.34588 0.773203,24.81076 c 0.642979,20.65418 -0.145484,26.60978 -4.706058,35.55014 -13.846945,27.14217 -73.443591,41.03672 -116.713143,27.21084 z M 6.2124992,351.93364 C 28.181938,341.18501 32.061891,334.31693 32.061891,306.17692 V 283.03923 H 20.672307 c -10.7624747,0 -12.7558108,1.36064 -36.205529,24.71279 L -40.34927,332.4649 -65.549376,307.75202 c -23.667842,-23.21023 -25.88551,-24.71279 -36.472904,-24.71279 h -11.27289 v 23.13769 c 0,26.8101 4.16512,35.2961 21.719276,44.25152 16.540234,8.43819 28.84118,10.52645 56.803349,9.64316 21.828331,-0.68977 28.4474579,-2.00381 40.9850442,-8.13796 z M -24.465852,297.84414 -9.8448897,283.03923 H -40.035614 c -16.604939,0 -30.190724,0.72437 -30.190724,1.60908 0,1.90269 27.607005,27.88495 29.701673,27.95362 0.790498,0.0305 8.0173,-6.61505 16.058813,-14.75779 z M 3.7980715,268.23443 c 0,-5.12715 -2.0424765,-5.41903 -42.8661645,-6.12743 -43.773864,-0.75997 -51.23639,0.84341 -44.078567,9.46818 2.22947,2.68637 12.884816,3.34614 44.933566,2.7821 39.9702151,-0.703 42.0111655,-1.00109 42.0111655,-6.12285 z m -69.3643365,-39.65086 24.949629,-24.84606 24.949731,24.84606 c 23.5857412,23.48757 25.5723623,24.84586 36.339212,24.84586 h 11.389584 l -0.01017,-22.2072 c -0.01018,-28.31143 -4.386099,-36.1806 -26.00719,-46.79709 -14.414638,-7.07796 -18.139442,-7.70914 -45.315387,-7.67892 -34.746923,0.0407 -47.696647,3.32935 -62.107224,15.78219 l -10.57131,9.13519 -0.93293,25.88297 -0.93293,25.88286 h 11.64942 c 11.094655,0 12.837719,-1.18331 36.599158,-24.84586 z m 41.100413,10.04106 c -8.041513,-8.14264 -15.26801,-14.79737 -16.058813,-14.78832 -2.183993,0.0204 -29.701673,25.80656 -29.701673,27.82757 0,0.97057 13.585785,1.76565 30.190724,1.76565 h 30.1907243 z"
         id="path6901" />
    </g>
  </g>
</svg>
